<svg width="36" height="46" viewBox="0 0 36 46" fill="none" xmlns="http://www.w3.org/2000/svg">
  <path d="M0.0695102 25.7536C0.0694119 25.5614 0.0707528 25.3836 0.0685865 25.2058C0.0676691 25.1306 0.0932877 25.0504 0.0148664 24.9881C-0.00637916 24.9712 0.0013866 24.9139 0.00137844 24.875C0.00104638 23.3244 0.00135714 21.7737 0.00155557 20.223C0.00156373 20.1588 0.00015936 20.0946 0.00165388 20.0304C0.00233115 20.0013 -0.00242243 19.959 0.0140251 19.9456C0.0943228 19.8803 0.0683314 19.7938 0.0686902 19.7136C0.0700375 19.4123 0.0686857 19.1111 0.0687817 18.8099C0.068803 18.7424 0.0694808 18.6805 0.133492 18.6284C0.163198 18.6043 0.159561 18.5392 0.173846 18.4814C0.254191 18.4601 0.340784 18.4214 0.406222 18.5287C0.412615 18.5392 0.431008 18.5486 0.443448 18.5481C0.505324 18.5458 0.54702 18.573 0.595768 18.6117C0.633141 18.6414 0.713952 18.6113 0.72949 18.6916C0.83424 18.6729 0.888597 18.7748 0.983456 18.7975C1.08237 18.8212 1.19579 18.8474 1.2801 18.9232C1.29304 18.935 1.31311 18.9436 1.33037 18.9446C1.3797 18.9471 1.42431 18.9427 1.45183 19.0035C1.46106 19.024 1.54547 19.0098 1.55578 19.0307C1.59923 19.1194 1.70968 19.0901 1.76293 19.1613C1.77989 19.184 1.86181 19.1678 1.86911 19.1866C1.90983 19.2919 2.06592 19.2183 2.09244 19.337C2.09401 19.3441 2.12029 19.3523 2.13228 19.3492C2.20144 19.3315 2.2304 19.3986 2.28003 19.4148C2.33345 19.4323 2.40161 19.4119 2.41968 19.4916C2.51595 19.4836 2.56108 19.5929 2.65942 19.5923C2.7034 19.5922 2.74739 19.6342 2.79175 19.6562C2.83365 19.677 2.87626 19.6965 2.9181 19.7174C2.92637 19.7216 2.9346 19.7364 2.93951 19.7351C3.05165 19.7023 3.11253 19.8211 3.21254 19.8271C3.23491 19.8283 3.25655 19.8548 3.27702 19.8715C3.291 19.883 3.30002 19.9043 3.31531 19.9096C3.39312 19.9368 3.47226 19.9601 3.55092 19.9847L3.75892 20.1268C3.77598 20.1346 3.79247 20.1443 3.81024 20.1502C3.88796 20.1755 3.96607 20.1997 4.04404 20.2243C4.06984 20.342 4.22051 20.2714 4.2682 20.3749C4.28639 20.4143 4.39639 20.3658 4.42499 20.4482C4.53856 20.4263 4.58391 20.5876 4.70283 20.5513C4.77118 20.6359 4.91431 20.5831 4.96823 20.6951C4.97177 20.7024 4.98552 20.7122 4.99079 20.7103C5.08782 20.6759 5.13226 20.8063 5.2247 20.784C5.27609 20.8697 5.40528 20.8274 5.45313 20.9269C5.48063 20.9841 5.58859 20.9136 5.60721 21.0062C5.69198 21.0068 5.74747 21.071 5.81636 21.0993C5.87033 21.1214 5.90949 21.1517 5.95555 21.1807C5.9989 21.2082 6.07655 21.1678 6.10164 21.2463C6.20971 21.2209 6.26452 21.3253 6.34957 21.3582C6.41555 21.3839 6.4758 21.4198 6.55186 21.433C6.62456 21.4456 6.6729 21.5353 6.763 21.5166C6.80393 21.6112 6.94339 21.5494 6.97894 21.6523C7.09365 21.6176 7.132 21.7815 7.24401 21.7538C7.34921 21.8531 7.51531 21.8478 7.61039 21.9659C7.62055 21.9785 7.64317 21.9819 7.66064 21.9877C7.73851 22.0137 7.81661 22.0389 7.89463 22.0643C7.91978 22.1826 8.08399 22.1057 8.11262 22.2191C8.19751 22.2451 8.29886 22.2505 8.36332 22.302C8.45413 22.3745 8.59047 22.3456 8.65762 22.4526C8.76963 22.423 8.80977 22.5825 8.9219 22.5526C8.96636 22.6421 9.07951 22.6014 9.14501 22.6769C9.19887 22.739 9.32403 22.736 9.38724 22.7945C9.45676 22.8588 9.5794 22.8182 9.61628 22.9272C9.61925 22.936 9.64158 22.942 9.65526 22.9428C9.70987 22.9456 9.76575 22.944 9.78244 23.0138C9.86862 23.0039 9.92629 23.0714 10.0007 23.0934C10.0144 23.0974 10.0339 23.0888 10.0444 23.0957C10.0855 23.1227 10.121 23.1596 10.1644 23.1813C10.207 23.2024 10.2571 23.2078 10.3029 23.2231C10.3336 23.2334 10.3615 23.2556 10.3925 23.2606C10.4322 23.2669 10.4713 23.2625 10.4842 23.315C10.4877 23.329 10.513 23.3503 10.5239 23.348C10.5963 23.3327 10.6315 23.4007 10.6855 23.4148C10.7425 23.4297 10.8021 23.4239 10.8282 23.4913C10.9305 23.4742 10.9786 23.5573 11.0368 23.6122C11.0839 23.6567 11.1672 23.6899 11.1363 23.7832C11.2357 23.8256 11.1626 23.977 11.2793 24.0085C11.2541 24.1101 11.3486 24.1668 11.3831 24.2421C11.4177 24.3179 11.4055 24.4361 11.5147 24.4729C11.5107 24.5971 11.629 24.6486 11.6728 24.7404C11.7119 24.8221 11.752 24.8952 11.8181 24.9562C11.8335 24.9704 11.8448 24.996 11.8463 25.0171C11.8493 25.0581 11.8471 25.0954 11.9022 25.1044C11.9153 25.1065 11.9355 25.133 11.9339 25.146C11.9233 25.2324 11.9946 25.2743 12.0341 25.3311C12.0853 25.4047 12.1932 25.4371 12.1822 25.558C12.1796 25.5867 12.231 25.6227 12.2613 25.6514C12.3558 25.7407 12.4521 25.8281 12.5477 25.9163C12.5513 25.9196 12.5564 25.924 12.5565 25.9279C12.5622 26.0977 12.7255 26.1492 12.811 26.2584C12.9089 26.3832 13.0298 26.4907 13.1459 26.6004C13.1793 26.632 13.2363 26.6382 13.2721 26.6682C13.3748 26.7543 13.4734 26.8453 13.571 26.9372C13.6174 26.9806 13.6441 27.0443 13.7306 27.0318C13.7593 27.0276 13.8044 27.0724 13.8272 27.105C13.884 27.1863 13.9388 27.2645 14.0517 27.2651C14.0937 27.3555 14.2108 27.3271 14.2712 27.4079C14.3011 27.4478 14.3609 27.5275 14.4491 27.5016C14.5455 27.5985 14.6866 27.6141 14.7913 27.6828C14.8661 27.732 14.9792 27.7193 15.0225 27.8176C15.0248 27.8228 15.0408 27.8238 15.0506 27.8239C15.1856 27.8273 15.2991 27.8822 15.4047 27.9625C15.4246 27.9776 15.4627 27.9669 15.4912 27.9735C15.5413 27.985 15.6027 27.9699 15.6329 28.0325C15.6385 28.0439 15.6578 28.0592 15.6668 28.057C15.8262 28.0178 15.9552 28.1483 16.1115 28.1339C16.1916 28.1264 16.279 28.1152 16.3401 28.1984C16.3522 28.2149 16.394 28.213 16.4221 28.2141C16.516 28.2178 16.61 28.2188 16.704 28.221C16.7673 28.2225 16.8304 28.2149 16.8797 28.2755C16.8961 28.2958 16.9416 28.2989 16.9739 28.2991C17.2856 28.3007 17.5973 28.3001 17.9091 28.2993C17.9379 28.2992 17.9844 28.3022 17.993 28.287C18.048 28.1888 18.139 28.2272 18.2169 28.2218C18.2958 28.2164 18.3754 28.2213 18.4543 28.2163C18.5092 28.2127 18.5609 28.2207 18.6119 28.1655C18.6454 28.1293 18.7315 28.1408 18.7942 28.1321C18.8664 28.1222 18.9447 28.1592 19.0064 28.0753C19.0267 28.0478 19.1091 28.066 19.1632 28.063C19.2153 28.06 19.2721 28.077 19.3049 28.0106C19.3134 27.9933 19.3537 27.9906 19.38 27.9834C19.4423 27.9661 19.5222 27.9913 19.5578 27.9079C19.5615 27.8995 19.587 27.8925 19.5984 27.8964C19.7092 27.9344 19.8072 27.8634 19.8746 27.8148C19.9534 27.7579 20.0569 27.7622 20.1213 27.687C20.1373 27.6682 20.1762 27.6534 20.1993 27.659C20.2837 27.6793 20.3367 27.625 20.3904 27.5824C20.4388 27.544 20.4807 27.5091 20.5439 27.4877C20.5906 27.4719 20.624 27.4105 20.6912 27.4167C20.7038 27.4179 20.7189 27.3956 20.7323 27.3837C20.7898 27.3332 20.8417 27.2864 20.9203 27.2539C21.0561 27.1979 21.1938 27.1232 21.2901 27.0028C21.3462 26.9325 21.3942 26.8747 21.4938 26.8476C21.5727 26.8263 21.6347 26.7352 21.6995 26.6704C21.8452 26.5244 21.9867 26.3741 22.1326 26.2281C22.2456 26.115 22.3627 26.0058 22.478 25.8949C22.4849 25.8883 22.4979 25.8814 22.4976 25.8751C22.491 25.7485 22.5882 25.6884 22.6669 25.6213C22.7735 25.5307 22.8205 25.4003 22.9036 25.295C22.9403 25.2485 22.9914 25.2179 22.9866 25.1431C22.9848 25.1175 23.0405 25.0884 23.0697 25.0605C23.0899 25.041 23.1297 25.0166 23.1265 25.0019C23.1033 24.8982 23.218 24.86 23.2295 24.7734C23.2325 24.7506 23.2663 24.7334 23.2765 24.7096C23.3048 24.6429 23.3984 24.6122 23.3799 24.5181C23.3768 24.5022 23.401 24.4784 23.4164 24.4619C23.4287 24.4486 23.462 24.4366 23.4605 24.4317C23.432 24.3397 23.5288 24.3022 23.5468 24.2297C23.5632 24.1645 23.5802 24.0799 23.6273 24.0458C23.7161 23.9816 23.6687 23.8511 23.7713 23.799C23.791 23.7892 23.7724 23.6989 23.7903 23.6918C23.8978 23.6478 23.8381 23.5359 23.8788 23.4864C23.9386 23.414 23.9067 23.3043 23.9966 23.2525C24.0114 23.2439 24.0143 23.2094 24.0172 23.1863C24.0249 23.1204 24.0116 23.0501 24.09 23.0081C24.1084 22.9982 24.0943 22.939 24.1117 22.9137C24.1613 22.8412 24.1953 22.7674 24.1796 22.6777C24.2785 22.6118 24.27 22.5087 24.2727 22.4096C24.3885 22.3563 24.3242 22.2484 24.3489 22.1675C24.3848 22.0501 24.3985 21.9243 24.4446 21.8148C24.4743 21.7443 24.5084 21.6791 24.5089 21.5919C24.5704 21.5858 24.6242 21.5624 24.6685 21.6289C24.6813 21.6483 24.7176 21.6592 24.744 21.6609C24.7995 21.6645 24.8524 21.664 24.8856 21.7211C24.8938 21.735 24.9162 21.7434 24.9338 21.7488C25.0161 21.7741 25.1355 21.7725 25.1735 21.8273C25.2334 21.914 25.3591 21.8614 25.3929 21.9639C25.3963 21.9741 25.4142 21.982 25.4268 21.9861C25.5098 22.0126 25.6167 22.0145 25.6702 22.069C25.7393 22.1394 25.8247 22.1177 25.8838 22.1541C25.9535 22.1969 26.0254 22.2208 26.0981 22.2494C26.1953 22.2875 26.2621 22.3882 26.3794 22.3851C26.4209 22.4751 26.5473 22.4322 26.591 22.5196C26.5949 22.5273 26.6062 22.5369 26.6135 22.5365C26.7211 22.5303 26.7877 22.6474 26.9071 22.6247C26.98 22.6108 27.0222 22.7262 27.1104 22.7105C27.1417 22.8148 27.2746 22.7565 27.3186 22.8401C27.4283 22.8221 27.4724 22.9617 27.58 22.9483C27.6926 23.052 27.8588 23.0369 27.9743 23.118C28.0493 23.1706 28.1611 23.1545 28.2064 23.2511C28.3113 23.2251 28.3555 23.3393 28.4451 23.3545C28.4869 23.3616 28.5216 23.4102 28.5632 23.417C28.6139 23.4251 28.6574 23.4255 28.678 23.4833C28.6817 23.4937 28.7127 23.4977 28.7314 23.4987C28.8031 23.5018 28.8808 23.4858 28.9179 23.5761C28.922 23.586 28.9544 23.5826 28.9726 23.5887C29.05 23.6145 29.127 23.6416 29.2041 23.6682C29.2179 23.7878 29.3697 23.7037 29.4005 23.8003C29.4039 23.8105 29.4223 23.8226 29.4339 23.8227C29.494 23.8234 29.5395 23.839 29.5874 23.885C29.6202 23.9163 29.7039 23.8824 29.7206 23.9661C29.7226 23.9768 29.774 23.9797 29.8028 23.9828C29.8579 23.9889 29.9232 23.9632 29.952 24.0426C29.9567 24.0556 29.9951 24.0606 30.0182 24.0617C30.0596 24.0635 30.095 24.0644 30.1112 24.1147C30.1165 24.1311 30.1495 24.1501 30.1684 24.1488C30.2582 24.1424 30.3078 24.2528 30.4025 24.2259C30.4283 24.334 30.5815 24.258 30.6084 24.3671C30.6106 24.3754 30.6339 24.3799 30.6482 24.3837C30.7447 24.4091 30.8682 24.4062 30.9308 24.4666C30.9994 24.5326 31.1035 24.5185 31.1528 24.6008C31.1606 24.6138 31.184 24.6191 31.2012 24.6247C31.279 24.6509 31.3952 24.6532 31.4269 24.7061C31.4824 24.7987 31.6102 24.7448 31.6433 24.8455C31.6454 24.852 31.6608 24.8595 31.6684 24.8581C31.7833 24.8373 31.8763 24.8964 31.9624 24.9528C32.0426 25.0052 32.1536 24.9963 32.2123 25.0852C32.3163 25.0705 32.3575 25.2046 32.4614 25.1899C32.5141 25.2751 32.6468 25.2223 32.6937 25.3242C32.7001 25.3379 32.7491 25.3294 32.7772 25.3364C32.826 25.3484 32.889 25.3272 32.9151 25.3981C32.9205 25.4128 32.9553 25.4178 32.9771 25.4254C33.0554 25.4522 33.152 25.4582 33.208 25.5089C33.3008 25.593 33.4308 25.6031 33.5134 25.6742C33.5985 25.7477 33.7311 25.6991 33.7853 25.8102C33.8946 25.7867 33.9549 25.909 34.0601 25.9026C34.0772 25.9017 34.0963 25.9272 34.1136 25.9414C34.1313 25.9559 34.1498 25.9858 34.1649 25.9839C34.2317 25.9757 34.264 26.03 34.3126 26.0512C34.3628 26.0731 34.4325 26.0517 34.4559 26.1261C34.5729 26.1085 34.6305 26.2714 34.757 26.2246C34.823 26.2866 34.9333 26.2684 34.988 26.3519C34.9953 26.363 35.0106 26.3798 35.0187 26.378C35.1201 26.3562 35.1618 26.4546 35.2443 26.4865C35.2443 26.7601 35.245 27.0364 35.2432 27.3128C35.243 27.3398 35.2339 27.3839 35.2168 27.3911C35.1424 27.4221 35.1543 27.4826 35.1538 27.5402C35.1529 27.6142 35.1539 27.6883 35.1531 27.7624C35.1528 27.792 35.1619 27.835 35.1462 27.8488C35.025 27.9561 35.0915 28.0961 35.0745 28.2209C35.0665 28.28 35.0902 28.3397 35.0201 28.3903C34.9859 28.415 34.9934 28.4994 34.9858 28.5572C34.9786 28.6121 34.9956 28.666 34.9359 28.7141C34.9068 28.7377 34.9213 28.8151 34.916 28.868C34.91 28.9279 34.93 28.9877 34.8592 29.0376C34.8277 29.0598 34.842 29.1474 34.8366 29.2054C34.8294 29.2837 34.8664 29.377 34.7619 29.4221C34.7579 29.4238 34.7528 29.4305 34.7535 29.4338C34.7825 29.5596 34.6881 29.6582 34.678 29.7755C34.6715 29.8528 34.7121 29.9438 34.6114 29.9969C34.597 30.0044 34.6073 30.053 34.6003 30.0812C34.5881 30.1297 34.6086 30.1956 34.5337 30.2139C34.5261 30.2158 34.5153 30.2289 34.5161 30.2357C34.5282 30.3489 34.4776 30.4459 34.4436 30.5486C34.4238 30.6084 34.463 30.6903 34.3648 30.7149C34.3566 30.717 34.3549 30.7505 34.3525 30.7695C34.3439 30.8368 34.3826 30.9213 34.2825 30.955C34.2773 30.9568 34.2726 30.974 34.2748 30.9821C34.3088 31.1095 34.1897 31.1992 34.1921 31.3168C34.1935 31.3803 34.1374 31.4016 34.1183 31.4465C34.0994 31.4908 34.1372 31.5559 34.059 31.581C34.0427 31.5863 34.0384 31.6414 34.0361 31.674C34.0322 31.7311 34.0521 31.7972 33.9679 31.8152C33.964 31.816 33.9595 31.8217 33.9582 31.8259C33.9308 31.9136 33.8985 32.0002 33.8787 32.0895C33.8683 32.1364 33.884 32.1892 33.824 32.2143C33.8133 32.2187 33.8015 32.2357 33.8013 32.2471C33.8004 32.3089 33.7827 32.3529 33.7234 32.3891C33.6765 32.418 33.7448 32.5101 33.6662 32.5399C33.6618 32.6507 33.5397 32.7144 33.5495 32.831C33.5507 32.8455 33.5537 32.8661 33.5458 32.8743C33.4409 32.9838 33.4588 33.1625 33.3282 33.258C33.3162 33.2668 33.3147 33.2939 33.3135 33.3127C33.3109 33.3568 33.3178 33.4009 33.2561 33.4172C33.2426 33.4209 33.2439 33.4701 33.2327 33.4958C33.2206 33.5236 33.2023 33.5489 33.1855 33.5743C33.1732 33.5927 33.1532 33.6077 33.1463 33.6276C33.1189 33.705 33.1184 33.8128 33.0648 33.8549C32.9912 33.9127 33.0295 34.0313 32.9267 34.0585C32.9164 34.0612 32.9095 34.0914 32.908 34.1094C32.9044 34.153 32.8795 34.1831 32.8602 34.2187C32.8274 34.2791 32.7375 34.2937 32.7441 34.3873C32.7486 34.4506 32.6339 34.4827 32.6675 34.5704C32.5705 34.6059 32.6446 34.7529 32.5313 34.7797C32.5226 34.7817 32.5114 34.8048 32.5133 34.8159C32.5266 34.8917 32.475 34.9409 32.4286 34.975C32.3276 35.0492 32.3175 35.1642 32.2737 35.2643C32.2645 35.2852 32.2578 35.3077 32.2462 35.3273C32.2098 35.3889 32.1185 35.397 32.1029 35.4847C32.0914 35.55 32.0644 35.6151 32.0318 35.6734C32.0048 35.7214 31.9587 35.7586 31.9225 35.8018C31.9029 35.8252 31.8669 35.8555 31.8714 35.8751C31.8886 35.9499 31.8305 35.9881 31.7924 36.0145C31.735 36.0541 31.6972 36.089 31.7075 36.1618C31.7093 36.1745 31.7022 36.1981 31.6933 36.2015C31.5556 36.2538 31.5607 36.4125 31.4698 36.4983C31.3811 36.5818 31.3642 36.7198 31.2498 36.783C31.2357 36.8959 31.1786 36.9782 31.075 37.0276C31.0719 37.1009 31.0529 37.1675 30.9948 37.2179C30.9647 37.244 30.9383 37.275 30.9059 37.2975C30.8173 37.3589 30.8237 37.48 30.7417 37.5474C30.6818 37.5967 30.6074 37.6356 30.5805 37.7174C30.4681 37.7189 30.5176 37.8359 30.4583 37.8872C30.3219 38.0051 30.2133 38.1543 30.0813 38.278C29.9614 38.3902 29.8637 38.5254 29.726 38.6189C29.7154 38.6261 29.7027 38.6416 29.7035 38.6523C29.7112 38.7545 29.6289 38.7965 29.5708 38.8544C29.4646 38.9602 29.3571 39.0646 29.2528 39.172C29.2148 39.2109 29.1847 39.2556 29.1194 39.2463C29.1051 39.2442 29.0847 39.2592 29.0726 39.2717C28.9647 39.3832 28.8594 39.4974 28.7505 39.608C28.6308 39.7297 28.5119 39.8526 28.3843 39.9657C28.3464 39.9993 28.3181 40.0545 28.2418 40.0515C28.2003 40.0498 28.1535 40.1116 28.114 40.1497C28.0539 40.2081 27.9981 40.2707 27.9404 40.3316C27.9338 40.3386 27.9281 40.35 27.9202 40.3519C27.7534 40.39 27.6677 40.5303 27.5567 40.6388C27.5431 40.6521 27.5293 40.6797 27.5178 40.6786C27.3646 40.6633 27.3401 40.8328 27.2292 40.8774C27.2187 40.8815 27.2144 40.9114 27.2072 40.9114C27.0467 40.9109 26.9953 41.0592 26.8937 41.1383C26.8824 41.147 26.8708 41.1603 26.8582 41.1615C26.7614 41.1716 26.7134 41.2489 26.6466 41.3031C26.591 41.348 26.5492 41.4298 26.4541 41.4133C26.4455 41.4118 26.4346 41.4445 26.4201 41.4545C26.3562 41.4985 26.3249 41.5925 26.2225 41.5803C26.2099 41.5787 26.1962 41.6196 26.1774 41.6282C26.1148 41.6569 26.0847 41.7327 25.9954 41.7305C25.9537 41.7296 25.91 41.7933 25.8683 41.829C25.8511 41.8436 25.8363 41.8762 25.8213 41.8758C25.755 41.8738 25.7263 41.9155 25.6822 41.9548C25.6364 41.9958 25.5997 42.0819 25.5055 42.0535C25.4919 42.0493 25.4685 42.0908 25.4451 42.103C25.3825 42.1359 25.3645 42.2433 25.2611 42.2119C25.2507 42.2088 25.23 42.2419 25.2131 42.2571C25.1606 42.3038 25.105 42.343 25.0419 42.3778C24.9373 42.4354 24.8106 42.4529 24.7325 42.5679C24.6939 42.6248 24.6021 42.6654 24.5295 42.6745C24.4561 42.6835 24.4256 42.722 24.3814 42.765C24.3423 42.8029 24.2766 42.8136 24.2375 42.8514C24.1655 42.9211 24.0608 42.9169 23.9844 42.9961C23.9078 43.0755 23.7977 43.1485 23.6704 43.1594C23.6321 43.256 23.5056 43.2173 23.455 43.299C23.4454 43.3145 23.4125 43.3205 23.3898 43.322C23.3492 43.3247 23.3257 43.3584 23.2996 43.3704C23.1917 43.4201 23.1037 43.4958 23.0043 43.5543C22.9627 43.5786 22.9151 43.5757 22.8825 43.6314C22.8633 43.6644 22.7919 43.6674 22.7436 43.6828C22.6951 43.6984 22.6367 43.7008 22.6001 43.7306C22.5621 43.7617 22.5525 43.8138 22.4801 43.8118C22.4098 43.8099 22.3705 43.9125 22.2844 43.897C22.2536 44.0003 22.0899 43.9086 22.0768 44.038C21.9756 44.0089 21.9336 44.1416 21.8346 44.1267C21.8164 44.1239 21.7922 44.1544 21.7725 44.1715C21.7621 44.1807 21.7568 44.2025 21.7466 44.2042C21.6267 44.2256 21.5319 44.3004 21.4255 44.3472C21.3165 44.3951 21.2201 44.4805 21.1118 44.502C20.9947 44.5253 20.9172 44.6572 20.7827 44.61C20.7351 44.688 20.6419 44.692 20.5714 44.7197C20.4805 44.7552 20.4151 44.8384 20.3118 44.8467C20.2889 44.8485 20.2675 44.8744 20.2463 44.8905C20.2349 44.8991 20.2219 44.9209 20.2158 44.9189C20.0916 44.8764 20.0077 44.9765 19.9193 45.0214C19.8411 45.0612 19.7289 45.049 19.6802 45.1462C19.677 45.1528 19.6633 45.1562 19.6539 45.1575C19.5681 45.1692 19.4705 45.1359 19.4125 45.2438C19.3977 45.2713 19.3127 45.2268 19.2925 45.2961C19.197 45.3032 19.1315 45.381 19.0422 45.4024C18.9801 45.4173 18.8992 45.3852 18.8672 45.4755C18.8646 45.4828 18.8382 45.4884 18.8261 45.4847C18.7121 45.4485 18.6404 45.5783 18.5311 45.5583C18.489 45.6714 18.3766 45.6156 18.3094 45.653C18.2436 45.6895 18.1674 45.7041 18.1127 45.7424C18.048 45.7875 17.9855 45.8025 17.9148 45.8155C17.8899 45.8201 17.8696 45.8523 17.8452 45.8555C17.7751 45.8647 17.674 45.8957 17.6401 45.8623C17.5923 45.8152 17.5504 45.821 17.5008 45.8115C17.4453 45.801 17.3953 45.7853 17.3542 45.7331C17.3254 45.6964 17.2337 45.7548 17.2107 45.6669C17.2074 45.6546 17.1684 45.6504 17.1452 45.645C17.1216 45.6396 17.0792 45.6428 17.0759 45.6325C17.0414 45.5234 16.9466 45.576 16.8809 45.5514C16.8094 45.5247 16.7303 45.4991 16.6718 45.4591C16.63 45.4303 16.5973 45.4112 16.5488 45.4054C16.5286 45.4029 16.5096 45.3825 16.492 45.3678C16.475 45.3536 16.4562 45.3199 16.4456 45.3227C16.3358 45.3515 16.258 45.2644 16.1612 45.2471C16.1303 45.2415 16.1098 45.1916 16.0777 45.1765C15.9999 45.1398 15.9172 45.1136 15.838 45.0793C15.7964 45.0613 15.7598 45.0213 15.7181 45.0167C15.6626 45.0105 15.627 44.998 15.6056 44.9432C15.6004 44.9301 15.5625 44.9272 15.539 44.9241C15.5012 44.919 15.46 44.9293 15.4429 44.876C15.438 44.861 15.4059 44.8488 15.3847 44.8459C15.3416 44.8401 15.2934 44.852 15.2838 44.7864C15.282 44.7746 15.2501 44.7546 15.2397 44.7585C15.1635 44.7871 15.1502 44.6906 15.0925 44.6881C15.0341 44.6853 14.9713 44.694 14.9522 44.6161C14.8404 44.6444 14.8006 44.4844 14.6879 44.515C14.651 44.4241 14.5131 44.4843 14.4852 44.38C14.3445 44.3774 14.2823 44.2281 14.1452 44.2041C14.0678 44.1907 14.0019 44.1147 13.9289 44.0702C13.9061 44.0562 13.8774 44.0482 13.8505 44.0454C13.8154 44.0416 13.7818 44.0461 13.7734 43.9974C13.771 43.9828 13.7497 43.9613 13.736 43.9603C13.5804 43.9502 13.4747 43.8189 13.3258 43.7931C13.3159 43.7913 13.3109 43.7697 13.3004 43.7616C13.2401 43.7152 13.1984 43.6387 13.104 43.6464C13.0862 43.6479 13.0652 43.624 13.0479 43.6091C13.0416 43.6038 13.0422 43.5826 13.0392 43.5824C12.9048 43.5778 12.847 43.4321 12.721 43.4106C12.6955 43.4061 12.6722 43.3844 12.65 43.3679C12.6358 43.3572 12.6208 43.3274 12.6142 43.3297C12.5193 43.3624 12.4939 43.2533 12.4182 43.2358C12.3525 43.2207 12.3037 43.1418 12.2376 43.1161C12.1319 43.0748 12.0414 43.0222 11.9806 42.9249C11.901 42.9395 11.8498 42.8813 11.7888 42.8491C11.7518 42.8297 11.7095 42.8122 11.6828 42.7822C11.6094 42.6991 11.4827 42.6929 11.4189 42.611C11.3368 42.5056 11.1714 42.5216 11.1181 42.386C11.0024 42.3855 10.9404 42.3082 10.8841 42.2229C10.7613 42.2256 10.7098 42.1076 10.6203 42.0669C10.5265 42.0242 10.441 41.9911 10.3927 41.8961C10.2771 41.885 10.2188 41.7746 10.1321 41.7363C10.014 41.6843 9.93209 41.6098 9.85303 41.5197C9.84375 41.5092 9.83185 41.4925 9.82127 41.4927C9.69483 41.4938 9.63537 41.3992 9.56576 41.3186C9.54756 41.2974 9.52676 41.2579 9.50997 41.2594C9.35046 41.2732 9.31676 41.1072 9.20638 41.053C9.19521 41.0474 9.18973 41.0209 9.18133 41.0208C9.0607 41.0186 9.01457 40.9156 8.93868 40.8511C8.8948 40.8136 8.84196 40.7828 8.78874 40.7538C8.70267 40.7073 8.63638 40.6244 8.5612 40.5575C8.51072 40.5125 8.48087 40.4385 8.39295 40.4456C8.37243 40.4474 8.34507 40.4318 8.32937 40.4159C8.24654 40.3316 8.16634 40.2449 8.0855 40.1587C8.07603 40.1485 8.06825 40.1277 8.05955 40.1276C7.88163 40.1259 7.82467 39.957 7.70785 39.8719C7.63384 39.818 7.58393 39.7321 7.51406 39.6711C7.47771 39.6393 7.41116 39.6412 7.37615 39.6087C7.26086 39.5017 7.15564 39.384 7.04268 39.2743C6.98394 39.2173 6.90264 39.1827 6.87253 39.0981C6.74377 39.1024 6.69711 38.9912 6.6182 38.9229C6.53996 38.8551 6.47529 38.7718 6.40034 38.7074C6.28024 38.6041 6.17092 38.4923 6.06169 38.3794C5.9099 38.2226 5.74452 38.0806 5.60129 37.9132C5.50731 37.8033 5.3833 37.7134 5.28392 37.6035C5.19381 37.5039 5.06952 37.4295 5.04274 37.2799C5.03883 37.2581 4.98747 37.2481 4.96516 37.2256C4.83719 37.0968 4.71115 36.966 4.58515 36.8353C4.57206 36.8216 4.55262 36.802 4.55469 36.788C4.56767 36.7003 4.49508 36.6617 4.45089 36.6121C4.39334 36.5475 4.3183 36.511 4.30202 36.4024C4.2918 36.3342 4.1922 36.2802 4.13463 36.218C4.11314 36.1947 4.0774 36.162 4.08209 36.1413C4.10085 36.0585 4.03049 36.0176 3.99198 35.9904C3.91265 35.9343 3.8886 35.8458 3.83338 35.7846C3.72816 35.6681 3.67823 35.5175 3.56671 35.4073C3.52404 35.3652 3.50609 35.2981 3.47651 35.2426C3.44634 35.1861 3.36205 35.1713 3.36269 35.0873C3.36289 35.0604 3.33204 35.0324 3.3134 35.0064C3.27132 34.9476 3.19305 34.9112 3.20418 34.8189C3.20594 34.8043 3.17706 34.7855 3.16136 34.7695C3.14881 34.7568 3.12153 34.7427 3.12339 34.7342C3.14557 34.6322 3.05324 34.5966 3.00978 34.5334C3.00207 34.5222 2.9778 34.5145 2.97844 34.5066C2.98478 34.4272 2.93603 34.3849 2.88552 34.3328C2.8413 34.2872 2.83939 34.1946 2.79167 34.1601C2.73124 34.1164 2.72312 34.0696 2.70412 34.0083C2.68938 33.9609 2.63676 33.9268 2.63862 33.8611C2.63935 33.8354 2.58725 33.8119 2.57023 33.7813C2.50973 33.6728 2.41728 33.5814 2.39981 33.4485C2.39628 33.4217 2.31999 33.3932 2.3241 33.3783C2.35327 33.2726 2.20756 33.2354 2.23523 33.1354C2.13253 33.0982 2.21372 32.9433 2.09283 32.9122C2.08032 32.9091 2.09465 32.8328 2.0755 32.8184C2.01026 32.7699 1.99379 32.7072 1.99414 32.6338C1.88464 32.6181 1.92173 32.5041 1.87063 32.4443C1.81429 32.3785 1.79641 32.2796 1.76285 32.1947C1.75757 32.1813 1.76042 32.1539 1.75554 32.1529C1.63959 32.1299 1.70374 31.9929 1.62309 31.9451C1.60639 31.9351 1.60659 31.8911 1.60514 31.8626C1.60223 31.8053 1.61818 31.743 1.53683 31.7205C1.52404 31.717 1.51597 31.6783 1.5147 31.6553C1.51241 31.614 1.51096 31.5768 1.46263 31.5606C1.4521 31.5571 1.4375 31.5365 1.43988 31.5281C1.47175 31.4153 1.40244 31.32 1.3585 31.2374C1.30905 31.1446 1.26842 31.0592 1.26787 30.9552C1.17859 30.9249 1.20036 30.8494 1.19885 30.7841C1.1979 30.7436 1.19991 30.7047 1.14695 30.6928C1.13533 30.6903 1.1177 30.6719 1.11867 30.6624C1.12942 30.5571 1.0437 30.4842 1.03004 30.38C1.0165 30.2767 0.949542 30.176 0.948814 30.0619C0.853187 30.013 0.87886 29.9218 0.871085 29.8417C0.867122 29.8008 0.886094 29.7532 0.828685 29.7264C0.811868 29.7186 0.806851 29.677 0.803769 29.6501C0.796443 29.586 0.821147 29.5197 0.735992 29.4738C0.706163 29.4577 0.717844 29.3636 0.711953 29.305C0.706468 29.2505 0.738267 29.1812 0.651297 29.1599C0.644884 29.1585 0.635907 29.1436 0.637384 29.1371C0.67458 28.9711 0.530541 28.8342 0.563368 28.6675C0.574053 28.6132 0.578482 28.5522 0.506723 28.5172C0.486266 28.5071 0.479953 28.4565 0.477626 28.4238C0.473079 28.3599 0.47655 28.2955 0.475369 28.2314C0.47492 28.2069 0.479243 28.1674 0.46704 28.1607C0.357236 28.1 0.406099 27.9979 0.397963 27.9121C0.390881 27.8374 0.382866 27.7729 0.342398 27.6989C0.295033 27.6123 0.315011 27.4891 0.305695 27.3816C0.301737 27.336 0.324088 27.2872 0.264462 27.2518C0.242265 27.2385 0.240729 27.1813 0.239739 27.1438C0.236741 27.0303 0.239165 26.9166 0.238217 26.8031C0.237972 26.7738 0.242213 26.7244 0.228917 26.7183C0.120316 26.6694 0.165669 26.5754 0.160941 26.4992C0.154833 26.4009 0.160483 26.3017 0.159148 26.203C0.158267 26.1379 0.176762 26.0681 0.0951704 26.0263C0.0751527 26.0161 0.0718347 25.964 0.069503 25.9307C0.0657351 25.8768 0.06915 25.8222 0.0695102 25.7536Z" fill="#E2C162"/>
  <path d="M11.9063 11.4099C11.7637 11.427 11.7018 11.544 11.6152 11.6181C11.489 11.7258 11.3831 11.8569 11.2658 11.9753C11.1516 12.0906 11.0336 12.2021 10.9181 12.3161C10.9085 12.3256 10.8982 12.3429 10.9003 12.3542C10.9192 12.453 10.8281 12.4842 10.78 12.5353C10.7512 12.5658 10.7264 12.586 10.729 12.6289C10.7315 12.6712 10.7172 12.6954 10.6757 12.7209C10.6465 12.7389 10.6438 12.7999 10.6213 12.865C10.7619 12.8369 10.8239 12.9705 10.9409 12.9563C10.9674 13.0228 11.0163 13.0385 11.0866 13.0458C11.1407 13.0515 11.2032 13.0917 11.2445 13.1204C11.3367 13.1846 11.4332 13.2404 11.5287 13.2985C11.5549 13.3145 11.581 13.3305 11.6076 13.3458C11.6348 13.3614 11.6634 13.3748 11.6896 13.3919C11.7053 13.4021 11.7223 13.4312 11.7308 13.4283C11.8244 13.397 11.8473 13.5125 11.9301 13.5187C11.9994 13.5239 12.066 13.5727 12.1325 13.6048C12.1481 13.6123 12.1573 13.6322 12.1718 13.6433C12.2326 13.6901 12.2715 13.7775 12.3716 13.7531C12.4146 13.8253 12.5018 13.8215 12.5575 13.8614C12.5948 13.8882 12.6266 13.8984 12.6663 13.9115C12.7125 13.9268 12.7536 13.959 12.7948 13.987C12.9069 14.063 13.0519 14.0841 13.1415 14.1993C13.1585 14.2212 13.2011 14.2225 13.231 14.2354C13.2883 14.26 13.3162 14.3253 13.4006 14.3225C13.4506 14.3209 13.5008 14.4003 13.5741 14.3895C13.6339 14.5037 13.8118 14.4628 13.8545 14.6019C13.8584 14.6145 13.8855 14.6253 13.903 14.6273C13.9629 14.6342 14.0026 14.677 14.0512 14.7007C14.0998 14.7243 14.1665 14.7109 14.1934 14.7779C14.301 14.7549 14.3437 14.8956 14.4489 14.8786C14.5034 14.9599 14.6129 14.9449 14.6807 15.0235C14.755 15.1094 14.8717 15.16 14.9912 15.1847C15.0121 15.1891 15.0318 15.2071 15.0485 15.2225C15.062 15.2348 15.0719 15.2671 15.0804 15.266C15.1553 15.2574 15.1985 15.3248 15.2514 15.3383C15.3224 15.3567 15.3741 15.3925 15.4267 15.431C15.4933 15.4797 15.5827 15.4914 15.6331 15.5711C15.6486 15.5956 15.7143 15.5882 15.757 15.5954C15.7861 15.7334 15.7192 15.8214 15.582 15.8247C15.5375 15.8258 15.4891 15.8143 15.4494 15.8282C15.3995 15.8455 15.3602 15.8933 15.3103 15.9094C15.256 15.9271 15.1738 15.9025 15.142 15.9344C15.1002 15.9762 15.062 15.9773 15.0154 15.9846C14.9888 15.9887 14.9639 16.0057 14.9392 16.0188C14.9092 16.0349 14.8819 16.0643 14.8507 16.0685C14.7421 16.0828 14.6609 16.1507 14.5687 16.1977C14.5439 16.2103 14.5133 16.2108 14.4866 16.2205C14.4614 16.2296 14.4216 16.2391 14.4168 16.2564C14.4019 16.3092 14.3658 16.3052 14.3259 16.3107C14.3006 16.314 14.2637 16.3265 14.2553 16.3452C14.2195 16.4263 14.1322 16.3581 14.0882 16.4089C14.0485 16.4547 14.0089 16.5342 13.9656 16.5366C13.8604 16.5427 13.8233 16.6143 13.7707 16.6773C13.7616 16.6883 13.7482 16.7052 13.7382 16.7044C13.6042 16.6925 13.5568 16.8139 13.4765 16.8789C13.3761 16.9599 13.2938 17.0634 13.2038 17.1573C13.197 17.1645 13.1904 17.1788 13.1843 17.1786C13.079 17.1736 13.0397 17.2656 12.9697 17.312C12.8891 17.3657 12.8701 17.4481 12.822 17.5127C12.7362 17.6283 12.63 17.7197 12.5308 17.82C12.5125 17.8385 12.4805 17.8646 12.4842 17.8802C12.5023 17.9552 12.4424 17.9915 12.4051 18.0254C12.3588 18.0674 12.3223 18.1006 12.33 18.1685C12.3319 18.185 12.3081 18.2068 12.2925 18.2225C12.2381 18.2769 12.2017 18.3387 12.1646 18.4078C12.1102 18.5097 12.0626 18.623 11.976 18.7074C11.966 18.7171 11.9432 18.727 11.9445 18.7332C11.969 18.8545 11.8767 18.9378 11.8428 19.0394C11.8187 19.1118 11.7774 19.1823 11.7407 19.249C11.7198 19.287 11.7135 19.3235 11.6978 19.3598C11.6763 19.4093 11.7052 19.484 11.627 19.5089C11.6168 19.5121 11.6122 19.5431 11.6108 19.5618C11.6052 19.6365 11.631 19.719 11.542 19.7697C11.527 19.7784 11.5331 19.8249 11.5305 19.8541C11.5258 19.9083 11.5552 19.976 11.4645 19.9942C11.4521 19.9966 11.4443 20.0454 11.4427 20.0733C11.4394 20.1324 11.442 20.1917 11.4415 20.251C11.4409 20.3093 11.4465 20.3658 11.3974 20.416C11.375 20.439 11.3737 20.4885 11.3734 20.5261C11.3714 20.7632 11.3716 21.0002 11.373 21.2373C11.3733 21.2785 11.3622 21.3203 11.4104 21.3556C11.4363 21.3746 11.4352 21.4303 11.4491 21.4796C11.3782 21.4886 11.3223 21.5269 11.2844 21.4451C11.278 21.4313 11.2412 21.4276 11.218 21.4263C11.1773 21.4238 11.1405 21.4252 11.1262 21.3727C11.1226 21.3594 11.0856 21.3494 11.0634 21.3483C11.017 21.346 10.9748 21.3464 10.9605 21.2877C10.9575 21.2751 10.9298 21.2578 10.9166 21.2601C10.8494 21.272 10.8169 21.2159 10.7679 21.1952C10.7172 21.1735 10.6474 21.1941 10.6307 21.1148C10.5253 21.1279 10.4732 21.0058 10.3618 21.0146C10.3031 21.0193 10.2335 20.9829 10.1808 20.9473C10.0973 20.8909 9.99135 20.8779 9.918 20.8034C9.9037 20.7889 9.8745 20.786 9.85154 20.7835C9.81186 20.7791 9.77205 20.7808 9.76337 20.7269C9.76165 20.7162 9.7443 20.7004 9.73356 20.7C9.6694 20.697 9.61945 20.679 9.5663 20.6336C9.53129 20.6037 9.45115 20.6282 9.43075 20.554C9.31926 20.5842 9.27819 20.4272 9.16748 20.4554C9.12593 20.3601 9.00797 20.4075 8.94287 20.3286C8.89183 20.2668 8.76198 20.2733 8.7022 20.2142C8.62065 20.1335 8.49012 20.181 8.42452 20.0808C8.41354 20.0638 8.37012 20.0644 8.34156 20.0638C8.30019 20.063 8.26245 20.0638 8.24823 20.013C8.24518 20.002 8.22845 19.9898 8.21622 19.9874C8.09975 19.9648 7.99649 19.9169 7.9101 19.8348C7.80796 19.862 7.76031 19.7433 7.66607 19.7433C7.64465 19.7433 7.62298 19.7133 7.6019 19.6965C7.58742 19.685 7.57572 19.6669 7.55944 19.6612C7.48197 19.634 7.37335 19.6332 7.33226 19.5798C7.27227 19.5017 7.14822 19.55 7.11874 19.4442C7.11601 19.4345 7.09247 19.4209 7.08347 19.4239C6.98591 19.4561 6.94254 19.3242 6.84891 19.3484C6.81576 19.2499 6.6826 19.2933 6.64195 19.2035C6.63747 19.1936 6.615 19.1836 6.604 19.1863C6.49256 19.2137 6.41252 19.1355 6.31991 19.1022C6.27427 19.0858 6.23794 19.0403 6.19211 19.0287C6.14446 19.0165 6.09609 19.0237 6.07282 18.9642C6.06781 18.9515 6.02909 18.9482 6.00558 18.947C5.9649 18.945 5.92539 18.9475 5.91588 18.893C5.91384 18.8812 5.89974 18.8641 5.88906 18.8623C5.77323 18.8432 5.66859 18.8026 5.58619 18.7155C5.47289 18.7501 5.43158 18.59 5.32081 18.6178C5.28041 18.5189 5.12421 18.5937 5.09973 18.471C4.99958 18.5023 4.95437 18.3981 4.87063 18.3778C4.76541 18.3522 4.66911 18.2903 4.56871 18.2447C4.55131 18.2368 4.53276 18.2271 4.51446 18.2264C4.46441 18.2247 4.41886 18.2274 4.39269 18.1668C4.38516 18.1493 4.32403 18.1613 4.30092 18.1431C4.19262 18.0572 4.06933 18.0074 3.93704 17.9753C3.92295 17.8703 3.7665 17.9483 3.75669 17.8361C3.75625 17.8311 3.74081 17.8264 3.73172 17.8235C3.64887 17.7983 3.56374 17.7789 3.48384 17.7465C3.44514 17.7308 3.42039 17.6796 3.38165 17.6656C3.33827 17.6499 3.29294 17.6658 3.26366 17.6026C3.23977 17.551 3.13202 17.6173 3.10658 17.5294C2.9973 17.5497 2.95977 17.396 2.84768 17.4232C2.77289 17.3182 2.62876 17.3745 2.53787 17.2846C2.48119 17.2285 2.36051 17.2373 2.30311 17.1815C2.23304 17.1134 2.11427 17.1427 2.0689 17.0425C2.06239 17.028 2.02476 17.0293 2.00319 17.0197C1.86315 16.9572 1.71426 16.9115 1.5965 16.8061C1.58318 16.7942 1.56253 16.7896 1.54457 16.7838C1.46653 16.7585 1.38822 16.7341 1.31001 16.7094C1.28844 16.586 1.12393 16.6654 1.09225 16.5563C0.99474 16.5757 0.945284 16.4585 0.844032 16.4721C0.805912 16.4771 0.761583 16.4346 0.719905 16.4142C0.666836 16.3882 0.614756 16.3596 0.560064 16.3376C0.512551 16.3184 0.447349 16.3205 0.416706 16.2881C0.382681 16.2521 0.362771 16.2212 0.305488 16.2168C0.223992 16.2103 0.161097 16.1252 0.159761 16.0401C0.158754 15.9759 0.159675 15.9117 0.159674 15.8475C0.159654 13.6648 0.160561 11.4821 0.156739 9.29943C0.156555 9.19397 0.183403 9.11422 0.255639 9.04436C0.258842 9.04126 0.268602 9.03891 0.268602 9.03891C0.300714 8.89944 0.460339 8.83638 0.479738 8.68764C0.482504 8.66644 0.518883 8.65141 0.534461 8.62975C0.598288 8.54105 0.691846 8.48071 0.731336 8.36483C0.758512 8.28509 0.851692 8.22759 0.916046 8.16079C0.928503 8.14786 0.955896 8.13846 0.956425 8.12654C0.962823 7.98212 1.07791 7.91633 1.16576 7.83055C1.17841 7.81819 1.19761 7.79994 1.1956 7.78729C1.18519 7.72157 1.23121 7.69281 1.26942 7.65454C1.36382 7.55998 1.45089 7.45795 1.54774 7.3661C1.60486 7.31192 1.66352 7.26969 1.67804 7.18047C1.68586 7.13241 1.73725 7.08715 1.77721 7.0493C1.96822 6.86838 2.15778 6.68676 2.33246 6.48915C2.43587 6.37216 2.55974 6.27333 2.67246 6.16433C2.89754 5.94665 3.12155 5.72789 3.34536 5.50891C3.41056 5.44512 3.47358 5.37909 3.53748 5.31397C3.54414 5.3072 3.54879 5.2952 3.55643 5.2931C3.76014 5.23729 3.8431 5.03317 4.00668 4.92767C4.04526 4.90279 4.06826 4.84361 4.10775 4.83211C4.27816 4.78251 4.34863 4.61444 4.48633 4.52815C4.49738 4.5212 4.50162 4.49557 4.51074 4.49459C4.65754 4.47894 4.71859 4.34781 4.81871 4.26976C4.87339 4.22713 4.95574 4.23921 4.99863 4.16395C5.02673 4.11462 5.08546 4.0825 5.13111 4.04343C5.14879 4.02829 5.17109 4.00066 5.18641 4.00365C5.25703 4.01745 5.27698 3.95964 5.31495 3.92522C5.39081 3.85645 5.44895 3.75924 5.57019 3.75999C5.63782 3.65948 5.7774 3.66187 5.84866 3.56608C5.85917 3.55196 5.87835 3.52842 5.88679 3.53101C5.98273 3.56055 6.00886 3.46408 6.06246 3.4268C6.10361 3.3982 6.12494 3.34965 6.18944 3.35582C6.20782 3.35757 6.22991 3.32474 6.24966 3.30708C6.28789 3.27286 6.33074 3.20502 6.36268 3.20988C6.45756 3.22434 6.49702 3.15131 6.54333 3.10863C6.62481 3.03352 6.71977 2.99844 6.81855 2.96402C6.83219 2.95926 6.85352 2.96175 6.85974 2.95283C6.9247 2.85987 7.00677 2.79446 7.12099 2.77089C7.14977 2.76495 7.17525 2.74259 7.20198 2.7273C7.22961 2.7115 7.25786 2.69649 7.2839 2.67838C7.29471 2.67086 7.29984 2.64683 7.30873 2.64618C7.47685 2.63384 7.56126 2.46611 7.70533 2.42791C7.79399 2.40439 7.84462 2.31691 7.93948 2.32157C7.95353 2.32226 7.9747 2.32048 7.98105 2.31162C8.0198 2.25761 8.0829 2.2492 8.13197 2.22004C8.1827 2.1899 8.25641 2.1862 8.27771 2.15814C8.33654 2.08063 8.44128 2.10634 8.49631 2.03616C8.51032 2.01829 8.54012 1.99539 8.55645 1.99948C8.66776 2.02738 8.73841 1.92479 8.83732 1.91769C8.89334 1.91365 8.89 1.82002 8.96251 1.83771C9.01931 1.85158 9.0525 1.77695 9.07398 1.77652C9.17533 1.77442 9.23693 1.67351 9.34175 1.68513C9.38241 1.68962 9.43047 1.68445 9.46321 1.62663C9.49229 1.57527 9.60043 1.61985 9.62577 1.53376C9.74677 1.5576 9.81747 1.43041 9.93244 1.43183C9.95755 1.43214 9.98273 1.41047 10.0082 1.39978C10.0377 1.38741 10.0669 1.36915 10.0976 1.36562C10.1594 1.35852 10.2262 1.37869 10.2673 1.30458C10.2765 1.28799 10.3211 1.29081 10.3495 1.28495C10.4064 1.27319 10.4822 1.30489 10.5054 1.21403C10.5078 1.20457 10.5394 1.1997 10.558 1.19771C10.6007 1.19315 10.6484 1.2054 10.6679 1.14619C10.6715 1.13517 10.7017 1.12642 10.719 1.12738C10.8092 1.13238 10.8932 1.12943 10.963 1.05599C10.9816 1.03637 11.0281 1.04169 11.0621 1.03837C11.122 1.03251 11.192 1.06018 11.2262 0.977401C11.2316 0.964394 11.2701 0.962005 11.2936 0.960082C11.3548 0.955105 11.4199 0.974896 11.4641 0.903754C11.4753 0.885698 11.5291 0.895979 11.5626 0.889264C11.6134 0.879052 11.6684 0.887962 11.7077 0.832562C11.7242 0.809185 11.7755 0.806584 11.812 0.801788C11.8897 0.79158 11.9777 0.83109 12.0362 0.736467C12.0486 0.7163 12.1099 0.725967 12.1486 0.722219C12.2228 0.715052 12.3022 0.739576 12.3576 0.652538C12.374 0.626853 12.4483 0.637017 12.4962 0.632493C12.5561 0.626841 12.6189 0.652962 12.6674 0.580519C12.6844 0.555135 12.7596 0.569176 12.8081 0.564078C12.8726 0.557295 12.9486 0.59046 12.9906 0.503662C12.9981 0.488201 13.0437 0.487992 13.072 0.486307C13.1411 0.482194 13.2104 0.481864 13.2795 0.478903C13.3039 0.477858 13.3451 0.4809 13.35 0.469676C13.4002 0.35425 13.5009 0.406265 13.5815 0.396854C13.6601 0.387669 13.7413 0.415287 13.8095 0.33633C13.8335 0.30863 13.9132 0.329708 13.9674 0.327176C14.0779 0.322019 14.1926 0.344355 14.2872 0.254201C14.3098 0.232569 14.3624 0.238944 14.4014 0.238268C14.5053 0.236463 14.6093 0.238076 14.7131 0.237823C14.7566 0.237717 14.7988 0.244113 14.8242 0.188791C14.8333 0.169346 14.8823 0.161123 14.9133 0.160267C15.0319 0.156991 15.1508 0.160788 15.2694 0.157995C15.3445 0.15623 15.4258 0.181531 15.4853 0.101169C15.4988 0.0830239 15.5507 0.0914399 15.585 0.0907281C15.8221 0.0858007 16.0592 0.0817082 16.2962 0.07731C16.3495 0.0763221 16.3983 0.0797966 16.4407 0.0268663C16.4613 0.00106866 16.5226 0.000731811 16.5656 0.00067348C17.3918 -0.000448645 18.218 -9.93616e-06 19.0444 0.000836255C19.1071 0.000900689 19.1708 -0.00662469 19.2195 0.0554761C19.2352 0.0755064 19.2825 0.0755846 19.3157 0.0764394C19.5429 0.082304 19.7701 0.0846259 19.9973 0.0911094C20.0663 0.0930772 20.1449 0.0636754 20.1948 0.14825C20.2038 0.163209 20.2505 0.158106 20.2798 0.15841C20.4034 0.159694 20.5272 0.15854 20.6508 0.160213C20.7376 0.161386 20.8272 0.142611 20.8989 0.222779C20.9181 0.244344 20.9737 0.234132 21.0126 0.237558C21.141 0.248833 21.2698 0.215813 21.3944 0.305141C21.4552 0.348809 21.5668 0.320657 21.6552 0.327931C21.7002 0.331637 21.7538 0.307583 21.7834 0.372108C21.791 0.388563 21.835 0.393201 21.8628 0.394554C21.932 0.397924 22.0014 0.395904 22.0705 0.396843C22.0952 0.397178 22.1341 0.39046 22.1422 0.402836C22.2249 0.528433 22.3523 0.471269 22.4616 0.484392C22.5092 0.490118 22.5571 0.47559 22.5843 0.540109C22.5924 0.559671 22.6541 0.558685 22.6918 0.56378C22.7739 0.574901 22.8674 0.531353 22.9332 0.624753C22.9454 0.642233 22.9988 0.629475 23.0329 0.633375C23.1019 0.641256 23.1818 0.619109 23.2234 0.705121C23.229 0.716623 23.2584 0.719795 23.2772 0.721173C23.3571 0.727017 23.4435 0.702186 23.4997 0.793557C23.51 0.810256 23.5653 0.798425 23.5996 0.80153C23.6725 0.80812 23.7588 0.771231 23.8044 0.869301C23.8109 0.883269 23.8497 0.884282 23.8741 0.887561C23.9337 0.89558 24.0024 0.872598 24.0403 0.948229C24.0464 0.960464 24.0859 0.95616 24.1101 0.95923C24.1686 0.966663 24.2414 0.933038 24.2712 1.02299C24.2756 1.03572 24.3248 1.03525 24.3534 1.03786C24.4138 1.04336 24.4866 1.01529 24.5151 1.103C24.5182 1.11283 24.5414 1.12482 24.552 1.1223C24.6645 1.09566 24.7465 1.18543 24.8483 1.19792C24.8623 1.19964 24.8842 1.20273 24.888 1.21147C24.9267 1.30012 25.0077 1.27303 25.0756 1.28859C25.1208 1.29892 25.1566 1.34749 25.2018 1.36063C25.2525 1.37533 25.3429 1.35048 25.3572 1.37583C25.4072 1.46486 25.5485 1.39877 25.5707 1.51444C25.6539 1.52053 25.7386 1.5229 25.7973 1.59651C25.9173 1.55506 25.9661 1.71667 26.079 1.69486C26.1106 1.78456 26.2429 1.72332 26.2695 1.82119C26.2704 1.82501 26.2779 1.83071 26.2806 1.82991C26.39 1.79907 26.4351 1.93364 26.5345 1.92779C26.6078 2.02615 26.7622 1.96222 26.8289 2.07419C26.9363 2.04783 26.9874 2.17985 27.0919 2.16799C27.1067 2.16632 27.1244 2.21044 27.1419 2.2113C27.2247 2.21547 27.2232 2.34204 27.3245 2.32573C27.393 2.31472 27.4141 2.43019 27.509 2.40948C27.549 2.40074 27.6052 2.45862 27.652 2.48941C27.7066 2.5255 27.7511 2.57802 27.8303 2.56505C27.8465 2.5624 27.8669 2.61609 27.8923 2.63349C27.9921 2.70161 28.0812 2.79197 28.2137 2.79742C28.2266 2.79795 28.2457 2.80666 28.2508 2.817C28.3237 2.96783 28.5328 2.95285 28.6028 3.10611C28.7176 3.11147 28.7739 3.22695 28.8586 3.25598C28.9541 3.28872 29.0065 3.34776 29.0694 3.40788C29.0794 3.41739 29.092 3.43632 29.0993 3.43452C29.2097 3.4076 29.2356 3.51719 29.3033 3.55825C29.3222 3.56971 29.3409 3.5956 29.3577 3.59394C29.4209 3.58761 29.4525 3.61927 29.4865 3.66701C29.5431 3.74662 29.6542 3.75313 29.7196 3.8247C29.7439 3.85122 29.7667 3.88358 29.7974 3.89872C29.8617 3.9304 29.8851 4.03497 29.985 4.00392C29.9944 4.00103 30.0118 4.01334 30.0211 4.02275C30.1023 4.10401 30.182 4.18666 30.2633 4.26783C30.2849 4.28938 30.3131 4.32642 30.3333 4.32342C30.4191 4.31067 30.4473 4.38472 30.4957 4.42313C30.5593 4.47364 30.6117 4.53801 30.6693 4.59602C30.6821 4.60879 30.6997 4.63244 30.7095 4.62987C30.7957 4.6071 30.822 4.67959 30.8672 4.72278C31.0024 4.85161 31.1416 4.97575 31.2621 5.12C31.2921 5.15599 31.3261 5.22072 31.403 5.19906C31.4215 5.19385 31.4553 5.21882 31.4729 5.23818C31.614 5.39293 31.7816 5.52269 31.9178 5.67923C32.0593 5.84162 32.2275 5.97567 32.3647 6.14396C32.4569 6.25721 32.5835 6.34945 32.6884 6.45944C32.8323 6.61032 32.9963 6.73996 33.086 6.93852C33.1156 7.00396 33.1943 7.04711 33.2499 7.10107C33.3394 7.18797 33.4284 7.27539 33.5175 7.36265C33.5274 7.37233 33.5447 7.38204 33.5453 7.3925C33.5534 7.53145 33.6821 7.58202 33.7504 7.67648C33.795 7.73823 33.8659 7.77165 33.8861 7.86493C33.9018 7.93799 33.9856 8.00226 34.0502 8.05729C34.1154 8.11267 34.1657 8.17163 34.1987 8.25129C34.2195 8.3019 34.2519 8.35762 34.2954 8.38617C34.3345 8.41174 34.3552 8.43144 34.3514 8.47549C34.347 8.52667 34.3684 8.55212 34.4172 8.5752C34.4553 8.59313 34.5077 8.64627 34.5033 8.67607C34.4878 8.77718 34.5683 8.80772 34.6166 8.86016C34.6707 8.91893 34.7364 8.96491 34.7517 9.05375C34.7566 9.08173 34.8068 9.09902 34.8255 9.12804C34.8806 9.21316 34.9667 9.2994 34.9725 9.38959C34.9788 9.48673 35.0449 9.53623 35.0878 9.5719C35.1553 9.62792 35.1531 9.68242 35.1531 9.74816C35.1535 10.5679 35.1535 11.3876 35.1538 12.2074C35.1538 12.2757 35.157 12.3387 35.1942 12.405C35.2251 12.4604 35.2237 12.538 35.224 12.6059C35.2308 14.5851 35.2377 16.5643 35.2408 18.5435C35.2437 20.3804 35.2422 22.2175 35.2427 24.0545C35.2427 24.0791 35.2427 24.1039 35.2432 24.1285C35.2441 24.1707 35.2378 24.2122 35.1871 24.217C35.1462 24.2206 35.0954 24.2375 35.0745 24.1768C35.07 24.1638 35.063 24.1453 35.0527 24.1418C34.9706 24.1136 34.8876 24.0887 34.805 24.0622C34.7684 24.0504 34.7319 24.038 34.6959 24.0246C34.6621 24.0121 34.6282 23.9993 34.5958 23.9839C34.567 23.9702 34.5389 23.954 34.5123 23.9361C34.4974 23.926 34.4886 23.9035 34.4729 23.8981C34.3947 23.871 34.2942 23.8694 34.2408 23.8181C34.168 23.7484 34.0628 23.7721 34.0142 23.7272C33.945 23.6636 33.8404 23.6884 33.7904 23.6064C33.7829 23.5941 33.7557 23.59 33.7371 23.5889C33.6925 23.5861 33.6488 23.592 33.6337 23.5301C33.63 23.5148 33.5862 23.5048 33.5596 23.5007C33.5214 23.495 33.4798 23.5053 33.4653 23.4512C33.4619 23.4385 33.4339 23.4205 33.4218 23.4235C33.3105 23.4512 33.2185 23.3888 33.1434 23.3353C33.0637 23.2786 32.9521 23.2878 32.8919 23.1981C32.8811 23.1818 32.837 23.1868 32.8081 23.1837C32.7551 23.1779 32.6983 23.1851 32.6662 23.1251C32.6587 23.1112 32.6348 23.0951 32.6209 23.0971C32.555 23.1069 32.5202 23.0564 32.471 23.0334C32.4261 23.0123 32.3718 23.0219 32.3422 22.962C32.3337 22.9447 32.2617 22.962 32.2487 22.9429C32.1832 22.8478 32.0882 22.8544 31.9932 22.8533C31.9598 22.7594 31.8222 22.8259 31.7902 22.7225C31.7858 22.708 31.7366 22.7105 31.7109 22.6988C31.6586 22.675 31.6106 22.6388 31.5564 22.6231C31.5023 22.6072 31.4465 22.5979 31.3921 22.5822C31.2913 22.553 31.2266 22.4553 31.1122 22.4563C31.0757 22.4565 31.0417 22.3946 31.0017 22.3873C30.9501 22.3778 30.9064 22.377 30.8946 22.3141C30.8931 22.3059 30.869 22.295 30.8572 22.2969C30.7608 22.3128 30.6823 22.2712 30.6025 22.2264C30.5171 22.1785 30.411 22.167 30.3467 22.0812C30.3412 22.0739 30.3338 22.065 30.3257 22.063C30.229 22.0372 30.1321 22.0126 30.0351 21.9884C30.0257 21.986 30.0123 21.9915 30.0061 21.9865C29.9712 21.9589 29.9419 21.9205 29.903 21.9029C29.8632 21.8848 29.8001 21.9191 29.7837 21.8468C29.782 21.8392 29.7724 21.83 29.7645 21.8274C29.6769 21.8001 29.5892 21.773 29.5008 21.748C29.4667 21.7382 29.261 21.6345 29.2186 21.6077C29.196 21.5935 29.1645 21.5942 29.1399 21.5823C29.1132 21.5694 29.0893 21.5505 29.0654 21.5325C29.0584 21.5272 29.056 21.5097 29.0507 21.5093C28.9781 21.5041 28.9123 21.4273 28.8651 21.4346C28.7388 21.4544 28.6647 21.3459 28.5551 21.3422C28.5216 21.2394 28.3932 21.2854 28.3406 21.2069C28.3292 21.19 28.2871 21.1923 28.2587 21.1885C28.202 21.1808 28.1397 21.19 28.1075 21.1224C28.1014 21.1097 28.0745 21.103 28.0565 21.1007C28.0089 21.0951 27.9551 21.1087 27.9379 21.039C27.9352 21.0281 27.8938 21.0292 27.8727 21.0196C27.8277 20.9991 27.7863 20.9652 27.7396 20.9554C27.6866 20.9443 27.6276 20.9572 27.6145 20.8816C27.6134 20.8751 27.6 20.8664 27.5918 20.8659C27.5425 20.863 27.4901 20.8718 27.4445 20.8582C27.4028 20.8456 27.368 20.7875 27.3306 20.7881C27.2255 20.7893 27.1743 20.6943 27.0793 20.6702C26.9655 20.6414 26.8651 20.5616 26.7413 20.5455C26.7173 20.5424 26.6946 20.5202 26.6741 20.5034C26.6601 20.4921 26.6466 20.4603 26.6405 20.4622C26.5387 20.4931 26.4896 20.3718 26.3897 20.3802C26.3408 20.3844 26.3111 20.2978 26.2353 20.3036C26.183 20.3075 26.1141 20.3086 26.0892 20.232C26.0858 20.2216 26.0424 20.2277 26.0201 20.2193C25.9471 20.1918 25.8753 20.1613 25.803 20.1319C25.7893 20.0177 25.642 20.1093 25.6153 20.0111C25.6119 19.9986 25.5844 19.9851 25.5681 19.9852C25.4237 19.9859 25.3017 19.935 25.1994 19.8347C25.0903 19.8456 25.0304 19.7076 24.9127 19.7404C24.8966 19.7448 24.8627 19.736 24.8586 19.7252C24.8268 19.6411 24.7465 19.6649 24.6804 19.6466C24.678 19.6049 24.6741 19.5664 24.6741 19.5277C24.6728 18.8315 24.6711 18.1352 24.6714 17.4389C24.6714 17.3365 24.6661 17.2331 24.7301 17.1399C24.7493 17.1117 24.7419 17.0636 24.7419 17.0245C24.7423 15.6319 24.7408 14.2393 24.7454 12.8468C24.7457 12.7577 24.7058 12.702 24.6551 12.6502C24.4759 12.4674 24.2951 12.2858 24.1068 12.1125C24.0466 12.0571 23.9972 11.9896 23.897 11.9679C23.8236 11.952 23.7685 11.8533 23.7042 11.7927C23.6855 11.775 23.6611 11.7461 23.6425 11.7484C23.5535 11.759 23.5247 11.6802 23.47 11.6411C23.4526 11.6287 23.4358 11.5897 23.4292 11.5921C23.3363 11.6253 23.3061 11.5332 23.2501 11.4999C23.2055 11.4733 23.1741 11.4274 23.1133 11.4372C23.0769 11.3275 22.9249 11.3873 22.8852 11.2823C22.7323 11.2671 22.6369 11.1194 22.4822 11.1082C22.4356 11.0162 22.2931 11.0734 22.2559 10.964C22.2528 10.9548 22.2309 10.9471 22.2176 10.9472C22.1577 10.9475 22.1144 10.9297 22.0668 10.8846C22.034 10.8536 21.9515 10.8845 21.9225 10.8123C21.9184 10.8022 21.8864 10.8039 21.8677 10.799C21.8024 10.7823 21.7377 10.7957 21.6774 10.726C21.6286 10.6696 21.5203 10.6592 21.4356 10.6412C21.3792 10.6292 21.3157 10.6482 21.2894 10.571C21.2851 10.5583 21.2474 10.5532 21.2246 10.5513C21.1555 10.5456 21.0753 10.5743 21.0378 10.4806C21.0342 10.4716 21.0014 10.473 20.982 10.4716C20.9168 10.4673 20.8468 10.4905 20.7997 10.4124C20.7884 10.3938 20.7259 10.4058 20.687 10.404C20.6149 10.4006 20.5473 10.3981 20.4876 10.3391C20.4602 10.3121 20.3977 10.32 20.351 10.3135C20.2879 10.3047 20.2168 10.3386 20.1703 10.2535C20.1569 10.229 20.0793 10.2391 20.0311 10.2341C19.9632 10.227 19.8805 10.2624 19.8458 10.1625C19.8416 10.1505 19.8017 10.147 19.7783 10.1462C19.709 10.144 19.6397 10.1454 19.5704 10.145C19.5458 10.1448 19.5099 10.1534 19.4982 10.1406C19.3946 10.0276 19.261 10.0927 19.1418 10.0764C19.0806 10.0681 19.013 10.0899 18.9708 10.0173C18.9611 10.0008 18.9186 9.99868 18.8909 9.99799C18.8119 9.99602 18.7323 10.0035 18.6537 9.99729C18.5661 9.99033 18.4638 10.0295 18.4017 9.92121C18.3918 9.90385 18.3372 9.90897 18.3033 9.90878C18.0905 9.9076 17.8778 9.90894 17.6649 9.90682C17.6198 9.90636 17.5684 9.92534 17.5359 9.86383C17.5259 9.8448 17.4746 9.84123 17.4422 9.84109C17.081 9.83948 16.7199 9.83862 16.3587 9.84184C16.3205 9.84217 16.2834 9.87301 16.2442 9.88397C16.2027 9.89555 16.1595 9.90632 16.1169 9.90693C15.9339 9.9095 15.7508 9.9077 15.5678 9.90864C15.5203 9.90889 15.4713 9.89829 15.4409 9.95858C15.4306 9.979 15.3822 9.98715 15.3505 9.98872C15.2371 9.99437 15.1234 9.99381 15.01 9.99763C14.9588 9.99933 14.9027 9.9817 14.8728 10.0538C14.8649 10.0727 14.8032 10.0705 14.766 10.0759C14.6932 10.0864 14.6178 10.0544 14.5501 10.1307C14.5205 10.1641 14.428 10.1414 14.364 10.1456C14.3184 10.1485 14.2628 10.1276 14.2449 10.2001C14.2412 10.2152 14.2073 10.2308 14.1865 10.2321C14.1112 10.2368 14.0279 10.2147 13.9866 10.3077C13.8415 10.2628 13.7455 10.3992 13.6093 10.4107C13.5326 10.4171 13.4339 10.4531 13.3679 10.5213C13.3614 10.528 13.3554 10.5422 13.3502 10.5417C13.2651 10.5339 13.2152 10.5949 13.1517 10.6337C13.1153 10.6559 13.0523 10.6307 13.0283 10.6903C12.9323 10.6767 12.8719 10.7542 12.8085 10.7973C12.7001 10.8709 12.5457 10.8706 12.4751 11.0021C12.3364 11.0143 12.2811 11.1788 12.1377 11.1867C12.1184 11.1877 12.1017 11.2239 12.0824 11.2425C12.0269 11.296 11.9706 11.3488 11.9063 11.4099Z" fill="#E2C162"/>
</svg>

