<svg width="903" height="450" viewBox="0 0 903 450" fill="none" xmlns="http://www.w3.org/2000/svg">
<path d="M678.381 445.912C800.626 445.912 899.724 346.783 899.724 224.501C899.724 102.219 800.626 3.0896 678.381 3.0896C556.137 3.0896 457.037 102.219 457.037 224.501C457.037 346.783 556.137 445.912 678.381 445.912Z" fill="url(#paint0_linear_847_4179)" stroke="url(#paint1_linear_847_4179)" stroke-width="5.65675"/>
<path d="M678.397 55.625C772.212 55.625 848.265 131.702 848.265 225.546C848.265 319.391 772.212 395.467 678.397 395.467C584.581 395.467 508.527 319.391 508.527 225.546C508.527 131.702 584.581 55.6251 678.397 55.625Z" fill="url(#paint2_linear_847_4179)" stroke="url(#paint3_linear_847_4179)" stroke-width="18.8558"/>
<path d="M445.744 93.2834H373.684V108.732H445.744V93.2834Z" fill="url(#paint4_linear_847_4179)"/>
<path d="M453.98 337.367H381.92V352.815H453.98V337.367Z" fill="url(#paint5_linear_847_4179)"/>
<path d="M496.186 30.46H398.39C396.116 30.46 394.272 32.3041 394.272 34.579V67.5366C394.272 69.8115 396.116 71.6556 398.39 71.6556H496.186C498.461 71.6556 500.304 69.8115 500.304 67.5366V34.579C500.304 32.3041 498.461 30.46 496.186 30.46Z" fill="url(#paint6_linear_847_4179)"/>
<path d="M468.392 56.2085C465.549 56.2085 463.245 58.514 463.245 61.3579C463.245 64.2019 465.549 66.5074 468.392 66.5074C471.235 66.5074 473.539 64.2019 473.539 61.3579C473.539 58.514 471.235 56.2085 468.392 56.2085Z" fill="#A6A6A6"/>
<path d="M468.392 36.6404C465.549 36.6404 463.245 38.9459 463.245 41.7898C463.245 44.6338 465.549 46.9393 468.392 46.9393C471.235 46.9393 473.539 44.6338 473.539 41.7898C473.539 38.9459 471.235 36.6404 468.392 36.6404Z" fill="#A6A6A6"/>
<path d="M487.951 56.2085C485.109 56.2085 482.804 58.514 482.804 61.3579C482.804 64.2019 485.109 66.5074 487.951 66.5074C490.794 66.5074 493.098 64.2019 493.098 61.3579C493.098 58.514 490.794 56.2085 487.951 56.2085Z" fill="#A6A6A6"/>
<path d="M487.951 36.6404C485.109 36.6404 482.804 38.9459 482.804 41.7898C482.804 44.6338 485.109 46.9393 487.951 46.9393C490.794 46.9393 493.098 44.6338 493.098 41.7898C493.098 38.9459 490.794 36.6404 487.951 36.6404Z" fill="#A6A6A6"/>
<path d="M406.626 56.2085C403.783 56.2085 401.479 58.514 401.479 61.3579C401.479 64.2019 403.783 66.5074 406.626 66.5074C409.468 66.5074 411.773 64.2019 411.773 61.3579C411.773 58.514 409.468 56.2085 406.626 56.2085Z" fill="#A6A6A6"/>
<path d="M406.626 36.6404C403.783 36.6404 401.479 38.9459 401.479 41.7898C401.479 44.6338 403.783 46.9393 406.626 46.9393C409.468 46.9393 411.773 44.6338 411.773 41.7898C411.773 38.9459 409.468 36.6404 406.626 36.6404Z" fill="#A6A6A6"/>
<path d="M426.185 56.2085C423.342 56.2085 421.038 58.514 421.038 61.3579C421.038 64.2019 423.342 66.5074 426.185 66.5074C429.028 66.5074 431.333 64.2019 431.333 61.3579C431.333 58.514 429.028 56.2085 426.185 56.2085Z" fill="#A6A6A6"/>
<path d="M426.185 36.6404C423.342 36.6404 421.038 38.9459 421.038 41.7898C421.038 44.6338 423.342 46.9393 426.185 46.9393C429.028 46.9393 431.333 44.6338 431.333 41.7898C431.333 38.9459 429.028 36.6404 426.185 36.6404Z" fill="#A6A6A6"/>
<path d="M496.186 376.504H398.39C396.116 376.504 394.272 378.348 394.272 380.623V413.58C394.272 415.855 396.116 417.699 398.39 417.699H496.186C498.461 417.699 500.304 415.855 500.304 413.58V380.623C500.304 378.348 498.461 376.504 496.186 376.504Z" fill="url(#paint7_linear_847_4179)"/>
<path d="M468.392 402.251C465.549 402.251 463.245 404.555 463.245 407.4C463.245 410.244 465.549 412.549 468.392 412.549C471.235 412.549 473.539 410.244 473.539 407.4C473.539 404.555 471.235 402.251 468.392 402.251Z" fill="#A6A6A6"/>
<path d="M468.392 382.682C465.549 382.682 463.245 384.988 463.245 387.832C463.245 390.676 465.549 392.981 468.392 392.981C471.235 392.981 473.539 390.676 473.539 387.832C473.539 384.988 471.235 382.682 468.392 382.682Z" fill="#A6A6A6"/>
<path d="M487.951 402.251C485.109 402.251 482.804 404.555 482.804 407.4C482.804 410.244 485.109 412.549 487.951 412.549C490.794 412.549 493.098 410.244 493.098 407.4C493.098 404.555 490.794 402.251 487.951 402.251Z" fill="#A6A6A6"/>
<path d="M487.951 382.682C485.109 382.682 482.804 384.988 482.804 387.832C482.804 390.676 485.109 392.981 487.951 392.981C490.794 392.981 493.098 390.676 493.098 387.832C493.098 384.988 490.794 382.682 487.951 382.682Z" fill="#A6A6A6"/>
<path d="M406.626 402.251C403.783 402.251 401.479 404.555 401.479 407.4C401.479 410.244 403.783 412.549 406.626 412.549C409.468 412.549 411.773 410.244 411.773 407.4C411.773 404.555 409.468 402.251 406.626 402.251Z" fill="#A6A6A6"/>
<path d="M406.626 382.682C403.783 382.682 401.479 384.988 401.479 387.832C401.479 390.676 403.783 392.981 406.626 392.981C409.468 392.981 411.773 390.676 411.773 387.832C411.773 384.988 409.468 382.682 406.626 382.682Z" fill="#A6A6A6"/>
<path d="M426.185 402.251C423.342 402.251 421.038 404.555 421.038 407.4C421.038 410.244 423.342 412.549 426.185 412.549C429.028 412.549 431.333 410.244 431.333 407.4C431.333 404.555 429.028 402.251 426.185 402.251Z" fill="#A6A6A6"/>
<path d="M426.185 382.682C423.342 382.682 421.038 384.988 421.038 387.832C421.038 390.676 423.342 392.981 426.185 392.981C429.028 392.981 431.333 390.676 431.333 387.832C431.333 384.988 429.028 382.682 426.185 382.682Z" fill="#A6A6A6"/>
<path d="M458.097 23.6825C458.097 16.0497 453.489 9.86206 447.803 9.86206C442.119 9.86206 437.51 16.0497 437.51 23.6825V424.477C437.51 432.109 442.119 438.297 447.803 438.297C453.489 438.297 458.097 432.109 458.097 424.477V23.6825Z" fill="url(#paint8_linear_847_4179)"/>
<path d="M211.033 434.522C327.584 434.522 422.067 341.15 422.067 225.969C422.067 110.788 327.584 17.4158 211.033 17.4158C94.4829 17.4158 0 110.788 0 225.969C0 341.15 94.4829 434.522 211.033 434.522Z" fill="url(#paint9_linear_847_4179)"/>
<path d="M221.328 432.462C337.878 432.462 432.361 339.09 432.361 223.909C432.361 108.728 337.878 15.3557 221.328 15.3557C104.777 15.3557 10.2944 108.728 10.2944 223.909C10.2944 339.09 104.777 432.462 221.328 432.462Z" fill="url(#paint10_linear_847_4179)"/>
<path d="M447.803 105.236C451.215 105.236 453.98 102.469 453.98 99.0565C453.98 95.6437 451.215 92.8772 447.803 92.8772C444.392 92.8772 441.627 95.6437 441.627 99.0565C441.627 102.469 444.392 105.236 447.803 105.236Z" fill="#777777"/>
<path d="M447.803 349.602C451.215 349.602 453.98 346.835 453.98 343.422C453.98 340.01 451.215 337.243 447.803 337.243C444.392 337.243 441.627 340.01 441.627 343.422C441.627 346.835 444.392 349.602 447.803 349.602Z" fill="#777777"/>
<path d="M220.298 38.0132C117.961 38.0132 35.0006 121.011 35.0006 223.393C35.0006 325.776 117.961 408.774 220.298 408.774C322.635 408.774 405.597 325.776 405.597 223.393C405.597 121.011 322.635 38.0132 220.298 38.0132Z" fill="url(#paint11_linear_847_4179)"/>
<path d="M237.175 34.9231C134.837 34.9231 51.8765 117.921 51.8765 220.303C51.8765 322.686 134.837 405.684 237.175 405.684C339.512 405.684 422.472 322.686 422.472 220.303C422.472 117.921 339.512 34.9231 237.175 34.9231Z" fill="url(#paint12_linear_847_4179)" stroke="url(#paint13_linear_847_4179)" stroke-width="5.65675"/>
<path d="M248.094 379.937C245.25 379.937 242.946 382.242 242.946 385.086C242.946 387.931 245.25 390.236 248.094 390.236C250.936 390.236 253.241 387.931 253.241 385.086C253.241 382.242 250.936 379.937 248.094 379.937Z" fill="#949494"/>
<path d="M248.094 50.3718C245.25 50.3718 242.946 52.6773 242.946 55.5213C242.946 58.3653 245.25 60.6708 248.094 60.6708C250.936 60.6708 253.241 58.3653 253.241 55.5213C253.241 52.6773 250.936 50.3718 248.094 50.3718Z" fill="#949494"/>
<path d="M83.384 215.155C80.5414 215.155 78.2369 217.46 78.2369 220.303C78.2369 223.148 80.5414 225.453 83.384 225.453C86.2268 225.453 88.5312 223.148 88.5312 220.303C88.5312 217.46 86.2268 215.155 83.384 215.155Z" fill="#949494"/>
<path d="M129.709 96.717C126.866 96.717 124.562 99.0225 124.562 101.866C124.562 104.71 126.866 107.016 129.709 107.016C132.551 107.016 134.856 104.71 134.856 101.866C134.856 99.0225 132.551 96.717 129.709 96.717Z" fill="#949494"/>
<path d="M129.709 333.592C126.866 333.592 124.562 335.898 124.562 338.742C124.562 341.586 126.866 343.892 129.709 343.892C132.551 343.892 134.856 341.586 134.856 338.742C134.856 335.898 132.551 333.592 129.709 333.592Z" fill="#949494"/>
<path d="M412.802 215.155C409.96 215.155 407.656 217.46 407.656 220.303C407.656 223.148 409.96 225.453 412.802 225.453C415.645 225.453 417.949 223.148 417.949 220.303C417.949 217.46 415.645 215.155 412.802 215.155Z" fill="#949494"/>
<path d="M366.478 333.592C363.635 333.592 361.331 335.898 361.331 338.742C361.331 341.586 363.635 343.892 366.478 343.892C369.32 343.892 371.625 341.586 371.625 338.742C371.625 335.898 369.32 333.592 366.478 333.592Z" fill="#949494"/>
<path d="M366.478 96.717C363.635 96.717 361.331 99.0225 361.331 101.866C361.331 104.71 363.635 107.016 366.478 107.016C369.32 107.016 371.625 104.71 371.625 101.866C371.625 99.0225 369.32 96.717 366.478 96.717Z" fill="#949494"/>
<path opacity="0.2" d="M171.915 401.565C169.073 401.565 166.768 403.871 166.768 406.715C166.768 409.559 169.073 411.864 171.915 411.864C174.758 411.864 177.062 409.559 177.062 406.715C177.062 403.871 174.758 401.565 171.915 401.565Z" fill="#A6A6A6"/>
<path d="M168.827 27.7148C165.984 27.7148 163.68 30.0203 163.68 32.8643C163.68 35.7082 165.984 38.0137 168.827 38.0137C171.669 38.0137 173.974 35.7082 173.974 32.8643C173.974 30.0203 171.669 27.7148 168.827 27.7148Z" fill="#A6A6A6"/>
<path d="M25.7357 215.155C22.8931 215.155 20.5886 217.46 20.5886 220.303C20.5886 223.148 22.8931 225.453 25.7357 225.453C28.5785 225.453 30.8829 223.148 30.8829 220.303C30.8829 217.46 28.5785 215.155 25.7357 215.155Z" fill="#A6A6A6"/>
<path d="M72.0603 96.717C69.2175 96.717 66.9131 99.0225 66.9131 101.866C66.9131 104.71 69.2175 107.016 72.0603 107.016C74.9029 107.016 77.2075 104.71 77.2075 101.866C77.2075 99.0225 74.9029 96.717 72.0603 96.717Z" fill="#A6A6A6"/>
<path d="M67.9426 338.742C65.0999 338.742 62.7954 341.047 62.7954 343.891C62.7954 346.735 65.0999 349.041 67.9426 349.041C70.7853 349.041 73.0897 346.735 73.0897 343.891C73.0897 341.047 70.7853 338.742 67.9426 338.742Z" fill="#878787"/>
<path d="M248.094 96.7173C179.868 96.7173 124.562 152.049 124.562 220.305C124.562 288.559 179.868 343.892 248.094 343.892C316.319 343.892 371.625 288.559 371.625 220.305C371.625 152.049 316.319 96.7173 248.094 96.7173Z" fill="url(#paint14_linear_847_4179)" stroke="url(#paint15_linear_847_4179)" stroke-width="3.77117"/>
<path d="M237.799 96.7173C175.26 96.7173 124.562 152.049 124.562 220.305C124.562 288.559 175.26 343.892 237.799 343.892C300.339 343.892 351.037 288.559 351.037 220.305C351.037 152.049 300.339 96.7173 237.799 96.7173Z" fill="url(#paint16_linear_847_4179)" stroke="url(#paint17_linear_847_4179)" stroke-width="3.77117"/>
<path d="M248.094 335.652V103.926" stroke="#6D6D6D" stroke-width="7.54233" stroke-linecap="round"/>
<path d="M344.86 223.395L130.043 220.103" stroke="#6D6D6D" stroke-width="7.54233" stroke-linecap="round"/>
<path d="M322.169 295.67L163.601 136.193" stroke="#6D6D6D" stroke-width="7.54233" stroke-linecap="round"/>
<path d="M316.296 142.906L161.084 301.545" stroke="#6D6D6D" stroke-width="7.54233" stroke-linecap="round"/>
<path d="M286.093 324.207L207.228 108.493" stroke="#6D6D6D" stroke-width="7.54233" stroke-linecap="round"/>
<path d="M340.626 189.071L136.754 261.256" stroke="#6D6D6D" stroke-width="7.54233" stroke-linecap="round"/>
<path d="M248.094 179.11C225.351 179.11 206.916 197.553 206.916 220.306C206.916 243.057 225.351 261.5 248.094 261.5C270.835 261.5 289.27 243.057 289.27 220.306C289.27 197.553 270.835 179.11 248.094 179.11Z" fill="#BDBDBD" stroke="#666666" stroke-width="4.71396"/>
<path d="M248.093 201.767C237.859 201.767 229.563 210.066 229.563 220.304C229.563 230.543 237.859 238.843 248.093 238.843C258.327 238.843 266.623 230.543 266.623 220.304C266.623 210.066 258.327 201.767 248.093 201.767Z" fill="#9A9A9A"/>
<path d="M614.343 170.681C613.76 170.681 613.228 170.58 612.746 170.379C612.263 170.158 611.871 169.767 611.57 169.204C611.289 168.641 611.148 167.837 611.148 166.792C611.148 165.908 611.047 165.165 610.847 164.562C610.666 163.959 610.414 163.467 610.093 163.085C609.771 162.703 609.41 162.432 609.008 162.271C608.606 162.09 608.194 162 607.772 162H603.401V170.5H599.664V149.822H609.671C610.656 149.822 611.56 150.043 612.384 150.485C613.228 150.907 613.911 151.51 614.433 152.294C614.956 153.058 615.217 153.962 615.217 155.007C615.217 155.831 615.046 156.594 614.705 157.298C614.383 158.001 613.941 158.614 613.379 159.136C612.836 159.659 612.233 160.051 611.57 160.312V160.463C611.831 160.543 612.143 160.694 612.504 160.915C612.866 161.116 613.218 161.417 613.559 161.819C613.921 162.201 614.222 162.703 614.464 163.326C614.705 163.949 614.825 164.713 614.825 165.617C614.825 166.28 614.855 166.843 614.916 167.305C614.976 167.747 615.066 168.119 615.187 168.42C615.308 168.701 615.468 168.933 615.669 169.113C615.87 169.274 616.101 169.405 616.363 169.505V170.349C616.121 170.45 615.82 170.53 615.458 170.59C615.097 170.651 614.725 170.681 614.343 170.681ZM603.401 159.106H608.586C609.128 159.106 609.611 158.935 610.033 158.594C610.475 158.232 610.826 157.77 611.088 157.207C611.349 156.645 611.48 156.052 611.48 155.429C611.48 154.585 611.208 153.922 610.666 153.439C610.143 152.957 609.46 152.716 608.616 152.716H603.401V159.106ZM625.974 170.801C624.568 170.801 623.332 170.51 622.267 169.927C621.202 169.324 620.368 168.45 619.765 167.305C619.182 166.159 618.891 164.773 618.891 163.145V162.452C618.891 160.824 619.202 159.438 619.825 158.292C620.468 157.147 621.332 156.283 622.417 155.7C623.523 155.097 624.779 154.796 626.185 154.796H626.577C627.883 154.796 629.029 155.067 630.013 155.61C630.998 156.132 631.762 156.886 632.304 157.87C632.847 158.855 633.118 160.01 633.118 161.337V163.236H622.538C622.538 164.301 622.679 165.225 622.96 166.009C623.241 166.792 623.653 167.395 624.196 167.817C624.759 168.219 625.452 168.42 626.276 168.42C626.959 168.42 627.562 168.29 628.084 168.028C628.627 167.747 629.049 167.335 629.35 166.792C629.672 166.25 629.833 165.577 629.833 164.773H633.118C633.118 165.979 632.817 167.034 632.214 167.938C631.611 168.842 630.797 169.545 629.772 170.048C628.747 170.55 627.582 170.801 626.276 170.801H625.974ZM622.568 161.307H629.682C629.682 159.9 629.37 158.865 628.747 158.202C628.145 157.519 627.311 157.177 626.246 157.177C625.241 157.177 624.387 157.529 623.683 158.232C623 158.915 622.628 159.94 622.568 161.307ZM640.96 170.801C640.136 170.801 639.343 170.671 638.579 170.41C637.836 170.148 637.223 169.706 636.74 169.083C636.258 168.44 636.017 167.576 636.017 166.491C636.017 165.386 636.258 164.492 636.74 163.808C637.243 163.125 637.946 162.603 638.85 162.241C639.755 161.879 640.84 161.638 642.106 161.518C643.372 161.377 644.778 161.307 646.326 161.307V159.86C646.326 158.855 646.064 158.152 645.542 157.75C645.04 157.328 644.266 157.117 643.221 157.117C642.357 157.117 641.593 157.308 640.93 157.689C640.267 158.071 639.935 158.674 639.935 159.498V159.799H636.559C636.539 159.719 636.529 159.629 636.529 159.528C636.529 159.408 636.529 159.297 636.529 159.197C636.529 158.312 636.801 157.539 637.343 156.876C637.906 156.212 638.68 155.7 639.664 155.338C640.649 154.977 641.774 154.796 643.04 154.796H643.553C645.642 154.796 647.2 155.208 648.225 156.032C649.249 156.856 649.762 158.011 649.762 159.498V167.365C649.762 167.747 649.852 168.018 650.033 168.179C650.214 168.34 650.415 168.42 650.636 168.42C650.837 168.42 651.048 168.38 651.269 168.3C651.51 168.219 651.731 168.129 651.932 168.028V170.168C651.671 170.369 651.339 170.52 650.937 170.621C650.536 170.741 650.053 170.801 649.491 170.801C648.827 170.801 648.275 170.681 647.833 170.44C647.411 170.199 647.089 169.877 646.868 169.475C646.647 169.053 646.517 168.581 646.476 168.058C645.894 168.923 645.14 169.596 644.216 170.078C643.291 170.56 642.206 170.801 640.96 170.801ZM642.467 168.42C643.11 168.42 643.723 168.28 644.306 167.998C644.889 167.697 645.371 167.255 645.753 166.672C646.135 166.089 646.326 165.356 646.326 164.472V163.296C644.919 163.296 643.713 163.376 642.709 163.537C641.704 163.678 640.94 163.949 640.418 164.351C639.895 164.753 639.634 165.356 639.634 166.159C639.634 166.963 639.875 167.546 640.357 167.908C640.84 168.249 641.543 168.42 642.467 168.42ZM655.084 170.5V148.797H658.58V170.5H655.084ZM676.192 170.801C674.785 170.801 673.55 170.51 672.485 169.927C671.42 169.324 670.586 168.45 669.983 167.305C669.4 166.159 669.109 164.773 669.109 163.145V162.452C669.109 160.824 669.42 159.438 670.043 158.292C670.686 157.147 671.55 156.283 672.635 155.7C673.741 155.097 674.996 154.796 676.403 154.796H676.795C678.101 154.796 679.247 155.067 680.231 155.61C681.216 156.132 681.979 156.886 682.522 157.87C683.065 158.855 683.336 160.01 683.336 161.337V163.236H672.756C672.756 164.301 672.897 165.225 673.178 166.009C673.459 166.792 673.871 167.395 674.414 167.817C674.976 168.219 675.67 168.42 676.494 168.42C677.177 168.42 677.78 168.29 678.302 168.028C678.845 167.747 679.267 167.335 679.568 166.792C679.89 166.25 680.05 165.577 680.05 164.773H683.336C683.336 165.979 683.034 167.034 682.432 167.938C681.829 168.842 681.015 169.545 679.99 170.048C678.965 170.55 677.8 170.801 676.494 170.801H676.192ZM672.786 161.307H679.9C679.9 159.9 679.588 158.865 678.965 158.202C678.362 157.519 677.528 157.177 676.463 157.177C675.459 157.177 674.605 157.529 673.901 158.232C673.218 158.915 672.846 159.94 672.786 161.307ZM692.595 170.801C691.57 170.801 690.666 170.681 689.882 170.44C689.098 170.178 688.435 169.837 687.893 169.415C687.35 168.993 686.938 168.511 686.657 167.968C686.375 167.425 686.235 166.863 686.235 166.28C686.235 166.159 686.235 166.059 686.235 165.979C686.235 165.898 686.245 165.788 686.265 165.647H689.279C689.259 165.707 689.249 165.768 689.249 165.828C689.249 165.868 689.249 165.908 689.249 165.948C689.249 166.511 689.43 166.973 689.792 167.335C690.153 167.697 690.626 167.968 691.208 168.149C691.811 168.33 692.474 168.42 693.198 168.42C693.801 168.42 694.373 168.34 694.916 168.179C695.458 168.018 695.9 167.787 696.242 167.486C696.584 167.164 696.754 166.772 696.754 166.31C696.754 165.788 696.574 165.386 696.212 165.104C695.85 164.823 695.368 164.602 694.765 164.441C694.182 164.281 693.529 164.14 692.806 164.019C692.103 163.899 691.389 163.758 690.666 163.597C689.942 163.417 689.279 163.175 688.676 162.874C688.094 162.552 687.621 162.12 687.26 161.578C686.898 161.035 686.717 160.322 686.717 159.438C686.717 158.714 686.878 158.061 687.199 157.478C687.521 156.896 687.973 156.413 688.556 156.032C689.138 155.63 689.822 155.328 690.605 155.127C691.389 154.906 692.233 154.796 693.137 154.796H693.62C694.464 154.796 695.247 154.906 695.971 155.127C696.714 155.348 697.357 155.65 697.9 156.032C698.442 156.413 698.864 156.856 699.166 157.358C699.467 157.86 699.618 158.393 699.618 158.955C699.618 159.056 699.608 159.166 699.588 159.287C699.588 159.408 699.588 159.488 699.588 159.528H696.543V159.227C696.543 159.026 696.493 158.815 696.393 158.594C696.292 158.353 696.111 158.132 695.85 157.931C695.589 157.71 695.237 157.529 694.795 157.388C694.373 157.247 693.831 157.177 693.168 157.177C692.565 157.177 692.052 157.237 691.63 157.358C691.208 157.478 690.867 157.639 690.605 157.84C690.344 158.021 690.153 158.222 690.033 158.443C689.932 158.664 689.882 158.875 689.882 159.076C689.882 159.538 690.063 159.9 690.425 160.161C690.786 160.422 691.269 160.633 691.871 160.794C692.474 160.935 693.137 161.065 693.861 161.186C694.584 161.286 695.298 161.427 696.001 161.608C696.724 161.769 697.387 162.01 697.99 162.331C698.593 162.653 699.075 163.085 699.437 163.628C699.799 164.17 699.98 164.883 699.98 165.768C699.98 166.692 699.799 167.486 699.437 168.149C699.096 168.792 698.613 169.304 697.99 169.686C697.367 170.068 696.654 170.349 695.85 170.53C695.067 170.711 694.233 170.801 693.348 170.801H692.595ZM708.417 170.801C707.613 170.801 706.89 170.681 706.247 170.44C705.624 170.199 705.132 169.807 704.77 169.264C704.428 168.701 704.258 167.968 704.258 167.064V157.78H702.57V155.097H704.348L705.584 150.184H707.754V155.097H711.341V157.78H707.754V166.37C707.754 167.255 707.935 167.817 708.297 168.058C708.658 168.3 709.05 168.42 709.472 168.42C709.693 168.42 709.995 168.37 710.377 168.269C710.778 168.169 711.1 168.069 711.341 167.968V170.229C711.1 170.349 710.809 170.45 710.467 170.53C710.125 170.631 709.774 170.701 709.412 170.741C709.05 170.781 708.719 170.801 708.417 170.801ZM718.995 170.801C718.171 170.801 717.378 170.671 716.614 170.41C715.87 170.148 715.258 169.706 714.775 169.083C714.293 168.44 714.052 167.576 714.052 166.491C714.052 165.386 714.293 164.492 714.775 163.808C715.278 163.125 715.981 162.603 716.885 162.241C717.789 161.879 718.875 161.638 720.141 161.518C721.407 161.377 722.813 161.307 724.361 161.307V159.86C724.361 158.855 724.099 158.152 723.577 157.75C723.074 157.328 722.301 157.117 721.256 157.117C720.392 157.117 719.628 157.308 718.965 157.689C718.302 158.071 717.97 158.674 717.97 159.498V159.799H714.594C714.574 159.719 714.564 159.629 714.564 159.528C714.564 159.408 714.564 159.297 714.564 159.197C714.564 158.312 714.836 157.539 715.378 156.876C715.941 156.212 716.714 155.7 717.699 155.338C718.684 154.977 719.809 154.796 721.075 154.796H721.587C723.677 154.796 725.235 155.208 726.26 156.032C727.284 156.856 727.797 158.011 727.797 159.498V167.365C727.797 167.747 727.887 168.018 728.068 168.179C728.249 168.34 728.45 168.42 728.671 168.42C728.872 168.42 729.083 168.38 729.304 168.3C729.545 168.219 729.766 168.129 729.967 168.028V170.168C729.706 170.369 729.374 170.52 728.972 170.621C728.57 170.741 728.088 170.801 727.525 170.801C726.862 170.801 726.31 170.681 725.868 170.44C725.446 170.199 725.124 169.877 724.903 169.475C724.682 169.053 724.551 168.581 724.511 168.058C723.928 168.923 723.175 169.596 722.251 170.078C721.326 170.56 720.241 170.801 718.995 170.801ZM720.502 168.42C721.145 168.42 721.758 168.28 722.341 167.998C722.924 167.697 723.406 167.255 723.788 166.672C724.17 166.089 724.361 165.356 724.361 164.472V163.296C722.954 163.296 721.748 163.376 720.743 163.537C719.739 163.678 718.975 163.949 718.453 164.351C717.93 164.753 717.669 165.356 717.669 166.159C717.669 166.963 717.91 167.546 718.392 167.908C718.875 168.249 719.578 168.42 720.502 168.42ZM737.883 170.801C737.079 170.801 736.356 170.681 735.712 170.44C735.09 170.199 734.597 169.807 734.235 169.264C733.894 168.701 733.723 167.968 733.723 167.064V157.78H732.035V155.097H733.813L735.049 150.184H737.22V155.097H740.807V157.78H737.22V166.37C737.22 167.255 737.4 167.817 737.762 168.058C738.124 168.3 738.516 168.42 738.938 168.42C739.159 168.42 739.46 168.37 739.842 168.269C740.244 168.169 740.565 168.069 740.807 167.968V170.229C740.565 170.349 740.274 170.45 739.932 170.53C739.591 170.631 739.239 170.701 738.877 170.741C738.516 170.781 738.184 170.801 737.883 170.801ZM750.842 170.801C749.435 170.801 748.199 170.51 747.134 169.927C746.069 169.324 745.235 168.45 744.633 167.305C744.05 166.159 743.758 164.773 743.758 163.145V162.452C743.758 160.824 744.07 159.438 744.693 158.292C745.336 157.147 746.2 156.283 747.285 155.7C748.39 155.097 749.646 154.796 751.053 154.796H751.445C752.751 154.796 753.896 155.067 754.881 155.61C755.866 156.132 756.629 156.886 757.172 157.87C757.714 158.855 757.986 160.01 757.986 161.337V163.236H747.406C747.406 164.301 747.546 165.225 747.828 166.009C748.109 166.792 748.521 167.395 749.063 167.817C749.626 168.219 750.319 168.42 751.143 168.42C751.827 168.42 752.429 168.29 752.952 168.028C753.494 167.747 753.916 167.335 754.218 166.792C754.539 166.25 754.7 165.577 754.7 164.773H757.986C757.986 165.979 757.684 167.034 757.081 167.938C756.479 168.842 755.665 169.545 754.64 170.048C753.615 170.55 752.449 170.801 751.143 170.801H750.842ZM747.436 161.307H754.549C754.549 159.9 754.238 158.865 753.615 158.202C753.012 157.519 752.178 157.177 751.113 157.177C750.108 157.177 749.254 157.529 748.551 158.232C747.868 158.915 747.496 159.94 747.436 161.307Z" fill="#1B1B1B"/>
<path d="M581.274 211.651C580.45 211.651 579.747 211.5 579.164 211.199C578.581 210.897 578.064 210.46 577.611 209.887L578.576 208.923C578.908 209.385 579.289 209.737 579.721 209.978C580.153 210.209 580.686 210.324 581.319 210.324C581.942 210.324 582.439 210.189 582.811 209.918C583.193 209.646 583.384 209.274 583.384 208.802C583.384 208.41 583.293 208.094 583.112 207.853C582.932 207.612 582.685 207.416 582.374 207.265C582.073 207.104 581.741 206.964 581.379 206.843C581.018 206.712 580.656 206.577 580.294 206.436C579.932 206.285 579.601 206.104 579.299 205.893C578.998 205.672 578.752 205.386 578.561 205.034C578.38 204.683 578.29 204.241 578.29 203.708C578.29 203.115 578.43 202.613 578.712 202.201C579.003 201.779 579.395 201.458 579.887 201.236C580.39 201.005 580.952 200.89 581.575 200.89C582.258 200.89 582.871 201.025 583.414 201.297C583.956 201.558 584.399 201.905 584.74 202.337L583.776 203.301C583.464 202.94 583.128 202.668 582.766 202.487C582.414 202.307 582.007 202.216 581.545 202.216C580.982 202.216 580.535 202.342 580.204 202.593C579.872 202.834 579.706 203.176 579.706 203.618C579.706 203.969 579.797 204.256 579.978 204.477C580.169 204.688 580.415 204.869 580.716 205.019C581.018 205.17 581.349 205.311 581.711 205.441C582.083 205.562 582.449 205.698 582.811 205.848C583.173 205.999 583.504 206.19 583.806 206.421C584.107 206.652 584.348 206.954 584.529 207.325C584.72 207.687 584.815 208.144 584.815 208.697C584.815 209.621 584.494 210.345 583.851 210.867C583.218 211.389 582.359 211.651 581.274 211.651ZM589.425 211.651C588.772 211.651 588.179 211.49 587.647 211.168C587.114 210.837 586.692 210.39 586.381 209.827C586.079 209.264 585.929 208.631 585.929 207.928C585.929 207.225 586.079 206.592 586.381 206.029C586.692 205.466 587.109 205.019 587.632 204.688C588.164 204.356 588.762 204.19 589.425 204.19C589.968 204.19 590.45 204.306 590.872 204.537C591.304 204.758 591.651 205.07 591.912 205.472C592.173 205.863 592.319 206.321 592.349 206.843V208.998C592.319 209.511 592.173 209.968 591.912 210.37C591.661 210.772 591.319 211.088 590.887 211.319C590.465 211.54 589.978 211.651 589.425 211.651ZM589.651 210.37C590.324 210.37 590.867 210.144 591.279 209.691C591.691 209.229 591.897 208.641 591.897 207.928C591.897 207.436 591.801 207.009 591.61 206.647C591.43 206.275 591.168 205.989 590.827 205.788C590.485 205.577 590.088 205.472 589.636 205.472C589.184 205.472 588.782 205.577 588.43 205.788C588.089 205.999 587.817 206.29 587.617 206.662C587.426 207.024 587.33 207.441 587.33 207.913C587.33 208.395 587.426 208.822 587.617 209.194C587.817 209.556 588.094 209.842 588.445 210.053C588.797 210.264 589.199 210.37 589.651 210.37ZM591.806 211.5V209.571L592.063 207.823L591.806 206.089V204.341H593.178V211.5H591.806ZM596.148 211.5V203.271C596.148 202.739 596.264 202.276 596.495 201.885C596.726 201.483 597.042 201.166 597.444 200.935C597.856 200.704 598.333 200.588 598.876 200.588C599.288 200.588 599.645 200.659 599.946 200.799C600.247 200.94 600.524 201.146 600.775 201.417L599.886 202.291C599.755 202.151 599.609 202.045 599.449 201.975C599.288 201.895 599.092 201.854 598.861 201.854C598.429 201.854 598.092 201.98 597.851 202.231C597.62 202.482 597.504 202.829 597.504 203.271V211.5H596.148ZM594.385 205.577V204.341H599.78V205.577H594.385ZM604.046 211.651C603.333 211.651 602.69 211.49 602.117 211.168C601.545 210.837 601.092 210.39 600.761 209.827C600.429 209.264 600.264 208.626 600.264 207.913C600.264 207.21 600.424 206.577 600.746 206.014C601.077 205.451 601.519 205.009 602.072 204.688C602.635 204.356 603.263 204.19 603.956 204.19C604.619 204.19 605.202 204.341 605.704 204.643C606.217 204.944 606.614 205.361 606.895 205.893C607.186 206.426 607.332 207.029 607.332 207.702C607.332 207.803 607.327 207.913 607.317 208.034C607.307 208.144 607.287 208.275 607.257 208.425H601.213V207.295H606.533L606.036 207.732C606.036 207.25 605.95 206.843 605.78 206.511C605.609 206.17 605.368 205.909 605.056 205.728C604.745 205.537 604.368 205.441 603.926 205.441C603.464 205.441 603.057 205.542 602.705 205.743C602.353 205.944 602.082 206.225 601.891 206.587C601.7 206.948 601.605 207.376 601.605 207.868C601.605 208.37 601.705 208.812 601.906 209.194C602.107 209.566 602.394 209.857 602.765 210.068C603.137 210.269 603.564 210.37 604.046 210.37C604.448 210.37 604.815 210.299 605.147 210.159C605.488 210.018 605.78 209.807 606.021 209.526L606.895 210.415C606.553 210.817 606.131 211.123 605.629 211.334C605.137 211.545 604.609 211.651 604.046 211.651ZM608.811 211.5V200.739H610.167V211.5H608.811ZM614.503 211.56L611.398 204.341H612.905L615.211 209.993H614.729L617.156 204.341H618.663L615.317 211.56H614.503ZM612.453 214.499L614.563 210.174L615.317 211.56L613.96 214.499H612.453ZM625.304 211.651C624.902 211.651 624.521 211.6 624.159 211.5C623.807 211.389 623.481 211.239 623.179 211.048C622.878 210.847 622.617 210.611 622.396 210.34L623.27 209.465C623.531 209.787 623.832 210.028 624.174 210.189C624.516 210.34 624.897 210.415 625.319 210.415C625.741 210.415 626.068 210.345 626.299 210.204C626.53 210.053 626.646 209.847 626.646 209.586C626.646 209.325 626.55 209.124 626.359 208.983C626.178 208.832 625.942 208.712 625.651 208.621C625.36 208.521 625.048 208.425 624.716 208.335C624.395 208.235 624.089 208.109 623.797 207.958C623.506 207.808 623.265 207.602 623.074 207.34C622.893 207.079 622.802 206.732 622.802 206.3C622.802 205.868 622.908 205.497 623.119 205.185C623.33 204.864 623.621 204.617 623.993 204.447C624.375 204.276 624.832 204.19 625.365 204.19C625.927 204.19 626.425 204.291 626.857 204.492C627.299 204.683 627.66 204.974 627.942 205.366L627.068 206.24C626.867 205.979 626.615 205.778 626.314 205.637C626.023 205.497 625.691 205.426 625.319 205.426C624.927 205.426 624.626 205.497 624.415 205.637C624.214 205.768 624.114 205.954 624.114 206.195C624.114 206.436 624.204 206.622 624.385 206.753C624.566 206.883 624.802 206.994 625.093 207.084C625.395 207.175 625.706 207.27 626.028 207.37C626.349 207.461 626.656 207.587 626.947 207.747C627.238 207.908 627.475 208.124 627.655 208.395C627.846 208.667 627.942 209.023 627.942 209.465C627.942 210.139 627.701 210.671 627.218 211.063C626.746 211.455 626.108 211.651 625.304 211.651ZM630.56 211.5V201.342H631.917V211.5H630.56ZM628.797 205.577V204.341H633.68V205.577H628.797ZM638.059 211.651C637.355 211.651 636.722 211.485 636.16 211.153C635.597 210.822 635.15 210.375 634.818 209.812C634.487 209.239 634.321 208.601 634.321 207.898C634.321 207.205 634.487 206.582 634.818 206.029C635.15 205.466 635.597 205.019 636.16 204.688C636.722 204.356 637.355 204.19 638.059 204.19C638.752 204.19 639.38 204.356 639.943 204.688C640.515 205.009 640.967 205.451 641.299 206.014C641.631 206.577 641.796 207.205 641.796 207.898C641.796 208.601 641.631 209.239 641.299 209.812C640.967 210.375 640.515 210.822 639.943 211.153C639.38 211.485 638.752 211.651 638.059 211.651ZM638.059 210.34C638.511 210.34 638.913 210.234 639.264 210.023C639.616 209.812 639.892 209.526 640.093 209.164C640.294 208.792 640.395 208.37 640.395 207.898C640.395 207.436 640.289 207.024 640.078 206.662C639.877 206.3 639.601 206.019 639.249 205.818C638.908 205.607 638.511 205.502 638.059 205.502C637.607 205.502 637.205 205.607 636.853 205.818C636.501 206.019 636.225 206.3 636.024 206.662C635.823 207.024 635.723 207.436 635.723 207.898C635.723 208.37 635.823 208.792 636.024 209.164C636.225 209.526 636.501 209.812 636.853 210.023C637.205 210.234 637.607 210.34 638.059 210.34ZM643.325 211.5V204.341H644.681V211.5H643.325ZM644.681 207.416L644.169 207.19C644.169 206.275 644.38 205.547 644.802 205.004C645.224 204.462 645.831 204.19 646.625 204.19C646.987 204.19 647.313 204.256 647.605 204.386C647.896 204.507 648.168 204.713 648.419 205.004L647.53 205.924C647.379 205.763 647.213 205.647 647.032 205.577C646.851 205.507 646.64 205.472 646.399 205.472C645.897 205.472 645.485 205.632 645.163 205.954C644.842 206.275 644.681 206.763 644.681 207.416ZM652.454 211.651C651.741 211.651 651.098 211.49 650.525 211.168C649.952 210.837 649.5 210.39 649.168 209.827C648.837 209.264 648.671 208.626 648.671 207.913C648.671 207.21 648.832 206.577 649.153 206.014C649.485 205.451 649.927 205.009 650.48 204.688C651.042 204.356 651.67 204.19 652.364 204.19C653.027 204.19 653.609 204.341 654.112 204.643C654.624 204.944 655.021 205.361 655.302 205.893C655.594 206.426 655.739 207.029 655.739 207.702C655.739 207.803 655.734 207.913 655.724 208.034C655.714 208.144 655.694 208.275 655.664 208.425H649.621V207.295H654.941L654.443 207.732C654.443 207.25 654.358 206.843 654.187 206.511C654.016 206.17 653.775 205.909 653.464 205.728C653.152 205.537 652.775 205.441 652.333 205.441C651.871 205.441 651.464 205.542 651.113 205.743C650.761 205.944 650.49 206.225 650.299 206.587C650.108 206.948 650.012 207.376 650.012 207.868C650.012 208.37 650.113 208.812 650.314 209.194C650.515 209.566 650.801 209.857 651.173 210.068C651.545 210.269 651.972 210.37 652.454 210.37C652.856 210.37 653.223 210.299 653.554 210.159C653.896 210.018 654.187 209.807 654.428 209.526L655.302 210.415C654.961 210.817 654.539 211.123 654.036 211.334C653.544 211.545 653.017 211.651 652.454 211.651ZM663.398 211.651C662.745 211.651 662.152 211.49 661.619 211.168C661.087 210.837 660.665 210.39 660.353 209.827C660.052 209.264 659.901 208.631 659.901 207.928C659.901 207.225 660.052 206.592 660.353 206.029C660.665 205.466 661.082 205.019 661.604 204.688C662.137 204.356 662.735 204.19 663.398 204.19C663.94 204.19 664.423 204.306 664.845 204.537C665.277 204.758 665.623 205.07 665.885 205.472C666.146 205.863 666.291 206.321 666.322 206.843V208.998C666.291 209.511 666.146 209.968 665.885 210.37C665.633 210.772 665.292 211.088 664.86 211.319C664.438 211.54 663.95 211.651 663.398 211.651ZM663.624 210.37C664.297 210.37 664.84 210.144 665.252 209.691C665.663 209.229 665.869 208.641 665.869 207.928C665.869 207.436 665.774 207.009 665.583 206.647C665.402 206.275 665.141 205.989 664.799 205.788C664.458 205.577 664.061 205.472 663.609 205.472C663.157 205.472 662.755 205.577 662.403 205.788C662.061 205.999 661.79 206.29 661.589 206.662C661.398 207.024 661.303 207.441 661.303 207.913C661.303 208.395 661.398 208.822 661.589 209.194C661.79 209.556 662.066 209.842 662.418 210.053C662.77 210.264 663.172 210.37 663.624 210.37ZM665.779 211.5V209.571L666.035 207.823L665.779 206.089V204.341H667.151V211.5H665.779ZM674.189 211.5V207.325C674.189 206.783 674.018 206.336 673.677 205.984C673.335 205.632 672.893 205.456 672.351 205.456C671.989 205.456 671.667 205.537 671.386 205.698C671.105 205.858 670.884 206.079 670.723 206.361C670.562 206.642 670.482 206.964 670.482 207.325L669.924 207.009C669.924 206.466 670.045 205.984 670.286 205.562C670.527 205.14 670.864 204.808 671.296 204.567C671.728 204.316 672.215 204.19 672.757 204.19C673.3 204.19 673.777 204.326 674.189 204.597C674.611 204.869 674.943 205.225 675.184 205.667C675.425 206.099 675.546 206.562 675.546 207.054V211.5H674.189ZM669.125 211.5V204.341H670.482V211.5H669.125ZM680.411 211.651C679.748 211.651 679.155 211.49 678.633 211.168C678.111 210.837 677.694 210.39 677.382 209.827C677.081 209.264 676.93 208.631 676.93 207.928C676.93 207.225 677.081 206.592 677.382 206.029C677.694 205.466 678.111 205.019 678.633 204.688C679.155 204.356 679.748 204.19 680.411 204.19C680.944 204.19 681.426 204.306 681.858 204.537C682.29 204.758 682.637 205.07 682.898 205.472C683.169 205.863 683.32 206.321 683.35 206.843V208.998C683.32 209.511 683.174 209.968 682.913 210.37C682.652 210.772 682.305 211.088 681.873 211.319C681.441 211.54 680.954 211.651 680.411 211.651ZM680.638 210.37C681.09 210.37 681.481 210.264 681.813 210.053C682.155 209.842 682.421 209.556 682.612 209.194C682.803 208.822 682.898 208.4 682.898 207.928C682.898 207.436 682.798 207.009 682.597 206.647C682.406 206.285 682.14 205.999 681.798 205.788C681.466 205.577 681.075 205.472 680.622 205.472C680.17 205.472 679.773 205.577 679.432 205.788C679.09 205.999 678.819 206.29 678.618 206.662C678.427 207.024 678.332 207.441 678.332 207.913C678.332 208.395 678.427 208.822 678.618 209.194C678.819 209.556 679.09 209.842 679.432 210.053C679.783 210.264 680.185 210.37 680.638 210.37ZM684.179 211.5H682.808V209.571L683.064 207.823L682.808 206.089V200.739H684.179V211.5ZM692.559 211.651C691.856 211.651 691.223 211.485 690.66 211.153C690.098 210.822 689.651 210.375 689.319 209.812C688.988 209.239 688.822 208.601 688.822 207.898C688.822 207.205 688.988 206.582 689.319 206.029C689.651 205.466 690.098 205.019 690.66 204.688C691.223 204.356 691.856 204.19 692.559 204.19C693.253 204.19 693.881 204.356 694.443 204.688C695.016 205.009 695.468 205.451 695.8 206.014C696.131 206.577 696.297 207.205 696.297 207.898C696.297 208.601 696.131 209.239 695.8 209.812C695.468 210.375 695.016 210.822 694.443 211.153C693.881 211.485 693.253 211.651 692.559 211.651ZM692.559 210.34C693.012 210.34 693.413 210.234 693.765 210.023C694.117 209.812 694.393 209.526 694.594 209.164C694.795 208.792 694.895 208.37 694.895 207.898C694.895 207.436 694.79 207.024 694.579 206.662C694.378 206.3 694.102 206.019 693.75 205.818C693.408 205.607 693.012 205.502 692.559 205.502C692.107 205.502 691.705 205.607 691.354 205.818C691.002 206.019 690.726 206.3 690.525 206.662C690.324 207.024 690.223 207.436 690.223 207.898C690.223 208.37 690.324 208.792 690.525 209.164C690.726 209.526 691.002 209.812 691.354 210.023C691.705 210.234 692.107 210.34 692.559 210.34ZM697.825 211.5V204.341H699.182V211.5H697.825ZM699.182 207.416L698.669 207.19C698.669 206.275 698.88 205.547 699.302 205.004C699.724 204.462 700.332 204.19 701.126 204.19C701.488 204.19 701.814 204.256 702.106 204.386C702.397 204.507 702.668 204.713 702.92 205.004L702.03 205.924C701.88 205.763 701.714 205.647 701.533 205.577C701.352 205.507 701.141 205.472 700.9 205.472C700.398 205.472 699.986 205.632 699.664 205.954C699.343 206.275 699.182 206.763 699.182 207.416ZM706.608 214.65C705.875 214.65 705.222 214.514 704.649 214.243C704.086 213.972 703.634 213.59 703.292 213.098L704.167 212.208C704.458 212.58 704.805 212.861 705.206 213.052C705.608 213.253 706.086 213.354 706.638 213.354C707.372 213.354 707.949 213.158 708.371 212.766C708.803 212.384 709.019 211.867 709.019 211.214V209.435L709.261 207.823L709.019 206.225V204.341H710.376V211.214C710.376 211.897 710.215 212.495 709.894 213.007C709.582 213.52 709.14 213.921 708.567 214.213C708.005 214.504 707.352 214.65 706.608 214.65ZM706.608 211.379C705.955 211.379 705.367 211.224 704.845 210.912C704.332 210.601 703.925 210.174 703.624 209.631C703.323 209.079 703.172 208.461 703.172 207.777C703.172 207.094 703.323 206.486 703.624 205.954C703.925 205.411 704.332 204.984 704.845 204.673C705.367 204.351 705.955 204.19 706.608 204.19C707.171 204.19 707.668 204.301 708.1 204.522C708.532 204.743 708.874 205.055 709.125 205.456C709.386 205.848 709.527 206.31 709.547 206.843V208.742C709.517 209.264 709.371 209.727 709.11 210.129C708.859 210.52 708.517 210.827 708.085 211.048C707.653 211.269 707.161 211.379 706.608 211.379ZM706.879 210.098C707.321 210.098 707.708 210.003 708.04 209.812C708.381 209.621 708.643 209.355 708.824 209.013C709.004 208.662 709.095 208.255 709.095 207.792C709.095 207.33 708.999 206.928 708.808 206.587C708.628 206.235 708.371 205.964 708.04 205.773C707.708 205.572 707.316 205.472 706.864 205.472C706.412 205.472 706.015 205.572 705.674 205.773C705.332 205.964 705.061 206.235 704.86 206.587C704.669 206.928 704.573 207.325 704.573 207.777C704.573 208.23 704.669 208.631 704.86 208.983C705.061 209.335 705.332 209.611 705.674 209.812C706.025 210.003 706.427 210.098 706.879 210.098ZM715.411 211.651C714.758 211.651 714.165 211.49 713.633 211.168C713.1 210.837 712.678 210.39 712.367 209.827C712.065 209.264 711.915 208.631 711.915 207.928C711.915 207.225 712.065 206.592 712.367 206.029C712.678 205.466 713.095 205.019 713.618 204.688C714.15 204.356 714.748 204.19 715.411 204.19C715.954 204.19 716.436 204.306 716.858 204.537C717.29 204.758 717.637 205.07 717.898 205.472C718.159 205.863 718.305 206.321 718.335 206.843V208.998C718.305 209.511 718.159 209.968 717.898 210.37C717.647 210.772 717.305 211.088 716.873 211.319C716.451 211.54 715.964 211.651 715.411 211.651ZM715.637 210.37C716.31 210.37 716.853 210.144 717.265 209.691C717.677 209.229 717.883 208.641 717.883 207.928C717.883 207.436 717.787 207.009 717.597 206.647C717.416 206.275 717.154 205.989 716.813 205.788C716.471 205.577 716.074 205.472 715.622 205.472C715.17 205.472 714.768 205.577 714.417 205.788C714.075 205.999 713.804 206.29 713.603 206.662C713.412 207.024 713.316 207.441 713.316 207.913C713.316 208.395 713.412 208.822 713.603 209.194C713.804 209.556 714.08 209.842 714.432 210.053C714.783 210.264 715.185 210.37 715.637 210.37ZM717.792 211.5V209.571L718.049 207.823L717.792 206.089V204.341H719.164V211.5H717.792ZM726.203 211.5V207.325C726.203 206.783 726.032 206.336 725.69 205.984C725.349 205.632 724.907 205.456 724.364 205.456C724.002 205.456 723.681 205.537 723.399 205.698C723.118 205.858 722.897 206.079 722.736 206.361C722.576 206.642 722.495 206.964 722.495 207.325L721.938 207.009C721.938 206.466 722.058 205.984 722.299 205.562C722.54 205.14 722.877 204.808 723.309 204.567C723.741 204.316 724.228 204.19 724.771 204.19C725.313 204.19 725.791 204.326 726.203 204.597C726.625 204.869 726.956 205.225 727.197 205.667C727.439 206.099 727.559 206.562 727.559 207.054V211.5H726.203ZM721.139 211.5V204.341H722.495V211.5H721.139ZM729.411 211.5V204.341H730.767V211.5H729.411ZM730.089 202.909C729.838 202.909 729.632 202.829 729.471 202.668C729.31 202.497 729.23 202.286 729.23 202.035C729.23 201.794 729.31 201.593 729.471 201.432C729.632 201.262 729.838 201.176 730.089 201.176C730.34 201.176 730.546 201.262 730.707 201.432C730.868 201.593 730.948 201.794 730.948 202.035C730.948 202.286 730.868 202.497 730.707 202.668C730.546 202.829 730.34 202.909 730.089 202.909ZM732.193 210.762L736.443 205.08H738.041L733.791 210.762H732.193ZM732.193 211.5V210.762L733.399 210.264H737.95V211.5H732.193ZM732.449 205.577V204.341H738.041V205.08L736.79 205.577H732.449ZM742.69 211.651C741.977 211.651 741.334 211.49 740.761 211.168C740.188 210.837 739.736 210.39 739.405 209.827C739.073 209.264 738.907 208.626 738.907 207.913C738.907 207.21 739.068 206.577 739.389 206.014C739.721 205.451 740.163 205.009 740.716 204.688C741.278 204.356 741.906 204.19 742.6 204.19C743.263 204.19 743.846 204.341 744.348 204.643C744.86 204.944 745.257 205.361 745.539 205.893C745.83 206.426 745.976 207.029 745.976 207.702C745.976 207.803 745.971 207.913 745.961 208.034C745.95 208.144 745.93 208.275 745.9 208.425H739.857V207.295H745.177L744.679 207.732C744.679 207.25 744.594 206.843 744.423 206.511C744.252 206.17 744.011 205.909 743.7 205.728C743.388 205.537 743.012 205.441 742.569 205.441C742.107 205.441 741.7 205.542 741.349 205.743C740.997 205.944 740.726 206.225 740.535 206.587C740.344 206.948 740.249 207.376 740.249 207.868C740.249 208.37 740.349 208.812 740.55 209.194C740.751 209.566 741.037 209.857 741.409 210.068C741.781 210.269 742.208 210.37 742.69 210.37C743.092 210.37 743.459 210.299 743.79 210.159C744.132 210.018 744.423 209.807 744.664 209.526L745.539 210.415C745.197 210.817 744.775 211.123 744.273 211.334C743.78 211.545 743.253 211.651 742.69 211.651ZM752.941 211.56L749.836 204.341H751.343L753.649 209.993H753.167L755.593 204.341H757.1L753.754 211.56H752.941ZM750.891 214.499L753.001 210.174L753.754 211.56L752.398 214.499H750.891ZM761.204 211.651C760.501 211.651 759.868 211.485 759.305 211.153C758.743 210.822 758.295 210.375 757.964 209.812C757.632 209.239 757.467 208.601 757.467 207.898C757.467 207.205 757.632 206.582 757.964 206.029C758.295 205.466 758.743 205.019 759.305 204.688C759.868 204.356 760.501 204.19 761.204 204.19C761.898 204.19 762.525 204.356 763.088 204.688C763.661 205.009 764.113 205.451 764.445 206.014C764.776 206.577 764.942 207.205 764.942 207.898C764.942 208.601 764.776 209.239 764.445 209.812C764.113 210.375 763.661 210.822 763.088 211.153C762.525 211.485 761.898 211.651 761.204 211.651ZM761.204 210.34C761.656 210.34 762.058 210.234 762.41 210.023C762.762 209.812 763.038 209.526 763.239 209.164C763.44 208.792 763.54 208.37 763.54 207.898C763.54 207.436 763.435 207.024 763.224 206.662C763.023 206.3 762.747 206.019 762.395 205.818C762.053 205.607 761.656 205.502 761.204 205.502C760.752 205.502 760.35 205.607 759.999 205.818C759.647 206.019 759.371 206.3 759.17 206.662C758.969 207.024 758.868 207.436 758.868 207.898C758.868 208.37 758.969 208.792 759.17 209.164C759.371 209.526 759.647 209.812 759.999 210.023C760.35 210.234 760.752 210.34 761.204 210.34ZM769.349 211.651C768.766 211.651 768.239 211.52 767.766 211.259C767.304 210.988 766.942 210.616 766.681 210.144C766.42 209.671 766.289 209.124 766.289 208.501V204.341H767.646V208.441C767.646 208.832 767.711 209.174 767.842 209.465C767.982 209.747 768.183 209.963 768.445 210.113C768.706 210.264 769.012 210.34 769.364 210.34C769.896 210.34 770.313 210.174 770.615 209.842C770.916 209.501 771.067 209.033 771.067 208.441V204.341H772.423V208.501C772.423 209.124 772.293 209.671 772.032 210.144C771.77 210.616 771.409 210.988 770.946 211.259C770.494 211.52 769.962 211.651 769.349 211.651ZM774.241 211.5V204.341H775.598V211.5H774.241ZM775.598 207.416L775.085 207.19C775.085 206.275 775.296 205.547 775.718 205.004C776.14 204.462 776.748 204.19 777.542 204.19C777.904 204.19 778.23 204.256 778.522 204.386C778.813 204.507 779.084 204.713 779.335 205.004L778.446 205.924C778.296 205.763 778.13 205.647 777.949 205.577C777.768 205.507 777.557 205.472 777.316 205.472C776.814 205.472 776.402 205.632 776.08 205.954C775.759 206.275 775.598 206.763 775.598 207.416ZM661.72 230.651C661.067 230.651 660.474 230.49 659.942 230.168C659.409 229.837 658.987 229.39 658.676 228.827C658.374 228.264 658.223 227.631 658.223 226.928C658.223 226.225 658.374 225.592 658.676 225.029C658.987 224.466 659.404 224.019 659.926 223.688C660.459 223.356 661.057 223.19 661.72 223.19C662.262 223.19 662.745 223.306 663.167 223.537C663.599 223.758 663.945 224.07 664.207 224.472C664.468 224.863 664.614 225.321 664.644 225.843V227.998C664.614 228.511 664.468 228.968 664.207 229.37C663.955 229.772 663.614 230.088 663.182 230.319C662.76 230.54 662.273 230.651 661.72 230.651ZM661.946 229.37C662.619 229.37 663.162 229.144 663.574 228.691C663.986 228.229 664.192 227.641 664.192 226.928C664.192 226.436 664.096 226.009 663.905 225.647C663.724 225.275 663.463 224.989 663.122 224.788C662.78 224.577 662.383 224.472 661.931 224.472C661.479 224.472 661.077 224.577 660.725 224.788C660.384 224.999 660.112 225.29 659.911 225.662C659.72 226.024 659.625 226.441 659.625 226.913C659.625 227.395 659.72 227.822 659.911 228.194C660.112 228.556 660.389 228.842 660.74 229.053C661.092 229.264 661.494 229.37 661.946 229.37ZM664.101 230.5V228.571L664.357 226.823L664.101 225.089V223.341H665.473V230.5H664.101ZM669.723 230.651C669.321 230.651 668.94 230.6 668.578 230.5C668.226 230.389 667.9 230.239 667.598 230.048C667.297 229.847 667.036 229.611 666.814 229.34L667.689 228.465C667.95 228.787 668.251 229.028 668.593 229.189C668.934 229.34 669.316 229.415 669.738 229.415C670.16 229.415 670.487 229.345 670.718 229.204C670.949 229.053 671.065 228.847 671.065 228.586C671.065 228.325 670.969 228.124 670.778 227.983C670.597 227.832 670.361 227.712 670.07 227.621C669.778 227.521 669.467 227.425 669.135 227.335C668.814 227.235 668.507 227.109 668.216 226.958C667.925 226.808 667.684 226.602 667.493 226.34C667.312 226.079 667.221 225.732 667.221 225.3C667.221 224.868 667.327 224.497 667.538 224.185C667.749 223.864 668.04 223.617 668.412 223.447C668.794 223.276 669.251 223.19 669.784 223.19C670.346 223.19 670.844 223.291 671.276 223.492C671.718 223.683 672.079 223.974 672.361 224.366L671.487 225.24C671.286 224.979 671.034 224.778 670.733 224.637C670.442 224.497 670.11 224.426 669.738 224.426C669.346 224.426 669.045 224.497 668.834 224.637C668.633 224.768 668.533 224.954 668.533 225.195C668.533 225.436 668.623 225.622 668.804 225.753C668.985 225.883 669.221 225.994 669.512 226.084C669.814 226.175 670.125 226.27 670.447 226.37C670.768 226.461 671.075 226.587 671.366 226.747C671.657 226.908 671.893 227.124 672.074 227.395C672.265 227.667 672.361 228.023 672.361 228.465C672.361 229.139 672.12 229.671 671.637 230.063C671.165 230.455 670.527 230.651 669.723 230.651ZM676.155 230.651C675.753 230.651 675.371 230.6 675.01 230.5C674.658 230.389 674.331 230.239 674.03 230.048C673.729 229.847 673.467 229.611 673.246 229.34L674.12 228.465C674.382 228.787 674.683 229.028 675.025 229.189C675.366 229.34 675.748 229.415 676.17 229.415C676.592 229.415 676.919 229.345 677.15 229.204C677.381 229.053 677.496 228.847 677.496 228.586C677.496 228.325 677.401 228.124 677.21 227.983C677.029 227.832 676.793 227.712 676.502 227.621C676.21 227.521 675.899 227.425 675.567 227.335C675.246 227.235 674.939 227.109 674.648 226.958C674.356 226.808 674.115 226.602 673.924 226.34C673.744 226.079 673.653 225.732 673.653 225.3C673.653 224.868 673.759 224.497 673.97 224.185C674.181 223.864 674.472 223.617 674.844 223.447C675.226 223.276 675.683 223.19 676.215 223.19C676.778 223.19 677.275 223.291 677.707 223.492C678.149 223.683 678.511 223.974 678.792 224.366L677.918 225.24C677.717 224.979 677.466 224.778 677.165 224.637C676.873 224.497 676.542 224.426 676.17 224.426C675.778 224.426 675.477 224.497 675.266 224.637C675.065 224.768 674.964 224.954 674.964 225.195C674.964 225.436 675.055 225.622 675.236 225.753C675.416 225.883 675.653 225.994 675.944 226.084C676.245 226.175 676.557 226.27 676.878 226.37C677.2 226.461 677.506 226.587 677.798 226.747C678.089 226.908 678.325 227.124 678.506 227.395C678.697 227.667 678.792 228.023 678.792 228.465C678.792 229.139 678.551 229.671 678.069 230.063C677.597 230.455 676.959 230.651 676.155 230.651ZM683.627 230.651C682.913 230.651 682.27 230.49 681.698 230.168C681.125 229.837 680.673 229.39 680.341 228.827C680.01 228.264 679.844 227.626 679.844 226.913C679.844 226.21 680.005 225.577 680.326 225.014C680.658 224.451 681.1 224.009 681.652 223.688C682.215 223.356 682.843 223.19 683.536 223.19C684.199 223.19 684.782 223.341 685.285 223.643C685.797 223.944 686.194 224.361 686.475 224.893C686.767 225.426 686.912 226.029 686.912 226.702C686.912 226.803 686.907 226.913 686.897 227.034C686.887 227.144 686.867 227.275 686.837 227.425H680.793V226.295H686.113L685.616 226.732C685.616 226.25 685.531 225.843 685.36 225.511C685.189 225.17 684.948 224.909 684.636 224.728C684.325 224.537 683.948 224.441 683.506 224.441C683.044 224.441 682.637 224.542 682.285 224.743C681.934 224.944 681.662 225.225 681.471 225.587C681.281 225.948 681.185 226.376 681.185 226.868C681.185 227.37 681.286 227.812 681.487 228.194C681.688 228.566 681.974 228.857 682.346 229.068C682.717 229.269 683.144 229.37 683.627 229.37C684.029 229.37 684.395 229.299 684.727 229.159C685.068 229.018 685.36 228.807 685.601 228.526L686.475 229.415C686.134 229.817 685.712 230.123 685.209 230.334C684.717 230.545 684.189 230.651 683.627 230.651ZM689.271 230.5V220.342H690.627V230.5H689.271ZM687.507 224.577V223.341H692.39V224.577H687.507ZM695.848 230.651C695.446 230.651 695.064 230.6 694.702 230.5C694.351 230.389 694.024 230.239 693.723 230.048C693.421 229.847 693.16 229.611 692.939 229.34L693.813 228.465C694.074 228.787 694.376 229.028 694.717 229.189C695.059 229.34 695.441 229.415 695.863 229.415C696.285 229.415 696.611 229.345 696.842 229.204C697.073 229.053 697.189 228.847 697.189 228.586C697.189 228.325 697.094 228.124 696.903 227.983C696.722 227.832 696.486 227.712 696.194 227.621C695.903 227.521 695.591 227.425 695.26 227.335C694.938 227.235 694.632 227.109 694.341 226.958C694.049 226.808 693.808 226.602 693.617 226.34C693.436 226.079 693.346 225.732 693.346 225.3C693.346 224.868 693.451 224.497 693.662 224.185C693.873 223.864 694.165 223.617 694.536 223.447C694.918 223.276 695.375 223.19 695.908 223.19C696.471 223.19 696.968 223.291 697.4 223.492C697.842 223.683 698.204 223.974 698.485 224.366L697.611 225.24C697.41 224.979 697.159 224.778 696.857 224.637C696.566 224.497 696.235 224.426 695.863 224.426C695.471 224.426 695.169 224.497 694.958 224.637C694.758 224.768 694.657 224.954 694.657 225.195C694.657 225.436 694.747 225.622 694.928 225.753C695.109 225.883 695.345 225.994 695.637 226.084C695.938 226.175 696.25 226.27 696.571 226.37C696.893 226.461 697.199 226.587 697.49 226.747C697.782 226.908 698.018 227.124 698.199 227.395C698.39 227.667 698.485 228.023 698.485 228.465C698.485 229.139 698.244 229.671 697.762 230.063C697.289 230.455 696.651 230.651 695.848 230.651Z" fill="#898989"/>
<rect x="654.845" y="261" width="47" height="47" rx="23.5" fill="white"/>
<rect x="654.845" y="261" width="47" height="47" rx="23.5" stroke="#E1E1E1"/>
<path d="M688.845 289.75H688.095V277.928L689.002 277.733C689.1 277.715 689.194 277.677 689.277 277.622C689.361 277.566 689.432 277.495 689.488 277.412C689.543 277.328 689.581 277.235 689.6 277.136C689.619 277.038 689.618 276.937 689.597 276.839C689.576 276.741 689.535 276.648 689.478 276.566C689.421 276.484 689.347 276.415 689.263 276.361C689.178 276.308 689.083 276.272 688.985 276.256C688.886 276.24 688.785 276.244 688.687 276.267L667.687 280.767C667.507 280.806 667.346 280.911 667.238 281.061C667.13 281.211 667.08 281.395 667.1 281.579C667.119 281.763 667.206 281.934 667.344 282.058C667.481 282.181 667.66 282.25 667.845 282.25C667.898 282.25 667.951 282.244 668.003 282.233L668.595 282.107V289.75H667.845C667.646 289.75 667.455 289.829 667.315 289.97C667.174 290.11 667.095 290.301 667.095 290.5C667.095 290.699 667.174 290.89 667.315 291.03C667.455 291.171 667.646 291.25 667.845 291.25H688.845C689.044 291.25 689.235 291.171 689.375 291.03C689.516 290.89 689.595 290.699 689.595 290.5C689.595 290.301 689.516 290.11 689.375 289.97C689.235 289.829 689.044 289.75 688.845 289.75ZM683.595 289.75H673.095V288.25H683.595V289.75ZM683.595 286.75H673.095V285.25H683.595V286.75Z" fill="#80CFA9"/>
<defs>
<linearGradient id="paint0_linear_847_4179" x1="678.381" y1="474.887" x2="627.46" y2="-38.3349" gradientUnits="userSpaceOnUse">
<stop stop-color="#7F7F7F"/>
<stop offset="0.5" stop-color="#A0A0A0"/>
<stop offset="1" stop-color="#C1C1C1"/>
</linearGradient>
<linearGradient id="paint1_linear_847_4179" x1="692.957" y1="483.634" x2="612.175" y2="-49.6424" gradientUnits="userSpaceOnUse">
<stop stop-color="#111111"/>
<stop offset="0.5" stop-color="#C5C5C5"/>
<stop offset="1" stop-color="#909090"/>
</linearGradient>
<linearGradient id="paint2_linear_847_4179" x1="573.247" y1="55.7039" x2="827.209" y2="375.652" gradientUnits="userSpaceOnUse">
<stop stop-color="white"/>
<stop offset="1" stop-color="#C5FFE3"/>
</linearGradient>
<linearGradient id="paint3_linear_847_4179" x1="678.397" y1="45.3278" x2="678.397" y2="405.765" gradientUnits="userSpaceOnUse">
<stop stop-color="#343434"/>
<stop offset="1" stop-color="#818181"/>
</linearGradient>
<linearGradient id="paint4_linear_847_4179" x1="408.329" y1="91.2237" x2="409.094" y2="115.96" gradientUnits="userSpaceOnUse">
<stop offset="0.146425" stop-color="#C5C5C5"/>
<stop offset="0.5" stop-color="#8A8A8A"/>
<stop offset="0.619735" stop-color="#ABABAB"/>
</linearGradient>
<linearGradient id="paint5_linear_847_4179" x1="416.564" y1="335.308" x2="417.33" y2="360.044" gradientUnits="userSpaceOnUse">
<stop offset="0.146425" stop-color="#C5C5C5"/>
<stop offset="0.5" stop-color="#8A8A8A"/>
<stop offset="0.619735" stop-color="#ABABAB"/>
</linearGradient>
<linearGradient id="paint6_linear_847_4179" x1="500.305" y1="51.0578" x2="394.272" y2="51.0578" gradientUnits="userSpaceOnUse">
<stop stop-color="#989898"/>
<stop offset="0.5" stop-color="#D2D2D2"/>
<stop offset="1" stop-color="#989898"/>
</linearGradient>
<linearGradient id="paint7_linear_847_4179" x1="500.305" y1="397.102" x2="394.272" y2="397.102" gradientUnits="userSpaceOnUse">
<stop stop-color="#989898"/>
<stop offset="0.5" stop-color="#D2D2D2"/>
<stop offset="1" stop-color="#989898"/>
</linearGradient>
<linearGradient id="paint8_linear_847_4179" x1="447.408" y1="-47.2626" x2="653.096" y2="21.1681" gradientUnits="userSpaceOnUse">
<stop offset="0.380265" stop-color="#ABABAB"/>
<stop offset="0.5" stop-color="#8A8A8A"/>
<stop offset="0.853575" stop-color="#C5C5C5"/>
</linearGradient>
<linearGradient id="paint9_linear_847_4179" x1="224.931" y1="470.054" x2="149.716" y2="-32.5243" gradientUnits="userSpaceOnUse">
<stop stop-color="#111111"/>
<stop offset="0.5" stop-color="#C5C5C5"/>
<stop offset="1" stop-color="#909090"/>
</linearGradient>
<linearGradient id="paint10_linear_847_4179" x1="221.328" y1="459.754" x2="173.933" y2="-23.776" gradientUnits="userSpaceOnUse">
<stop stop-color="#595959"/>
<stop offset="0.5" stop-color="#A0A0A0"/>
<stop offset="1" stop-color="#C1C1C1"/>
</linearGradient>
<linearGradient id="paint11_linear_847_4179" x1="178.092" y1="425.768" x2="13.254" y2="-10.3432" gradientUnits="userSpaceOnUse">
<stop stop-color="#898989"/>
<stop offset="0.5" stop-color="#E1E1E1"/>
<stop offset="1" stop-color="#E8E8E8"/>
</linearGradient>
<linearGradient id="paint12_linear_847_4179" x1="422.472" y1="405.684" x2="51.7113" y2="35.0882" gradientUnits="userSpaceOnUse">
<stop stop-color="#F5F5F5"/>
<stop offset="0.5" stop-color="#A6A6A6"/>
<stop offset="1" stop-color="#949494"/>
</linearGradient>
<linearGradient id="paint13_linear_847_4179" x1="358.647" y1="405.684" x2="-110.777" y2="366.069" gradientUnits="userSpaceOnUse">
<stop stop-color="#E8E8E8"/>
<stop offset="0.511749" stop-color="#A6A6A6"/>
<stop offset="1" stop-color="#898989"/>
</linearGradient>
<linearGradient id="paint14_linear_847_4179" x1="371.625" y1="343.892" x2="206.787" y2="-104.579" gradientUnits="userSpaceOnUse">
<stop stop-color="#898989"/>
<stop offset="0.748684" stop-color="#A6A6A6"/>
<stop offset="1" stop-color="#E1E1E1"/>
</linearGradient>
<linearGradient id="paint15_linear_847_4179" x1="329.075" y1="343.892" x2="16.1258" y2="317.481" gradientUnits="userSpaceOnUse">
<stop stop-color="#A6A6A6"/>
<stop offset="0.511749" stop-color="#A6A6A6"/>
<stop offset="1" stop-color="#858585"/>
</linearGradient>
<linearGradient id="paint16_linear_847_4179" x1="351.037" y1="343.892" x2="104.805" y2="118.28" gradientUnits="userSpaceOnUse">
<stop stop-color="#969696"/>
<stop offset="0.5" stop-color="#B5B5B5"/>
<stop offset="1" stop-color="#E5E5E5"/>
</linearGradient>
<linearGradient id="paint17_linear_847_4179" x1="312.033" y1="343.892" x2="24.8377" y2="321.674" gradientUnits="userSpaceOnUse">
<stop stop-color="#A6A6A6"/>
<stop offset="0.511749" stop-color="#898989"/>
<stop offset="1" stop-color="#E1E1E1"/>
</linearGradient>
</defs>
</svg>
