<svg width="903" height="450" viewBox="0 0 903 450" fill="none" xmlns="http://www.w3.org/2000/svg">
<path d="M678.381 445.912C800.626 445.912 899.724 346.783 899.724 224.501C899.724 102.219 800.626 3.0896 678.381 3.0896C556.137 3.0896 457.037 102.219 457.037 224.501C457.037 346.783 556.137 445.912 678.381 445.912Z" fill="url(#paint0_linear_1082_2689)" stroke="url(#paint1_linear_1082_2689)" stroke-width="5.65675"/>
<path d="M678.397 55.625C772.212 55.625 848.265 131.702 848.265 225.546C848.265 319.391 772.212 395.467 678.397 395.467C584.581 395.467 508.527 319.391 508.527 225.546C508.527 131.702 584.581 55.6251 678.397 55.625Z" fill="url(#paint2_linear_1082_2689)" stroke="url(#paint3_linear_1082_2689)" stroke-width="18.8558"/>
<path d="M445.744 93.2834H373.684V108.732H445.744V93.2834Z" fill="url(#paint4_linear_1082_2689)"/>
<path d="M453.98 337.367H381.92V352.815H453.98V337.367Z" fill="url(#paint5_linear_1082_2689)"/>
<path d="M496.186 30.46H398.39C396.116 30.46 394.272 32.3041 394.272 34.579V67.5366C394.272 69.8115 396.116 71.6556 398.39 71.6556H496.186C498.461 71.6556 500.304 69.8115 500.304 67.5366V34.579C500.304 32.3041 498.461 30.46 496.186 30.46Z" fill="url(#paint6_linear_1082_2689)"/>
<path d="M468.392 56.2085C465.549 56.2085 463.245 58.514 463.245 61.3579C463.245 64.2019 465.549 66.5074 468.392 66.5074C471.235 66.5074 473.539 64.2019 473.539 61.3579C473.539 58.514 471.235 56.2085 468.392 56.2085Z" fill="#A6A6A6"/>
<path d="M468.392 36.6404C465.549 36.6404 463.245 38.9459 463.245 41.7898C463.245 44.6338 465.549 46.9393 468.392 46.9393C471.235 46.9393 473.539 44.6338 473.539 41.7898C473.539 38.9459 471.235 36.6404 468.392 36.6404Z" fill="#A6A6A6"/>
<path d="M487.951 56.2085C485.109 56.2085 482.804 58.514 482.804 61.3579C482.804 64.2019 485.109 66.5074 487.951 66.5074C490.794 66.5074 493.098 64.2019 493.098 61.3579C493.098 58.514 490.794 56.2085 487.951 56.2085Z" fill="#A6A6A6"/>
<path d="M487.951 36.6404C485.109 36.6404 482.804 38.9459 482.804 41.7898C482.804 44.6338 485.109 46.9393 487.951 46.9393C490.794 46.9393 493.098 44.6338 493.098 41.7898C493.098 38.9459 490.794 36.6404 487.951 36.6404Z" fill="#A6A6A6"/>
<path d="M406.626 56.2085C403.783 56.2085 401.479 58.514 401.479 61.3579C401.479 64.2019 403.783 66.5074 406.626 66.5074C409.468 66.5074 411.773 64.2019 411.773 61.3579C411.773 58.514 409.468 56.2085 406.626 56.2085Z" fill="#A6A6A6"/>
<path d="M406.626 36.6404C403.783 36.6404 401.479 38.9459 401.479 41.7898C401.479 44.6338 403.783 46.9393 406.626 46.9393C409.468 46.9393 411.773 44.6338 411.773 41.7898C411.773 38.9459 409.468 36.6404 406.626 36.6404Z" fill="#A6A6A6"/>
<path d="M426.185 56.2085C423.342 56.2085 421.038 58.514 421.038 61.3579C421.038 64.2019 423.342 66.5074 426.185 66.5074C429.028 66.5074 431.333 64.2019 431.333 61.3579C431.333 58.514 429.028 56.2085 426.185 56.2085Z" fill="#A6A6A6"/>
<path d="M426.185 36.6404C423.342 36.6404 421.038 38.9459 421.038 41.7898C421.038 44.6338 423.342 46.9393 426.185 46.9393C429.028 46.9393 431.333 44.6338 431.333 41.7898C431.333 38.9459 429.028 36.6404 426.185 36.6404Z" fill="#A6A6A6"/>
<path d="M496.186 376.504H398.39C396.116 376.504 394.272 378.348 394.272 380.623V413.58C394.272 415.855 396.116 417.699 398.39 417.699H496.186C498.461 417.699 500.304 415.855 500.304 413.58V380.623C500.304 378.348 498.461 376.504 496.186 376.504Z" fill="url(#paint7_linear_1082_2689)"/>
<path d="M468.392 402.251C465.549 402.251 463.245 404.555 463.245 407.4C463.245 410.244 465.549 412.549 468.392 412.549C471.235 412.549 473.539 410.244 473.539 407.4C473.539 404.555 471.235 402.251 468.392 402.251Z" fill="#A6A6A6"/>
<path d="M468.392 382.682C465.549 382.682 463.245 384.988 463.245 387.832C463.245 390.676 465.549 392.981 468.392 392.981C471.235 392.981 473.539 390.676 473.539 387.832C473.539 384.988 471.235 382.682 468.392 382.682Z" fill="#A6A6A6"/>
<path d="M487.951 402.251C485.109 402.251 482.804 404.555 482.804 407.4C482.804 410.244 485.109 412.549 487.951 412.549C490.794 412.549 493.098 410.244 493.098 407.4C493.098 404.555 490.794 402.251 487.951 402.251Z" fill="#A6A6A6"/>
<path d="M487.951 382.682C485.109 382.682 482.804 384.988 482.804 387.832C482.804 390.676 485.109 392.981 487.951 392.981C490.794 392.981 493.098 390.676 493.098 387.832C493.098 384.988 490.794 382.682 487.951 382.682Z" fill="#A6A6A6"/>
<path d="M406.626 402.251C403.783 402.251 401.479 404.555 401.479 407.4C401.479 410.244 403.783 412.549 406.626 412.549C409.468 412.549 411.773 410.244 411.773 407.4C411.773 404.555 409.468 402.251 406.626 402.251Z" fill="#A6A6A6"/>
<path d="M406.626 382.682C403.783 382.682 401.479 384.988 401.479 387.832C401.479 390.676 403.783 392.981 406.626 392.981C409.468 392.981 411.773 390.676 411.773 387.832C411.773 384.988 409.468 382.682 406.626 382.682Z" fill="#A6A6A6"/>
<path d="M426.185 402.251C423.342 402.251 421.038 404.555 421.038 407.4C421.038 410.244 423.342 412.549 426.185 412.549C429.028 412.549 431.333 410.244 431.333 407.4C431.333 404.555 429.028 402.251 426.185 402.251Z" fill="#A6A6A6"/>
<path d="M426.185 382.682C423.342 382.682 421.038 384.988 421.038 387.832C421.038 390.676 423.342 392.981 426.185 392.981C429.028 392.981 431.333 390.676 431.333 387.832C431.333 384.988 429.028 382.682 426.185 382.682Z" fill="#A6A6A6"/>
<path d="M458.097 23.6825C458.097 16.0497 453.488 9.86206 447.803 9.86206C442.118 9.86206 437.51 16.0497 437.51 23.6825V424.477C437.51 432.109 442.118 438.297 447.803 438.297C453.488 438.297 458.097 432.109 458.097 424.477V23.6825Z" fill="url(#paint8_linear_1082_2689)"/>
<path d="M211.033 434.522C327.584 434.522 422.067 341.15 422.067 225.969C422.067 110.788 327.584 17.4158 211.033 17.4158C94.4829 17.4158 0 110.788 0 225.969C0 341.15 94.4829 434.522 211.033 434.522Z" fill="url(#paint9_linear_1082_2689)"/>
<path d="M221.328 432.462C337.878 432.462 432.361 339.09 432.361 223.909C432.361 108.728 337.878 15.3557 221.328 15.3557C104.777 15.3557 10.2944 108.728 10.2944 223.909C10.2944 339.09 104.777 432.462 221.328 432.462Z" fill="url(#paint10_linear_1082_2689)"/>
<path d="M447.803 105.236C451.215 105.236 453.98 102.469 453.98 99.0565C453.98 95.6437 451.215 92.8772 447.803 92.8772C444.392 92.8772 441.627 95.6437 441.627 99.0565C441.627 102.469 444.392 105.236 447.803 105.236Z" fill="#777777"/>
<path d="M447.803 349.602C451.215 349.602 453.98 346.835 453.98 343.422C453.98 340.01 451.215 337.243 447.803 337.243C444.392 337.243 441.627 340.01 441.627 343.422C441.627 346.835 444.392 349.602 447.803 349.602Z" fill="#777777"/>
<path d="M220.298 38.0132C117.961 38.0132 35.0006 121.011 35.0006 223.393C35.0006 325.776 117.961 408.774 220.298 408.774C322.635 408.774 405.597 325.776 405.597 223.393C405.597 121.011 322.635 38.0132 220.298 38.0132Z" fill="url(#paint11_linear_1082_2689)"/>
<path d="M237.175 34.9231C134.837 34.9231 51.8764 117.921 51.8764 220.303C51.8764 322.686 134.837 405.684 237.175 405.684C339.512 405.684 422.472 322.686 422.472 220.303C422.472 117.921 339.512 34.9231 237.175 34.9231Z" fill="url(#paint12_linear_1082_2689)" stroke="url(#paint13_linear_1082_2689)" stroke-width="5.65675"/>
<path d="M248.094 379.937C245.25 379.937 242.946 382.242 242.946 385.086C242.946 387.931 245.25 390.236 248.094 390.236C250.936 390.236 253.241 387.931 253.241 385.086C253.241 382.242 250.936 379.937 248.094 379.937Z" fill="#949494"/>
<path d="M248.094 50.3718C245.25 50.3718 242.946 52.6773 242.946 55.5213C242.946 58.3653 245.25 60.6708 248.094 60.6708C250.936 60.6708 253.241 58.3653 253.241 55.5213C253.241 52.6773 250.936 50.3718 248.094 50.3718Z" fill="#949494"/>
<path d="M83.384 215.155C80.5414 215.155 78.2369 217.46 78.2369 220.303C78.2369 223.148 80.5414 225.453 83.384 225.453C86.2268 225.453 88.5312 223.148 88.5312 220.303C88.5312 217.46 86.2268 215.155 83.384 215.155Z" fill="#949494"/>
<path d="M129.709 96.717C126.865 96.717 124.562 99.0225 124.562 101.866C124.562 104.71 126.865 107.016 129.709 107.016C132.551 107.016 134.856 104.71 134.856 101.866C134.856 99.0225 132.551 96.717 129.709 96.717Z" fill="#949494"/>
<path d="M129.709 333.592C126.865 333.592 124.562 335.898 124.562 338.742C124.562 341.586 126.865 343.892 129.709 343.892C132.551 343.892 134.856 341.586 134.856 338.742C134.856 335.898 132.551 333.592 129.709 333.592Z" fill="#949494"/>
<path d="M412.802 215.155C409.96 215.155 407.656 217.46 407.656 220.303C407.656 223.148 409.96 225.453 412.802 225.453C415.645 225.453 417.949 223.148 417.949 220.303C417.949 217.46 415.645 215.155 412.802 215.155Z" fill="#949494"/>
<path d="M366.478 333.592C363.635 333.592 361.331 335.898 361.331 338.742C361.331 341.586 363.635 343.892 366.478 343.892C369.32 343.892 371.625 341.586 371.625 338.742C371.625 335.898 369.32 333.592 366.478 333.592Z" fill="#949494"/>
<path d="M366.478 96.717C363.635 96.717 361.331 99.0225 361.331 101.866C361.331 104.71 363.635 107.016 366.478 107.016C369.32 107.016 371.625 104.71 371.625 101.866C371.625 99.0225 369.32 96.717 366.478 96.717Z" fill="#949494"/>
<path opacity="0.2" d="M171.915 401.565C169.073 401.565 166.768 403.871 166.768 406.715C166.768 409.559 169.073 411.864 171.915 411.864C174.758 411.864 177.062 409.559 177.062 406.715C177.062 403.871 174.758 401.565 171.915 401.565Z" fill="#A6A6A6"/>
<path d="M168.827 27.7148C165.984 27.7148 163.68 30.0203 163.68 32.8643C163.68 35.7082 165.984 38.0137 168.827 38.0137C171.669 38.0137 173.974 35.7082 173.974 32.8643C173.974 30.0203 171.669 27.7148 168.827 27.7148Z" fill="#A6A6A6"/>
<path d="M25.7357 215.155C22.8931 215.155 20.5886 217.46 20.5886 220.303C20.5886 223.148 22.8931 225.453 25.7357 225.453C28.5785 225.453 30.8829 223.148 30.8829 220.303C30.8829 217.46 28.5785 215.155 25.7357 215.155Z" fill="#A6A6A6"/>
<path d="M72.0603 96.717C69.2175 96.717 66.9131 99.0225 66.9131 101.866C66.9131 104.71 69.2175 107.016 72.0603 107.016C74.9029 107.016 77.2075 104.71 77.2075 101.866C77.2075 99.0225 74.9029 96.717 72.0603 96.717Z" fill="#A6A6A6"/>
<path d="M67.9426 338.742C65.0999 338.742 62.7954 341.047 62.7954 343.891C62.7954 346.735 65.0999 349.041 67.9426 349.041C70.7853 349.041 73.0897 346.735 73.0897 343.891C73.0897 341.047 70.7853 338.742 67.9426 338.742Z" fill="#878787"/>
<path d="M248.094 96.7173C179.868 96.7173 124.562 152.049 124.562 220.305C124.562 288.559 179.868 343.892 248.094 343.892C316.319 343.892 371.625 288.559 371.625 220.305C371.625 152.049 316.319 96.7173 248.094 96.7173Z" fill="url(#paint14_linear_1082_2689)" stroke="url(#paint15_linear_1082_2689)" stroke-width="3.77117"/>
<path d="M237.799 96.7173C175.26 96.7173 124.562 152.049 124.562 220.305C124.562 288.559 175.26 343.892 237.799 343.892C300.339 343.892 351.037 288.559 351.037 220.305C351.037 152.049 300.339 96.7173 237.799 96.7173Z" fill="url(#paint16_linear_1082_2689)" stroke="url(#paint17_linear_1082_2689)" stroke-width="3.77117"/>
<path d="M248.094 335.652V103.926" stroke="#6D6D6D" stroke-width="7.54233" stroke-linecap="round"/>
<path d="M344.86 223.395L130.043 220.103" stroke="#6D6D6D" stroke-width="7.54233" stroke-linecap="round"/>
<path d="M322.169 295.67L163.601 136.193" stroke="#6D6D6D" stroke-width="7.54233" stroke-linecap="round"/>
<path d="M316.296 142.906L161.084 301.545" stroke="#6D6D6D" stroke-width="7.54233" stroke-linecap="round"/>
<path d="M286.093 324.207L207.228 108.493" stroke="#6D6D6D" stroke-width="7.54233" stroke-linecap="round"/>
<path d="M340.626 189.071L136.754 261.256" stroke="#6D6D6D" stroke-width="7.54233" stroke-linecap="round"/>
<path d="M248.093 179.11C225.351 179.11 206.916 197.553 206.916 220.306C206.916 243.057 225.351 261.5 248.093 261.5C270.834 261.5 289.27 243.057 289.27 220.306C289.27 197.553 270.834 179.11 248.093 179.11Z" fill="#BDBDBD" stroke="#666666" stroke-width="4.71396"/>
<path d="M248.094 201.767C237.859 201.767 229.563 210.066 229.563 220.304C229.563 230.543 237.859 238.843 248.094 238.843C258.327 238.843 266.623 230.543 266.623 220.304C266.623 210.066 258.327 201.767 248.094 201.767Z" fill="#9A9A9A"/>
<path d="M612.424 152.5V131.822H625.867L625.445 134.716H616.162V140.744H624.36V143.638H616.162V152.5H612.424ZM628.817 152.5V137.097H632.313V152.5H628.817ZM628.726 133.631V130.797H632.404V133.631H628.726ZM636.995 152.5V137.097H639.557L640.009 139.358C640.592 138.514 641.316 137.881 642.18 137.459C643.044 137.017 644.008 136.796 645.073 136.796C646.138 136.796 647.073 136.997 647.877 137.399C648.68 137.801 649.303 138.393 649.745 139.177C650.208 139.941 650.439 140.885 650.439 142.01V152.5H646.942V142.643C646.942 141.498 646.671 140.684 646.128 140.202C645.606 139.699 644.872 139.448 643.928 139.448C643.305 139.448 642.732 139.609 642.21 139.931C641.687 140.232 641.265 140.644 640.944 141.166C640.642 141.689 640.492 142.282 640.492 142.945V152.5H636.995ZM658.96 152.801C658.136 152.801 657.342 152.671 656.579 152.41C655.835 152.148 655.222 151.706 654.74 151.083C654.258 150.44 654.017 149.576 654.017 148.491C654.017 147.386 654.258 146.492 654.74 145.808C655.243 145.125 655.946 144.603 656.85 144.241C657.754 143.879 658.84 143.638 660.106 143.518C661.372 143.377 662.778 143.307 664.325 143.307V141.86C664.325 140.855 664.064 140.152 663.542 139.75C663.039 139.328 662.266 139.117 661.221 139.117C660.357 139.117 659.593 139.308 658.93 139.689C658.267 140.071 657.935 140.674 657.935 141.498V141.799H654.559C654.539 141.719 654.529 141.629 654.529 141.528C654.529 141.408 654.529 141.297 654.529 141.197C654.529 140.312 654.8 139.539 655.343 138.876C655.906 138.212 656.679 137.7 657.664 137.338C658.649 136.977 659.774 136.796 661.04 136.796H661.552C663.642 136.796 665.2 137.208 666.224 138.032C667.249 138.856 667.762 140.011 667.762 141.498V149.365C667.762 149.747 667.852 150.018 668.033 150.179C668.214 150.34 668.415 150.42 668.636 150.42C668.837 150.42 669.048 150.38 669.269 150.3C669.51 150.219 669.731 150.129 669.932 150.028V152.168C669.671 152.369 669.339 152.52 668.937 152.621C668.535 152.741 668.053 152.801 667.49 152.801C666.827 152.801 666.275 152.681 665.833 152.44C665.411 152.199 665.089 151.877 664.868 151.475C664.647 151.053 664.516 150.581 664.476 150.058C663.893 150.923 663.14 151.596 662.215 152.078C661.291 152.56 660.206 152.801 658.96 152.801ZM660.467 150.42C661.11 150.42 661.723 150.28 662.306 149.998C662.889 149.697 663.371 149.255 663.753 148.672C664.135 148.089 664.325 147.356 664.325 146.472V145.296C662.919 145.296 661.713 145.376 660.708 145.537C659.704 145.678 658.94 145.949 658.418 146.351C657.895 146.753 657.634 147.356 657.634 148.159C657.634 148.963 657.875 149.546 658.357 149.908C658.84 150.249 659.543 150.42 660.467 150.42ZM673.084 152.5V137.097H675.646L676.098 139.358C676.681 138.514 677.404 137.881 678.268 137.459C679.132 137.017 680.097 136.796 681.162 136.796C682.227 136.796 683.161 136.997 683.965 137.399C684.769 137.801 685.392 138.393 685.834 139.177C686.296 139.941 686.527 140.885 686.527 142.01V152.5H683.031V142.643C683.031 141.498 682.759 140.684 682.217 140.202C681.694 139.699 680.961 139.448 680.017 139.448C679.394 139.448 678.821 139.609 678.298 139.931C677.776 140.232 677.354 140.644 677.032 141.166C676.731 141.689 676.58 142.282 676.58 142.945V152.5H673.084ZM697.128 152.801C695.842 152.801 694.687 152.49 693.662 151.867C692.637 151.224 691.833 150.33 691.251 149.184C690.668 148.039 690.377 146.713 690.377 145.206V144.392C690.377 143.246 690.557 142.211 690.919 141.287C691.281 140.363 691.773 139.569 692.396 138.906C693.039 138.223 693.783 137.7 694.627 137.338C695.471 136.977 696.375 136.796 697.339 136.796H697.792C699.098 136.796 700.233 137.057 701.198 137.579C702.162 138.102 702.906 138.835 703.428 139.78C703.971 140.724 704.242 141.85 704.242 143.156H701.137C701.137 142.272 700.987 141.538 700.685 140.955C700.404 140.353 700.002 139.91 699.48 139.629C698.977 139.328 698.384 139.177 697.701 139.177C696.656 139.177 695.782 139.529 695.079 140.232C694.396 140.935 694.054 142 694.054 143.427V146.08C694.054 147.506 694.386 148.592 695.049 149.335C695.732 150.058 696.626 150.42 697.731 150.42C698.455 150.42 699.078 150.29 699.6 150.028C700.143 149.747 700.555 149.315 700.836 148.732C701.137 148.149 701.288 147.386 701.288 146.441H704.242C704.242 147.788 703.951 148.943 703.368 149.908C702.785 150.852 701.991 151.576 700.987 152.078C699.982 152.56 698.847 152.801 697.581 152.801H697.128ZM708.029 152.5V137.097H711.526V152.5H708.029ZM707.939 133.631V130.797H711.616V133.631H707.939ZM720.216 152.801C719.393 152.801 718.599 152.671 717.835 152.41C717.092 152.148 716.479 151.706 715.997 151.083C715.514 150.44 715.273 149.576 715.273 148.491C715.273 147.386 715.514 146.492 715.997 145.808C716.499 145.125 717.202 144.603 718.106 144.241C719.011 143.879 720.096 143.638 721.362 143.518C722.628 143.377 724.035 143.307 725.582 143.307V141.86C725.582 140.855 725.321 140.152 724.798 139.75C724.296 139.328 723.522 139.117 722.477 139.117C721.613 139.117 720.849 139.308 720.186 139.689C719.523 140.071 719.192 140.674 719.192 141.498V141.799H715.816C715.796 141.719 715.786 141.629 715.786 141.528C715.786 141.408 715.786 141.297 715.786 141.197C715.786 140.312 716.057 139.539 716.599 138.876C717.162 138.212 717.936 137.7 718.92 137.338C719.905 136.977 721.03 136.796 722.296 136.796H722.809C724.899 136.796 726.456 137.208 727.481 138.032C728.506 138.856 729.018 140.011 729.018 141.498V149.365C729.018 149.747 729.108 150.018 729.289 150.179C729.47 150.34 729.671 150.42 729.892 150.42C730.093 150.42 730.304 150.38 730.525 150.3C730.766 150.219 730.987 150.129 731.188 150.028V152.168C730.927 152.369 730.596 152.52 730.194 152.621C729.792 152.741 729.309 152.801 728.747 152.801C728.084 152.801 727.531 152.681 727.089 152.44C726.667 152.199 726.345 151.877 726.124 151.475C725.903 151.053 725.773 150.581 725.733 150.058C725.15 150.923 724.396 151.596 723.472 152.078C722.547 152.56 721.462 152.801 720.216 152.801ZM721.724 150.42C722.367 150.42 722.98 150.28 723.562 149.998C724.145 149.697 724.627 149.255 725.009 148.672C725.391 148.089 725.582 147.356 725.582 146.472V145.296C724.175 145.296 722.969 145.376 721.965 145.537C720.96 145.678 720.196 145.949 719.674 146.351C719.151 146.753 718.89 147.356 718.89 148.159C718.89 148.963 719.131 149.546 719.614 149.908C720.096 150.249 720.799 150.42 721.724 150.42ZM734.34 152.5V130.797H737.837V152.5H734.34ZM636.5 188.801C635.677 188.801 634.883 188.671 634.119 188.41C633.376 188.148 632.763 187.706 632.28 187.083C631.798 186.44 631.557 185.576 631.557 184.491C631.557 183.386 631.798 182.492 632.28 181.808C632.783 181.125 633.486 180.603 634.39 180.241C635.295 179.879 636.38 179.638 637.646 179.518C638.912 179.377 640.318 179.307 641.866 179.307V177.86C641.866 176.855 641.605 176.152 641.082 175.75C640.58 175.328 639.806 175.117 638.761 175.117C637.897 175.117 637.133 175.308 636.47 175.689C635.807 176.071 635.476 176.674 635.476 177.498V177.799H632.1C632.08 177.719 632.069 177.629 632.069 177.528C632.069 177.408 632.069 177.297 632.069 177.197C632.069 176.312 632.341 175.539 632.883 174.876C633.446 174.212 634.22 173.7 635.204 173.338C636.189 172.977 637.314 172.796 638.58 172.796H639.093C641.183 172.796 642.74 173.208 643.765 174.032C644.79 174.856 645.302 176.011 645.302 177.498V185.365C645.302 185.747 645.392 186.018 645.573 186.179C645.754 186.34 645.955 186.42 646.176 186.42C646.377 186.42 646.588 186.38 646.809 186.3C647.05 186.219 647.271 186.129 647.472 186.028V188.168C647.211 188.369 646.879 188.52 646.478 188.621C646.076 188.741 645.593 188.801 645.031 188.801C644.368 188.801 643.815 188.681 643.373 188.44C642.951 188.199 642.629 187.877 642.408 187.475C642.187 187.053 642.057 186.581 642.016 186.058C641.434 186.923 640.68 187.596 639.756 188.078C638.831 188.56 637.746 188.801 636.5 188.801ZM638.008 186.42C638.651 186.42 639.263 186.28 639.846 185.998C640.429 185.697 640.911 185.255 641.293 184.672C641.675 184.089 641.866 183.356 641.866 182.472V181.296C640.459 181.296 639.253 181.376 638.249 181.537C637.244 181.678 636.48 181.949 635.958 182.351C635.435 182.753 635.174 183.356 635.174 184.159C635.174 184.963 635.415 185.546 635.898 185.908C636.38 186.249 637.083 186.42 638.008 186.42ZM656.05 188.801C655.025 188.801 654.121 188.681 653.337 188.44C652.553 188.178 651.89 187.837 651.347 187.415C650.805 186.993 650.393 186.511 650.112 185.968C649.83 185.425 649.69 184.863 649.69 184.28C649.69 184.159 649.69 184.059 649.69 183.979C649.69 183.898 649.7 183.788 649.72 183.647H652.734C652.714 183.707 652.704 183.768 652.704 183.828C652.704 183.868 652.704 183.908 652.704 183.948C652.704 184.511 652.885 184.973 653.246 185.335C653.608 185.697 654.08 185.968 654.663 186.149C655.266 186.33 655.929 186.42 656.653 186.42C657.255 186.42 657.828 186.34 658.371 186.179C658.913 186.018 659.355 185.787 659.697 185.486C660.039 185.164 660.209 184.772 660.209 184.31C660.209 183.788 660.029 183.386 659.667 183.104C659.305 182.823 658.823 182.602 658.22 182.441C657.637 182.281 656.984 182.14 656.261 182.019C655.557 181.899 654.844 181.758 654.121 181.597C653.397 181.417 652.734 181.175 652.131 180.874C651.548 180.552 651.076 180.12 650.714 179.578C650.353 179.035 650.172 178.322 650.172 177.438C650.172 176.714 650.333 176.061 650.654 175.478C650.976 174.896 651.428 174.413 652.011 174.032C652.593 173.63 653.277 173.328 654.06 173.127C654.844 172.906 655.688 172.796 656.592 172.796H657.075C657.919 172.796 658.702 172.906 659.426 173.127C660.169 173.348 660.812 173.65 661.355 174.032C661.897 174.413 662.319 174.856 662.621 175.358C662.922 175.86 663.073 176.393 663.073 176.955C663.073 177.056 663.063 177.166 663.043 177.287C663.043 177.408 663.043 177.488 663.043 177.528H659.998V177.227C659.998 177.026 659.948 176.815 659.848 176.594C659.747 176.353 659.566 176.132 659.305 175.931C659.044 175.71 658.692 175.529 658.25 175.388C657.828 175.247 657.286 175.177 656.622 175.177C656.02 175.177 655.507 175.237 655.085 175.358C654.663 175.478 654.322 175.639 654.06 175.84C653.799 176.021 653.608 176.222 653.488 176.443C653.387 176.664 653.337 176.875 653.337 177.076C653.337 177.538 653.518 177.9 653.879 178.161C654.241 178.422 654.723 178.633 655.326 178.794C655.929 178.935 656.592 179.065 657.316 179.186C658.039 179.286 658.752 179.427 659.456 179.608C660.179 179.769 660.842 180.01 661.445 180.331C662.048 180.653 662.53 181.085 662.892 181.628C663.254 182.17 663.435 182.883 663.435 183.768C663.435 184.692 663.254 185.486 662.892 186.149C662.55 186.792 662.068 187.304 661.445 187.686C660.822 188.068 660.109 188.349 659.305 188.53C658.521 188.711 657.687 188.801 656.803 188.801H656.05ZM672.475 188.801C671.45 188.801 670.546 188.681 669.762 188.44C668.978 188.178 668.315 187.837 667.773 187.415C667.23 186.993 666.818 186.511 666.537 185.968C666.256 185.425 666.115 184.863 666.115 184.28C666.115 184.159 666.115 184.059 666.115 183.979C666.115 183.898 666.125 183.788 666.145 183.647H669.159C669.139 183.707 669.129 183.768 669.129 183.828C669.129 183.868 669.129 183.908 669.129 183.948C669.129 184.511 669.31 184.973 669.672 185.335C670.033 185.697 670.506 185.968 671.088 186.149C671.691 186.33 672.354 186.42 673.078 186.42C673.681 186.42 674.253 186.34 674.796 186.179C675.339 186.018 675.781 185.787 676.122 185.486C676.464 185.164 676.635 184.772 676.635 184.31C676.635 183.788 676.454 183.386 676.092 183.104C675.73 182.823 675.248 182.602 674.645 182.441C674.063 182.281 673.409 182.14 672.686 182.019C671.983 181.899 671.269 181.758 670.546 181.597C669.822 181.417 669.159 181.175 668.556 180.874C667.974 180.552 667.501 180.12 667.14 179.578C666.778 179.035 666.597 178.322 666.597 177.438C666.597 176.714 666.758 176.061 667.079 175.478C667.401 174.896 667.853 174.413 668.436 174.032C669.019 173.63 669.702 173.328 670.486 173.127C671.269 172.906 672.113 172.796 673.018 172.796H673.5C674.344 172.796 675.128 172.906 675.851 173.127C676.594 173.348 677.238 173.65 677.78 174.032C678.323 174.413 678.745 174.856 679.046 175.358C679.347 175.86 679.498 176.393 679.498 176.955C679.498 177.056 679.488 177.166 679.468 177.287C679.468 177.408 679.468 177.488 679.468 177.528H676.424V177.227C676.424 177.026 676.373 176.815 676.273 176.594C676.172 176.353 675.992 176.132 675.73 175.931C675.469 175.71 675.117 175.529 674.675 175.388C674.253 175.247 673.711 175.177 673.048 175.177C672.445 175.177 671.932 175.237 671.51 175.358C671.088 175.478 670.747 175.639 670.486 175.84C670.224 176.021 670.033 176.222 669.913 176.443C669.812 176.664 669.762 176.875 669.762 177.076C669.762 177.538 669.943 177.9 670.305 178.161C670.666 178.422 671.149 178.633 671.752 178.794C672.354 178.935 673.018 179.065 673.741 179.186C674.464 179.286 675.178 179.427 675.881 179.608C676.605 179.769 677.268 180.01 677.871 180.331C678.473 180.653 678.956 181.085 679.317 181.628C679.679 182.17 679.86 182.883 679.86 183.768C679.86 184.692 679.679 185.486 679.317 186.149C678.976 186.792 678.493 187.304 677.871 187.686C677.248 188.068 676.534 188.349 675.73 188.53C674.947 188.711 674.113 188.801 673.229 188.801H672.475ZM689.865 188.801C688.458 188.801 687.222 188.51 686.157 187.927C685.092 187.324 684.258 186.45 683.656 185.305C683.073 184.159 682.781 182.773 682.781 181.145V180.452C682.781 178.824 683.093 177.438 683.716 176.292C684.359 175.147 685.223 174.283 686.308 173.7C687.413 173.097 688.669 172.796 690.076 172.796H690.468C691.774 172.796 692.919 173.067 693.904 173.61C694.889 174.132 695.652 174.886 696.195 175.87C696.737 176.855 697.009 178.01 697.009 179.337V181.236H686.429C686.429 182.301 686.569 183.225 686.851 184.009C687.132 184.792 687.544 185.395 688.086 185.817C688.649 186.219 689.342 186.42 690.166 186.42C690.85 186.42 691.452 186.29 691.975 186.028C692.517 185.747 692.939 185.335 693.241 184.792C693.562 184.25 693.723 183.577 693.723 182.773H697.009C697.009 183.979 696.707 185.034 696.104 185.938C695.502 186.842 694.688 187.545 693.663 188.048C692.638 188.55 691.472 188.801 690.166 188.801H689.865ZM686.459 179.307H693.572C693.572 177.9 693.261 176.865 692.638 176.202C692.035 175.519 691.201 175.177 690.136 175.177C689.131 175.177 688.277 175.529 687.574 176.232C686.891 176.915 686.519 177.94 686.459 179.307ZM705.665 188.801C704.861 188.801 704.137 188.681 703.494 188.44C702.871 188.199 702.379 187.807 702.017 187.264C701.676 186.701 701.505 185.968 701.505 185.064V175.78H699.817V173.097H701.595L702.831 168.184H705.002V173.097H708.589V175.78H705.002V184.37C705.002 185.255 705.182 185.817 705.544 186.058C705.906 186.3 706.298 186.42 706.72 186.42C706.941 186.42 707.242 186.37 707.624 186.269C708.026 186.169 708.347 186.069 708.589 185.968V188.229C708.347 188.349 708.056 188.45 707.714 188.53C707.373 188.631 707.021 188.701 706.659 188.741C706.298 188.781 705.966 188.801 705.665 188.801ZM717.659 188.801C716.634 188.801 715.73 188.681 714.946 188.44C714.163 188.178 713.5 187.837 712.957 187.415C712.414 186.993 712.003 186.511 711.721 185.968C711.44 185.425 711.299 184.863 711.299 184.28C711.299 184.159 711.299 184.059 711.299 183.979C711.299 183.898 711.309 183.788 711.329 183.647H714.344C714.324 183.707 714.313 183.768 714.313 183.828C714.313 183.868 714.313 183.908 714.313 183.948C714.313 184.511 714.494 184.973 714.856 185.335C715.218 185.697 715.69 185.968 716.273 186.149C716.876 186.33 717.539 186.42 718.262 186.42C718.865 186.42 719.438 186.34 719.98 186.179C720.523 186.018 720.965 185.787 721.307 185.486C721.648 185.164 721.819 184.772 721.819 184.31C721.819 183.788 721.638 183.386 721.276 183.104C720.915 182.823 720.432 182.602 719.83 182.441C719.247 182.281 718.594 182.14 717.87 182.019C717.167 181.899 716.454 181.758 715.73 181.597C715.007 181.417 714.344 181.175 713.741 180.874C713.158 180.552 712.686 180.12 712.324 179.578C711.962 179.035 711.782 178.322 711.782 177.438C711.782 176.714 711.942 176.061 712.264 175.478C712.585 174.896 713.037 174.413 713.62 174.032C714.203 173.63 714.886 173.328 715.67 173.127C716.454 172.906 717.298 172.796 718.202 172.796H718.684C719.528 172.796 720.312 172.906 721.035 173.127C721.779 173.348 722.422 173.65 722.964 174.032C723.507 174.413 723.929 174.856 724.23 175.358C724.532 175.86 724.682 176.393 724.682 176.955C724.682 177.056 724.672 177.166 724.652 177.287C724.652 177.408 724.652 177.488 724.652 177.528H721.608V177.227C721.608 177.026 721.558 176.815 721.457 176.594C721.357 176.353 721.176 176.132 720.915 175.931C720.653 175.71 720.302 175.529 719.86 175.388C719.438 175.247 718.895 175.177 718.232 175.177C717.629 175.177 717.117 175.237 716.695 175.358C716.273 175.478 715.931 175.639 715.67 175.84C715.409 176.021 715.218 176.222 715.097 176.443C714.997 176.664 714.946 176.875 714.946 177.076C714.946 177.538 715.127 177.9 715.489 178.161C715.851 178.422 716.333 178.633 716.936 178.794C717.539 178.935 718.202 179.065 718.925 179.186C719.649 179.286 720.362 179.427 721.065 179.608C721.789 179.769 722.452 180.01 723.055 180.331C723.658 180.653 724.14 181.085 724.502 181.628C724.863 182.17 725.044 182.883 725.044 183.768C725.044 184.692 724.863 185.486 724.502 186.149C724.16 186.792 723.678 187.304 723.055 187.686C722.432 188.068 721.718 188.349 720.915 188.53C720.131 188.711 719.297 188.801 718.413 188.801H717.659Z" fill="#1B1B1B"/>
<path d="M581.274 229.651C580.45 229.651 579.746 229.5 579.164 229.199C578.581 228.897 578.063 228.46 577.611 227.887L578.576 226.923C578.907 227.385 579.289 227.737 579.721 227.978C580.153 228.209 580.686 228.324 581.319 228.324C581.942 228.324 582.439 228.189 582.811 227.918C583.193 227.646 583.383 227.274 583.383 226.802C583.383 226.41 583.293 226.094 583.112 225.853C582.931 225.612 582.685 225.416 582.374 225.265C582.072 225.104 581.741 224.964 581.379 224.843C581.017 224.712 580.656 224.577 580.294 224.436C579.932 224.285 579.601 224.104 579.299 223.893C578.998 223.672 578.752 223.386 578.561 223.034C578.38 222.683 578.289 222.241 578.289 221.708C578.289 221.115 578.43 220.613 578.711 220.201C579.003 219.779 579.395 219.458 579.887 219.236C580.389 219.005 580.952 218.89 581.575 218.89C582.258 218.89 582.871 219.025 583.414 219.297C583.956 219.558 584.398 219.905 584.74 220.337L583.775 221.301C583.464 220.94 583.127 220.668 582.766 220.487C582.414 220.307 582.007 220.216 581.545 220.216C580.982 220.216 580.535 220.342 580.203 220.593C579.872 220.834 579.706 221.176 579.706 221.618C579.706 221.969 579.797 222.256 579.977 222.477C580.168 222.688 580.414 222.869 580.716 223.019C581.017 223.17 581.349 223.311 581.711 223.441C582.082 223.562 582.449 223.698 582.811 223.848C583.172 223.999 583.504 224.19 583.805 224.421C584.107 224.652 584.348 224.954 584.529 225.325C584.72 225.687 584.815 226.144 584.815 226.697C584.815 227.621 584.494 228.345 583.851 228.867C583.218 229.389 582.359 229.651 581.274 229.651ZM589.425 229.651C588.772 229.651 588.179 229.49 587.646 229.168C587.114 228.837 586.692 228.39 586.38 227.827C586.079 227.264 585.928 226.631 585.928 225.928C585.928 225.225 586.079 224.592 586.38 224.029C586.692 223.466 587.109 223.019 587.631 222.688C588.164 222.356 588.762 222.19 589.425 222.19C589.967 222.19 590.45 222.306 590.872 222.537C591.304 222.758 591.65 223.07 591.912 223.472C592.173 223.863 592.318 224.321 592.349 224.843V226.998C592.318 227.511 592.173 227.968 591.912 228.37C591.66 228.772 591.319 229.088 590.887 229.319C590.465 229.54 589.977 229.651 589.425 229.651ZM589.651 228.37C590.324 228.37 590.867 228.144 591.279 227.691C591.691 227.229 591.896 226.641 591.896 225.928C591.896 225.436 591.801 225.009 591.61 224.647C591.429 224.275 591.168 223.989 590.826 223.788C590.485 223.577 590.088 223.472 589.636 223.472C589.184 223.472 588.782 223.577 588.43 223.788C588.088 223.999 587.817 224.29 587.616 224.662C587.425 225.024 587.33 225.441 587.33 225.913C587.33 226.395 587.425 226.822 587.616 227.194C587.817 227.556 588.094 227.842 588.445 228.053C588.797 228.264 589.199 228.37 589.651 228.37ZM591.806 229.5V227.571L592.062 225.823L591.806 224.089V222.341H593.178V229.5H591.806ZM596.148 229.5V221.271C596.148 220.739 596.263 220.276 596.494 219.885C596.725 219.483 597.042 219.166 597.444 218.935C597.856 218.704 598.333 218.588 598.876 218.588C599.288 218.588 599.644 218.659 599.946 218.799C600.247 218.94 600.523 219.146 600.775 219.417L599.885 220.291C599.755 220.151 599.609 220.045 599.448 219.975C599.288 219.895 599.092 219.854 598.861 219.854C598.429 219.854 598.092 219.98 597.851 220.231C597.62 220.482 597.504 220.829 597.504 221.271V229.5H596.148ZM594.384 223.577V222.341H599.78V223.577H594.384ZM604.046 229.651C603.333 229.651 602.69 229.49 602.117 229.168C601.544 228.837 601.092 228.39 600.761 227.827C600.429 227.264 600.263 226.626 600.263 225.913C600.263 225.21 600.424 224.577 600.746 224.014C601.077 223.451 601.519 223.009 602.072 222.688C602.634 222.356 603.262 222.19 603.956 222.19C604.619 222.19 605.202 222.341 605.704 222.643C606.216 222.944 606.613 223.361 606.895 223.893C607.186 224.426 607.332 225.029 607.332 225.702C607.332 225.803 607.327 225.913 607.317 226.034C607.307 226.144 607.286 226.275 607.256 226.425H601.213V225.295H606.533L606.036 225.732C606.036 225.25 605.95 224.843 605.779 224.511C605.609 224.17 605.367 223.909 605.056 223.728C604.744 223.537 604.368 223.441 603.926 223.441C603.463 223.441 603.056 223.542 602.705 223.743C602.353 223.944 602.082 224.225 601.891 224.587C601.7 224.948 601.605 225.376 601.605 225.868C601.605 226.37 601.705 226.812 601.906 227.194C602.107 227.566 602.393 227.857 602.765 228.068C603.137 228.269 603.564 228.37 604.046 228.37C604.448 228.37 604.815 228.299 605.146 228.159C605.488 228.018 605.779 227.807 606.02 227.526L606.895 228.415C606.553 228.817 606.131 229.123 605.629 229.334C605.136 229.545 604.609 229.651 604.046 229.651ZM608.811 229.5V218.739H610.167V229.5H608.811ZM614.503 229.56L611.398 222.341H612.905L615.211 227.993H614.729L617.155 222.341H618.662L615.317 229.56H614.503ZM612.453 232.499L614.563 228.174L615.317 229.56L613.96 232.499H612.453ZM625.304 229.651C624.902 229.651 624.52 229.6 624.159 229.5C623.807 229.389 623.48 229.239 623.179 229.048C622.878 228.847 622.616 228.611 622.395 228.34L623.269 227.465C623.531 227.787 623.832 228.028 624.174 228.189C624.515 228.34 624.897 228.415 625.319 228.415C625.741 228.415 626.068 228.345 626.299 228.204C626.53 228.053 626.645 227.847 626.645 227.586C626.645 227.325 626.55 227.124 626.359 226.983C626.178 226.832 625.942 226.712 625.651 226.621C625.359 226.521 625.048 226.425 624.716 226.335C624.395 226.235 624.088 226.109 623.797 225.958C623.506 225.808 623.264 225.602 623.073 225.34C622.893 225.079 622.802 224.732 622.802 224.3C622.802 223.868 622.908 223.497 623.119 223.185C623.33 222.864 623.621 222.617 623.993 222.447C624.375 222.276 624.832 222.19 625.364 222.19C625.927 222.19 626.424 222.291 626.856 222.492C627.298 222.683 627.66 222.974 627.941 223.366L627.067 224.24C626.866 223.979 626.615 223.778 626.314 223.637C626.022 223.497 625.691 223.426 625.319 223.426C624.927 223.426 624.626 223.497 624.415 223.637C624.214 223.768 624.113 223.954 624.113 224.195C624.113 224.436 624.204 224.622 624.385 224.753C624.566 224.883 624.802 224.994 625.093 225.084C625.394 225.175 625.706 225.27 626.027 225.37C626.349 225.461 626.655 225.587 626.947 225.747C627.238 225.908 627.474 226.124 627.655 226.395C627.846 226.667 627.941 227.023 627.941 227.465C627.941 228.139 627.7 228.671 627.218 229.063C626.746 229.455 626.108 229.651 625.304 229.651ZM630.56 229.5V219.342H631.917V229.5H630.56ZM628.797 223.577V222.341H633.68V223.577H628.797ZM638.058 229.651C637.355 229.651 636.722 229.485 636.159 229.153C635.597 228.822 635.15 228.375 634.818 227.812C634.487 227.239 634.321 226.601 634.321 225.898C634.321 225.205 634.487 224.582 634.818 224.029C635.15 223.466 635.597 223.019 636.159 222.688C636.722 222.356 637.355 222.19 638.058 222.19C638.752 222.19 639.38 222.356 639.942 222.688C640.515 223.009 640.967 223.451 641.299 224.014C641.63 224.577 641.796 225.205 641.796 225.898C641.796 226.601 641.63 227.239 641.299 227.812C640.967 228.375 640.515 228.822 639.942 229.153C639.38 229.485 638.752 229.651 638.058 229.651ZM638.058 228.34C638.511 228.34 638.912 228.234 639.264 228.023C639.616 227.812 639.892 227.526 640.093 227.164C640.294 226.792 640.394 226.37 640.394 225.898C640.394 225.436 640.289 225.024 640.078 224.662C639.877 224.3 639.601 224.019 639.249 223.818C638.907 223.607 638.511 223.502 638.058 223.502C637.606 223.502 637.204 223.607 636.853 223.818C636.501 224.019 636.225 224.3 636.024 224.662C635.823 225.024 635.722 225.436 635.722 225.898C635.722 226.37 635.823 226.792 636.024 227.164C636.225 227.526 636.501 227.812 636.853 228.023C637.204 228.234 637.606 228.34 638.058 228.34ZM643.324 229.5V222.341H644.681V229.5H643.324ZM644.681 225.416L644.168 225.19C644.168 224.275 644.379 223.547 644.801 223.004C645.223 222.462 645.831 222.19 646.625 222.19C646.987 222.19 647.313 222.256 647.605 222.386C647.896 222.507 648.167 222.713 648.418 223.004L647.529 223.924C647.379 223.763 647.213 223.647 647.032 223.577C646.851 223.507 646.64 223.472 646.399 223.472C645.897 223.472 645.485 223.632 645.163 223.954C644.842 224.275 644.681 224.763 644.681 225.416ZM652.454 229.651C651.74 229.651 651.097 229.49 650.525 229.168C649.952 228.837 649.5 228.39 649.168 227.827C648.837 227.264 648.671 226.626 648.671 225.913C648.671 225.21 648.832 224.577 649.153 224.014C649.485 223.451 649.927 223.009 650.479 222.688C651.042 222.356 651.67 222.19 652.363 222.19C653.026 222.19 653.609 222.341 654.112 222.643C654.624 222.944 655.021 223.361 655.302 223.893C655.594 224.426 655.739 225.029 655.739 225.702C655.739 225.803 655.734 225.913 655.724 226.034C655.714 226.144 655.694 226.275 655.664 226.425H649.62V225.295H654.94L654.443 225.732C654.443 225.25 654.358 224.843 654.187 224.511C654.016 224.17 653.775 223.909 653.463 223.728C653.152 223.537 652.775 223.441 652.333 223.441C651.871 223.441 651.464 223.542 651.112 223.743C650.761 223.944 650.489 224.225 650.298 224.587C650.108 224.948 650.012 225.376 650.012 225.868C650.012 226.37 650.113 226.812 650.314 227.194C650.515 227.566 650.801 227.857 651.173 228.068C651.544 228.269 651.971 228.37 652.454 228.37C652.856 228.37 653.222 228.299 653.554 228.159C653.896 228.018 654.187 227.807 654.428 227.526L655.302 228.415C654.961 228.817 654.539 229.123 654.036 229.334C653.544 229.545 653.016 229.651 652.454 229.651ZM663.398 229.651C662.744 229.651 662.152 229.49 661.619 229.168C661.087 228.837 660.665 228.39 660.353 227.827C660.052 227.264 659.901 226.631 659.901 225.928C659.901 225.225 660.052 224.592 660.353 224.029C660.665 223.466 661.082 223.019 661.604 222.688C662.137 222.356 662.734 222.19 663.398 222.19C663.94 222.19 664.422 222.306 664.844 222.537C665.276 222.758 665.623 223.07 665.884 223.472C666.146 223.863 666.291 224.321 666.321 224.843V226.998C666.291 227.511 666.146 227.968 665.884 228.37C665.633 228.772 665.291 229.088 664.859 229.319C664.437 229.54 663.95 229.651 663.398 229.651ZM663.624 228.37C664.297 228.37 664.839 228.144 665.251 227.691C665.663 227.229 665.869 226.641 665.869 225.928C665.869 225.436 665.774 225.009 665.583 224.647C665.402 224.275 665.141 223.989 664.799 223.788C664.458 223.577 664.061 223.472 663.609 223.472C663.156 223.472 662.754 223.577 662.403 223.788C662.061 223.999 661.79 224.29 661.589 224.662C661.398 225.024 661.303 225.441 661.303 225.913C661.303 226.395 661.398 226.822 661.589 227.194C661.79 227.556 662.066 227.842 662.418 228.053C662.77 228.264 663.171 228.37 663.624 228.37ZM665.779 229.5V227.571L666.035 225.823L665.779 224.089V222.341H667.15V229.5H665.779ZM674.189 229.5V225.325C674.189 224.783 674.018 224.336 673.677 223.984C673.335 223.632 672.893 223.456 672.35 223.456C671.989 223.456 671.667 223.537 671.386 223.698C671.104 223.858 670.883 224.079 670.723 224.361C670.562 224.642 670.481 224.964 670.481 225.325L669.924 225.009C669.924 224.466 670.044 223.984 670.286 223.562C670.527 223.14 670.863 222.808 671.295 222.567C671.727 222.316 672.215 222.19 672.757 222.19C673.3 222.19 673.777 222.326 674.189 222.597C674.611 222.869 674.943 223.225 675.184 223.667C675.425 224.099 675.545 224.562 675.545 225.054V229.5H674.189ZM669.125 229.5V222.341H670.481V229.5H669.125ZM680.411 229.651C679.748 229.651 679.155 229.49 678.633 229.168C678.11 228.837 677.693 228.39 677.382 227.827C677.08 227.264 676.93 226.631 676.93 225.928C676.93 225.225 677.08 224.592 677.382 224.029C677.693 223.466 678.11 223.019 678.633 222.688C679.155 222.356 679.748 222.19 680.411 222.19C680.944 222.19 681.426 222.306 681.858 222.537C682.29 222.758 682.637 223.07 682.898 223.472C683.169 223.863 683.32 224.321 683.35 224.843V226.998C683.32 227.511 683.174 227.968 682.913 228.37C682.652 228.772 682.305 229.088 681.873 229.319C681.441 229.54 680.954 229.651 680.411 229.651ZM680.637 228.37C681.089 228.37 681.481 228.264 681.813 228.053C682.154 227.842 682.421 227.556 682.612 227.194C682.802 226.822 682.898 226.4 682.898 225.928C682.898 225.436 682.797 225.009 682.597 224.647C682.406 224.285 682.139 223.999 681.798 223.788C681.466 223.577 681.074 223.472 680.622 223.472C680.17 223.472 679.773 223.577 679.432 223.788C679.09 223.999 678.819 224.29 678.618 224.662C678.427 225.024 678.331 225.441 678.331 225.913C678.331 226.395 678.427 226.822 678.618 227.194C678.819 227.556 679.09 227.842 679.432 228.053C679.783 228.264 680.185 228.37 680.637 228.37ZM684.179 229.5H682.808V227.571L683.064 225.823L682.808 224.089V218.739H684.179V229.5ZM692.559 229.651C691.856 229.651 691.223 229.485 690.66 229.153C690.098 228.822 689.65 228.375 689.319 227.812C688.987 227.239 688.822 226.601 688.822 225.898C688.822 225.205 688.987 224.582 689.319 224.029C689.65 223.466 690.098 223.019 690.66 222.688C691.223 222.356 691.856 222.19 692.559 222.19C693.252 222.19 693.88 222.356 694.443 222.688C695.016 223.009 695.468 223.451 695.8 224.014C696.131 224.577 696.297 225.205 696.297 225.898C696.297 226.601 696.131 227.239 695.8 227.812C695.468 228.375 695.016 228.822 694.443 229.153C693.88 229.485 693.252 229.651 692.559 229.651ZM692.559 228.34C693.011 228.34 693.413 228.234 693.765 228.023C694.117 227.812 694.393 227.526 694.594 227.164C694.795 226.792 694.895 226.37 694.895 225.898C694.895 225.436 694.79 225.024 694.579 224.662C694.378 224.3 694.101 224.019 693.75 223.818C693.408 223.607 693.011 223.502 692.559 223.502C692.107 223.502 691.705 223.607 691.353 223.818C691.002 224.019 690.726 224.3 690.525 224.662C690.324 225.024 690.223 225.436 690.223 225.898C690.223 226.37 690.324 226.792 690.525 227.164C690.726 227.526 691.002 227.812 691.353 228.023C691.705 228.234 692.107 228.34 692.559 228.34ZM697.825 229.5V222.341H699.182V229.5H697.825ZM699.182 225.416L698.669 225.19C698.669 224.275 698.88 223.547 699.302 223.004C699.724 222.462 700.332 222.19 701.126 222.19C701.487 222.19 701.814 222.256 702.105 222.386C702.397 222.507 702.668 222.713 702.919 223.004L702.03 223.924C701.879 223.763 701.714 223.647 701.533 223.577C701.352 223.507 701.141 223.472 700.9 223.472C700.397 223.472 699.985 223.632 699.664 223.954C699.342 224.275 699.182 224.763 699.182 225.416ZM706.608 232.65C705.874 232.65 705.221 232.514 704.649 232.243C704.086 231.972 703.634 231.59 703.292 231.098L704.166 230.208C704.458 230.58 704.804 230.861 705.206 231.052C705.608 231.253 706.085 231.354 706.638 231.354C707.371 231.354 707.949 231.158 708.371 230.766C708.803 230.384 709.019 229.867 709.019 229.214V227.435L709.26 225.823L709.019 224.225V222.341H710.376V229.214C710.376 229.897 710.215 230.495 709.893 231.007C709.582 231.52 709.14 231.921 708.567 232.213C708.004 232.504 707.351 232.65 706.608 232.65ZM706.608 229.379C705.955 229.379 705.367 229.224 704.845 228.912C704.332 228.601 703.925 228.174 703.624 227.631C703.322 227.079 703.172 226.461 703.172 225.777C703.172 225.094 703.322 224.486 703.624 223.954C703.925 223.411 704.332 222.984 704.845 222.673C705.367 222.351 705.955 222.19 706.608 222.19C707.171 222.19 707.668 222.301 708.1 222.522C708.532 222.743 708.874 223.055 709.125 223.456C709.386 223.848 709.527 224.31 709.547 224.843V226.742C709.517 227.264 709.371 227.727 709.11 228.129C708.858 228.52 708.517 228.827 708.085 229.048C707.653 229.269 707.16 229.379 706.608 229.379ZM706.879 228.098C707.321 228.098 707.708 228.003 708.04 227.812C708.381 227.621 708.642 227.355 708.823 227.013C709.004 226.662 709.095 226.255 709.095 225.792C709.095 225.33 708.999 224.928 708.808 224.587C708.627 224.235 708.371 223.964 708.04 223.773C707.708 223.572 707.316 223.472 706.864 223.472C706.412 223.472 706.015 223.572 705.673 223.773C705.332 223.964 705.061 224.235 704.86 224.587C704.669 224.928 704.573 225.325 704.573 225.777C704.573 226.23 704.669 226.631 704.86 226.983C705.061 227.335 705.332 227.611 705.673 227.812C706.025 228.003 706.427 228.098 706.879 228.098ZM715.411 229.651C714.758 229.651 714.165 229.49 713.633 229.168C713.1 228.837 712.678 228.39 712.367 227.827C712.065 227.264 711.914 226.631 711.914 225.928C711.914 225.225 712.065 224.592 712.367 224.029C712.678 223.466 713.095 223.019 713.618 222.688C714.15 222.356 714.748 222.19 715.411 222.19C715.954 222.19 716.436 222.306 716.858 222.537C717.29 222.758 717.637 223.07 717.898 223.472C718.159 223.863 718.305 224.321 718.335 224.843V226.998C718.305 227.511 718.159 227.968 717.898 228.37C717.647 228.772 717.305 229.088 716.873 229.319C716.451 229.54 715.964 229.651 715.411 229.651ZM715.637 228.37C716.31 228.37 716.853 228.144 717.265 227.691C717.677 227.229 717.883 226.641 717.883 225.928C717.883 225.436 717.787 225.009 717.596 224.647C717.415 224.275 717.154 223.989 716.813 223.788C716.471 223.577 716.074 223.472 715.622 223.472C715.17 223.472 714.768 223.577 714.416 223.788C714.075 223.999 713.803 224.29 713.602 224.662C713.412 225.024 713.316 225.441 713.316 225.913C713.316 226.395 713.412 226.822 713.602 227.194C713.803 227.556 714.08 227.842 714.431 228.053C714.783 228.264 715.185 228.37 715.637 228.37ZM717.792 229.5V227.571L718.048 225.823L717.792 224.089V222.341H719.164V229.5H717.792ZM726.202 229.5V225.325C726.202 224.783 726.032 224.336 725.69 223.984C725.348 223.632 724.906 223.456 724.364 223.456C724.002 223.456 723.681 223.537 723.399 223.698C723.118 223.858 722.897 224.079 722.736 224.361C722.575 224.642 722.495 224.964 722.495 225.325L721.937 225.009C721.937 224.466 722.058 223.984 722.299 223.562C722.54 223.14 722.877 222.808 723.309 222.567C723.741 222.316 724.228 222.19 724.771 222.19C725.313 222.19 725.79 222.326 726.202 222.597C726.624 222.869 726.956 223.225 727.197 223.667C727.438 224.099 727.559 224.562 727.559 225.054V229.5H726.202ZM721.139 229.5V222.341H722.495V229.5H721.139ZM729.41 229.5V222.341H730.767V229.5H729.41ZM730.089 220.909C729.837 220.909 729.631 220.829 729.471 220.668C729.31 220.497 729.23 220.286 729.23 220.035C729.23 219.794 729.31 219.593 729.471 219.432C729.631 219.262 729.837 219.176 730.089 219.176C730.34 219.176 730.546 219.262 730.707 219.432C730.867 219.593 730.948 219.794 730.948 220.035C730.948 220.286 730.867 220.497 730.707 220.668C730.546 220.829 730.34 220.909 730.089 220.909ZM732.193 228.762L736.443 223.08H738.041L733.791 228.762H732.193ZM732.193 229.5V228.762L733.399 228.264H737.95V229.5H732.193ZM732.449 223.577V222.341H738.041V223.08L736.79 223.577H732.449ZM742.69 229.651C741.976 229.651 741.333 229.49 740.761 229.168C740.188 228.837 739.736 228.39 739.404 227.827C739.073 227.264 738.907 226.626 738.907 225.913C738.907 225.21 739.068 224.577 739.389 224.014C739.721 223.451 740.163 223.009 740.715 222.688C741.278 222.356 741.906 222.19 742.599 222.19C743.263 222.19 743.845 222.341 744.348 222.643C744.86 222.944 745.257 223.361 745.538 223.893C745.83 224.426 745.975 225.029 745.975 225.702C745.975 225.803 745.97 225.913 745.96 226.034C745.95 226.144 745.93 226.275 745.9 226.425H739.856V225.295H745.177L744.679 225.732C744.679 225.25 744.594 224.843 744.423 224.511C744.252 224.17 744.011 223.909 743.7 223.728C743.388 223.537 743.011 223.441 742.569 223.441C742.107 223.441 741.7 223.542 741.348 223.743C740.997 223.944 740.726 224.225 740.535 224.587C740.344 224.948 740.248 225.376 740.248 225.868C740.248 226.37 740.349 226.812 740.55 227.194C740.751 227.566 741.037 227.857 741.409 228.068C741.781 228.269 742.208 228.37 742.69 228.37C743.092 228.37 743.458 228.299 743.79 228.159C744.132 228.018 744.423 227.807 744.664 227.526L745.538 228.415C745.197 228.817 744.775 229.123 744.272 229.334C743.78 229.545 743.252 229.651 742.69 229.651ZM752.94 229.56L749.836 222.341H751.343L753.649 227.993H753.166L755.593 222.341H757.1L753.754 229.56H752.94ZM750.891 232.499L753.001 228.174L753.754 229.56L752.398 232.499H750.891ZM761.204 229.651C760.501 229.651 759.868 229.485 759.305 229.153C758.742 228.822 758.295 228.375 757.964 227.812C757.632 227.239 757.466 226.601 757.466 225.898C757.466 225.205 757.632 224.582 757.964 224.029C758.295 223.466 758.742 223.019 759.305 222.688C759.868 222.356 760.501 222.19 761.204 222.19C761.897 222.19 762.525 222.356 763.088 222.688C763.661 223.009 764.113 223.451 764.444 224.014C764.776 224.577 764.942 225.205 764.942 225.898C764.942 226.601 764.776 227.239 764.444 227.812C764.113 228.375 763.661 228.822 763.088 229.153C762.525 229.485 761.897 229.651 761.204 229.651ZM761.204 228.34C761.656 228.34 762.058 228.234 762.41 228.023C762.761 227.812 763.038 227.526 763.239 227.164C763.44 226.792 763.54 226.37 763.54 225.898C763.54 225.436 763.435 225.024 763.224 224.662C763.023 224.3 762.746 224.019 762.395 223.818C762.053 223.607 761.656 223.502 761.204 223.502C760.752 223.502 760.35 223.607 759.998 223.818C759.647 224.019 759.37 224.3 759.169 224.662C758.968 225.024 758.868 225.436 758.868 225.898C758.868 226.37 758.968 226.792 759.169 227.164C759.37 227.526 759.647 227.812 759.998 228.023C760.35 228.234 760.752 228.34 761.204 228.34ZM769.349 229.651C768.766 229.651 768.238 229.52 767.766 229.259C767.304 228.988 766.942 228.616 766.681 228.144C766.42 227.671 766.289 227.124 766.289 226.501V222.341H767.646V226.441C767.646 226.832 767.711 227.174 767.841 227.465C767.982 227.747 768.183 227.963 768.444 228.113C768.706 228.264 769.012 228.34 769.364 228.34C769.896 228.34 770.313 228.174 770.615 227.842C770.916 227.501 771.067 227.033 771.067 226.441V222.341H772.423V226.501C772.423 227.124 772.293 227.671 772.031 228.144C771.77 228.616 771.408 228.988 770.946 229.259C770.494 229.52 769.961 229.651 769.349 229.651ZM774.241 229.5V222.341H775.598V229.5H774.241ZM775.598 225.416L775.085 225.19C775.085 224.275 775.296 223.547 775.718 223.004C776.14 222.462 776.748 222.19 777.542 222.19C777.903 222.19 778.23 222.256 778.521 222.386C778.813 222.507 779.084 222.713 779.335 223.004L778.446 223.924C778.295 223.763 778.129 223.647 777.949 223.577C777.768 223.507 777.557 223.472 777.316 223.472C776.813 223.472 776.401 223.632 776.08 223.954C775.758 224.275 775.598 224.763 775.598 225.416ZM661.72 248.651C661.067 248.651 660.474 248.49 659.941 248.168C659.409 247.837 658.987 247.39 658.675 246.827C658.374 246.264 658.223 245.631 658.223 244.928C658.223 244.225 658.374 243.592 658.675 243.029C658.987 242.466 659.404 242.019 659.926 241.688C660.459 241.356 661.057 241.19 661.72 241.19C662.262 241.19 662.745 241.306 663.167 241.537C663.599 241.758 663.945 242.07 664.206 242.472C664.468 242.863 664.613 243.321 664.643 243.843V245.998C664.613 246.511 664.468 246.968 664.206 247.37C663.955 247.772 663.614 248.088 663.182 248.319C662.76 248.54 662.272 248.651 661.72 248.651ZM661.946 247.37C662.619 247.37 663.161 247.144 663.573 246.691C663.985 246.229 664.191 245.641 664.191 244.928C664.191 244.436 664.096 244.009 663.905 243.647C663.724 243.275 663.463 242.989 663.121 242.788C662.78 242.577 662.383 242.472 661.931 242.472C661.479 242.472 661.077 242.577 660.725 242.788C660.383 242.999 660.112 243.29 659.911 243.662C659.72 244.024 659.625 244.441 659.625 244.913C659.625 245.395 659.72 245.822 659.911 246.194C660.112 246.556 660.388 246.842 660.74 247.053C661.092 247.264 661.494 247.37 661.946 247.37ZM664.101 248.5V246.571L664.357 244.823L664.101 243.089V241.341H665.472V248.5H664.101ZM669.723 248.651C669.321 248.651 668.939 248.6 668.578 248.5C668.226 248.389 667.899 248.239 667.598 248.048C667.297 247.847 667.035 247.611 666.814 247.34L667.688 246.465C667.95 246.787 668.251 247.028 668.593 247.189C668.934 247.34 669.316 247.415 669.738 247.415C670.16 247.415 670.487 247.345 670.718 247.204C670.949 247.053 671.064 246.847 671.064 246.586C671.064 246.325 670.969 246.124 670.778 245.983C670.597 245.832 670.361 245.712 670.07 245.621C669.778 245.521 669.467 245.425 669.135 245.335C668.814 245.235 668.507 245.109 668.216 244.958C667.924 244.808 667.683 244.602 667.492 244.34C667.312 244.079 667.221 243.732 667.221 243.3C667.221 242.868 667.327 242.497 667.538 242.185C667.749 241.864 668.04 241.617 668.412 241.447C668.794 241.276 669.251 241.19 669.783 241.19C670.346 241.19 670.843 241.291 671.275 241.492C671.717 241.683 672.079 241.974 672.36 242.366L671.486 243.24C671.285 242.979 671.034 242.778 670.733 242.637C670.441 242.497 670.11 242.426 669.738 242.426C669.346 242.426 669.045 242.497 668.834 242.637C668.633 242.768 668.532 242.954 668.532 243.195C668.532 243.436 668.623 243.622 668.804 243.753C668.984 243.883 669.221 243.994 669.512 244.084C669.813 244.175 670.125 244.27 670.446 244.37C670.768 244.461 671.074 244.587 671.366 244.747C671.657 244.908 671.893 245.124 672.074 245.395C672.265 245.667 672.36 246.023 672.36 246.465C672.36 247.139 672.119 247.671 671.637 248.063C671.165 248.455 670.527 248.651 669.723 248.651ZM676.155 248.651C675.753 248.651 675.371 248.6 675.009 248.5C674.658 248.389 674.331 248.239 674.03 248.048C673.728 247.847 673.467 247.611 673.246 247.34L674.12 246.465C674.381 246.787 674.683 247.028 675.024 247.189C675.366 247.34 675.748 247.415 676.17 247.415C676.592 247.415 676.918 247.345 677.149 247.204C677.381 247.053 677.496 246.847 677.496 246.586C677.496 246.325 677.401 246.124 677.21 245.983C677.029 245.832 676.793 245.712 676.501 245.621C676.21 245.521 675.899 245.425 675.567 245.335C675.245 245.235 674.939 245.109 674.648 244.958C674.356 244.808 674.115 244.602 673.924 244.34C673.743 244.079 673.653 243.732 673.653 243.3C673.653 242.868 673.758 242.497 673.969 242.185C674.18 241.864 674.472 241.617 674.844 241.447C675.225 241.276 675.683 241.19 676.215 241.19C676.778 241.19 677.275 241.291 677.707 241.492C678.149 241.683 678.511 241.974 678.792 242.366L677.918 243.24C677.717 242.979 677.466 242.778 677.165 242.637C676.873 242.497 676.542 242.426 676.17 242.426C675.778 242.426 675.477 242.497 675.266 242.637C675.065 242.768 674.964 242.954 674.964 243.195C674.964 243.436 675.055 243.622 675.235 243.753C675.416 243.883 675.652 243.994 675.944 244.084C676.245 244.175 676.557 244.27 676.878 244.37C677.2 244.461 677.506 244.587 677.798 244.747C678.089 244.908 678.325 245.124 678.506 245.395C678.697 245.667 678.792 246.023 678.792 246.465C678.792 247.139 678.551 247.671 678.069 248.063C677.597 248.455 676.959 248.651 676.155 248.651ZM683.626 248.651C682.913 248.651 682.27 248.49 681.697 248.168C681.125 247.837 680.672 247.39 680.341 246.827C680.009 246.264 679.844 245.626 679.844 244.913C679.844 244.21 680.004 243.577 680.326 243.014C680.657 242.451 681.099 242.009 681.652 241.688C682.215 241.356 682.843 241.19 683.536 241.19C684.199 241.19 684.782 241.341 685.284 241.643C685.797 241.944 686.194 242.361 686.475 242.893C686.766 243.426 686.912 244.029 686.912 244.702C686.912 244.803 686.907 244.913 686.897 245.034C686.887 245.144 686.867 245.275 686.837 245.425H680.793V244.295H686.113L685.616 244.732C685.616 244.25 685.53 243.843 685.36 243.511C685.189 243.17 684.948 242.909 684.636 242.728C684.325 242.537 683.948 242.441 683.506 242.441C683.044 242.441 682.637 242.542 682.285 242.743C681.933 242.944 681.662 243.225 681.471 243.587C681.28 243.948 681.185 244.376 681.185 244.868C681.185 245.37 681.285 245.812 681.486 246.194C681.687 246.566 681.974 246.857 682.345 247.068C682.717 247.269 683.144 247.37 683.626 247.37C684.028 247.37 684.395 247.299 684.727 247.159C685.068 247.018 685.36 246.807 685.601 246.526L686.475 247.415C686.133 247.817 685.711 248.123 685.209 248.334C684.717 248.545 684.189 248.651 683.626 248.651ZM689.27 248.5V238.342H690.627V248.5H689.27ZM687.507 242.577V241.341H692.39V242.577H687.507ZM695.847 248.651C695.446 248.651 695.064 248.6 694.702 248.5C694.35 248.389 694.024 248.239 693.722 248.048C693.421 247.847 693.16 247.611 692.939 247.34L693.813 246.465C694.074 246.787 694.375 247.028 694.717 247.189C695.059 247.34 695.441 247.415 695.863 247.415C696.285 247.415 696.611 247.345 696.842 247.204C697.073 247.053 697.189 246.847 697.189 246.586C697.189 246.325 697.093 246.124 696.902 245.983C696.722 245.832 696.485 245.712 696.194 245.621C695.903 245.521 695.591 245.425 695.26 245.335C694.938 245.235 694.632 245.109 694.34 244.958C694.049 244.808 693.808 244.602 693.617 244.34C693.436 244.079 693.346 243.732 693.346 243.3C693.346 242.868 693.451 242.497 693.662 242.185C693.873 241.864 694.164 241.617 694.536 241.447C694.918 241.276 695.375 241.19 695.908 241.19C696.47 241.19 696.968 241.291 697.4 241.492C697.842 241.683 698.204 241.974 698.485 242.366L697.611 243.24C697.41 242.979 697.159 242.778 696.857 242.637C696.566 242.497 696.234 242.426 695.863 242.426C695.471 242.426 695.169 242.497 694.958 242.637C694.757 242.768 694.657 242.954 694.657 243.195C694.657 243.436 694.747 243.622 694.928 243.753C695.109 243.883 695.345 243.994 695.636 244.084C695.938 244.175 696.249 244.27 696.571 244.37C696.892 244.461 697.199 244.587 697.49 244.747C697.782 244.908 698.018 245.124 698.199 245.395C698.389 245.667 698.485 246.023 698.485 246.465C698.485 247.139 698.244 247.671 697.761 248.063C697.289 248.455 696.651 248.651 695.847 248.651Z" fill="#898989"/>
<rect x="654.845" y="279" width="47" height="47" rx="23.5" fill="white"/>
<rect x="654.845" y="279" width="47" height="47" rx="23.5" stroke="#E1E1E1"/>
<path d="M686.595 293.5H670.095C669.697 293.5 669.315 293.658 669.034 293.939C668.753 294.221 668.595 294.602 668.595 295V307.75C668.595 308.148 668.753 308.529 669.034 308.811C669.315 309.092 669.697 309.25 670.095 309.25H671.595V310.75C671.595 310.949 671.674 311.14 671.814 311.28C671.955 311.421 672.146 311.5 672.345 311.5C672.544 311.5 672.734 311.421 672.875 311.28C673.016 311.14 673.095 310.949 673.095 310.75V309.25H683.595V310.75C683.595 310.949 683.674 311.14 683.814 311.28C683.955 311.421 684.146 311.5 684.345 311.5C684.544 311.5 684.734 311.421 684.875 311.28C685.016 311.14 685.095 310.949 685.095 310.75V309.25H686.595C686.992 309.25 687.374 309.092 687.655 308.811C687.937 308.529 688.095 308.148 688.095 307.75V295C688.095 294.602 687.937 294.221 687.655 293.939C687.374 293.658 686.992 293.5 686.595 293.5ZM685.845 302.5H683.134C682.95 303.309 682.474 304.022 681.797 304.502C681.121 304.982 680.291 305.197 679.466 305.104C678.642 305.011 677.88 304.618 677.327 303.999C676.774 303.38 676.469 302.58 676.469 301.75C676.469 300.92 676.774 300.12 677.327 299.501C677.88 298.882 678.642 298.489 679.466 298.396C680.291 298.303 681.121 298.518 681.797 298.998C682.474 299.478 682.95 300.191 683.134 301H685.845C686.044 301 686.234 301.079 686.375 301.22C686.516 301.36 686.595 301.551 686.595 301.75C686.595 301.949 686.516 302.14 686.375 302.28C686.234 302.421 686.044 302.5 685.845 302.5ZM681.72 301.75C681.72 302.121 681.61 302.483 681.404 302.792C681.198 303.1 680.905 303.34 680.562 303.482C680.22 303.624 679.843 303.661 679.479 303.589C679.115 303.517 678.781 303.338 678.519 303.076C678.257 302.814 678.078 302.48 678.006 302.116C677.933 301.752 677.97 301.375 678.112 301.032C678.254 300.69 678.495 300.397 678.803 300.191C679.111 299.985 679.474 299.875 679.845 299.875C680.091 299.875 680.335 299.923 680.562 300.018C680.79 300.112 680.996 300.25 681.17 300.424C681.345 300.598 681.483 300.805 681.577 301.032C681.671 301.26 681.72 301.504 681.72 301.75Z" fill="#5C9EAD"/>
<defs>
<linearGradient id="paint0_linear_1082_2689" x1="678.381" y1="474.887" x2="627.46" y2="-38.3349" gradientUnits="userSpaceOnUse">
<stop stop-color="#7F7F7F"/>
<stop offset="0.5" stop-color="#A0A0A0"/>
<stop offset="1" stop-color="#C1C1C1"/>
</linearGradient>
<linearGradient id="paint1_linear_1082_2689" x1="692.957" y1="483.634" x2="612.175" y2="-49.6424" gradientUnits="userSpaceOnUse">
<stop stop-color="#111111"/>
<stop offset="0.5" stop-color="#C5C5C5"/>
<stop offset="1" stop-color="#909090"/>
</linearGradient>
<linearGradient id="paint2_linear_1082_2689" x1="573.247" y1="55.7039" x2="827.209" y2="375.652" gradientUnits="userSpaceOnUse">
<stop stop-color="white"/>
<stop offset="1" stop-color="#A9E1EE"/>
</linearGradient>
<linearGradient id="paint3_linear_1082_2689" x1="678.397" y1="45.3278" x2="678.397" y2="405.765" gradientUnits="userSpaceOnUse">
<stop stop-color="#343434"/>
<stop offset="1" stop-color="#818181"/>
</linearGradient>
<linearGradient id="paint4_linear_1082_2689" x1="408.329" y1="91.2237" x2="409.094" y2="115.96" gradientUnits="userSpaceOnUse">
<stop offset="0.146425" stop-color="#C5C5C5"/>
<stop offset="0.5" stop-color="#8A8A8A"/>
<stop offset="0.619735" stop-color="#ABABAB"/>
</linearGradient>
<linearGradient id="paint5_linear_1082_2689" x1="416.564" y1="335.308" x2="417.329" y2="360.044" gradientUnits="userSpaceOnUse">
<stop offset="0.146425" stop-color="#C5C5C5"/>
<stop offset="0.5" stop-color="#8A8A8A"/>
<stop offset="0.619735" stop-color="#ABABAB"/>
</linearGradient>
<linearGradient id="paint6_linear_1082_2689" x1="500.305" y1="51.0578" x2="394.272" y2="51.0578" gradientUnits="userSpaceOnUse">
<stop stop-color="#989898"/>
<stop offset="0.5" stop-color="#D2D2D2"/>
<stop offset="1" stop-color="#989898"/>
</linearGradient>
<linearGradient id="paint7_linear_1082_2689" x1="500.305" y1="397.102" x2="394.272" y2="397.102" gradientUnits="userSpaceOnUse">
<stop stop-color="#989898"/>
<stop offset="0.5" stop-color="#D2D2D2"/>
<stop offset="1" stop-color="#989898"/>
</linearGradient>
<linearGradient id="paint8_linear_1082_2689" x1="447.408" y1="-47.2626" x2="653.095" y2="21.1681" gradientUnits="userSpaceOnUse">
<stop offset="0.380265" stop-color="#ABABAB"/>
<stop offset="0.5" stop-color="#8A8A8A"/>
<stop offset="0.853575" stop-color="#C5C5C5"/>
</linearGradient>
<linearGradient id="paint9_linear_1082_2689" x1="224.931" y1="470.054" x2="149.716" y2="-32.5243" gradientUnits="userSpaceOnUse">
<stop stop-color="#111111"/>
<stop offset="0.5" stop-color="#C5C5C5"/>
<stop offset="1" stop-color="#909090"/>
</linearGradient>
<linearGradient id="paint10_linear_1082_2689" x1="221.328" y1="459.754" x2="173.933" y2="-23.776" gradientUnits="userSpaceOnUse">
<stop stop-color="#595959"/>
<stop offset="0.5" stop-color="#A0A0A0"/>
<stop offset="1" stop-color="#C1C1C1"/>
</linearGradient>
<linearGradient id="paint11_linear_1082_2689" x1="178.092" y1="425.768" x2="13.2539" y2="-10.3432" gradientUnits="userSpaceOnUse">
<stop stop-color="#898989"/>
<stop offset="0.5" stop-color="#E1E1E1"/>
<stop offset="1" stop-color="#E8E8E8"/>
</linearGradient>
<linearGradient id="paint12_linear_1082_2689" x1="422.472" y1="405.684" x2="51.7113" y2="35.0882" gradientUnits="userSpaceOnUse">
<stop stop-color="#F5F5F5"/>
<stop offset="0.5" stop-color="#A6A6A6"/>
<stop offset="1" stop-color="#949494"/>
</linearGradient>
<linearGradient id="paint13_linear_1082_2689" x1="358.647" y1="405.684" x2="-110.777" y2="366.069" gradientUnits="userSpaceOnUse">
<stop stop-color="#E8E8E8"/>
<stop offset="0.511749" stop-color="#A6A6A6"/>
<stop offset="1" stop-color="#898989"/>
</linearGradient>
<linearGradient id="paint14_linear_1082_2689" x1="371.625" y1="343.892" x2="206.786" y2="-104.579" gradientUnits="userSpaceOnUse">
<stop stop-color="#898989"/>
<stop offset="0.748684" stop-color="#A6A6A6"/>
<stop offset="1" stop-color="#E1E1E1"/>
</linearGradient>
<linearGradient id="paint15_linear_1082_2689" x1="329.075" y1="343.892" x2="16.1258" y2="317.481" gradientUnits="userSpaceOnUse">
<stop stop-color="#A6A6A6"/>
<stop offset="0.511749" stop-color="#A6A6A6"/>
<stop offset="1" stop-color="#858585"/>
</linearGradient>
<linearGradient id="paint16_linear_1082_2689" x1="351.037" y1="343.892" x2="104.805" y2="118.28" gradientUnits="userSpaceOnUse">
<stop stop-color="#969696"/>
<stop offset="0.5" stop-color="#B5B5B5"/>
<stop offset="1" stop-color="#E5E5E5"/>
</linearGradient>
<linearGradient id="paint17_linear_1082_2689" x1="312.033" y1="343.892" x2="24.8377" y2="321.674" gradientUnits="userSpaceOnUse">
<stop stop-color="#A6A6A6"/>
<stop offset="0.511749" stop-color="#898989"/>
<stop offset="1" stop-color="#E1E1E1"/>
</linearGradient>
</defs>
</svg>
