<svg width="903" height="450" viewBox="0 0 903 450" fill="none" xmlns="http://www.w3.org/2000/svg">
<path d="M678.381 445.912C800.626 445.912 899.724 346.783 899.724 224.501C899.724 102.219 800.626 3.0896 678.381 3.0896C556.137 3.0896 457.037 102.219 457.037 224.501C457.037 346.783 556.137 445.912 678.381 445.912Z" fill="url(#paint0_linear_847_4523)" stroke="url(#paint1_linear_847_4523)" stroke-width="5.65675"/>
<path d="M678.396 55.625C772.212 55.625 848.265 131.702 848.265 225.546C848.265 319.391 772.212 395.467 678.396 395.467C584.58 395.467 508.526 319.391 508.526 225.546C508.526 131.702 584.58 55.6251 678.396 55.625Z" fill="url(#paint2_linear_847_4523)" stroke="url(#paint3_linear_847_4523)" stroke-width="18.8558"/>
<path d="M445.744 93.2834H373.684V108.732H445.744V93.2834Z" fill="url(#paint4_linear_847_4523)"/>
<path d="M453.98 337.367H381.92V352.815H453.98V337.367Z" fill="url(#paint5_linear_847_4523)"/>
<path d="M496.186 30.46H398.39C396.116 30.46 394.272 32.3041 394.272 34.579V67.5366C394.272 69.8115 396.116 71.6556 398.39 71.6556H496.186C498.461 71.6556 500.304 69.8115 500.304 67.5366V34.579C500.304 32.3041 498.461 30.46 496.186 30.46Z" fill="url(#paint6_linear_847_4523)"/>
<path d="M468.391 56.2085C465.549 56.2085 463.244 58.514 463.244 61.3579C463.244 64.2019 465.549 66.5074 468.391 66.5074C471.235 66.5074 473.539 64.2019 473.539 61.3579C473.539 58.514 471.235 56.2085 468.391 56.2085Z" fill="#A6A6A6"/>
<path d="M468.391 36.6406C465.549 36.6406 463.244 38.9461 463.244 41.7901C463.244 44.634 465.549 46.9395 468.391 46.9395C471.235 46.9395 473.539 44.634 473.539 41.7901C473.539 38.9461 471.235 36.6406 468.391 36.6406Z" fill="#A6A6A6"/>
<path d="M487.951 56.2085C485.109 56.2085 482.804 58.514 482.804 61.3579C482.804 64.2019 485.109 66.5074 487.951 66.5074C490.794 66.5074 493.098 64.2019 493.098 61.3579C493.098 58.514 490.794 56.2085 487.951 56.2085Z" fill="#A6A6A6"/>
<path d="M487.951 36.6404C485.109 36.6404 482.804 38.9459 482.804 41.7898C482.804 44.6338 485.109 46.9393 487.951 46.9393C490.794 46.9393 493.098 44.6338 493.098 41.7898C493.098 38.9459 490.794 36.6404 487.951 36.6404Z" fill="#A6A6A6"/>
<path d="M406.627 56.2085C403.783 56.2085 401.479 58.514 401.479 61.3579C401.479 64.2019 403.783 66.5074 406.627 66.5074C409.469 66.5074 411.774 64.2019 411.774 61.3579C411.774 58.514 409.469 56.2085 406.627 56.2085Z" fill="#A6A6A6"/>
<path d="M406.627 36.6406C403.783 36.6406 401.479 38.9461 401.479 41.7901C401.479 44.634 403.783 46.9395 406.627 46.9395C409.469 46.9395 411.774 44.634 411.774 41.7901C411.774 38.9461 409.469 36.6406 406.627 36.6406Z" fill="#A6A6A6"/>
<path d="M426.185 56.2085C423.342 56.2085 421.038 58.514 421.038 61.3579C421.038 64.2019 423.342 66.5074 426.185 66.5074C429.028 66.5074 431.333 64.2019 431.333 61.3579C431.333 58.514 429.028 56.2085 426.185 56.2085Z" fill="#A6A6A6"/>
<path d="M426.185 36.6404C423.342 36.6404 421.038 38.9459 421.038 41.7898C421.038 44.6338 423.342 46.9393 426.185 46.9393C429.028 46.9393 431.333 44.6338 431.333 41.7898C431.333 38.9459 429.028 36.6404 426.185 36.6404Z" fill="#A6A6A6"/>
<path d="M496.186 376.504H398.39C396.116 376.504 394.272 378.348 394.272 380.623V413.58C394.272 415.855 396.116 417.699 398.39 417.699H496.186C498.461 417.699 500.304 415.855 500.304 413.58V380.623C500.304 378.348 498.461 376.504 496.186 376.504Z" fill="url(#paint7_linear_847_4523)"/>
<path d="M468.391 402.251C465.549 402.251 463.244 404.556 463.244 407.4C463.244 410.244 465.549 412.55 468.391 412.55C471.235 412.55 473.539 410.244 473.539 407.4C473.539 404.556 471.235 402.251 468.391 402.251Z" fill="#A6A6A6"/>
<path d="M468.391 382.682C465.549 382.682 463.244 384.988 463.244 387.832C463.244 390.676 465.549 392.981 468.391 392.981C471.235 392.981 473.539 390.676 473.539 387.832C473.539 384.988 471.235 382.682 468.391 382.682Z" fill="#A6A6A6"/>
<path d="M487.951 402.251C485.109 402.251 482.804 404.555 482.804 407.4C482.804 410.244 485.109 412.549 487.951 412.549C490.794 412.549 493.098 410.244 493.098 407.4C493.098 404.555 490.794 402.251 487.951 402.251Z" fill="#A6A6A6"/>
<path d="M487.951 382.682C485.109 382.682 482.804 384.988 482.804 387.832C482.804 390.676 485.109 392.981 487.951 392.981C490.794 392.981 493.098 390.676 493.098 387.832C493.098 384.988 490.794 382.682 487.951 382.682Z" fill="#A6A6A6"/>
<path d="M406.627 402.251C403.783 402.251 401.479 404.556 401.479 407.4C401.479 410.244 403.783 412.55 406.627 412.55C409.469 412.55 411.774 410.244 411.774 407.4C411.774 404.556 409.469 402.251 406.627 402.251Z" fill="#A6A6A6"/>
<path d="M406.627 382.682C403.783 382.682 401.479 384.988 401.479 387.832C401.479 390.676 403.783 392.981 406.627 392.981C409.469 392.981 411.774 390.676 411.774 387.832C411.774 384.988 409.469 382.682 406.627 382.682Z" fill="#A6A6A6"/>
<path d="M426.185 402.251C423.342 402.251 421.038 404.555 421.038 407.4C421.038 410.244 423.342 412.549 426.185 412.549C429.028 412.549 431.333 410.244 431.333 407.4C431.333 404.555 429.028 402.251 426.185 402.251Z" fill="#A6A6A6"/>
<path d="M426.185 382.682C423.342 382.682 421.038 384.988 421.038 387.832C421.038 390.676 423.342 392.981 426.185 392.981C429.028 392.981 431.333 390.676 431.333 387.832C431.333 384.988 429.028 382.682 426.185 382.682Z" fill="#A6A6A6"/>
<path d="M458.097 23.6825C458.097 16.0497 453.489 9.86206 447.803 9.86206C442.119 9.86206 437.51 16.0497 437.51 23.6825V424.477C437.51 432.109 442.119 438.297 447.803 438.297C453.489 438.297 458.097 432.109 458.097 424.477V23.6825Z" fill="url(#paint8_linear_847_4523)"/>
<path d="M211.033 434.522C327.584 434.522 422.067 341.15 422.067 225.969C422.067 110.788 327.584 17.4158 211.033 17.4158C94.4829 17.4158 0 110.788 0 225.969C0 341.15 94.4829 434.522 211.033 434.522Z" fill="url(#paint9_linear_847_4523)"/>
<path d="M221.327 432.462C337.878 432.462 432.361 339.09 432.361 223.909C432.361 108.728 337.878 15.3557 221.327 15.3557C104.777 15.3557 10.2939 108.728 10.2939 223.909C10.2939 339.09 104.777 432.462 221.327 432.462Z" fill="url(#paint10_linear_847_4523)"/>
<path d="M447.803 105.236C451.215 105.236 453.98 102.469 453.98 99.0565C453.98 95.6437 451.215 92.8772 447.803 92.8772C444.392 92.8772 441.627 95.6437 441.627 99.0565C441.627 102.469 444.392 105.236 447.803 105.236Z" fill="#777777"/>
<path d="M447.803 349.602C451.215 349.602 453.98 346.835 453.98 343.422C453.98 340.01 451.215 337.243 447.803 337.243C444.392 337.243 441.627 340.01 441.627 343.422C441.627 346.835 444.392 349.602 447.803 349.602Z" fill="#777777"/>
<path d="M220.299 38.0132C117.961 38.0132 35.001 121.011 35.001 223.393C35.001 325.776 117.961 408.774 220.299 408.774C322.636 408.774 405.597 325.776 405.597 223.393C405.597 121.011 322.636 38.0132 220.299 38.0132Z" fill="url(#paint11_linear_847_4523)"/>
<path d="M237.174 34.9231C134.837 34.9231 51.876 117.921 51.876 220.303C51.876 322.686 134.837 405.684 237.174 405.684C339.511 405.684 422.471 322.686 422.471 220.303C422.471 117.921 339.511 34.9231 237.174 34.9231Z" fill="url(#paint12_linear_847_4523)" stroke="url(#paint13_linear_847_4523)" stroke-width="5.65675"/>
<path d="M248.094 379.937C245.25 379.937 242.946 382.242 242.946 385.086C242.946 387.931 245.25 390.236 248.094 390.236C250.936 390.236 253.241 387.931 253.241 385.086C253.241 382.242 250.936 379.937 248.094 379.937Z" fill="#949494"/>
<path d="M248.094 50.3718C245.25 50.3718 242.946 52.6773 242.946 55.5213C242.946 58.3653 245.25 60.6708 248.094 60.6708C250.936 60.6708 253.241 58.3653 253.241 55.5213C253.241 52.6773 250.936 50.3718 248.094 50.3718Z" fill="#949494"/>
<path d="M83.3844 215.155C80.5418 215.155 78.2373 217.46 78.2373 220.303C78.2373 223.148 80.5418 225.453 83.3844 225.453C86.2272 225.453 88.5316 223.148 88.5316 220.303C88.5316 217.46 86.2272 215.155 83.3844 215.155Z" fill="#949494"/>
<path d="M129.709 96.717C126.865 96.717 124.562 99.0225 124.562 101.866C124.562 104.71 126.865 107.016 129.709 107.016C132.551 107.016 134.856 104.71 134.856 101.866C134.856 99.0225 132.551 96.717 129.709 96.717Z" fill="#949494"/>
<path d="M129.709 333.592C126.865 333.592 124.562 335.898 124.562 338.742C124.562 341.586 126.865 343.892 129.709 343.892C132.551 343.892 134.856 341.586 134.856 338.742C134.856 335.898 132.551 333.592 129.709 333.592Z" fill="#949494"/>
<path d="M412.802 215.155C409.96 215.155 407.656 217.46 407.656 220.303C407.656 223.148 409.96 225.453 412.802 225.453C415.646 225.453 417.95 223.148 417.95 220.303C417.95 217.46 415.646 215.155 412.802 215.155Z" fill="#949494"/>
<path d="M366.478 333.592C363.635 333.592 361.331 335.898 361.331 338.742C361.331 341.586 363.635 343.892 366.478 343.892C369.32 343.892 371.625 341.586 371.625 338.742C371.625 335.898 369.32 333.592 366.478 333.592Z" fill="#949494"/>
<path d="M366.478 96.717C363.635 96.717 361.331 99.0225 361.331 101.866C361.331 104.71 363.635 107.016 366.478 107.016C369.32 107.016 371.625 104.71 371.625 101.866C371.625 99.0225 369.32 96.717 366.478 96.717Z" fill="#949494"/>
<path opacity="0.2" d="M171.915 401.565C169.073 401.565 166.768 403.871 166.768 406.715C166.768 409.559 169.073 411.864 171.915 411.864C174.758 411.864 177.062 409.559 177.062 406.715C177.062 403.871 174.758 401.565 171.915 401.565Z" fill="#A6A6A6"/>
<path d="M168.827 27.7148C165.984 27.7148 163.68 30.0203 163.68 32.8643C163.68 35.7082 165.984 38.0137 168.827 38.0137C171.669 38.0137 173.974 35.7082 173.974 32.8643C173.974 30.0203 171.669 27.7148 168.827 27.7148Z" fill="#A6A6A6"/>
<path d="M25.736 215.155C22.8933 215.155 20.5889 217.46 20.5889 220.303C20.5889 223.148 22.8933 225.453 25.736 225.453C28.5787 225.453 30.8832 223.148 30.8832 220.303C30.8832 217.46 28.5787 215.155 25.736 215.155Z" fill="#A6A6A6"/>
<path d="M72.0603 96.717C69.2175 96.717 66.9131 99.0225 66.9131 101.866C66.9131 104.71 69.2175 107.016 72.0603 107.016C74.9029 107.016 77.2075 104.71 77.2075 101.866C77.2075 99.0225 74.9029 96.717 72.0603 96.717Z" fill="#A6A6A6"/>
<path d="M67.9421 338.742C65.0994 338.742 62.7949 341.046 62.7949 343.891C62.7949 346.735 65.0994 349.04 67.9421 349.04C70.7848 349.04 73.0892 346.735 73.0892 343.891C73.0892 341.046 70.7848 338.742 67.9421 338.742Z" fill="#878787"/>
<path d="M248.093 96.7173C179.868 96.7173 124.562 152.049 124.562 220.305C124.562 288.559 179.868 343.892 248.093 343.892C316.319 343.892 371.625 288.559 371.625 220.305C371.625 152.049 316.319 96.7173 248.093 96.7173Z" fill="url(#paint14_linear_847_4523)" stroke="url(#paint15_linear_847_4523)" stroke-width="3.77117"/>
<path d="M237.799 96.7173C175.259 96.7173 124.562 152.049 124.562 220.305C124.562 288.559 175.259 343.892 237.799 343.892C300.339 343.892 351.037 288.559 351.037 220.305C351.037 152.049 300.339 96.7173 237.799 96.7173Z" fill="url(#paint16_linear_847_4523)" stroke="url(#paint17_linear_847_4523)" stroke-width="3.77117"/>
<path d="M248.094 335.652V103.926" stroke="#6D6D6D" stroke-width="7.54233" stroke-linecap="round"/>
<path d="M344.86 223.395L130.043 220.103" stroke="#6D6D6D" stroke-width="7.54233" stroke-linecap="round"/>
<path d="M322.169 295.67L163.602 136.193" stroke="#6D6D6D" stroke-width="7.54233" stroke-linecap="round"/>
<path d="M316.296 142.906L161.085 301.545" stroke="#6D6D6D" stroke-width="7.54233" stroke-linecap="round"/>
<path d="M286.093 324.207L207.229 108.493" stroke="#6D6D6D" stroke-width="7.54233" stroke-linecap="round"/>
<path d="M340.627 189.071L136.754 261.256" stroke="#6D6D6D" stroke-width="7.54233" stroke-linecap="round"/>
<path d="M248.094 179.11C225.352 179.11 206.916 197.553 206.916 220.306C206.916 243.057 225.352 261.5 248.094 261.5C270.835 261.5 289.27 243.057 289.27 220.306C289.27 197.553 270.835 179.11 248.094 179.11Z" fill="#BDBDBD" stroke="#666666" stroke-width="4.71396"/>
<path d="M248.093 201.767C237.859 201.767 229.562 210.066 229.562 220.304C229.562 230.543 237.859 238.843 248.093 238.843C258.326 238.843 266.623 230.543 266.623 220.304C266.623 210.066 258.326 201.767 248.093 201.767Z" fill="#9A9A9A"/>
<path d="M615.235 152.5V131.822H624.941C626.006 131.822 626.94 132.033 627.744 132.455C628.548 132.857 629.171 133.43 629.613 134.173C630.055 134.897 630.276 135.741 630.276 136.705C630.276 137.73 630.095 138.584 629.734 139.267C629.372 139.931 628.92 140.453 628.377 140.835C627.835 141.217 627.282 141.498 626.719 141.679V141.86C627.101 141.92 627.523 142.051 627.985 142.252C628.448 142.432 628.89 142.704 629.312 143.065C629.734 143.407 630.075 143.859 630.336 144.422C630.618 144.964 630.758 145.648 630.758 146.472C630.758 147.637 630.497 148.672 629.975 149.576C629.472 150.48 628.769 151.194 627.865 151.716C626.981 152.239 625.946 152.5 624.76 152.5H615.235ZM618.852 149.667H624.037C624.64 149.667 625.162 149.526 625.604 149.245C626.066 148.943 626.428 148.551 626.689 148.069C626.95 147.567 627.081 147.024 627.081 146.441C627.081 145.818 626.94 145.286 626.659 144.844C626.398 144.382 626.036 144.03 625.574 143.789C625.112 143.528 624.599 143.397 624.037 143.397H618.852V149.667ZM618.852 140.564H623.705C624.308 140.564 624.83 140.423 625.273 140.142C625.715 139.84 626.056 139.458 626.297 138.996C626.539 138.514 626.659 137.991 626.659 137.429C626.659 136.524 626.428 135.841 625.966 135.379C625.524 134.897 624.871 134.656 624.007 134.656H618.852V140.564ZM639.512 152.801C637.924 152.801 636.668 152.369 635.744 151.505C634.819 150.621 634.357 149.295 634.357 147.526V137.097H637.854V146.743C637.854 147.969 638.095 148.843 638.577 149.365C639.08 149.888 639.803 150.149 640.747 150.149C641.39 150.149 641.983 149.998 642.526 149.697C643.068 149.375 643.5 148.953 643.822 148.431C644.164 147.888 644.334 147.295 644.334 146.652V137.097H647.831V149.365C647.831 149.747 647.921 150.018 648.102 150.179C648.283 150.34 648.484 150.42 648.705 150.42C648.926 150.42 649.147 150.38 649.368 150.3C649.589 150.219 649.8 150.129 650.001 150.028V152.168C649.74 152.369 649.408 152.52 649.006 152.621C648.605 152.741 648.132 152.801 647.59 152.801C646.927 152.801 646.384 152.691 645.962 152.47C645.54 152.229 645.219 151.917 644.997 151.535C644.797 151.134 644.646 150.712 644.545 150.269C644.043 151.073 643.33 151.696 642.405 152.138C641.501 152.58 640.536 152.801 639.512 152.801ZM658.684 152.801C657.659 152.801 656.755 152.681 655.971 152.44C655.188 152.178 654.525 151.837 653.982 151.415C653.44 150.993 653.028 150.511 652.746 149.968C652.465 149.425 652.324 148.863 652.324 148.28C652.324 148.159 652.324 148.059 652.324 147.979C652.324 147.898 652.334 147.788 652.354 147.647H655.369C655.349 147.707 655.338 147.768 655.338 147.828C655.338 147.868 655.338 147.908 655.338 147.948C655.338 148.511 655.519 148.973 655.881 149.335C656.243 149.697 656.715 149.968 657.298 150.149C657.901 150.33 658.564 150.42 659.287 150.42C659.89 150.42 660.463 150.34 661.005 150.179C661.548 150.018 661.99 149.787 662.332 149.486C662.673 149.164 662.844 148.772 662.844 148.31C662.844 147.788 662.663 147.386 662.301 147.104C661.94 146.823 661.457 146.602 660.855 146.441C660.272 146.281 659.619 146.14 658.895 146.019C658.192 145.899 657.479 145.758 656.755 145.597C656.032 145.417 655.369 145.175 654.766 144.874C654.183 144.552 653.711 144.12 653.349 143.578C652.987 143.035 652.807 142.322 652.807 141.438C652.807 140.714 652.967 140.061 653.289 139.478C653.61 138.896 654.062 138.413 654.645 138.032C655.228 137.63 655.911 137.328 656.695 137.127C657.479 136.906 658.323 136.796 659.227 136.796H659.709C660.553 136.796 661.337 136.906 662.06 137.127C662.804 137.348 663.447 137.65 663.989 138.032C664.532 138.413 664.954 138.856 665.255 139.358C665.557 139.86 665.707 140.393 665.707 140.955C665.707 141.056 665.697 141.166 665.677 141.287C665.677 141.408 665.677 141.488 665.677 141.528H662.633V141.227C662.633 141.026 662.583 140.815 662.482 140.594C662.382 140.353 662.201 140.132 661.94 139.931C661.678 139.71 661.327 139.529 660.885 139.388C660.463 139.247 659.92 139.177 659.257 139.177C658.654 139.177 658.142 139.237 657.72 139.358C657.298 139.478 656.956 139.639 656.695 139.84C656.434 140.021 656.243 140.222 656.122 140.443C656.022 140.664 655.971 140.875 655.971 141.076C655.971 141.538 656.152 141.9 656.514 142.161C656.876 142.422 657.358 142.633 657.961 142.794C658.564 142.935 659.227 143.065 659.95 143.186C660.674 143.286 661.387 143.427 662.09 143.608C662.814 143.769 663.477 144.01 664.08 144.331C664.683 144.653 665.165 145.085 665.527 145.628C665.888 146.17 666.069 146.883 666.069 147.768C666.069 148.692 665.888 149.486 665.527 150.149C665.185 150.792 664.703 151.304 664.08 151.686C663.457 152.068 662.743 152.349 661.94 152.53C661.156 152.711 660.322 152.801 659.438 152.801H658.684ZM669.895 152.5V137.097H673.391V152.5H669.895ZM669.805 133.631V130.797H673.482V133.631H669.805ZM678.073 152.5V137.097H680.635L681.087 139.358C681.67 138.514 682.394 137.881 683.258 137.459C684.122 137.017 685.086 136.796 686.151 136.796C687.216 136.796 688.151 136.997 688.955 137.399C689.758 137.801 690.381 138.393 690.823 139.177C691.286 139.941 691.517 140.885 691.517 142.01V152.5H688.02V142.643C688.02 141.498 687.749 140.684 687.206 140.202C686.684 139.699 685.95 139.448 685.006 139.448C684.383 139.448 683.81 139.609 683.288 139.931C682.765 140.232 682.343 140.644 682.022 141.166C681.72 141.689 681.57 142.282 681.57 142.945V152.5H678.073ZM702.419 152.801C701.013 152.801 699.777 152.51 698.712 151.927C697.647 151.324 696.813 150.45 696.21 149.305C695.627 148.159 695.336 146.773 695.336 145.145V144.452C695.336 142.824 695.647 141.438 696.27 140.292C696.913 139.147 697.777 138.283 698.863 137.7C699.968 137.097 701.224 136.796 702.63 136.796H703.022C704.328 136.796 705.474 137.067 706.458 137.61C707.443 138.132 708.207 138.886 708.749 139.87C709.292 140.855 709.563 142.01 709.563 143.337V145.236H698.983C698.983 146.301 699.124 147.225 699.405 148.009C699.686 148.792 700.098 149.395 700.641 149.817C701.204 150.219 701.897 150.42 702.721 150.42C703.404 150.42 704.007 150.29 704.529 150.028C705.072 149.747 705.494 149.335 705.795 148.792C706.117 148.25 706.278 147.577 706.278 146.773H709.563C709.563 147.979 709.262 149.034 708.659 149.938C708.056 150.842 707.242 151.545 706.217 152.048C705.192 152.55 704.027 152.801 702.721 152.801H702.419ZM699.013 143.307H706.127C706.127 141.9 705.815 140.865 705.192 140.202C704.59 139.519 703.756 139.177 702.691 139.177C701.686 139.177 700.832 139.529 700.129 140.232C699.445 140.915 699.074 141.94 699.013 143.307ZM718.822 152.801C717.797 152.801 716.893 152.681 716.109 152.44C715.326 152.178 714.662 151.837 714.12 151.415C713.577 150.993 713.165 150.511 712.884 149.968C712.603 149.425 712.462 148.863 712.462 148.28C712.462 148.159 712.462 148.059 712.462 147.979C712.462 147.898 712.472 147.788 712.492 147.647H715.506C715.486 147.707 715.476 147.768 715.476 147.828C715.476 147.868 715.476 147.908 715.476 147.948C715.476 148.511 715.657 148.973 716.019 149.335C716.381 149.697 716.853 149.968 717.436 150.149C718.038 150.33 718.702 150.42 719.425 150.42C720.028 150.42 720.6 150.34 721.143 150.179C721.686 150.018 722.128 149.787 722.469 149.486C722.811 149.164 722.982 148.772 722.982 148.31C722.982 147.788 722.801 147.386 722.439 147.104C722.077 146.823 721.595 146.602 720.992 146.441C720.41 146.281 719.757 146.14 719.033 146.019C718.33 145.899 717.616 145.758 716.893 145.597C716.17 145.417 715.506 145.175 714.904 144.874C714.321 144.552 713.849 144.12 713.487 143.578C713.125 143.035 712.944 142.322 712.944 141.438C712.944 140.714 713.105 140.061 713.427 139.478C713.748 138.896 714.2 138.413 714.783 138.032C715.366 137.63 716.049 137.328 716.833 137.127C717.616 136.906 718.46 136.796 719.365 136.796H719.847C720.691 136.796 721.475 136.906 722.198 137.127C722.942 137.348 723.585 137.65 724.127 138.032C724.67 138.413 725.092 138.856 725.393 139.358C725.695 139.86 725.845 140.393 725.845 140.955C725.845 141.056 725.835 141.166 725.815 141.287C725.815 141.408 725.815 141.488 725.815 141.528H722.771V141.227C722.771 141.026 722.721 140.815 722.62 140.594C722.52 140.353 722.339 140.132 722.077 139.931C721.816 139.71 721.465 139.529 721.022 139.388C720.6 139.247 720.058 139.177 719.395 139.177C718.792 139.177 718.28 139.237 717.858 139.358C717.436 139.478 717.094 139.639 716.833 139.84C716.571 140.021 716.381 140.222 716.26 140.443C716.159 140.664 716.109 140.875 716.109 141.076C716.109 141.538 716.29 141.9 716.652 142.161C717.014 142.422 717.496 142.633 718.099 142.794C718.702 142.935 719.365 143.065 720.088 143.186C720.811 143.286 721.525 143.427 722.228 143.608C722.952 143.769 723.615 144.01 724.218 144.331C724.82 144.653 725.303 145.085 725.664 145.628C726.026 146.17 726.207 146.883 726.207 147.768C726.207 148.692 726.026 149.486 725.664 150.149C725.323 150.792 724.841 151.304 724.218 151.686C723.595 152.068 722.881 152.349 722.077 152.53C721.294 152.711 720.46 152.801 719.576 152.801H718.822ZM735.247 152.801C734.223 152.801 733.318 152.681 732.535 152.44C731.751 152.178 731.088 151.837 730.545 151.415C730.003 150.993 729.591 150.511 729.309 149.968C729.028 149.425 728.887 148.863 728.887 148.28C728.887 148.159 728.887 148.059 728.887 147.979C728.887 147.898 728.897 147.788 728.917 147.647H731.932C731.912 147.707 731.902 147.768 731.902 147.828C731.902 147.868 731.902 147.908 731.902 147.948C731.902 148.511 732.082 148.973 732.444 149.335C732.806 149.697 733.278 149.968 733.861 150.149C734.464 150.33 735.127 150.42 735.85 150.42C736.453 150.42 737.026 150.34 737.568 150.179C738.111 150.018 738.553 149.787 738.895 149.486C739.236 149.164 739.407 148.772 739.407 148.31C739.407 147.788 739.226 147.386 738.864 147.104C738.503 146.823 738.02 146.602 737.418 146.441C736.835 146.281 736.182 146.14 735.458 146.019C734.755 145.899 734.042 145.758 733.318 145.597C732.595 145.417 731.932 145.175 731.329 144.874C730.746 144.552 730.274 144.12 729.912 143.578C729.55 143.035 729.37 142.322 729.37 141.438C729.37 140.714 729.53 140.061 729.852 139.478C730.173 138.896 730.626 138.413 731.208 138.032C731.791 137.63 732.474 137.328 733.258 137.127C734.042 136.906 734.886 136.796 735.79 136.796H736.272C737.116 136.796 737.9 136.906 738.623 137.127C739.367 137.348 740.01 137.65 740.552 138.032C741.095 138.413 741.517 138.856 741.818 139.358C742.12 139.86 742.271 140.393 742.271 140.955C742.271 141.056 742.261 141.166 742.24 141.287C742.24 141.408 742.24 141.488 742.24 141.528H739.196V141.227C739.196 141.026 739.146 140.815 739.045 140.594C738.945 140.353 738.764 140.132 738.503 139.931C738.242 139.71 737.89 139.529 737.448 139.388C737.026 139.247 736.483 139.177 735.82 139.177C735.217 139.177 734.705 139.237 734.283 139.358C733.861 139.478 733.519 139.639 733.258 139.84C732.997 140.021 732.806 140.222 732.685 140.443C732.585 140.664 732.535 140.875 732.535 141.076C732.535 141.538 732.715 141.9 733.077 142.161C733.439 142.422 733.921 142.633 734.524 142.794C735.127 142.935 735.79 143.065 736.513 143.186C737.237 143.286 737.95 143.427 738.653 143.608C739.377 143.769 740.04 144.01 740.643 144.331C741.246 144.653 741.728 145.085 742.09 145.628C742.451 146.17 742.632 146.883 742.632 147.768C742.632 148.692 742.451 149.486 742.09 150.149C741.748 150.792 741.266 151.304 740.643 151.686C740.02 152.068 739.307 152.349 738.503 152.53C737.719 152.711 736.885 152.801 736.001 152.801H735.247ZM581.965 188.5C580.981 188.5 580.036 188.389 579.132 188.168C578.248 187.947 577.454 187.596 576.751 187.113C576.047 186.631 575.495 186.028 575.093 185.305C574.691 184.561 574.49 183.677 574.49 182.652C574.49 181.306 574.831 180.251 575.515 179.487C576.218 178.724 577.122 178.181 578.228 177.86V177.709C577.605 177.428 577.042 177.086 576.54 176.684C576.057 176.262 575.675 175.77 575.394 175.207C575.133 174.624 575.002 173.941 575.002 173.157C575.002 172.213 575.193 171.389 575.575 170.686C575.957 169.982 576.469 169.4 577.112 168.938C577.755 168.475 578.489 168.124 579.313 167.883C580.137 167.641 581.001 167.521 581.905 167.521C582.548 167.521 583.151 167.581 583.713 167.702V170.535C583.191 170.374 582.689 170.294 582.206 170.294C581.543 170.294 580.93 170.415 580.368 170.656C579.805 170.877 579.353 171.228 579.011 171.711C578.67 172.173 578.499 172.756 578.499 173.459C578.499 174.062 578.65 174.604 578.951 175.087C579.272 175.549 579.705 175.921 580.247 176.202C580.81 176.463 581.443 176.594 582.146 176.594H585.974L586.999 172.253H589.38V176.594H592.455V179.246H589.38V188.5H581.965ZM582.146 185.878H585.884V179.246H582.086C581.262 179.246 580.548 179.377 579.946 179.638C579.343 179.899 578.871 180.281 578.529 180.784C578.207 181.266 578.047 181.839 578.047 182.502C578.047 183.607 578.439 184.451 579.222 185.034C580.026 185.596 581.001 185.878 582.146 185.878ZM602.887 188.5V167.822H612.472C613.557 167.822 614.552 168.083 615.456 168.606C616.36 169.108 617.074 169.802 617.596 170.686C618.139 171.57 618.41 172.555 618.41 173.64V174.001C618.41 175.087 618.129 176.091 617.566 177.016C617.003 177.94 616.26 178.684 615.336 179.246C614.431 179.789 613.426 180.06 612.321 180.06H606.624V188.5H602.887ZM606.624 177.166H611.568C612.171 177.166 612.703 177.026 613.165 176.744C613.627 176.463 613.989 176.081 614.25 175.599C614.532 175.117 614.672 174.564 614.672 173.941C614.672 173.057 614.371 172.303 613.768 171.68C613.185 171.037 612.422 170.716 611.477 170.716H606.624V177.166ZM621.63 188.5V173.097H624.252L624.704 175.358C624.744 175.298 624.845 175.137 625.006 174.876C625.166 174.614 625.418 174.323 625.759 174.001C626.101 173.68 626.533 173.399 627.055 173.157C627.578 172.916 628.211 172.796 628.954 172.796C630.019 172.796 630.883 173.007 631.547 173.429C632.23 173.851 632.732 174.434 633.054 175.177C633.395 175.9 633.566 176.734 633.566 177.679C633.566 177.9 633.556 178.131 633.536 178.372C633.516 178.593 633.496 178.784 633.476 178.945H630.522V178.342C630.522 177.92 630.441 177.488 630.281 177.046C630.12 176.604 629.848 176.232 629.467 175.931C629.085 175.629 628.552 175.478 627.869 175.478C627.367 175.478 626.935 175.589 626.573 175.81C626.231 176.011 625.95 176.272 625.729 176.594C625.508 176.915 625.347 177.267 625.247 177.649C625.166 178.01 625.126 178.352 625.126 178.674V188.5H621.63ZM643.005 188.801C641.638 188.801 640.413 188.49 639.328 187.867C638.242 187.244 637.388 186.35 636.765 185.184C636.163 184.019 635.861 182.642 635.861 181.055V180.542C635.861 178.935 636.163 177.558 636.765 176.413C637.388 175.247 638.232 174.353 639.297 173.73C640.383 173.107 641.608 172.796 642.975 172.796H643.457C644.844 172.796 646.069 173.107 647.134 173.73C648.22 174.353 649.064 175.247 649.666 176.413C650.289 177.558 650.601 178.935 650.601 180.542V181.055C650.601 182.642 650.289 184.019 649.666 185.184C649.064 186.35 648.22 187.244 647.134 187.867C646.069 188.49 644.854 188.801 643.487 188.801H643.005ZM643.216 186.42C643.919 186.42 644.542 186.259 645.085 185.938C645.647 185.596 646.089 185.094 646.411 184.431C646.753 183.768 646.923 182.964 646.923 182.019V179.578C646.923 178.613 646.753 177.809 646.411 177.166C646.089 176.503 645.647 176.011 645.085 175.689C644.542 175.348 643.919 175.177 643.216 175.177C642.533 175.177 641.91 175.348 641.347 175.689C640.804 176.011 640.362 176.503 640.021 177.166C639.699 177.809 639.539 178.613 639.539 179.578V182.019C639.539 182.964 639.699 183.768 640.021 184.431C640.362 185.094 640.804 185.596 641.347 185.938C641.91 186.259 642.533 186.42 643.216 186.42ZM655.148 188.5V175.78H653.369V173.097H655.148V170.445C655.148 169.078 655.539 168.094 656.323 167.491C657.107 166.868 658.102 166.556 659.307 166.556C659.609 166.556 659.94 166.586 660.302 166.647C660.664 166.687 661.015 166.747 661.357 166.828C661.719 166.908 662.02 167.008 662.261 167.129V169.36C662.02 169.259 661.699 169.169 661.297 169.088C660.915 169.008 660.613 168.968 660.392 168.968C660.131 168.968 659.86 169.008 659.579 169.088C659.317 169.169 659.096 169.339 658.915 169.601C658.735 169.862 658.644 170.284 658.644 170.867V173.097H662.261V175.78H658.644V188.5H655.148ZM671.88 188.801C670.473 188.801 669.237 188.51 668.172 187.927C667.107 187.324 666.273 186.45 665.67 185.305C665.087 184.159 664.796 182.773 664.796 181.145V180.452C664.796 178.824 665.108 177.438 665.73 176.292C666.373 175.147 667.238 174.283 668.323 173.7C669.428 173.097 670.684 172.796 672.091 172.796H672.482C673.789 172.796 674.934 173.067 675.919 173.61C676.903 174.132 677.667 174.886 678.209 175.87C678.752 176.855 679.023 178.01 679.023 179.337V181.236H668.443C668.443 182.301 668.584 183.225 668.865 184.009C669.147 184.792 669.559 185.395 670.101 185.817C670.664 186.219 671.357 186.42 672.181 186.42C672.864 186.42 673.467 186.29 673.989 186.028C674.532 185.747 674.954 185.335 675.255 184.792C675.577 184.25 675.738 183.577 675.738 182.773H679.023C679.023 183.979 678.722 185.034 678.119 185.938C677.516 186.842 676.702 187.545 675.677 188.048C674.653 188.55 673.487 188.801 672.181 188.801H671.88ZM668.473 179.307H675.587C675.587 177.9 675.276 176.865 674.653 176.202C674.05 175.519 673.216 175.177 672.151 175.177C671.146 175.177 670.292 175.529 669.589 176.232C668.905 176.915 668.534 177.94 668.473 179.307ZM688.282 188.801C687.257 188.801 686.353 188.681 685.569 188.44C684.786 188.178 684.123 187.837 683.58 187.415C683.037 186.993 682.625 186.511 682.344 185.968C682.063 185.425 681.922 184.863 681.922 184.28C681.922 184.159 681.922 184.059 681.922 183.979C681.922 183.898 681.932 183.788 681.952 183.647H684.967C684.946 183.707 684.936 183.768 684.936 183.828C684.936 183.868 684.936 183.908 684.936 183.948C684.936 184.511 685.117 184.973 685.479 185.335C685.841 185.697 686.313 185.968 686.896 186.149C687.499 186.33 688.162 186.42 688.885 186.42C689.488 186.42 690.061 186.34 690.603 186.179C691.146 186.018 691.588 185.787 691.929 185.486C692.271 185.164 692.442 184.772 692.442 184.31C692.442 183.788 692.261 183.386 691.899 183.104C691.538 182.823 691.055 182.602 690.452 182.441C689.87 182.281 689.217 182.14 688.493 182.019C687.79 181.899 687.077 181.758 686.353 181.597C685.63 181.417 684.967 181.175 684.364 180.874C683.781 180.552 683.309 180.12 682.947 179.578C682.585 179.035 682.404 178.322 682.404 177.438C682.404 176.714 682.565 176.061 682.887 175.478C683.208 174.896 683.66 174.413 684.243 174.032C684.826 173.63 685.509 173.328 686.293 173.127C687.077 172.906 687.92 172.796 688.825 172.796H689.307C690.151 172.796 690.935 172.906 691.658 173.127C692.402 173.348 693.045 173.65 693.587 174.032C694.13 174.413 694.552 174.856 694.853 175.358C695.155 175.86 695.305 176.393 695.305 176.955C695.305 177.056 695.295 177.166 695.275 177.287C695.275 177.408 695.275 177.488 695.275 177.528H692.231V177.227C692.231 177.026 692.181 176.815 692.08 176.594C691.98 176.353 691.799 176.132 691.538 175.931C691.276 175.71 690.925 175.529 690.483 175.388C690.061 175.247 689.518 175.177 688.855 175.177C688.252 175.177 687.74 175.237 687.318 175.358C686.896 175.478 686.554 175.639 686.293 175.84C686.032 176.021 685.841 176.222 685.72 176.443C685.62 176.664 685.569 176.875 685.569 177.076C685.569 177.538 685.75 177.9 686.112 178.161C686.474 178.422 686.956 178.633 687.559 178.794C688.162 178.935 688.825 179.065 689.548 179.186C690.272 179.286 690.985 179.427 691.688 179.608C692.412 179.769 693.075 180.01 693.678 180.331C694.281 180.653 694.763 181.085 695.125 181.628C695.486 182.17 695.667 182.883 695.667 183.768C695.667 184.692 695.486 185.486 695.125 186.149C694.783 186.792 694.301 187.304 693.678 187.686C693.055 188.068 692.341 188.349 691.538 188.53C690.754 188.711 689.92 188.801 689.036 188.801H688.282ZM704.708 188.801C703.683 188.801 702.778 188.681 701.995 188.44C701.211 188.178 700.548 187.837 700.005 187.415C699.463 186.993 699.051 186.511 698.769 185.968C698.488 185.425 698.347 184.863 698.347 184.28C698.347 184.159 698.347 184.059 698.347 183.979C698.347 183.898 698.357 183.788 698.378 183.647H701.392C701.372 183.707 701.362 183.768 701.362 183.828C701.362 183.868 701.362 183.908 701.362 183.948C701.362 184.511 701.543 184.973 701.904 185.335C702.266 185.697 702.738 185.968 703.321 186.149C703.924 186.33 704.587 186.42 705.31 186.42C705.913 186.42 706.486 186.34 707.028 186.179C707.571 186.018 708.013 185.787 708.355 185.486C708.696 185.164 708.867 184.772 708.867 184.31C708.867 183.788 708.686 183.386 708.325 183.104C707.963 182.823 707.481 182.602 706.878 182.441C706.295 182.281 705.642 182.14 704.919 182.019C704.215 181.899 703.502 181.758 702.778 181.597C702.055 181.417 701.392 181.175 700.789 180.874C700.206 180.552 699.734 180.12 699.372 179.578C699.011 179.035 698.83 178.322 698.83 177.438C698.83 176.714 698.99 176.061 699.312 175.478C699.634 174.896 700.086 174.413 700.668 174.032C701.251 173.63 701.934 173.328 702.718 173.127C703.502 172.906 704.346 172.796 705.25 172.796H705.732C706.576 172.796 707.36 172.906 708.083 173.127C708.827 173.348 709.47 173.65 710.013 174.032C710.555 174.413 710.977 174.856 711.279 175.358C711.58 175.86 711.731 176.393 711.731 176.955C711.731 177.056 711.721 177.166 711.701 177.287C711.701 177.408 711.701 177.488 711.701 177.528H708.656V177.227C708.656 177.026 708.606 176.815 708.505 176.594C708.405 176.353 708.224 176.132 707.963 175.931C707.702 175.71 707.35 175.529 706.908 175.388C706.486 175.247 705.943 175.177 705.28 175.177C704.677 175.177 704.165 175.237 703.743 175.358C703.321 175.478 702.979 175.639 702.718 175.84C702.457 176.021 702.266 176.222 702.145 176.443C702.045 176.664 701.995 176.875 701.995 177.076C701.995 177.538 702.176 177.9 702.537 178.161C702.899 178.422 703.381 178.633 703.984 178.794C704.587 178.935 705.25 179.065 705.973 179.186C706.697 179.286 707.41 179.427 708.114 179.608C708.837 179.769 709.5 180.01 710.103 180.331C710.706 180.653 711.188 181.085 711.55 181.628C711.912 182.17 712.092 182.883 712.092 183.768C712.092 184.692 711.912 185.486 711.55 186.149C711.208 186.792 710.726 187.304 710.103 187.686C709.48 188.068 708.767 188.349 707.963 188.53C707.179 188.711 706.345 188.801 705.461 188.801H704.708ZM715.918 188.5V173.097H719.415V188.5H715.918ZM715.828 169.631V166.797H719.505V169.631H715.828ZM730.577 188.801C729.211 188.801 727.985 188.49 726.9 187.867C725.815 187.244 724.961 186.35 724.338 185.184C723.735 184.019 723.433 182.642 723.433 181.055V180.542C723.433 178.935 723.735 177.558 724.338 176.413C724.961 175.247 725.804 174.353 726.87 173.73C727.955 173.107 729.18 172.796 730.547 172.796H731.029C732.416 172.796 733.642 173.107 734.707 173.73C735.792 174.353 736.636 175.247 737.239 176.413C737.861 177.558 738.173 178.935 738.173 180.542V181.055C738.173 182.642 737.861 184.019 737.239 185.184C736.636 186.35 735.792 187.244 734.707 187.867C733.642 188.49 732.426 188.801 731.059 188.801H730.577ZM730.788 186.42C731.491 186.42 732.114 186.259 732.657 185.938C733.22 185.596 733.662 185.094 733.983 184.431C734.325 183.768 734.496 182.964 734.496 182.019V179.578C734.496 178.613 734.325 177.809 733.983 177.166C733.662 176.503 733.22 176.011 732.657 175.689C732.114 175.348 731.491 175.177 730.788 175.177C730.105 175.177 729.482 175.348 728.919 175.689C728.377 176.011 727.935 176.503 727.593 177.166C727.271 177.809 727.111 178.613 727.111 179.578V182.019C727.111 182.964 727.271 183.768 727.593 184.431C727.935 185.094 728.377 185.596 728.919 185.938C729.482 186.259 730.105 186.42 730.788 186.42ZM741.964 188.5V173.097H744.526L744.978 175.358C745.561 174.514 746.285 173.881 747.149 173.459C748.013 173.017 748.977 172.796 750.042 172.796C751.107 172.796 752.042 172.997 752.846 173.399C753.649 173.801 754.272 174.393 754.714 175.177C755.177 175.941 755.408 176.885 755.408 178.01V188.5H751.911V178.643C751.911 177.498 751.64 176.684 751.097 176.202C750.575 175.699 749.841 175.448 748.897 175.448C748.274 175.448 747.701 175.609 747.179 175.931C746.656 176.232 746.234 176.644 745.913 177.166C745.611 177.689 745.461 178.282 745.461 178.945V188.5H741.964ZM763.929 188.801C763.105 188.801 762.311 188.671 761.548 188.41C760.804 188.148 760.191 187.706 759.709 187.083C759.227 186.44 758.986 185.576 758.986 184.491C758.986 183.386 759.227 182.492 759.709 181.808C760.211 181.125 760.915 180.603 761.819 180.241C762.723 179.879 763.808 179.638 765.074 179.518C766.34 179.377 767.747 179.307 769.294 179.307V177.86C769.294 176.855 769.033 176.152 768.511 175.75C768.008 175.328 767.235 175.117 766.19 175.117C765.326 175.117 764.562 175.308 763.899 175.689C763.236 176.071 762.904 176.674 762.904 177.498V177.799H759.528C759.508 177.719 759.498 177.629 759.498 177.528C759.498 177.408 759.498 177.297 759.498 177.197C759.498 176.312 759.769 175.539 760.312 174.876C760.875 174.212 761.648 173.7 762.633 173.338C763.618 172.977 764.743 172.796 766.009 172.796H766.521C768.611 172.796 770.169 173.208 771.193 174.032C772.218 174.856 772.731 176.011 772.731 177.498V185.365C772.731 185.747 772.821 186.018 773.002 186.179C773.183 186.34 773.384 186.42 773.605 186.42C773.806 186.42 774.017 186.38 774.238 186.3C774.479 186.219 774.7 186.129 774.901 186.028V188.168C774.64 188.369 774.308 188.52 773.906 188.621C773.504 188.741 773.022 188.801 772.459 188.801C771.796 188.801 771.244 188.681 770.801 188.44C770.38 188.199 770.058 187.877 769.837 187.475C769.616 187.053 769.485 186.581 769.445 186.058C768.862 186.923 768.109 187.596 767.184 188.078C766.26 188.56 765.175 188.801 763.929 188.801ZM765.436 186.42C766.079 186.42 766.692 186.28 767.275 185.998C767.858 185.697 768.34 185.255 768.722 184.672C769.103 184.089 769.294 183.356 769.294 182.472V181.296C767.888 181.296 766.682 181.376 765.677 181.537C764.673 181.678 763.909 181.949 763.386 182.351C762.864 182.753 762.603 183.356 762.603 184.159C762.603 184.963 762.844 185.546 763.326 185.908C763.808 186.249 764.512 186.42 765.436 186.42ZM778.053 188.5V166.797H781.549V188.5H778.053Z" fill="#1B1B1B"/>
<path d="M581.274 229.651C580.45 229.651 579.747 229.5 579.164 229.199C578.581 228.897 578.064 228.46 577.611 227.887L578.576 226.923C578.908 227.385 579.289 227.737 579.721 227.978C580.153 228.209 580.686 228.324 581.319 228.324C581.942 228.324 582.439 228.189 582.811 227.918C583.193 227.646 583.384 227.274 583.384 226.802C583.384 226.41 583.293 226.094 583.112 225.853C582.932 225.612 582.685 225.416 582.374 225.265C582.073 225.104 581.741 224.964 581.379 224.843C581.018 224.712 580.656 224.577 580.294 224.436C579.932 224.285 579.601 224.104 579.299 223.893C578.998 223.672 578.752 223.386 578.561 223.034C578.38 222.683 578.29 222.241 578.29 221.708C578.29 221.115 578.43 220.613 578.712 220.201C579.003 219.779 579.395 219.458 579.887 219.236C580.39 219.005 580.952 218.89 581.575 218.89C582.258 218.89 582.871 219.025 583.414 219.297C583.956 219.558 584.399 219.905 584.74 220.337L583.776 221.301C583.464 220.94 583.128 220.668 582.766 220.487C582.414 220.307 582.007 220.216 581.545 220.216C580.982 220.216 580.535 220.342 580.204 220.593C579.872 220.834 579.706 221.176 579.706 221.618C579.706 221.969 579.797 222.256 579.978 222.477C580.169 222.688 580.415 222.869 580.716 223.019C581.018 223.17 581.349 223.311 581.711 223.441C582.083 223.562 582.449 223.698 582.811 223.848C583.173 223.999 583.504 224.19 583.806 224.421C584.107 224.652 584.348 224.954 584.529 225.325C584.72 225.687 584.815 226.144 584.815 226.697C584.815 227.621 584.494 228.345 583.851 228.867C583.218 229.389 582.359 229.651 581.274 229.651ZM589.425 229.651C588.772 229.651 588.179 229.49 587.647 229.168C587.114 228.837 586.692 228.39 586.381 227.827C586.079 227.264 585.929 226.631 585.929 225.928C585.929 225.225 586.079 224.592 586.381 224.029C586.692 223.466 587.109 223.019 587.632 222.688C588.164 222.356 588.762 222.19 589.425 222.19C589.968 222.19 590.45 222.306 590.872 222.537C591.304 222.758 591.651 223.07 591.912 223.472C592.173 223.863 592.319 224.321 592.349 224.843V226.998C592.319 227.511 592.173 227.968 591.912 228.37C591.661 228.772 591.319 229.088 590.887 229.319C590.465 229.54 589.978 229.651 589.425 229.651ZM589.651 228.37C590.324 228.37 590.867 228.144 591.279 227.691C591.691 227.229 591.897 226.641 591.897 225.928C591.897 225.436 591.801 225.009 591.61 224.647C591.43 224.275 591.168 223.989 590.827 223.788C590.485 223.577 590.088 223.472 589.636 223.472C589.184 223.472 588.782 223.577 588.43 223.788C588.089 223.999 587.817 224.29 587.617 224.662C587.426 225.024 587.33 225.441 587.33 225.913C587.33 226.395 587.426 226.822 587.617 227.194C587.817 227.556 588.094 227.842 588.445 228.053C588.797 228.264 589.199 228.37 589.651 228.37ZM591.806 229.5V227.571L592.063 225.823L591.806 224.089V222.341H593.178V229.5H591.806ZM596.148 229.5V221.271C596.148 220.739 596.264 220.276 596.495 219.885C596.726 219.483 597.042 219.166 597.444 218.935C597.856 218.704 598.333 218.588 598.876 218.588C599.288 218.588 599.645 218.659 599.946 218.799C600.247 218.94 600.524 219.146 600.775 219.417L599.886 220.291C599.755 220.151 599.609 220.045 599.449 219.975C599.288 219.895 599.092 219.854 598.861 219.854C598.429 219.854 598.092 219.98 597.851 220.231C597.62 220.482 597.504 220.829 597.504 221.271V229.5H596.148ZM594.385 223.577V222.341H599.78V223.577H594.385ZM604.046 229.651C603.333 229.651 602.69 229.49 602.117 229.168C601.545 228.837 601.092 228.39 600.761 227.827C600.429 227.264 600.264 226.626 600.264 225.913C600.264 225.21 600.424 224.577 600.746 224.014C601.077 223.451 601.519 223.009 602.072 222.688C602.635 222.356 603.263 222.19 603.956 222.19C604.619 222.19 605.202 222.341 605.704 222.643C606.217 222.944 606.614 223.361 606.895 223.893C607.186 224.426 607.332 225.029 607.332 225.702C607.332 225.803 607.327 225.913 607.317 226.034C607.307 226.144 607.287 226.275 607.257 226.425H601.213V225.295H606.533L606.036 225.732C606.036 225.25 605.95 224.843 605.78 224.511C605.609 224.17 605.368 223.909 605.056 223.728C604.745 223.537 604.368 223.441 603.926 223.441C603.464 223.441 603.057 223.542 602.705 223.743C602.353 223.944 602.082 224.225 601.891 224.587C601.7 224.948 601.605 225.376 601.605 225.868C601.605 226.37 601.705 226.812 601.906 227.194C602.107 227.566 602.394 227.857 602.765 228.068C603.137 228.269 603.564 228.37 604.046 228.37C604.448 228.37 604.815 228.299 605.147 228.159C605.488 228.018 605.78 227.807 606.021 227.526L606.895 228.415C606.553 228.817 606.131 229.123 605.629 229.334C605.137 229.545 604.609 229.651 604.046 229.651ZM608.811 229.5V218.739H610.167V229.5H608.811ZM614.503 229.56L611.398 222.341H612.905L615.211 227.993H614.729L617.156 222.341H618.663L615.317 229.56H614.503ZM612.453 232.499L614.563 228.174L615.317 229.56L613.96 232.499H612.453ZM625.304 229.651C624.902 229.651 624.521 229.6 624.159 229.5C623.807 229.389 623.481 229.239 623.179 229.048C622.878 228.847 622.617 228.611 622.396 228.34L623.27 227.465C623.531 227.787 623.832 228.028 624.174 228.189C624.516 228.34 624.897 228.415 625.319 228.415C625.741 228.415 626.068 228.345 626.299 228.204C626.53 228.053 626.646 227.847 626.646 227.586C626.646 227.325 626.55 227.124 626.359 226.983C626.178 226.832 625.942 226.712 625.651 226.621C625.36 226.521 625.048 226.425 624.716 226.335C624.395 226.235 624.089 226.109 623.797 225.958C623.506 225.808 623.265 225.602 623.074 225.34C622.893 225.079 622.802 224.732 622.802 224.3C622.802 223.868 622.908 223.497 623.119 223.185C623.33 222.864 623.621 222.617 623.993 222.447C624.375 222.276 624.832 222.19 625.365 222.19C625.927 222.19 626.425 222.291 626.857 222.492C627.299 222.683 627.66 222.974 627.942 223.366L627.068 224.24C626.867 223.979 626.615 223.778 626.314 223.637C626.023 223.497 625.691 223.426 625.319 223.426C624.927 223.426 624.626 223.497 624.415 223.637C624.214 223.768 624.114 223.954 624.114 224.195C624.114 224.436 624.204 224.622 624.385 224.753C624.566 224.883 624.802 224.994 625.093 225.084C625.395 225.175 625.706 225.27 626.028 225.37C626.349 225.461 626.656 225.587 626.947 225.747C627.238 225.908 627.475 226.124 627.655 226.395C627.846 226.667 627.942 227.023 627.942 227.465C627.942 228.139 627.701 228.671 627.218 229.063C626.746 229.455 626.108 229.651 625.304 229.651ZM630.56 229.5V219.342H631.917V229.5H630.56ZM628.797 223.577V222.341H633.68V223.577H628.797ZM638.059 229.651C637.355 229.651 636.722 229.485 636.16 229.153C635.597 228.822 635.15 228.375 634.818 227.812C634.487 227.239 634.321 226.601 634.321 225.898C634.321 225.205 634.487 224.582 634.818 224.029C635.15 223.466 635.597 223.019 636.16 222.688C636.722 222.356 637.355 222.19 638.059 222.19C638.752 222.19 639.38 222.356 639.943 222.688C640.515 223.009 640.967 223.451 641.299 224.014C641.631 224.577 641.796 225.205 641.796 225.898C641.796 226.601 641.631 227.239 641.299 227.812C640.967 228.375 640.515 228.822 639.943 229.153C639.38 229.485 638.752 229.651 638.059 229.651ZM638.059 228.34C638.511 228.34 638.913 228.234 639.264 228.023C639.616 227.812 639.892 227.526 640.093 227.164C640.294 226.792 640.395 226.37 640.395 225.898C640.395 225.436 640.289 225.024 640.078 224.662C639.877 224.3 639.601 224.019 639.249 223.818C638.908 223.607 638.511 223.502 638.059 223.502C637.607 223.502 637.205 223.607 636.853 223.818C636.501 224.019 636.225 224.3 636.024 224.662C635.823 225.024 635.723 225.436 635.723 225.898C635.723 226.37 635.823 226.792 636.024 227.164C636.225 227.526 636.501 227.812 636.853 228.023C637.205 228.234 637.607 228.34 638.059 228.34ZM643.325 229.5V222.341H644.681V229.5H643.325ZM644.681 225.416L644.169 225.19C644.169 224.275 644.38 223.547 644.802 223.004C645.224 222.462 645.831 222.19 646.625 222.19C646.987 222.19 647.313 222.256 647.605 222.386C647.896 222.507 648.168 222.713 648.419 223.004L647.53 223.924C647.379 223.763 647.213 223.647 647.032 223.577C646.851 223.507 646.64 223.472 646.399 223.472C645.897 223.472 645.485 223.632 645.163 223.954C644.842 224.275 644.681 224.763 644.681 225.416ZM652.454 229.651C651.741 229.651 651.098 229.49 650.525 229.168C649.952 228.837 649.5 228.39 649.168 227.827C648.837 227.264 648.671 226.626 648.671 225.913C648.671 225.21 648.832 224.577 649.153 224.014C649.485 223.451 649.927 223.009 650.48 222.688C651.042 222.356 651.67 222.19 652.364 222.19C653.027 222.19 653.609 222.341 654.112 222.643C654.624 222.944 655.021 223.361 655.302 223.893C655.594 224.426 655.739 225.029 655.739 225.702C655.739 225.803 655.734 225.913 655.724 226.034C655.714 226.144 655.694 226.275 655.664 226.425H649.621V225.295H654.941L654.443 225.732C654.443 225.25 654.358 224.843 654.187 224.511C654.016 224.17 653.775 223.909 653.464 223.728C653.152 223.537 652.775 223.441 652.333 223.441C651.871 223.441 651.464 223.542 651.113 223.743C650.761 223.944 650.49 224.225 650.299 224.587C650.108 224.948 650.012 225.376 650.012 225.868C650.012 226.37 650.113 226.812 650.314 227.194C650.515 227.566 650.801 227.857 651.173 228.068C651.545 228.269 651.972 228.37 652.454 228.37C652.856 228.37 653.223 228.299 653.554 228.159C653.896 228.018 654.187 227.807 654.428 227.526L655.302 228.415C654.961 228.817 654.539 229.123 654.036 229.334C653.544 229.545 653.017 229.651 652.454 229.651ZM663.398 229.651C662.745 229.651 662.152 229.49 661.619 229.168C661.087 228.837 660.665 228.39 660.353 227.827C660.052 227.264 659.901 226.631 659.901 225.928C659.901 225.225 660.052 224.592 660.353 224.029C660.665 223.466 661.082 223.019 661.604 222.688C662.137 222.356 662.735 222.19 663.398 222.19C663.94 222.19 664.423 222.306 664.845 222.537C665.277 222.758 665.623 223.07 665.885 223.472C666.146 223.863 666.291 224.321 666.322 224.843V226.998C666.291 227.511 666.146 227.968 665.885 228.37C665.633 228.772 665.292 229.088 664.86 229.319C664.438 229.54 663.95 229.651 663.398 229.651ZM663.624 228.37C664.297 228.37 664.84 228.144 665.252 227.691C665.663 227.229 665.869 226.641 665.869 225.928C665.869 225.436 665.774 225.009 665.583 224.647C665.402 224.275 665.141 223.989 664.799 223.788C664.458 223.577 664.061 223.472 663.609 223.472C663.157 223.472 662.755 223.577 662.403 223.788C662.061 223.999 661.79 224.29 661.589 224.662C661.398 225.024 661.303 225.441 661.303 225.913C661.303 226.395 661.398 226.822 661.589 227.194C661.79 227.556 662.066 227.842 662.418 228.053C662.77 228.264 663.172 228.37 663.624 228.37ZM665.779 229.5V227.571L666.035 225.823L665.779 224.089V222.341H667.151V229.5H665.779ZM674.189 229.5V225.325C674.189 224.783 674.018 224.336 673.677 223.984C673.335 223.632 672.893 223.456 672.351 223.456C671.989 223.456 671.667 223.537 671.386 223.698C671.105 223.858 670.884 224.079 670.723 224.361C670.562 224.642 670.482 224.964 670.482 225.325L669.924 225.009C669.924 224.466 670.045 223.984 670.286 223.562C670.527 223.14 670.864 222.808 671.296 222.567C671.728 222.316 672.215 222.19 672.757 222.19C673.3 222.19 673.777 222.326 674.189 222.597C674.611 222.869 674.943 223.225 675.184 223.667C675.425 224.099 675.546 224.562 675.546 225.054V229.5H674.189ZM669.125 229.5V222.341H670.482V229.5H669.125ZM680.411 229.651C679.748 229.651 679.155 229.49 678.633 229.168C678.111 228.837 677.694 228.39 677.382 227.827C677.081 227.264 676.93 226.631 676.93 225.928C676.93 225.225 677.081 224.592 677.382 224.029C677.694 223.466 678.111 223.019 678.633 222.688C679.155 222.356 679.748 222.19 680.411 222.19C680.944 222.19 681.426 222.306 681.858 222.537C682.29 222.758 682.637 223.07 682.898 223.472C683.169 223.863 683.32 224.321 683.35 224.843V226.998C683.32 227.511 683.174 227.968 682.913 228.37C682.652 228.772 682.305 229.088 681.873 229.319C681.441 229.54 680.954 229.651 680.411 229.651ZM680.638 228.37C681.09 228.37 681.481 228.264 681.813 228.053C682.155 227.842 682.421 227.556 682.612 227.194C682.803 226.822 682.898 226.4 682.898 225.928C682.898 225.436 682.798 225.009 682.597 224.647C682.406 224.285 682.14 223.999 681.798 223.788C681.466 223.577 681.075 223.472 680.622 223.472C680.17 223.472 679.773 223.577 679.432 223.788C679.09 223.999 678.819 224.29 678.618 224.662C678.427 225.024 678.332 225.441 678.332 225.913C678.332 226.395 678.427 226.822 678.618 227.194C678.819 227.556 679.09 227.842 679.432 228.053C679.783 228.264 680.185 228.37 680.638 228.37ZM684.179 229.5H682.808V227.571L683.064 225.823L682.808 224.089V218.739H684.179V229.5ZM692.559 229.651C691.856 229.651 691.223 229.485 690.66 229.153C690.098 228.822 689.651 228.375 689.319 227.812C688.988 227.239 688.822 226.601 688.822 225.898C688.822 225.205 688.988 224.582 689.319 224.029C689.651 223.466 690.098 223.019 690.66 222.688C691.223 222.356 691.856 222.19 692.559 222.19C693.253 222.19 693.881 222.356 694.443 222.688C695.016 223.009 695.468 223.451 695.8 224.014C696.131 224.577 696.297 225.205 696.297 225.898C696.297 226.601 696.131 227.239 695.8 227.812C695.468 228.375 695.016 228.822 694.443 229.153C693.881 229.485 693.253 229.651 692.559 229.651ZM692.559 228.34C693.012 228.34 693.413 228.234 693.765 228.023C694.117 227.812 694.393 227.526 694.594 227.164C694.795 226.792 694.895 226.37 694.895 225.898C694.895 225.436 694.79 225.024 694.579 224.662C694.378 224.3 694.102 224.019 693.75 223.818C693.408 223.607 693.012 223.502 692.559 223.502C692.107 223.502 691.705 223.607 691.354 223.818C691.002 224.019 690.726 224.3 690.525 224.662C690.324 225.024 690.223 225.436 690.223 225.898C690.223 226.37 690.324 226.792 690.525 227.164C690.726 227.526 691.002 227.812 691.354 228.023C691.705 228.234 692.107 228.34 692.559 228.34ZM697.825 229.5V222.341H699.182V229.5H697.825ZM699.182 225.416L698.669 225.19C698.669 224.275 698.88 223.547 699.302 223.004C699.724 222.462 700.332 222.19 701.126 222.19C701.488 222.19 701.814 222.256 702.106 222.386C702.397 222.507 702.668 222.713 702.92 223.004L702.03 223.924C701.88 223.763 701.714 223.647 701.533 223.577C701.352 223.507 701.141 223.472 700.9 223.472C700.398 223.472 699.986 223.632 699.664 223.954C699.343 224.275 699.182 224.763 699.182 225.416ZM706.608 232.65C705.875 232.65 705.222 232.514 704.649 232.243C704.086 231.972 703.634 231.59 703.292 231.098L704.167 230.208C704.458 230.58 704.805 230.861 705.206 231.052C705.608 231.253 706.086 231.354 706.638 231.354C707.372 231.354 707.949 231.158 708.371 230.766C708.803 230.384 709.019 229.867 709.019 229.214V227.435L709.261 225.823L709.019 224.225V222.341H710.376V229.214C710.376 229.897 710.215 230.495 709.894 231.007C709.582 231.52 709.14 231.921 708.567 232.213C708.005 232.504 707.352 232.65 706.608 232.65ZM706.608 229.379C705.955 229.379 705.367 229.224 704.845 228.912C704.332 228.601 703.925 228.174 703.624 227.631C703.323 227.079 703.172 226.461 703.172 225.777C703.172 225.094 703.323 224.486 703.624 223.954C703.925 223.411 704.332 222.984 704.845 222.673C705.367 222.351 705.955 222.19 706.608 222.19C707.171 222.19 707.668 222.301 708.1 222.522C708.532 222.743 708.874 223.055 709.125 223.456C709.386 223.848 709.527 224.31 709.547 224.843V226.742C709.517 227.264 709.371 227.727 709.11 228.129C708.859 228.52 708.517 228.827 708.085 229.048C707.653 229.269 707.161 229.379 706.608 229.379ZM706.879 228.098C707.321 228.098 707.708 228.003 708.04 227.812C708.381 227.621 708.643 227.355 708.824 227.013C709.004 226.662 709.095 226.255 709.095 225.792C709.095 225.33 708.999 224.928 708.808 224.587C708.628 224.235 708.371 223.964 708.04 223.773C707.708 223.572 707.316 223.472 706.864 223.472C706.412 223.472 706.015 223.572 705.674 223.773C705.332 223.964 705.061 224.235 704.86 224.587C704.669 224.928 704.573 225.325 704.573 225.777C704.573 226.23 704.669 226.631 704.86 226.983C705.061 227.335 705.332 227.611 705.674 227.812C706.025 228.003 706.427 228.098 706.879 228.098ZM715.411 229.651C714.758 229.651 714.165 229.49 713.633 229.168C713.1 228.837 712.678 228.39 712.367 227.827C712.065 227.264 711.915 226.631 711.915 225.928C711.915 225.225 712.065 224.592 712.367 224.029C712.678 223.466 713.095 223.019 713.618 222.688C714.15 222.356 714.748 222.19 715.411 222.19C715.954 222.19 716.436 222.306 716.858 222.537C717.29 222.758 717.637 223.07 717.898 223.472C718.159 223.863 718.305 224.321 718.335 224.843V226.998C718.305 227.511 718.159 227.968 717.898 228.37C717.647 228.772 717.305 229.088 716.873 229.319C716.451 229.54 715.964 229.651 715.411 229.651ZM715.637 228.37C716.31 228.37 716.853 228.144 717.265 227.691C717.677 227.229 717.883 226.641 717.883 225.928C717.883 225.436 717.787 225.009 717.597 224.647C717.416 224.275 717.154 223.989 716.813 223.788C716.471 223.577 716.074 223.472 715.622 223.472C715.17 223.472 714.768 223.577 714.417 223.788C714.075 223.999 713.804 224.29 713.603 224.662C713.412 225.024 713.316 225.441 713.316 225.913C713.316 226.395 713.412 226.822 713.603 227.194C713.804 227.556 714.08 227.842 714.432 228.053C714.783 228.264 715.185 228.37 715.637 228.37ZM717.792 229.5V227.571L718.049 225.823L717.792 224.089V222.341H719.164V229.5H717.792ZM726.203 229.5V225.325C726.203 224.783 726.032 224.336 725.69 223.984C725.349 223.632 724.907 223.456 724.364 223.456C724.002 223.456 723.681 223.537 723.399 223.698C723.118 223.858 722.897 224.079 722.736 224.361C722.576 224.642 722.495 224.964 722.495 225.325L721.938 225.009C721.938 224.466 722.058 223.984 722.299 223.562C722.54 223.14 722.877 222.808 723.309 222.567C723.741 222.316 724.228 222.19 724.771 222.19C725.313 222.19 725.791 222.326 726.203 222.597C726.625 222.869 726.956 223.225 727.197 223.667C727.439 224.099 727.559 224.562 727.559 225.054V229.5H726.203ZM721.139 229.5V222.341H722.495V229.5H721.139ZM729.411 229.5V222.341H730.767V229.5H729.411ZM730.089 220.909C729.838 220.909 729.632 220.829 729.471 220.668C729.31 220.497 729.23 220.286 729.23 220.035C729.23 219.794 729.31 219.593 729.471 219.432C729.632 219.262 729.838 219.176 730.089 219.176C730.34 219.176 730.546 219.262 730.707 219.432C730.868 219.593 730.948 219.794 730.948 220.035C730.948 220.286 730.868 220.497 730.707 220.668C730.546 220.829 730.34 220.909 730.089 220.909ZM732.193 228.762L736.443 223.08H738.041L733.791 228.762H732.193ZM732.193 229.5V228.762L733.399 228.264H737.95V229.5H732.193ZM732.449 223.577V222.341H738.041V223.08L736.79 223.577H732.449ZM742.69 229.651C741.977 229.651 741.334 229.49 740.761 229.168C740.188 228.837 739.736 228.39 739.405 227.827C739.073 227.264 738.907 226.626 738.907 225.913C738.907 225.21 739.068 224.577 739.389 224.014C739.721 223.451 740.163 223.009 740.716 222.688C741.278 222.356 741.906 222.19 742.6 222.19C743.263 222.19 743.846 222.341 744.348 222.643C744.86 222.944 745.257 223.361 745.539 223.893C745.83 224.426 745.976 225.029 745.976 225.702C745.976 225.803 745.971 225.913 745.961 226.034C745.95 226.144 745.93 226.275 745.9 226.425H739.857V225.295H745.177L744.679 225.732C744.679 225.25 744.594 224.843 744.423 224.511C744.252 224.17 744.011 223.909 743.7 223.728C743.388 223.537 743.012 223.441 742.569 223.441C742.107 223.441 741.7 223.542 741.349 223.743C740.997 223.944 740.726 224.225 740.535 224.587C740.344 224.948 740.249 225.376 740.249 225.868C740.249 226.37 740.349 226.812 740.55 227.194C740.751 227.566 741.037 227.857 741.409 228.068C741.781 228.269 742.208 228.37 742.69 228.37C743.092 228.37 743.459 228.299 743.79 228.159C744.132 228.018 744.423 227.807 744.664 227.526L745.539 228.415C745.197 228.817 744.775 229.123 744.273 229.334C743.78 229.545 743.253 229.651 742.69 229.651ZM752.941 229.56L749.836 222.341H751.343L753.649 227.993H753.167L755.593 222.341H757.1L753.754 229.56H752.941ZM750.891 232.499L753.001 228.174L753.754 229.56L752.398 232.499H750.891ZM761.204 229.651C760.501 229.651 759.868 229.485 759.305 229.153C758.743 228.822 758.295 228.375 757.964 227.812C757.632 227.239 757.467 226.601 757.467 225.898C757.467 225.205 757.632 224.582 757.964 224.029C758.295 223.466 758.743 223.019 759.305 222.688C759.868 222.356 760.501 222.19 761.204 222.19C761.898 222.19 762.525 222.356 763.088 222.688C763.661 223.009 764.113 223.451 764.445 224.014C764.776 224.577 764.942 225.205 764.942 225.898C764.942 226.601 764.776 227.239 764.445 227.812C764.113 228.375 763.661 228.822 763.088 229.153C762.525 229.485 761.898 229.651 761.204 229.651ZM761.204 228.34C761.656 228.34 762.058 228.234 762.41 228.023C762.762 227.812 763.038 227.526 763.239 227.164C763.44 226.792 763.54 226.37 763.54 225.898C763.54 225.436 763.435 225.024 763.224 224.662C763.023 224.3 762.747 224.019 762.395 223.818C762.053 223.607 761.656 223.502 761.204 223.502C760.752 223.502 760.35 223.607 759.999 223.818C759.647 224.019 759.371 224.3 759.17 224.662C758.969 225.024 758.868 225.436 758.868 225.898C758.868 226.37 758.969 226.792 759.17 227.164C759.371 227.526 759.647 227.812 759.999 228.023C760.35 228.234 760.752 228.34 761.204 228.34ZM769.349 229.651C768.766 229.651 768.239 229.52 767.766 229.259C767.304 228.988 766.942 228.616 766.681 228.144C766.42 227.671 766.289 227.124 766.289 226.501V222.341H767.646V226.441C767.646 226.832 767.711 227.174 767.842 227.465C767.982 227.747 768.183 227.963 768.445 228.113C768.706 228.264 769.012 228.34 769.364 228.34C769.896 228.34 770.313 228.174 770.615 227.842C770.916 227.501 771.067 227.033 771.067 226.441V222.341H772.423V226.501C772.423 227.124 772.293 227.671 772.032 228.144C771.77 228.616 771.409 228.988 770.946 229.259C770.494 229.52 769.962 229.651 769.349 229.651ZM774.241 229.5V222.341H775.598V229.5H774.241ZM775.598 225.416L775.085 225.19C775.085 224.275 775.296 223.547 775.718 223.004C776.14 222.462 776.748 222.19 777.542 222.19C777.904 222.19 778.23 222.256 778.522 222.386C778.813 222.507 779.084 222.713 779.335 223.004L778.446 223.924C778.296 223.763 778.13 223.647 777.949 223.577C777.768 223.507 777.557 223.472 777.316 223.472C776.814 223.472 776.402 223.632 776.08 223.954C775.759 224.275 775.598 224.763 775.598 225.416ZM661.72 248.651C661.067 248.651 660.474 248.49 659.942 248.168C659.409 247.837 658.987 247.39 658.676 246.827C658.374 246.264 658.223 245.631 658.223 244.928C658.223 244.225 658.374 243.592 658.676 243.029C658.987 242.466 659.404 242.019 659.926 241.688C660.459 241.356 661.057 241.19 661.72 241.19C662.262 241.19 662.745 241.306 663.167 241.537C663.599 241.758 663.945 242.07 664.207 242.472C664.468 242.863 664.614 243.321 664.644 243.843V245.998C664.614 246.511 664.468 246.968 664.207 247.37C663.955 247.772 663.614 248.088 663.182 248.319C662.76 248.54 662.273 248.651 661.72 248.651ZM661.946 247.37C662.619 247.37 663.162 247.144 663.574 246.691C663.986 246.229 664.192 245.641 664.192 244.928C664.192 244.436 664.096 244.009 663.905 243.647C663.724 243.275 663.463 242.989 663.122 242.788C662.78 242.577 662.383 242.472 661.931 242.472C661.479 242.472 661.077 242.577 660.725 242.788C660.384 242.999 660.112 243.29 659.911 243.662C659.72 244.024 659.625 244.441 659.625 244.913C659.625 245.395 659.72 245.822 659.911 246.194C660.112 246.556 660.389 246.842 660.74 247.053C661.092 247.264 661.494 247.37 661.946 247.37ZM664.101 248.5V246.571L664.357 244.823L664.101 243.089V241.341H665.473V248.5H664.101ZM669.723 248.651C669.321 248.651 668.94 248.6 668.578 248.5C668.226 248.389 667.9 248.239 667.598 248.048C667.297 247.847 667.036 247.611 666.814 247.34L667.689 246.465C667.95 246.787 668.251 247.028 668.593 247.189C668.934 247.34 669.316 247.415 669.738 247.415C670.16 247.415 670.487 247.345 670.718 247.204C670.949 247.053 671.065 246.847 671.065 246.586C671.065 246.325 670.969 246.124 670.778 245.983C670.597 245.832 670.361 245.712 670.07 245.621C669.778 245.521 669.467 245.425 669.135 245.335C668.814 245.235 668.507 245.109 668.216 244.958C667.925 244.808 667.684 244.602 667.493 244.34C667.312 244.079 667.221 243.732 667.221 243.3C667.221 242.868 667.327 242.497 667.538 242.185C667.749 241.864 668.04 241.617 668.412 241.447C668.794 241.276 669.251 241.19 669.784 241.19C670.346 241.19 670.844 241.291 671.276 241.492C671.718 241.683 672.079 241.974 672.361 242.366L671.487 243.24C671.286 242.979 671.034 242.778 670.733 242.637C670.442 242.497 670.11 242.426 669.738 242.426C669.346 242.426 669.045 242.497 668.834 242.637C668.633 242.768 668.533 242.954 668.533 243.195C668.533 243.436 668.623 243.622 668.804 243.753C668.985 243.883 669.221 243.994 669.512 244.084C669.814 244.175 670.125 244.27 670.447 244.37C670.768 244.461 671.075 244.587 671.366 244.747C671.657 244.908 671.893 245.124 672.074 245.395C672.265 245.667 672.361 246.023 672.361 246.465C672.361 247.139 672.12 247.671 671.637 248.063C671.165 248.455 670.527 248.651 669.723 248.651ZM676.155 248.651C675.753 248.651 675.371 248.6 675.01 248.5C674.658 248.389 674.331 248.239 674.03 248.048C673.729 247.847 673.467 247.611 673.246 247.34L674.12 246.465C674.382 246.787 674.683 247.028 675.025 247.189C675.366 247.34 675.748 247.415 676.17 247.415C676.592 247.415 676.919 247.345 677.15 247.204C677.381 247.053 677.496 246.847 677.496 246.586C677.496 246.325 677.401 246.124 677.21 245.983C677.029 245.832 676.793 245.712 676.502 245.621C676.21 245.521 675.899 245.425 675.567 245.335C675.246 245.235 674.939 245.109 674.648 244.958C674.356 244.808 674.115 244.602 673.924 244.34C673.744 244.079 673.653 243.732 673.653 243.3C673.653 242.868 673.759 242.497 673.97 242.185C674.181 241.864 674.472 241.617 674.844 241.447C675.226 241.276 675.683 241.19 676.215 241.19C676.778 241.19 677.275 241.291 677.707 241.492C678.149 241.683 678.511 241.974 678.792 242.366L677.918 243.24C677.717 242.979 677.466 242.778 677.165 242.637C676.873 242.497 676.542 242.426 676.17 242.426C675.778 242.426 675.477 242.497 675.266 242.637C675.065 242.768 674.964 242.954 674.964 243.195C674.964 243.436 675.055 243.622 675.236 243.753C675.416 243.883 675.653 243.994 675.944 244.084C676.245 244.175 676.557 244.27 676.878 244.37C677.2 244.461 677.506 244.587 677.798 244.747C678.089 244.908 678.325 245.124 678.506 245.395C678.697 245.667 678.792 246.023 678.792 246.465C678.792 247.139 678.551 247.671 678.069 248.063C677.597 248.455 676.959 248.651 676.155 248.651ZM683.627 248.651C682.913 248.651 682.27 248.49 681.698 248.168C681.125 247.837 680.673 247.39 680.341 246.827C680.01 246.264 679.844 245.626 679.844 244.913C679.844 244.21 680.005 243.577 680.326 243.014C680.658 242.451 681.1 242.009 681.652 241.688C682.215 241.356 682.843 241.19 683.536 241.19C684.199 241.19 684.782 241.341 685.285 241.643C685.797 241.944 686.194 242.361 686.475 242.893C686.767 243.426 686.912 244.029 686.912 244.702C686.912 244.803 686.907 244.913 686.897 245.034C686.887 245.144 686.867 245.275 686.837 245.425H680.793V244.295H686.113L685.616 244.732C685.616 244.25 685.531 243.843 685.36 243.511C685.189 243.17 684.948 242.909 684.636 242.728C684.325 242.537 683.948 242.441 683.506 242.441C683.044 242.441 682.637 242.542 682.285 242.743C681.934 242.944 681.662 243.225 681.471 243.587C681.281 243.948 681.185 244.376 681.185 244.868C681.185 245.37 681.286 245.812 681.487 246.194C681.688 246.566 681.974 246.857 682.346 247.068C682.717 247.269 683.144 247.37 683.627 247.37C684.029 247.37 684.395 247.299 684.727 247.159C685.068 247.018 685.36 246.807 685.601 246.526L686.475 247.415C686.134 247.817 685.712 248.123 685.209 248.334C684.717 248.545 684.189 248.651 683.627 248.651ZM689.271 248.5V238.342H690.627V248.5H689.271ZM687.507 242.577V241.341H692.39V242.577H687.507ZM695.848 248.651C695.446 248.651 695.064 248.6 694.702 248.5C694.351 248.389 694.024 248.239 693.723 248.048C693.421 247.847 693.16 247.611 692.939 247.34L693.813 246.465C694.074 246.787 694.376 247.028 694.717 247.189C695.059 247.34 695.441 247.415 695.863 247.415C696.285 247.415 696.611 247.345 696.842 247.204C697.073 247.053 697.189 246.847 697.189 246.586C697.189 246.325 697.094 246.124 696.903 245.983C696.722 245.832 696.486 245.712 696.194 245.621C695.903 245.521 695.591 245.425 695.26 245.335C694.938 245.235 694.632 245.109 694.341 244.958C694.049 244.808 693.808 244.602 693.617 244.34C693.436 244.079 693.346 243.732 693.346 243.3C693.346 242.868 693.451 242.497 693.662 242.185C693.873 241.864 694.165 241.617 694.536 241.447C694.918 241.276 695.375 241.19 695.908 241.19C696.471 241.19 696.968 241.291 697.4 241.492C697.842 241.683 698.204 241.974 698.485 242.366L697.611 243.24C697.41 242.979 697.159 242.778 696.857 242.637C696.566 242.497 696.235 242.426 695.863 242.426C695.471 242.426 695.169 242.497 694.958 242.637C694.758 242.768 694.657 242.954 694.657 243.195C694.657 243.436 694.747 243.622 694.928 243.753C695.109 243.883 695.345 243.994 695.637 244.084C695.938 244.175 696.25 244.27 696.571 244.37C696.893 244.461 697.199 244.587 697.49 244.747C697.782 244.908 698.018 245.124 698.199 245.395C698.39 245.667 698.485 246.023 698.485 246.465C698.485 247.139 698.244 247.671 697.762 248.063C697.289 248.455 696.651 248.651 695.848 248.651Z" fill="#898989"/>
<rect x="654.845" y="279" width="47" height="47" rx="23.5" fill="white"/>
<rect x="654.845" y="279" width="47" height="47" rx="23.5" stroke="#E1E1E1"/>
<path d="M686.639 308.998H685.533V301.123C685.533 300.825 685.415 300.539 685.204 300.328C684.993 300.117 684.707 299.998 684.408 299.998H681.315C681.24 299.998 681.169 300.028 681.116 300.08C681.063 300.133 681.033 300.205 681.033 300.279V308.998H679.908V296.652C679.91 296.477 679.872 296.303 679.797 296.145C679.722 295.987 679.612 295.847 679.475 295.738C679.289 295.592 679.061 295.509 678.825 295.501C678.589 295.492 678.356 295.558 678.159 295.689L672.534 299.436C672.38 299.538 672.253 299.678 672.166 299.842C672.079 300.005 672.033 300.188 672.033 300.373V308.998H670.927C670.782 308.996 670.641 309.049 670.533 309.146C670.426 309.244 670.359 309.378 670.346 309.523C670.341 309.6 670.352 309.677 670.378 309.75C670.404 309.823 670.444 309.889 670.497 309.945C670.55 310.002 670.613 310.046 670.684 310.077C670.755 310.108 670.831 310.123 670.908 310.123H686.658C686.736 310.123 686.812 310.108 686.883 310.077C686.953 310.046 687.017 310.002 687.07 309.945C687.123 309.889 687.163 309.823 687.189 309.75C687.215 309.677 687.226 309.6 687.221 309.523C687.208 309.378 687.141 309.244 687.034 309.146C686.926 309.049 686.785 308.996 686.639 308.998ZM675.127 307.311C675.127 307.388 675.112 307.464 675.081 307.535C675.051 307.606 675.006 307.669 674.95 307.722C674.893 307.775 674.827 307.815 674.754 307.841C674.682 307.867 674.604 307.878 674.527 307.873C674.382 307.86 674.248 307.793 674.15 307.685C674.053 307.577 674 307.436 674.002 307.291V306.205C674 306.059 674.053 305.919 674.151 305.811C674.248 305.703 674.383 305.636 674.527 305.623C674.604 305.618 674.682 305.629 674.754 305.655C674.827 305.681 674.893 305.721 674.95 305.774C675.006 305.827 675.051 305.89 675.081 305.961C675.112 306.032 675.127 306.108 675.127 306.186V307.311ZM675.127 303.373C675.127 303.45 675.112 303.526 675.081 303.597C675.051 303.668 675.006 303.732 674.95 303.785C674.893 303.837 674.827 303.878 674.754 303.904C674.682 303.93 674.604 303.941 674.527 303.936C674.383 303.923 674.248 303.856 674.15 303.748C674.053 303.64 674 303.499 674.002 303.353V302.267C674 302.122 674.053 301.981 674.151 301.873C674.248 301.765 674.383 301.698 674.527 301.686C674.604 301.68 674.682 301.691 674.754 301.717C674.827 301.743 674.893 301.784 674.95 301.836C675.006 301.889 675.051 301.953 675.081 302.024C675.112 302.095 675.127 302.171 675.127 302.248V303.373ZM677.94 307.311C677.94 307.388 677.924 307.464 677.894 307.535C677.863 307.606 677.818 307.669 677.762 307.722C677.706 307.775 677.639 307.815 677.567 307.841C677.494 307.867 677.417 307.878 677.34 307.873C677.195 307.86 677.061 307.794 676.963 307.686C676.866 307.578 676.813 307.437 676.815 307.292V306.205C676.813 306.059 676.866 305.919 676.963 305.811C677.061 305.703 677.195 305.636 677.34 305.624C677.417 305.619 677.494 305.629 677.567 305.655C677.639 305.681 677.706 305.722 677.762 305.775C677.818 305.827 677.863 305.891 677.894 305.962C677.924 306.033 677.94 306.109 677.94 306.186V307.311ZM677.94 303.373C677.94 303.45 677.924 303.526 677.894 303.597C677.863 303.668 677.818 303.732 677.762 303.785C677.706 303.837 677.639 303.878 677.567 303.904C677.494 303.93 677.417 303.941 677.34 303.936C677.195 303.923 677.061 303.856 676.963 303.748C676.866 303.64 676.813 303.5 676.815 303.355V302.267C676.813 302.122 676.866 301.981 676.963 301.874C677.061 301.766 677.195 301.699 677.34 301.686C677.417 301.681 677.494 301.692 677.567 301.718C677.639 301.744 677.706 301.784 677.762 301.837C677.818 301.89 677.863 301.954 677.894 302.024C677.924 302.095 677.94 302.172 677.94 302.249V303.373Z" fill="#FF934F"/>
<defs>
<linearGradient id="paint0_linear_847_4523" x1="678.381" y1="474.887" x2="627.46" y2="-38.3349" gradientUnits="userSpaceOnUse">
<stop stop-color="#7F7F7F"/>
<stop offset="0.5" stop-color="#A0A0A0"/>
<stop offset="1" stop-color="#C1C1C1"/>
</linearGradient>
<linearGradient id="paint1_linear_847_4523" x1="692.957" y1="483.634" x2="612.175" y2="-49.6424" gradientUnits="userSpaceOnUse">
<stop stop-color="#111111"/>
<stop offset="0.5" stop-color="#C5C5C5"/>
<stop offset="1" stop-color="#909090"/>
</linearGradient>
<linearGradient id="paint2_linear_847_4523" x1="573.246" y1="55.7039" x2="827.208" y2="375.652" gradientUnits="userSpaceOnUse">
<stop stop-color="white"/>
<stop offset="1" stop-color="#CE8B61"/>
</linearGradient>
<linearGradient id="paint3_linear_847_4523" x1="678.396" y1="45.3278" x2="678.396" y2="405.765" gradientUnits="userSpaceOnUse">
<stop stop-color="#343434"/>
<stop offset="1" stop-color="#818181"/>
</linearGradient>
<linearGradient id="paint4_linear_847_4523" x1="408.328" y1="91.2237" x2="409.094" y2="115.96" gradientUnits="userSpaceOnUse">
<stop offset="0.146425" stop-color="#C5C5C5"/>
<stop offset="0.5" stop-color="#8A8A8A"/>
<stop offset="0.619735" stop-color="#ABABAB"/>
</linearGradient>
<linearGradient id="paint5_linear_847_4523" x1="416.564" y1="335.308" x2="417.33" y2="360.044" gradientUnits="userSpaceOnUse">
<stop offset="0.146425" stop-color="#C5C5C5"/>
<stop offset="0.5" stop-color="#8A8A8A"/>
<stop offset="0.619735" stop-color="#ABABAB"/>
</linearGradient>
<linearGradient id="paint6_linear_847_4523" x1="500.305" y1="51.0578" x2="394.272" y2="51.0578" gradientUnits="userSpaceOnUse">
<stop stop-color="#989898"/>
<stop offset="0.5" stop-color="#D2D2D2"/>
<stop offset="1" stop-color="#989898"/>
</linearGradient>
<linearGradient id="paint7_linear_847_4523" x1="500.305" y1="397.102" x2="394.272" y2="397.102" gradientUnits="userSpaceOnUse">
<stop stop-color="#989898"/>
<stop offset="0.5" stop-color="#D2D2D2"/>
<stop offset="1" stop-color="#989898"/>
</linearGradient>
<linearGradient id="paint8_linear_847_4523" x1="447.408" y1="-47.2626" x2="653.096" y2="21.1681" gradientUnits="userSpaceOnUse">
<stop offset="0.380265" stop-color="#ABABAB"/>
<stop offset="0.5" stop-color="#8A8A8A"/>
<stop offset="0.853575" stop-color="#C5C5C5"/>
</linearGradient>
<linearGradient id="paint9_linear_847_4523" x1="224.931" y1="470.054" x2="149.716" y2="-32.5243" gradientUnits="userSpaceOnUse">
<stop stop-color="#111111"/>
<stop offset="0.5" stop-color="#C5C5C5"/>
<stop offset="1" stop-color="#909090"/>
</linearGradient>
<linearGradient id="paint10_linear_847_4523" x1="221.327" y1="459.754" x2="173.932" y2="-23.776" gradientUnits="userSpaceOnUse">
<stop stop-color="#595959"/>
<stop offset="0.5" stop-color="#A0A0A0"/>
<stop offset="1" stop-color="#C1C1C1"/>
</linearGradient>
<linearGradient id="paint11_linear_847_4523" x1="178.092" y1="425.768" x2="13.2543" y2="-10.3432" gradientUnits="userSpaceOnUse">
<stop stop-color="#898989"/>
<stop offset="0.5" stop-color="#E1E1E1"/>
<stop offset="1" stop-color="#E8E8E8"/>
</linearGradient>
<linearGradient id="paint12_linear_847_4523" x1="422.471" y1="405.684" x2="51.7108" y2="35.0882" gradientUnits="userSpaceOnUse">
<stop stop-color="#F5F5F5"/>
<stop offset="0.5" stop-color="#A6A6A6"/>
<stop offset="1" stop-color="#949494"/>
</linearGradient>
<linearGradient id="paint13_linear_847_4523" x1="358.647" y1="405.684" x2="-110.778" y2="366.069" gradientUnits="userSpaceOnUse">
<stop stop-color="#E8E8E8"/>
<stop offset="0.511749" stop-color="#A6A6A6"/>
<stop offset="1" stop-color="#898989"/>
</linearGradient>
<linearGradient id="paint14_linear_847_4523" x1="371.625" y1="343.892" x2="206.786" y2="-104.579" gradientUnits="userSpaceOnUse">
<stop stop-color="#898989"/>
<stop offset="0.748684" stop-color="#A6A6A6"/>
<stop offset="1" stop-color="#E1E1E1"/>
</linearGradient>
<linearGradient id="paint15_linear_847_4523" x1="329.075" y1="343.892" x2="16.1257" y2="317.481" gradientUnits="userSpaceOnUse">
<stop stop-color="#A6A6A6"/>
<stop offset="0.511749" stop-color="#A6A6A6"/>
<stop offset="1" stop-color="#858585"/>
</linearGradient>
<linearGradient id="paint16_linear_847_4523" x1="351.037" y1="343.892" x2="104.805" y2="118.28" gradientUnits="userSpaceOnUse">
<stop stop-color="#969696"/>
<stop offset="0.5" stop-color="#B5B5B5"/>
<stop offset="1" stop-color="#E5E5E5"/>
</linearGradient>
<linearGradient id="paint17_linear_847_4523" x1="312.033" y1="343.892" x2="24.8376" y2="321.674" gradientUnits="userSpaceOnUse">
<stop stop-color="#A6A6A6"/>
<stop offset="0.511749" stop-color="#898989"/>
<stop offset="1" stop-color="#E1E1E1"/>
</linearGradient>
</defs>
</svg>
