<svg width="903" height="450" viewBox="0 0 903 450" fill="none" xmlns="http://www.w3.org/2000/svg">
<path d="M678.381 445.912C800.626 445.912 899.724 346.783 899.724 224.501C899.724 102.219 800.626 3.0896 678.381 3.0896C556.137 3.0896 457.037 102.219 457.037 224.501C457.037 346.783 556.137 445.912 678.381 445.912Z" fill="url(#paint0_linear_847_4265)" stroke="url(#paint1_linear_847_4265)" stroke-width="5.65675"/>
<path d="M678.397 55.625C772.212 55.625 848.265 131.702 848.265 225.546C848.265 319.391 772.212 395.467 678.397 395.467C584.581 395.467 508.527 319.391 508.527 225.546C508.527 131.702 584.581 55.6251 678.397 55.625Z" fill="url(#paint2_linear_847_4265)" stroke="url(#paint3_linear_847_4265)" stroke-width="18.8558"/>
<path d="M445.744 93.2834H373.684V108.732H445.744V93.2834Z" fill="url(#paint4_linear_847_4265)"/>
<path d="M453.98 337.367H381.92V352.815H453.98V337.367Z" fill="url(#paint5_linear_847_4265)"/>
<path d="M496.186 30.46H398.39C396.116 30.46 394.272 32.3041 394.272 34.579V67.5366C394.272 69.8115 396.116 71.6556 398.39 71.6556H496.186C498.461 71.6556 500.304 69.8115 500.304 67.5366V34.579C500.304 32.3041 498.461 30.46 496.186 30.46Z" fill="url(#paint6_linear_847_4265)"/>
<path d="M468.392 56.2085C465.549 56.2085 463.244 58.514 463.244 61.3579C463.244 64.2019 465.549 66.5074 468.392 66.5074C471.235 66.5074 473.539 64.2019 473.539 61.3579C473.539 58.514 471.235 56.2085 468.392 56.2085Z" fill="#A6A6A6"/>
<path d="M468.392 36.6404C465.549 36.6404 463.244 38.9459 463.244 41.7898C463.244 44.6338 465.549 46.9393 468.392 46.9393C471.235 46.9393 473.539 44.6338 473.539 41.7898C473.539 38.9459 471.235 36.6404 468.392 36.6404Z" fill="#A6A6A6"/>
<path d="M487.951 56.2085C485.109 56.2085 482.804 58.514 482.804 61.3579C482.804 64.2019 485.109 66.5074 487.951 66.5074C490.794 66.5074 493.098 64.2019 493.098 61.3579C493.098 58.514 490.794 56.2085 487.951 56.2085Z" fill="#A6A6A6"/>
<path d="M487.951 36.6404C485.109 36.6404 482.804 38.9459 482.804 41.7898C482.804 44.6338 485.109 46.9393 487.951 46.9393C490.794 46.9393 493.098 44.6338 493.098 41.7898C493.098 38.9459 490.794 36.6404 487.951 36.6404Z" fill="#A6A6A6"/>
<path d="M406.626 56.2085C403.783 56.2085 401.479 58.514 401.479 61.3579C401.479 64.2019 403.783 66.5074 406.626 66.5074C409.468 66.5074 411.773 64.2019 411.773 61.3579C411.773 58.514 409.468 56.2085 406.626 56.2085Z" fill="#A6A6A6"/>
<path d="M406.626 36.6404C403.783 36.6404 401.479 38.9459 401.479 41.7898C401.479 44.6338 403.783 46.9393 406.626 46.9393C409.468 46.9393 411.773 44.6338 411.773 41.7898C411.773 38.9459 409.468 36.6404 406.626 36.6404Z" fill="#A6A6A6"/>
<path d="M426.185 56.2085C423.342 56.2085 421.038 58.514 421.038 61.3579C421.038 64.2019 423.342 66.5074 426.185 66.5074C429.028 66.5074 431.333 64.2019 431.333 61.3579C431.333 58.514 429.028 56.2085 426.185 56.2085Z" fill="#A6A6A6"/>
<path d="M426.185 36.6404C423.342 36.6404 421.038 38.9459 421.038 41.7898C421.038 44.6338 423.342 46.9393 426.185 46.9393C429.028 46.9393 431.333 44.6338 431.333 41.7898C431.333 38.9459 429.028 36.6404 426.185 36.6404Z" fill="#A6A6A6"/>
<path d="M496.186 376.504H398.39C396.116 376.504 394.272 378.348 394.272 380.623V413.58C394.272 415.855 396.116 417.699 398.39 417.699H496.186C498.461 417.699 500.304 415.855 500.304 413.58V380.623C500.304 378.348 498.461 376.504 496.186 376.504Z" fill="url(#paint7_linear_847_4265)"/>
<path d="M468.392 402.251C465.549 402.251 463.244 404.555 463.244 407.4C463.244 410.244 465.549 412.549 468.392 412.549C471.235 412.549 473.539 410.244 473.539 407.4C473.539 404.555 471.235 402.251 468.392 402.251Z" fill="#A6A6A6"/>
<path d="M468.392 382.682C465.549 382.682 463.244 384.988 463.244 387.832C463.244 390.676 465.549 392.981 468.392 392.981C471.235 392.981 473.539 390.676 473.539 387.832C473.539 384.988 471.235 382.682 468.392 382.682Z" fill="#A6A6A6"/>
<path d="M487.951 402.251C485.109 402.251 482.804 404.555 482.804 407.4C482.804 410.244 485.109 412.549 487.951 412.549C490.794 412.549 493.098 410.244 493.098 407.4C493.098 404.555 490.794 402.251 487.951 402.251Z" fill="#A6A6A6"/>
<path d="M487.951 382.682C485.109 382.682 482.804 384.988 482.804 387.832C482.804 390.676 485.109 392.981 487.951 392.981C490.794 392.981 493.098 390.676 493.098 387.832C493.098 384.988 490.794 382.682 487.951 382.682Z" fill="#A6A6A6"/>
<path d="M406.626 402.251C403.783 402.251 401.479 404.555 401.479 407.4C401.479 410.244 403.783 412.549 406.626 412.549C409.468 412.549 411.773 410.244 411.773 407.4C411.773 404.555 409.468 402.251 406.626 402.251Z" fill="#A6A6A6"/>
<path d="M406.626 382.682C403.783 382.682 401.479 384.988 401.479 387.832C401.479 390.676 403.783 392.981 406.626 392.981C409.468 392.981 411.773 390.676 411.773 387.832C411.773 384.988 409.468 382.682 406.626 382.682Z" fill="#A6A6A6"/>
<path d="M426.185 402.251C423.342 402.251 421.038 404.555 421.038 407.4C421.038 410.244 423.342 412.549 426.185 412.549C429.028 412.549 431.333 410.244 431.333 407.4C431.333 404.555 429.028 402.251 426.185 402.251Z" fill="#A6A6A6"/>
<path d="M426.185 382.682C423.342 382.682 421.038 384.988 421.038 387.832C421.038 390.676 423.342 392.981 426.185 392.981C429.028 392.981 431.333 390.676 431.333 387.832C431.333 384.988 429.028 382.682 426.185 382.682Z" fill="#A6A6A6"/>
<path d="M458.097 23.6825C458.097 16.0497 453.489 9.86206 447.803 9.86206C442.119 9.86206 437.51 16.0497 437.51 23.6825V424.477C437.51 432.109 442.119 438.297 447.803 438.297C453.489 438.297 458.097 432.109 458.097 424.477V23.6825Z" fill="url(#paint8_linear_847_4265)"/>
<path d="M211.033 434.522C327.584 434.522 422.067 341.15 422.067 225.969C422.067 110.788 327.584 17.4158 211.033 17.4158C94.4829 17.4158 0 110.788 0 225.969C0 341.15 94.4829 434.522 211.033 434.522Z" fill="url(#paint9_linear_847_4265)"/>
<path d="M221.328 432.462C337.878 432.462 432.361 339.09 432.361 223.909C432.361 108.728 337.878 15.3557 221.328 15.3557C104.777 15.3557 10.2944 108.728 10.2944 223.909C10.2944 339.09 104.777 432.462 221.328 432.462Z" fill="url(#paint10_linear_847_4265)"/>
<path d="M447.803 105.236C451.215 105.236 453.98 102.469 453.98 99.0565C453.98 95.6437 451.215 92.8772 447.803 92.8772C444.392 92.8772 441.627 95.6437 441.627 99.0565C441.627 102.469 444.392 105.236 447.803 105.236Z" fill="#777777"/>
<path d="M447.803 349.602C451.215 349.602 453.98 346.835 453.98 343.422C453.98 340.01 451.215 337.243 447.803 337.243C444.392 337.243 441.627 340.01 441.627 343.422C441.627 346.835 444.392 349.602 447.803 349.602Z" fill="#777777"/>
<path d="M220.298 38.0132C117.961 38.0132 35.0005 121.011 35.0005 223.393C35.0005 325.776 117.961 408.774 220.298 408.774C322.635 408.774 405.596 325.776 405.596 223.393C405.596 121.011 322.635 38.0132 220.298 38.0132Z" fill="url(#paint11_linear_847_4265)"/>
<path d="M237.175 34.9231C134.837 34.9231 51.8765 117.921 51.8765 220.303C51.8765 322.686 134.837 405.684 237.175 405.684C339.512 405.684 422.472 322.686 422.472 220.303C422.472 117.921 339.512 34.9231 237.175 34.9231Z" fill="url(#paint12_linear_847_4265)" stroke="url(#paint13_linear_847_4265)" stroke-width="5.65675"/>
<path d="M248.094 379.937C245.25 379.937 242.946 382.242 242.946 385.086C242.946 387.931 245.25 390.236 248.094 390.236C250.936 390.236 253.241 387.931 253.241 385.086C253.241 382.242 250.936 379.937 248.094 379.937Z" fill="#949494"/>
<path d="M248.094 50.3718C245.25 50.3718 242.946 52.6773 242.946 55.5213C242.946 58.3653 245.25 60.6708 248.094 60.6708C250.936 60.6708 253.241 58.3653 253.241 55.5213C253.241 52.6773 250.936 50.3718 248.094 50.3718Z" fill="#949494"/>
<path d="M83.3839 215.155C80.5413 215.155 78.2368 217.46 78.2368 220.303C78.2368 223.148 80.5413 225.453 83.3839 225.453C86.2267 225.453 88.5311 223.148 88.5311 220.303C88.5311 217.46 86.2267 215.155 83.3839 215.155Z" fill="#949494"/>
<path d="M129.709 96.717C126.865 96.717 124.562 99.0225 124.562 101.866C124.562 104.71 126.865 107.016 129.709 107.016C132.551 107.016 134.856 104.71 134.856 101.866C134.856 99.0225 132.551 96.717 129.709 96.717Z" fill="#949494"/>
<path d="M129.709 333.592C126.865 333.592 124.562 335.898 124.562 338.742C124.562 341.586 126.865 343.892 129.709 343.892C132.551 343.892 134.856 341.586 134.856 338.742C134.856 335.898 132.551 333.592 129.709 333.592Z" fill="#949494"/>
<path d="M412.802 215.155C409.96 215.155 407.656 217.46 407.656 220.303C407.656 223.148 409.96 225.453 412.802 225.453C415.645 225.453 417.949 223.148 417.949 220.303C417.949 217.46 415.645 215.155 412.802 215.155Z" fill="#949494"/>
<path d="M366.478 333.592C363.635 333.592 361.331 335.898 361.331 338.742C361.331 341.586 363.635 343.892 366.478 343.892C369.32 343.892 371.625 341.586 371.625 338.742C371.625 335.898 369.32 333.592 366.478 333.592Z" fill="#949494"/>
<path d="M366.478 96.717C363.635 96.717 361.331 99.0225 361.331 101.866C361.331 104.71 363.635 107.016 366.478 107.016C369.32 107.016 371.625 104.71 371.625 101.866C371.625 99.0225 369.32 96.717 366.478 96.717Z" fill="#949494"/>
<path opacity="0.2" d="M171.915 401.565C169.073 401.565 166.768 403.871 166.768 406.715C166.768 409.559 169.073 411.864 171.915 411.864C174.758 411.864 177.062 409.559 177.062 406.715C177.062 403.871 174.758 401.565 171.915 401.565Z" fill="#A6A6A6"/>
<path d="M168.827 27.7148C165.984 27.7148 163.68 30.0203 163.68 32.8643C163.68 35.7082 165.984 38.0137 168.827 38.0137C171.669 38.0137 173.974 35.7082 173.974 32.8643C173.974 30.0203 171.669 27.7148 168.827 27.7148Z" fill="#A6A6A6"/>
<path d="M25.7357 215.155C22.8931 215.155 20.5886 217.46 20.5886 220.303C20.5886 223.148 22.8931 225.453 25.7357 225.453C28.5785 225.453 30.8829 223.148 30.8829 220.303C30.8829 217.46 28.5785 215.155 25.7357 215.155Z" fill="#A6A6A6"/>
<path d="M72.0603 96.717C69.2175 96.717 66.9131 99.0225 66.9131 101.866C66.9131 104.71 69.2175 107.016 72.0603 107.016C74.9029 107.016 77.2075 104.71 77.2075 101.866C77.2075 99.0225 74.9029 96.717 72.0603 96.717Z" fill="#A6A6A6"/>
<path d="M67.9426 338.742C65.0999 338.742 62.7954 341.047 62.7954 343.891C62.7954 346.735 65.0999 349.041 67.9426 349.041C70.7853 349.041 73.0897 346.735 73.0897 343.891C73.0897 341.047 70.7853 338.742 67.9426 338.742Z" fill="#878787"/>
<path d="M248.093 96.7173C179.868 96.7173 124.562 152.049 124.562 220.305C124.562 288.559 179.868 343.892 248.093 343.892C316.319 343.892 371.625 288.559 371.625 220.305C371.625 152.049 316.319 96.7173 248.093 96.7173Z" fill="url(#paint14_linear_847_4265)" stroke="url(#paint15_linear_847_4265)" stroke-width="3.77117"/>
<path d="M237.799 96.7173C175.259 96.7173 124.562 152.049 124.562 220.305C124.562 288.559 175.259 343.892 237.799 343.892C300.339 343.892 351.037 288.559 351.037 220.305C351.037 152.049 300.339 96.7173 237.799 96.7173Z" fill="url(#paint16_linear_847_4265)" stroke="url(#paint17_linear_847_4265)" stroke-width="3.77117"/>
<path d="M248.094 335.652V103.926" stroke="#6D6D6D" stroke-width="7.54233" stroke-linecap="round"/>
<path d="M344.86 223.395L130.043 220.103" stroke="#6D6D6D" stroke-width="7.54233" stroke-linecap="round"/>
<path d="M322.169 295.67L163.601 136.193" stroke="#6D6D6D" stroke-width="7.54233" stroke-linecap="round"/>
<path d="M316.296 142.906L161.084 301.545" stroke="#6D6D6D" stroke-width="7.54233" stroke-linecap="round"/>
<path d="M286.093 324.207L207.228 108.493" stroke="#6D6D6D" stroke-width="7.54233" stroke-linecap="round"/>
<path d="M340.626 189.071L136.754 261.256" stroke="#6D6D6D" stroke-width="7.54233" stroke-linecap="round"/>
<path d="M248.093 179.11C225.351 179.11 206.916 197.553 206.916 220.306C206.916 243.057 225.351 261.5 248.093 261.5C270.834 261.5 289.27 243.057 289.27 220.306C289.27 197.553 270.834 179.11 248.093 179.11Z" fill="#BDBDBD" stroke="#666666" stroke-width="4.71396"/>
<path d="M248.094 201.767C237.859 201.767 229.563 210.066 229.563 220.304C229.563 230.543 237.859 238.843 248.094 238.843C258.327 238.843 266.623 230.543 266.623 220.304C266.623 210.066 258.327 201.767 248.094 201.767Z" fill="#9A9A9A"/>
<path d="M612.747 152.5V131.822H622.333C623.418 131.822 624.413 132.083 625.317 132.606C626.221 133.108 626.935 133.802 627.457 134.686C628 135.57 628.271 136.555 628.271 137.64V138.001C628.271 139.087 627.99 140.091 627.427 141.016C626.864 141.94 626.121 142.684 625.196 143.246C624.292 143.789 623.287 144.06 622.182 144.06H616.485V152.5H612.747ZM616.485 141.166H621.429C622.031 141.166 622.564 141.026 623.026 140.744C623.488 140.463 623.85 140.081 624.111 139.599C624.393 139.117 624.533 138.564 624.533 137.941C624.533 137.057 624.232 136.303 623.629 135.68C623.046 135.037 622.283 134.716 621.338 134.716H616.485V141.166ZM637.763 152.801C636.356 152.801 635.12 152.51 634.055 151.927C632.99 151.324 632.156 150.45 631.554 149.305C630.971 148.159 630.679 146.773 630.679 145.145V144.452C630.679 142.824 630.991 141.438 631.614 140.292C632.257 139.147 633.121 138.283 634.206 137.7C635.311 137.097 636.567 136.796 637.974 136.796H638.366C639.672 136.796 640.817 137.067 641.802 137.61C642.787 138.132 643.55 138.886 644.093 139.87C644.635 140.855 644.907 142.01 644.907 143.337V145.236H634.327C634.327 146.301 634.467 147.225 634.749 148.009C635.03 148.792 635.442 149.395 635.985 149.817C636.547 150.219 637.24 150.42 638.064 150.42C638.748 150.42 639.35 150.29 639.873 150.028C640.415 149.747 640.837 149.335 641.139 148.792C641.46 148.25 641.621 147.577 641.621 146.773H644.907C644.907 147.979 644.605 149.034 644.002 149.938C643.4 150.842 642.586 151.545 641.561 152.048C640.536 152.55 639.371 152.801 638.064 152.801H637.763ZM634.357 143.307H641.47C641.47 141.9 641.159 140.865 640.536 140.202C639.933 139.519 639.099 139.177 638.034 139.177C637.029 139.177 636.175 139.529 635.472 140.232C634.789 140.915 634.417 141.94 634.357 143.307ZM648.74 152.5V137.097H651.362L651.815 139.358C651.855 139.298 651.955 139.137 652.116 138.876C652.277 138.614 652.528 138.323 652.869 138.001C653.211 137.68 653.643 137.399 654.166 137.157C654.688 136.916 655.321 136.796 656.065 136.796C657.13 136.796 657.994 137.007 658.657 137.429C659.34 137.851 659.842 138.434 660.164 139.177C660.506 139.9 660.676 140.734 660.676 141.679C660.676 141.9 660.666 142.131 660.646 142.372C660.626 142.593 660.606 142.784 660.586 142.945H657.632V142.342C657.632 141.92 657.552 141.488 657.391 141.046C657.23 140.604 656.959 140.232 656.577 139.931C656.195 139.629 655.663 139.478 654.979 139.478C654.477 139.478 654.045 139.589 653.683 139.81C653.342 140.011 653.06 140.272 652.839 140.594C652.618 140.915 652.458 141.267 652.357 141.649C652.277 142.01 652.236 142.352 652.236 142.674V152.5H648.74ZM669.06 152.801C668.035 152.801 667.131 152.681 666.347 152.44C665.564 152.178 664.901 151.837 664.358 151.415C663.815 150.993 663.404 150.511 663.122 149.968C662.841 149.425 662.7 148.863 662.7 148.28C662.7 148.159 662.7 148.059 662.7 147.979C662.7 147.898 662.71 147.788 662.73 147.647H665.745C665.724 147.707 665.714 147.768 665.714 147.828C665.714 147.868 665.714 147.908 665.714 147.948C665.714 148.511 665.895 148.973 666.257 149.335C666.619 149.697 667.091 149.968 667.674 150.149C668.277 150.33 668.94 150.42 669.663 150.42C670.266 150.42 670.839 150.34 671.381 150.179C671.924 150.018 672.366 149.787 672.707 149.486C673.049 149.164 673.22 148.772 673.22 148.31C673.22 147.788 673.039 147.386 672.677 147.104C672.316 146.823 671.833 146.602 671.231 146.441C670.648 146.281 669.995 146.14 669.271 146.019C668.568 145.899 667.855 145.758 667.131 145.597C666.408 145.417 665.745 145.175 665.142 144.874C664.559 144.552 664.087 144.12 663.725 143.578C663.363 143.035 663.182 142.322 663.182 141.438C663.182 140.714 663.343 140.061 663.665 139.478C663.986 138.896 664.438 138.413 665.021 138.032C665.604 137.63 666.287 137.328 667.071 137.127C667.855 136.906 668.699 136.796 669.603 136.796H670.085C670.929 136.796 671.713 136.906 672.436 137.127C673.18 137.348 673.823 137.65 674.365 138.032C674.908 138.413 675.33 138.856 675.631 139.358C675.933 139.86 676.083 140.393 676.083 140.955C676.083 141.056 676.073 141.166 676.053 141.287C676.053 141.408 676.053 141.488 676.053 141.528H673.009V141.227C673.009 141.026 672.959 140.815 672.858 140.594C672.758 140.353 672.577 140.132 672.316 139.931C672.054 139.71 671.703 139.529 671.261 139.388C670.839 139.247 670.296 139.177 669.633 139.177C669.03 139.177 668.518 139.237 668.096 139.358C667.674 139.478 667.332 139.639 667.071 139.84C666.81 140.021 666.619 140.222 666.498 140.443C666.398 140.664 666.347 140.875 666.347 141.076C666.347 141.538 666.528 141.9 666.89 142.161C667.252 142.422 667.734 142.633 668.337 142.794C668.94 142.935 669.603 143.065 670.326 143.186C671.05 143.286 671.763 143.427 672.466 143.608C673.19 143.769 673.853 144.01 674.456 144.331C675.059 144.653 675.541 145.085 675.903 145.628C676.264 146.17 676.445 146.883 676.445 147.768C676.445 148.692 676.264 149.486 675.903 150.149C675.561 150.792 675.079 151.304 674.456 151.686C673.833 152.068 673.119 152.349 672.316 152.53C671.532 152.711 670.698 152.801 669.814 152.801H669.06ZM686.541 152.801C685.174 152.801 683.948 152.49 682.863 151.867C681.778 151.244 680.924 150.35 680.301 149.184C679.698 148.019 679.397 146.642 679.397 145.055V144.542C679.397 142.935 679.698 141.558 680.301 140.413C680.924 139.247 681.768 138.353 682.833 137.73C683.918 137.107 685.144 136.796 686.51 136.796H686.993C688.379 136.796 689.605 137.107 690.67 137.73C691.755 138.353 692.599 139.247 693.202 140.413C693.825 141.558 694.136 142.935 694.136 144.542V145.055C694.136 146.642 693.825 148.019 693.202 149.184C692.599 150.35 691.755 151.244 690.67 151.867C689.605 152.49 688.389 152.801 687.023 152.801H686.541ZM686.752 150.42C687.455 150.42 688.078 150.259 688.62 149.938C689.183 149.596 689.625 149.094 689.947 148.431C690.288 147.768 690.459 146.964 690.459 146.019V143.578C690.459 142.613 690.288 141.809 689.947 141.166C689.625 140.503 689.183 140.011 688.62 139.689C688.078 139.348 687.455 139.177 686.752 139.177C686.068 139.177 685.445 139.348 684.883 139.689C684.34 140.011 683.898 140.503 683.556 141.166C683.235 141.809 683.074 142.613 683.074 143.578V146.019C683.074 146.964 683.235 147.768 683.556 148.431C683.898 149.094 684.34 149.596 684.883 149.938C685.445 150.259 686.068 150.42 686.752 150.42ZM697.928 152.5V137.097H700.49L700.942 139.358C701.525 138.514 702.248 137.881 703.112 137.459C703.976 137.017 704.941 136.796 706.006 136.796C707.071 136.796 708.005 136.997 708.809 137.399C709.613 137.801 710.236 138.393 710.678 139.177C711.14 139.941 711.371 140.885 711.371 142.01V152.5H707.875V142.643C707.875 141.498 707.603 140.684 707.061 140.202C706.538 139.699 705.805 139.448 704.86 139.448C704.237 139.448 703.665 139.609 703.142 139.931C702.62 140.232 702.198 140.644 701.876 141.166C701.575 141.689 701.424 142.282 701.424 142.945V152.5H697.928ZM719.892 152.801C719.069 152.801 718.275 152.671 717.511 152.41C716.768 152.148 716.155 151.706 715.673 151.083C715.19 150.44 714.949 149.576 714.949 148.491C714.949 147.386 715.19 146.492 715.673 145.808C716.175 145.125 716.878 144.603 717.783 144.241C718.687 143.879 719.772 143.638 721.038 143.518C722.304 143.377 723.711 143.307 725.258 143.307V141.86C725.258 140.855 724.997 140.152 724.474 139.75C723.972 139.328 723.198 139.117 722.153 139.117C721.289 139.117 720.525 139.308 719.862 139.689C719.199 140.071 718.868 140.674 718.868 141.498V141.799H715.492C715.472 141.719 715.462 141.629 715.462 141.528C715.462 141.408 715.462 141.297 715.462 141.197C715.462 140.312 715.733 139.539 716.275 138.876C716.838 138.212 717.612 137.7 718.596 137.338C719.581 136.977 720.706 136.796 721.972 136.796H722.485C724.575 136.796 726.132 137.208 727.157 138.032C728.182 138.856 728.694 140.011 728.694 141.498V149.365C728.694 149.747 728.785 150.018 728.965 150.179C729.146 150.34 729.347 150.42 729.568 150.42C729.769 150.42 729.98 150.38 730.201 150.3C730.442 150.219 730.663 150.129 730.864 150.028V152.168C730.603 152.369 730.272 152.52 729.87 152.621C729.468 152.741 728.985 152.801 728.423 152.801C727.76 152.801 727.207 152.681 726.765 152.44C726.343 152.199 726.021 151.877 725.8 151.475C725.579 151.053 725.449 150.581 725.409 150.058C724.826 150.923 724.072 151.596 723.148 152.078C722.223 152.56 721.138 152.801 719.892 152.801ZM721.4 150.42C722.043 150.42 722.656 150.28 723.238 149.998C723.821 149.697 724.303 149.255 724.685 148.672C725.067 148.089 725.258 147.356 725.258 146.472V145.296C723.851 145.296 722.645 145.376 721.641 145.537C720.636 145.678 719.872 145.949 719.35 146.351C718.827 146.753 718.566 147.356 718.566 148.159C718.566 148.963 718.807 149.546 719.29 149.908C719.772 150.249 720.475 150.42 721.4 150.42ZM734.016 152.5V130.797H737.513V152.5H734.016ZM632.994 188.5L628.08 173.097H631.728L634.923 183.557H635.074L638.329 173.097H641.976L645.232 183.557H645.382L648.577 173.097H651.953L647.04 188.5H643.363L640.107 178.191H639.957L636.731 188.5H632.994ZM655.03 188.5V173.097H658.526V188.5H655.03ZM654.939 169.631V166.797H658.616V169.631H654.939ZM668.633 188.801C667.609 188.801 666.704 188.681 665.921 188.44C665.137 188.178 664.474 187.837 663.931 187.415C663.389 186.993 662.977 186.511 662.695 185.968C662.414 185.425 662.273 184.863 662.273 184.28C662.273 184.159 662.273 184.059 662.273 183.979C662.273 183.898 662.283 183.788 662.303 183.647H665.318C665.298 183.707 665.288 183.768 665.288 183.828C665.288 183.868 665.288 183.908 665.288 183.948C665.288 184.511 665.468 184.973 665.83 185.335C666.192 185.697 666.664 185.968 667.247 186.149C667.85 186.33 668.513 186.42 669.236 186.42C669.839 186.42 670.412 186.34 670.954 186.179C671.497 186.018 671.939 185.787 672.281 185.486C672.622 185.164 672.793 184.772 672.793 184.31C672.793 183.788 672.612 183.386 672.251 183.104C671.889 182.823 671.407 182.602 670.804 182.441C670.221 182.281 669.568 182.14 668.844 182.019C668.141 181.899 667.428 181.758 666.704 181.597C665.981 181.417 665.318 181.175 664.715 180.874C664.132 180.552 663.66 180.12 663.298 179.578C662.936 179.035 662.756 178.322 662.756 177.438C662.756 176.714 662.916 176.061 663.238 175.478C663.559 174.896 664.012 174.413 664.594 174.032C665.177 173.63 665.86 173.328 666.644 173.127C667.428 172.906 668.272 172.796 669.176 172.796H669.658C670.502 172.796 671.286 172.906 672.009 173.127C672.753 173.348 673.396 173.65 673.938 174.032C674.481 174.413 674.903 174.856 675.204 175.358C675.506 175.86 675.657 176.393 675.657 176.955C675.657 177.056 675.647 177.166 675.626 177.287C675.626 177.408 675.626 177.488 675.626 177.528H672.582V177.227C672.582 177.026 672.532 176.815 672.431 176.594C672.331 176.353 672.15 176.132 671.889 175.931C671.628 175.71 671.276 175.529 670.834 175.388C670.412 175.247 669.869 175.177 669.206 175.177C668.603 175.177 668.091 175.237 667.669 175.358C667.247 175.478 666.905 175.639 666.644 175.84C666.383 176.021 666.192 176.222 666.071 176.443C665.971 176.664 665.921 176.875 665.921 177.076C665.921 177.538 666.101 177.9 666.463 178.161C666.825 178.422 667.307 178.633 667.91 178.794C668.513 178.935 669.176 179.065 669.899 179.186C670.623 179.286 671.336 179.427 672.04 179.608C672.763 179.769 673.426 180.01 674.029 180.331C674.632 180.653 675.114 181.085 675.476 181.628C675.837 182.17 676.018 182.883 676.018 183.768C676.018 184.692 675.837 185.486 675.476 186.149C675.134 186.792 674.652 187.304 674.029 187.686C673.406 188.068 672.693 188.349 671.889 188.53C671.105 188.711 670.271 188.801 669.387 188.801H668.633ZM679.633 188.5V166.797H683.13V175.117C683.692 174.353 684.375 173.78 685.179 173.399C686.003 172.997 686.877 172.796 687.802 172.796C688.827 172.796 689.731 172.997 690.515 173.399C691.318 173.801 691.951 174.393 692.413 175.177C692.876 175.941 693.107 176.885 693.107 178.01V188.5H689.61V178.643C689.61 177.498 689.339 176.684 688.796 176.202C688.254 175.699 687.51 175.448 686.566 175.448C685.943 175.448 685.37 175.609 684.848 175.931C684.325 176.232 683.903 176.644 683.582 177.166C683.28 177.689 683.13 178.282 683.13 178.945V188.5H679.633ZM703.979 188.801C702.573 188.801 701.337 188.51 700.272 187.927C699.207 187.324 698.373 186.45 697.77 185.305C697.187 184.159 696.896 182.773 696.896 181.145V180.452C696.896 178.824 697.207 177.438 697.83 176.292C698.473 175.147 699.337 174.283 700.422 173.7C701.528 173.097 702.784 172.796 704.19 172.796H704.582C705.888 172.796 707.034 173.067 708.018 173.61C709.003 174.132 709.767 174.886 710.309 175.87C710.852 176.855 711.123 178.01 711.123 179.337V181.236H700.543C700.543 182.301 700.684 183.225 700.965 184.009C701.246 184.792 701.658 185.395 702.201 185.817C702.764 186.219 703.457 186.42 704.281 186.42C704.964 186.42 705.567 186.29 706.089 186.028C706.632 185.747 707.054 185.335 707.355 184.792C707.677 184.25 707.837 183.577 707.837 182.773H711.123C711.123 183.979 710.822 185.034 710.219 185.938C709.616 186.842 708.802 187.545 707.777 188.048C706.752 188.55 705.587 188.801 704.281 188.801H703.979ZM700.573 179.307H707.687C707.687 177.9 707.375 176.865 706.752 176.202C706.15 175.519 705.316 175.177 704.251 175.177C703.246 175.177 702.392 175.529 701.688 176.232C701.005 176.915 700.633 177.94 700.573 179.307ZM720.382 188.801C719.357 188.801 718.453 188.681 717.669 188.44C716.885 188.178 716.222 187.837 715.68 187.415C715.137 186.993 714.725 186.511 714.444 185.968C714.163 185.425 714.022 184.863 714.022 184.28C714.022 184.159 714.022 184.059 714.022 183.979C714.022 183.898 714.032 183.788 714.052 183.647H717.066C717.046 183.707 717.036 183.768 717.036 183.828C717.036 183.868 717.036 183.908 717.036 183.948C717.036 184.511 717.217 184.973 717.579 185.335C717.94 185.697 718.413 185.968 718.995 186.149C719.598 186.33 720.261 186.42 720.985 186.42C721.588 186.42 722.16 186.34 722.703 186.179C723.245 186.018 723.688 185.787 724.029 185.486C724.371 185.164 724.542 184.772 724.542 184.31C724.542 183.788 724.361 183.386 723.999 183.104C723.637 182.823 723.155 182.602 722.552 182.441C721.969 182.281 721.316 182.14 720.593 182.019C719.89 181.899 719.176 181.758 718.453 181.597C717.729 181.417 717.066 181.175 716.463 180.874C715.881 180.552 715.408 180.12 715.047 179.578C714.685 179.035 714.504 178.322 714.504 177.438C714.504 176.714 714.665 176.061 714.986 175.478C715.308 174.896 715.76 174.413 716.343 174.032C716.926 173.63 717.609 173.328 718.393 173.127C719.176 172.906 720.02 172.796 720.925 172.796H721.407C722.251 172.796 723.034 172.906 723.758 173.127C724.501 173.348 725.144 173.65 725.687 174.032C726.23 174.413 726.652 174.856 726.953 175.358C727.254 175.86 727.405 176.393 727.405 176.955C727.405 177.056 727.395 177.166 727.375 177.287C727.375 177.408 727.375 177.488 727.375 177.528H724.331V177.227C724.331 177.026 724.28 176.815 724.18 176.594C724.079 176.353 723.899 176.132 723.637 175.931C723.376 175.71 723.024 175.529 722.582 175.388C722.16 175.247 721.618 175.177 720.955 175.177C720.352 175.177 719.839 175.237 719.417 175.358C718.995 175.478 718.654 175.639 718.393 175.84C718.131 176.021 717.94 176.222 717.82 176.443C717.719 176.664 717.669 176.875 717.669 177.076C717.669 177.538 717.85 177.9 718.212 178.161C718.573 178.422 719.056 178.633 719.659 178.794C720.261 178.935 720.925 179.065 721.648 179.186C722.371 179.286 723.085 179.427 723.788 179.608C724.511 179.769 725.175 180.01 725.777 180.331C726.38 180.653 726.863 181.085 727.224 181.628C727.586 182.17 727.767 182.883 727.767 183.768C727.767 184.692 727.586 185.486 727.224 186.149C726.883 186.792 726.4 187.304 725.777 187.686C725.155 188.068 724.441 188.349 723.637 188.53C722.854 188.711 722.02 188.801 721.136 188.801H720.382Z" fill="#1B1B1B"/>
<path d="M581.273 229.651C580.449 229.651 579.746 229.5 579.163 229.199C578.581 228.897 578.063 228.46 577.611 227.887L578.576 226.923C578.907 227.385 579.289 227.737 579.721 227.978C580.153 228.209 580.685 228.324 581.318 228.324C581.941 228.324 582.439 228.189 582.811 227.918C583.192 227.646 583.383 227.274 583.383 226.802C583.383 226.41 583.293 226.094 583.112 225.853C582.931 225.612 582.685 225.416 582.373 225.265C582.072 225.104 581.74 224.964 581.379 224.843C581.017 224.712 580.655 224.577 580.294 224.436C579.932 224.285 579.6 224.104 579.299 223.893C578.998 223.672 578.751 223.386 578.56 223.034C578.38 222.683 578.289 222.241 578.289 221.708C578.289 221.115 578.43 220.613 578.711 220.201C579.003 219.779 579.394 219.458 579.887 219.236C580.389 219.005 580.952 218.89 581.575 218.89C582.258 218.89 582.871 219.025 583.413 219.297C583.956 219.558 584.398 219.905 584.74 220.337L583.775 221.301C583.464 220.94 583.127 220.668 582.765 220.487C582.414 220.307 582.007 220.216 581.545 220.216C580.982 220.216 580.535 220.342 580.203 220.593C579.872 220.834 579.706 221.176 579.706 221.618C579.706 221.969 579.796 222.256 579.977 222.477C580.168 222.688 580.414 222.869 580.716 223.019C581.017 223.17 581.349 223.311 581.71 223.441C582.082 223.562 582.449 223.698 582.811 223.848C583.172 223.999 583.504 224.19 583.805 224.421C584.107 224.652 584.348 224.954 584.529 225.325C584.72 225.687 584.815 226.144 584.815 226.697C584.815 227.621 584.493 228.345 583.85 228.867C583.217 229.389 582.358 229.651 581.273 229.651ZM589.425 229.651C588.771 229.651 588.179 229.49 587.646 229.168C587.114 228.837 586.692 228.39 586.38 227.827C586.079 227.264 585.928 226.631 585.928 225.928C585.928 225.225 586.079 224.592 586.38 224.029C586.692 223.466 587.109 223.019 587.631 222.688C588.164 222.356 588.761 222.19 589.425 222.19C589.967 222.19 590.449 222.306 590.871 222.537C591.303 222.758 591.65 223.07 591.911 223.472C592.173 223.863 592.318 224.321 592.348 224.843V226.998C592.318 227.511 592.173 227.968 591.911 228.37C591.66 228.772 591.319 229.088 590.886 229.319C590.464 229.54 589.977 229.651 589.425 229.651ZM589.651 228.37C590.324 228.37 590.866 228.144 591.278 227.691C591.69 227.229 591.896 226.641 591.896 225.928C591.896 225.436 591.801 225.009 591.61 224.647C591.429 224.275 591.168 223.989 590.826 223.788C590.485 223.577 590.088 223.472 589.636 223.472C589.183 223.472 588.782 223.577 588.43 223.788C588.088 223.999 587.817 224.29 587.616 224.662C587.425 225.024 587.33 225.441 587.33 225.913C587.33 226.395 587.425 226.822 587.616 227.194C587.817 227.556 588.093 227.842 588.445 228.053C588.797 228.264 589.198 228.37 589.651 228.37ZM591.806 229.5V227.571L592.062 225.823L591.806 224.089V222.341H593.177V229.5H591.806ZM596.148 229.5V221.271C596.148 220.739 596.263 220.276 596.494 219.885C596.725 219.483 597.042 219.166 597.444 218.935C597.856 218.704 598.333 218.588 598.875 218.588C599.287 218.588 599.644 218.659 599.945 218.799C600.247 218.94 600.523 219.146 600.774 219.417L599.885 220.291C599.755 220.151 599.609 220.045 599.448 219.975C599.287 219.895 599.091 219.854 598.86 219.854C598.428 219.854 598.092 219.98 597.851 220.231C597.619 220.482 597.504 220.829 597.504 221.271V229.5H596.148ZM594.384 223.577V222.341H599.78V223.577H594.384ZM604.046 229.651C603.333 229.651 602.689 229.49 602.117 229.168C601.544 228.837 601.092 228.39 600.76 227.827C600.429 227.264 600.263 226.626 600.263 225.913C600.263 225.21 600.424 224.577 600.745 224.014C601.077 223.451 601.519 223.009 602.072 222.688C602.634 222.356 603.262 222.19 603.955 222.19C604.619 222.19 605.201 222.341 605.704 222.643C606.216 222.944 606.613 223.361 606.894 223.893C607.186 224.426 607.331 225.029 607.331 225.702C607.331 225.803 607.326 225.913 607.316 226.034C607.306 226.144 607.286 226.275 607.256 226.425H601.213V225.295H606.533L606.035 225.732C606.035 225.25 605.95 224.843 605.779 224.511C605.608 224.17 605.367 223.909 605.056 223.728C604.744 223.537 604.367 223.441 603.925 223.441C603.463 223.441 603.056 223.542 602.705 223.743C602.353 223.944 602.082 224.225 601.891 224.587C601.7 224.948 601.604 225.376 601.604 225.868C601.604 226.37 601.705 226.812 601.906 227.194C602.107 227.566 602.393 227.857 602.765 228.068C603.137 228.269 603.564 228.37 604.046 228.37C604.448 228.37 604.815 228.299 605.146 228.159C605.488 228.018 605.779 227.807 606.02 227.526L606.894 228.415C606.553 228.817 606.131 229.123 605.628 229.334C605.136 229.545 604.609 229.651 604.046 229.651ZM608.81 229.5V218.739H610.167V229.5H608.81ZM614.503 229.56L611.398 222.341H612.905L615.211 227.993H614.729L617.155 222.341H618.662L615.316 229.56H614.503ZM612.453 232.499L614.563 228.174L615.316 229.56L613.96 232.499H612.453ZM625.304 229.651C624.902 229.651 624.52 229.6 624.158 229.5C623.807 229.389 623.48 229.239 623.179 229.048C622.877 228.847 622.616 228.611 622.395 228.34L623.269 227.465C623.53 227.787 623.832 228.028 624.173 228.189C624.515 228.34 624.897 228.415 625.319 228.415C625.741 228.415 626.067 228.345 626.298 228.204C626.53 228.053 626.645 227.847 626.645 227.586C626.645 227.325 626.55 227.124 626.359 226.983C626.178 226.832 625.942 226.712 625.65 226.621C625.359 226.521 625.048 226.425 624.716 226.335C624.394 226.235 624.088 226.109 623.797 225.958C623.505 225.808 623.264 225.602 623.073 225.34C622.892 225.079 622.802 224.732 622.802 224.3C622.802 223.868 622.907 223.497 623.118 223.185C623.329 222.864 623.621 222.617 623.993 222.447C624.374 222.276 624.832 222.19 625.364 222.19C625.927 222.19 626.424 222.291 626.856 222.492C627.298 222.683 627.66 222.974 627.941 223.366L627.067 224.24C626.866 223.979 626.615 223.778 626.314 223.637C626.022 223.497 625.691 223.426 625.319 223.426C624.927 223.426 624.626 223.497 624.415 223.637C624.214 223.768 624.113 223.954 624.113 224.195C624.113 224.436 624.204 224.622 624.384 224.753C624.565 224.883 624.801 224.994 625.093 225.084C625.394 225.175 625.706 225.27 626.027 225.37C626.349 225.461 626.655 225.587 626.947 225.747C627.238 225.908 627.474 226.124 627.655 226.395C627.846 226.667 627.941 227.023 627.941 227.465C627.941 228.139 627.7 228.671 627.218 229.063C626.746 229.455 626.108 229.651 625.304 229.651ZM630.56 229.5V219.342H631.916V229.5H630.56ZM628.797 223.577V222.341H633.68V223.577H628.797ZM638.058 229.651C637.355 229.651 636.722 229.485 636.159 229.153C635.597 228.822 635.149 228.375 634.818 227.812C634.486 227.239 634.321 226.601 634.321 225.898C634.321 225.205 634.486 224.582 634.818 224.029C635.149 223.466 635.597 223.019 636.159 222.688C636.722 222.356 637.355 222.19 638.058 222.19C638.751 222.19 639.379 222.356 639.942 222.688C640.515 223.009 640.967 223.451 641.298 224.014C641.63 224.577 641.796 225.205 641.796 225.898C641.796 226.601 641.63 227.239 641.298 227.812C640.967 228.375 640.515 228.822 639.942 229.153C639.379 229.485 638.751 229.651 638.058 229.651ZM638.058 228.34C638.51 228.34 638.912 228.234 639.264 228.023C639.616 227.812 639.892 227.526 640.093 227.164C640.294 226.792 640.394 226.37 640.394 225.898C640.394 225.436 640.289 225.024 640.078 224.662C639.877 224.3 639.6 224.019 639.249 223.818C638.907 223.607 638.51 223.502 638.058 223.502C637.606 223.502 637.204 223.607 636.852 223.818C636.501 224.019 636.225 224.3 636.024 224.662C635.823 225.024 635.722 225.436 635.722 225.898C635.722 226.37 635.823 226.792 636.024 227.164C636.225 227.526 636.501 227.812 636.852 228.023C637.204 228.234 637.606 228.34 638.058 228.34ZM643.324 229.5V222.341H644.681V229.5H643.324ZM644.681 225.416L644.168 225.19C644.168 224.275 644.379 223.547 644.801 223.004C645.223 222.462 645.831 222.19 646.625 222.19C646.986 222.19 647.313 222.256 647.604 222.386C647.896 222.507 648.167 222.713 648.418 223.004L647.529 223.924C647.378 223.763 647.213 223.647 647.032 223.577C646.851 223.507 646.64 223.472 646.399 223.472C645.896 223.472 645.484 223.632 645.163 223.954C644.841 224.275 644.681 224.763 644.681 225.416ZM652.453 229.651C651.74 229.651 651.097 229.49 650.524 229.168C649.952 228.837 649.499 228.39 649.168 227.827C648.836 227.264 648.671 226.626 648.671 225.913C648.671 225.21 648.831 224.577 649.153 224.014C649.484 223.451 649.926 223.009 650.479 222.688C651.042 222.356 651.67 222.19 652.363 222.19C653.026 222.19 653.609 222.341 654.111 222.643C654.624 222.944 655.021 223.361 655.302 223.893C655.593 224.426 655.739 225.029 655.739 225.702C655.739 225.803 655.734 225.913 655.724 226.034C655.714 226.144 655.694 226.275 655.664 226.425H649.62V225.295H654.94L654.443 225.732C654.443 225.25 654.357 224.843 654.187 224.511C654.016 224.17 653.775 223.909 653.463 223.728C653.152 223.537 652.775 223.441 652.333 223.441C651.871 223.441 651.464 223.542 651.112 223.743C650.76 223.944 650.489 224.225 650.298 224.587C650.107 224.948 650.012 225.376 650.012 225.868C650.012 226.37 650.112 226.812 650.313 227.194C650.514 227.566 650.801 227.857 651.172 228.068C651.544 228.269 651.971 228.37 652.453 228.37C652.855 228.37 653.222 228.299 653.554 228.159C653.895 228.018 654.187 227.807 654.428 227.526L655.302 228.415C654.96 228.817 654.538 229.123 654.036 229.334C653.544 229.545 653.016 229.651 652.453 229.651ZM663.397 229.651C662.744 229.651 662.151 229.49 661.619 229.168C661.086 228.837 660.664 228.39 660.353 227.827C660.051 227.264 659.901 226.631 659.901 225.928C659.901 225.225 660.051 224.592 660.353 224.029C660.664 223.466 661.081 223.019 661.604 222.688C662.136 222.356 662.734 222.19 663.397 222.19C663.94 222.19 664.422 222.306 664.844 222.537C665.276 222.758 665.623 223.07 665.884 223.472C666.145 223.863 666.291 224.321 666.321 224.843V226.998C666.291 227.511 666.145 227.968 665.884 228.37C665.633 228.772 665.291 229.088 664.859 229.319C664.437 229.54 663.95 229.651 663.397 229.651ZM663.623 228.37C664.297 228.37 664.839 228.144 665.251 227.691C665.663 227.229 665.869 226.641 665.869 225.928C665.869 225.436 665.774 225.009 665.583 224.647C665.402 224.275 665.141 223.989 664.799 223.788C664.457 223.577 664.06 223.472 663.608 223.472C663.156 223.472 662.754 223.577 662.403 223.788C662.061 223.999 661.79 224.29 661.589 224.662C661.398 225.024 661.302 225.441 661.302 225.913C661.302 226.395 661.398 226.822 661.589 227.194C661.79 227.556 662.066 227.842 662.418 228.053C662.769 228.264 663.171 228.37 663.623 228.37ZM665.779 229.5V227.571L666.035 225.823L665.779 224.089V222.341H667.15V229.5H665.779ZM674.189 229.5V225.325C674.189 224.783 674.018 224.336 673.676 223.984C673.335 223.632 672.893 223.456 672.35 223.456C671.988 223.456 671.667 223.537 671.386 223.698C671.104 223.858 670.883 224.079 670.722 224.361C670.562 224.642 670.481 224.964 670.481 225.325L669.924 225.009C669.924 224.466 670.044 223.984 670.285 223.562C670.526 223.14 670.863 222.808 671.295 222.567C671.727 222.316 672.214 222.19 672.757 222.19C673.3 222.19 673.777 222.326 674.189 222.597C674.611 222.869 674.942 223.225 675.183 223.667C675.425 224.099 675.545 224.562 675.545 225.054V229.5H674.189ZM669.125 229.5V222.341H670.481V229.5H669.125ZM680.411 229.651C679.748 229.651 679.155 229.49 678.633 229.168C678.11 228.837 677.693 228.39 677.382 227.827C677.08 227.264 676.929 226.631 676.929 225.928C676.929 225.225 677.08 224.592 677.382 224.029C677.693 223.466 678.11 223.019 678.633 222.688C679.155 222.356 679.748 222.19 680.411 222.19C680.943 222.19 681.426 222.306 681.858 222.537C682.29 222.758 682.636 223.07 682.898 223.472C683.169 223.863 683.32 224.321 683.35 224.843V226.998C683.32 227.511 683.174 227.968 682.913 228.37C682.652 228.772 682.305 229.088 681.873 229.319C681.441 229.54 680.954 229.651 680.411 229.651ZM680.637 228.37C681.089 228.37 681.481 228.264 681.813 228.053C682.154 227.842 682.42 227.556 682.611 227.194C682.802 226.822 682.898 226.4 682.898 225.928C682.898 225.436 682.797 225.009 682.596 224.647C682.405 224.285 682.139 223.999 681.798 223.788C681.466 223.577 681.074 223.472 680.622 223.472C680.17 223.472 679.773 223.577 679.431 223.788C679.09 223.999 678.818 224.29 678.617 224.662C678.427 225.024 678.331 225.441 678.331 225.913C678.331 226.395 678.427 226.822 678.617 227.194C678.818 227.556 679.09 227.842 679.431 228.053C679.783 228.264 680.185 228.37 680.637 228.37ZM684.179 229.5H682.807V227.571L683.063 225.823L682.807 224.089V218.739H684.179V229.5ZM692.559 229.651C691.856 229.651 691.223 229.485 690.66 229.153C690.097 228.822 689.65 228.375 689.319 227.812C688.987 227.239 688.821 226.601 688.821 225.898C688.821 225.205 688.987 224.582 689.319 224.029C689.65 223.466 690.097 223.019 690.66 222.688C691.223 222.356 691.856 222.19 692.559 222.19C693.252 222.19 693.88 222.356 694.443 222.688C695.016 223.009 695.468 223.451 695.799 224.014C696.131 224.577 696.297 225.205 696.297 225.898C696.297 226.601 696.131 227.239 695.799 227.812C695.468 228.375 695.016 228.822 694.443 229.153C693.88 229.485 693.252 229.651 692.559 229.651ZM692.559 228.34C693.011 228.34 693.413 228.234 693.765 228.023C694.116 227.812 694.393 227.526 694.594 227.164C694.795 226.792 694.895 226.37 694.895 225.898C694.895 225.436 694.789 225.024 694.579 224.662C694.378 224.3 694.101 224.019 693.75 223.818C693.408 223.607 693.011 223.502 692.559 223.502C692.107 223.502 691.705 223.607 691.353 223.818C691.002 224.019 690.725 224.3 690.524 224.662C690.323 225.024 690.223 225.436 690.223 225.898C690.223 226.37 690.323 226.792 690.524 227.164C690.725 227.526 691.002 227.812 691.353 228.023C691.705 228.234 692.107 228.34 692.559 228.34ZM697.825 229.5V222.341H699.181V229.5H697.825ZM699.181 225.416L698.669 225.19C698.669 224.275 698.88 223.547 699.302 223.004C699.724 222.462 700.332 222.19 701.126 222.19C701.487 222.19 701.814 222.256 702.105 222.386C702.397 222.507 702.668 222.713 702.919 223.004L702.03 223.924C701.879 223.763 701.713 223.647 701.532 223.577C701.352 223.507 701.141 223.472 700.899 223.472C700.397 223.472 699.985 223.632 699.664 223.954C699.342 224.275 699.181 224.763 699.181 225.416ZM706.608 232.65C705.874 232.65 705.221 232.514 704.648 232.243C704.086 231.972 703.634 231.59 703.292 231.098L704.166 230.208C704.457 230.58 704.804 230.861 705.206 231.052C705.608 231.253 706.085 231.354 706.638 231.354C707.371 231.354 707.949 231.158 708.371 230.766C708.803 230.384 709.019 229.867 709.019 229.214V227.435L709.26 225.823L709.019 224.225V222.341H710.375V229.214C710.375 229.897 710.215 230.495 709.893 231.007C709.582 231.52 709.14 231.921 708.567 232.213C708.004 232.504 707.351 232.65 706.608 232.65ZM706.608 229.379C705.955 229.379 705.367 229.224 704.844 228.912C704.332 228.601 703.925 228.174 703.623 227.631C703.322 227.079 703.171 226.461 703.171 225.777C703.171 225.094 703.322 224.486 703.623 223.954C703.925 223.411 704.332 222.984 704.844 222.673C705.367 222.351 705.955 222.19 706.608 222.19C707.17 222.19 707.668 222.301 708.1 222.522C708.532 222.743 708.873 223.055 709.124 223.456C709.386 223.848 709.526 224.31 709.546 224.843V226.742C709.516 227.264 709.371 227.727 709.109 228.129C708.858 228.52 708.517 228.827 708.085 229.048C707.653 229.269 707.16 229.379 706.608 229.379ZM706.879 228.098C707.321 228.098 707.708 228.003 708.039 227.812C708.381 227.621 708.642 227.355 708.823 227.013C709.004 226.662 709.094 226.255 709.094 225.792C709.094 225.33 708.999 224.928 708.808 224.587C708.627 224.235 708.371 223.964 708.039 223.773C707.708 223.572 707.316 223.472 706.864 223.472C706.412 223.472 706.015 223.572 705.673 223.773C705.332 223.964 705.06 224.235 704.859 224.587C704.668 224.928 704.573 225.325 704.573 225.777C704.573 226.23 704.668 226.631 704.859 226.983C705.06 227.335 705.332 227.611 705.673 227.812C706.025 228.003 706.427 228.098 706.879 228.098ZM715.411 229.651C714.758 229.651 714.165 229.49 713.632 229.168C713.1 228.837 712.678 228.39 712.366 227.827C712.065 227.264 711.914 226.631 711.914 225.928C711.914 225.225 712.065 224.592 712.366 224.029C712.678 223.466 713.095 223.019 713.617 222.688C714.15 222.356 714.748 222.19 715.411 222.19C715.953 222.19 716.436 222.306 716.858 222.537C717.29 222.758 717.636 223.07 717.897 223.472C718.159 223.863 718.304 224.321 718.335 224.843V226.998C718.304 227.511 718.159 227.968 717.897 228.37C717.646 228.772 717.305 229.088 716.873 229.319C716.451 229.54 715.963 229.651 715.411 229.651ZM715.637 228.37C716.31 228.37 716.853 228.144 717.264 227.691C717.676 227.229 717.882 226.641 717.882 225.928C717.882 225.436 717.787 225.009 717.596 224.647C717.415 224.275 717.154 223.989 716.812 223.788C716.471 223.577 716.074 223.472 715.622 223.472C715.17 223.472 714.768 223.577 714.416 223.788C714.074 223.999 713.803 224.29 713.602 224.662C713.411 225.024 713.316 225.441 713.316 225.913C713.316 226.395 713.411 226.822 713.602 227.194C713.803 227.556 714.079 227.842 714.431 228.053C714.783 228.264 715.185 228.37 715.637 228.37ZM717.792 229.5V227.571L718.048 225.823L717.792 224.089V222.341H719.163V229.5H717.792ZM726.202 229.5V225.325C726.202 224.783 726.031 224.336 725.69 223.984C725.348 223.632 724.906 223.456 724.364 223.456C724.002 223.456 723.68 223.537 723.399 223.698C723.118 223.858 722.897 224.079 722.736 224.361C722.575 224.642 722.495 224.964 722.495 225.325L721.937 225.009C721.937 224.466 722.058 223.984 722.299 223.562C722.54 223.14 722.876 222.808 723.309 222.567C723.741 222.316 724.228 222.19 724.77 222.19C725.313 222.19 725.79 222.326 726.202 222.597C726.624 222.869 726.956 223.225 727.197 223.667C727.438 224.099 727.559 224.562 727.559 225.054V229.5H726.202ZM721.138 229.5V222.341H722.495V229.5H721.138ZM729.41 229.5V222.341H730.767V229.5H729.41ZM730.088 220.909C729.837 220.909 729.631 220.829 729.47 220.668C729.31 220.497 729.229 220.286 729.229 220.035C729.229 219.794 729.31 219.593 729.47 219.432C729.631 219.262 729.837 219.176 730.088 219.176C730.34 219.176 730.546 219.262 730.706 219.432C730.867 219.593 730.947 219.794 730.947 220.035C730.947 220.286 730.867 220.497 730.706 220.668C730.546 220.829 730.34 220.909 730.088 220.909ZM732.193 228.762L736.443 223.08H738.04L733.79 228.762H732.193ZM732.193 229.5V228.762L733.398 228.264H737.95V229.5H732.193ZM732.449 223.577V222.341H738.04V223.08L736.79 223.577H732.449ZM742.69 229.651C741.976 229.651 741.333 229.49 740.76 229.168C740.188 228.837 739.736 228.39 739.404 227.827C739.072 227.264 738.907 226.626 738.907 225.913C738.907 225.21 739.067 224.577 739.389 224.014C739.721 223.451 740.163 223.009 740.715 222.688C741.278 222.356 741.906 222.19 742.599 222.19C743.262 222.19 743.845 222.341 744.347 222.643C744.86 222.944 745.257 223.361 745.538 223.893C745.829 224.426 745.975 225.029 745.975 225.702C745.975 225.803 745.97 225.913 745.96 226.034C745.95 226.144 745.93 226.275 745.9 226.425H739.856V225.295H745.176L744.679 225.732C744.679 225.25 744.594 224.843 744.423 224.511C744.252 224.17 744.011 223.909 743.699 223.728C743.388 223.537 743.011 223.441 742.569 223.441C742.107 223.441 741.7 223.542 741.348 223.743C740.997 223.944 740.725 224.225 740.534 224.587C740.343 224.948 740.248 225.376 740.248 225.868C740.248 226.37 740.348 226.812 740.549 227.194C740.75 227.566 741.037 227.857 741.409 228.068C741.78 228.269 742.207 228.37 742.69 228.37C743.091 228.37 743.458 228.299 743.79 228.159C744.131 228.018 744.423 227.807 744.664 227.526L745.538 228.415C745.196 228.817 744.774 229.123 744.272 229.334C743.78 229.545 743.252 229.651 742.69 229.651ZM752.94 229.56L749.835 222.341H751.343L753.648 227.993H753.166L755.593 222.341H757.1L753.754 229.56H752.94ZM750.89 232.499L753 228.174L753.754 229.56L752.398 232.499H750.89ZM761.204 229.651C760.5 229.651 759.867 229.485 759.305 229.153C758.742 228.822 758.295 228.375 757.963 227.812C757.632 227.239 757.466 226.601 757.466 225.898C757.466 225.205 757.632 224.582 757.963 224.029C758.295 223.466 758.742 223.019 759.305 222.688C759.867 222.356 760.5 222.19 761.204 222.19C761.897 222.19 762.525 222.356 763.088 222.688C763.66 223.009 764.113 223.451 764.444 224.014C764.776 224.577 764.941 225.205 764.941 225.898C764.941 226.601 764.776 227.239 764.444 227.812C764.113 228.375 763.66 228.822 763.088 229.153C762.525 229.485 761.897 229.651 761.204 229.651ZM761.204 228.34C761.656 228.34 762.058 228.234 762.409 228.023C762.761 227.812 763.037 227.526 763.238 227.164C763.439 226.792 763.54 226.37 763.54 225.898C763.54 225.436 763.434 225.024 763.223 224.662C763.022 224.3 762.746 224.019 762.394 223.818C762.053 223.607 761.656 223.502 761.204 223.502C760.752 223.502 760.35 223.607 759.998 223.818C759.646 224.019 759.37 224.3 759.169 224.662C758.968 225.024 758.868 225.436 758.868 225.898C758.868 226.37 758.968 226.792 759.169 227.164C759.37 227.526 759.646 227.812 759.998 228.023C760.35 228.234 760.752 228.34 761.204 228.34ZM769.348 229.651C768.766 229.651 768.238 229.52 767.766 229.259C767.304 228.988 766.942 228.616 766.681 228.144C766.42 227.671 766.289 227.124 766.289 226.501V222.341H767.645V226.441C767.645 226.832 767.711 227.174 767.841 227.465C767.982 227.747 768.183 227.963 768.444 228.113C768.705 228.264 769.012 228.34 769.363 228.34C769.896 228.34 770.313 228.174 770.614 227.842C770.916 227.501 771.066 227.033 771.066 226.441V222.341H772.423V226.501C772.423 227.124 772.292 227.671 772.031 228.144C771.77 228.616 771.408 228.988 770.946 229.259C770.494 229.52 769.961 229.651 769.348 229.651ZM774.241 229.5V222.341H775.597V229.5H774.241ZM775.597 225.416L775.085 225.19C775.085 224.275 775.296 223.547 775.718 223.004C776.14 222.462 776.748 222.19 777.541 222.19C777.903 222.19 778.23 222.256 778.521 222.386C778.812 222.507 779.084 222.713 779.335 223.004L778.446 223.924C778.295 223.763 778.129 223.647 777.948 223.577C777.768 223.507 777.557 223.472 777.315 223.472C776.813 223.472 776.401 223.632 776.08 223.954C775.758 224.275 775.597 224.763 775.597 225.416ZM661.719 248.651C661.066 248.651 660.474 248.49 659.941 248.168C659.409 247.837 658.987 247.39 658.675 246.827C658.374 246.264 658.223 245.631 658.223 244.928C658.223 244.225 658.374 243.592 658.675 243.029C658.987 242.466 659.403 242.019 659.926 241.688C660.458 241.356 661.056 241.19 661.719 241.19C662.262 241.19 662.744 241.306 663.166 241.537C663.598 241.758 663.945 242.07 664.206 242.472C664.467 242.863 664.613 243.321 664.643 243.843V245.998C664.613 246.511 664.467 246.968 664.206 247.37C663.955 247.772 663.613 248.088 663.181 248.319C662.759 248.54 662.272 248.651 661.719 248.651ZM661.945 247.37C662.619 247.37 663.161 247.144 663.573 246.691C663.985 246.229 664.191 245.641 664.191 244.928C664.191 244.436 664.096 244.009 663.905 243.647C663.724 243.275 663.463 242.989 663.121 242.788C662.779 242.577 662.383 242.472 661.93 242.472C661.478 242.472 661.076 242.577 660.725 242.788C660.383 242.999 660.112 243.29 659.911 243.662C659.72 244.024 659.625 244.441 659.625 244.913C659.625 245.395 659.72 245.822 659.911 246.194C660.112 246.556 660.388 246.842 660.74 247.053C661.091 247.264 661.493 247.37 661.945 247.37ZM664.101 248.5V246.571L664.357 244.823L664.101 243.089V241.341H665.472V248.5H664.101ZM669.723 248.651C669.321 248.651 668.939 248.6 668.577 248.5C668.226 248.389 667.899 248.239 667.598 248.048C667.296 247.847 667.035 247.611 666.814 247.34L667.688 246.465C667.949 246.787 668.251 247.028 668.592 247.189C668.934 247.34 669.316 247.415 669.738 247.415C670.16 247.415 670.486 247.345 670.717 247.204C670.949 247.053 671.064 246.847 671.064 246.586C671.064 246.325 670.969 246.124 670.778 245.983C670.597 245.832 670.361 245.712 670.069 245.621C669.778 245.521 669.467 245.425 669.135 245.335C668.813 245.235 668.507 245.109 668.216 244.958C667.924 244.808 667.683 244.602 667.492 244.34C667.311 244.079 667.221 243.732 667.221 243.3C667.221 242.868 667.326 242.497 667.537 242.185C667.748 241.864 668.04 241.617 668.412 241.447C668.793 241.276 669.25 241.19 669.783 241.19C670.346 241.19 670.843 241.291 671.275 241.492C671.717 241.683 672.079 241.974 672.36 242.366L671.486 243.24C671.285 242.979 671.034 242.778 670.733 242.637C670.441 242.497 670.11 242.426 669.738 242.426C669.346 242.426 669.045 242.497 668.834 242.637C668.633 242.768 668.532 242.954 668.532 243.195C668.532 243.436 668.623 243.622 668.803 243.753C668.984 243.883 669.22 243.994 669.512 244.084C669.813 244.175 670.125 244.27 670.446 244.37C670.768 244.461 671.074 244.587 671.365 244.747C671.657 244.908 671.893 245.124 672.074 245.395C672.265 245.667 672.36 246.023 672.36 246.465C672.36 247.139 672.119 247.671 671.637 248.063C671.165 248.455 670.527 248.651 669.723 248.651ZM676.155 248.651C675.753 248.651 675.371 248.6 675.009 248.5C674.657 248.389 674.331 248.239 674.029 248.048C673.728 247.847 673.467 247.611 673.246 247.34L674.12 246.465C674.381 246.787 674.683 247.028 675.024 247.189C675.366 247.34 675.748 247.415 676.17 247.415C676.592 247.415 676.918 247.345 677.149 247.204C677.38 247.053 677.496 246.847 677.496 246.586C677.496 246.325 677.4 246.124 677.209 245.983C677.029 245.832 676.793 245.712 676.501 245.621C676.21 245.521 675.898 245.425 675.567 245.335C675.245 245.235 674.939 245.109 674.647 244.958C674.356 244.808 674.115 244.602 673.924 244.34C673.743 244.079 673.653 243.732 673.653 243.3C673.653 242.868 673.758 242.497 673.969 242.185C674.18 241.864 674.472 241.617 674.843 241.447C675.225 241.276 675.682 241.19 676.215 241.19C676.777 241.19 677.275 241.291 677.707 241.492C678.149 241.683 678.511 241.974 678.792 242.366L677.918 243.24C677.717 242.979 677.466 242.778 677.164 242.637C676.873 242.497 676.541 242.426 676.17 242.426C675.778 242.426 675.476 242.497 675.265 242.637C675.064 242.768 674.964 242.954 674.964 243.195C674.964 243.436 675.054 243.622 675.235 243.753C675.416 243.883 675.652 243.994 675.944 244.084C676.245 244.175 676.556 244.27 676.878 244.37C677.199 244.461 677.506 244.587 677.797 244.747C678.089 244.908 678.325 245.124 678.506 245.395C678.697 245.667 678.792 246.023 678.792 246.465C678.792 247.139 678.551 247.671 678.069 248.063C677.596 248.455 676.958 248.651 676.155 248.651ZM683.626 248.651C682.913 248.651 682.27 248.49 681.697 248.168C681.124 247.837 680.672 247.39 680.341 246.827C680.009 246.264 679.843 245.626 679.843 244.913C679.843 244.21 680.004 243.577 680.326 243.014C680.657 242.451 681.099 242.009 681.652 241.688C682.215 241.356 682.842 241.19 683.536 241.19C684.199 241.19 684.782 241.341 685.284 241.643C685.796 241.944 686.193 242.361 686.475 242.893C686.766 243.426 686.912 244.029 686.912 244.702C686.912 244.803 686.907 244.913 686.897 245.034C686.887 245.144 686.867 245.275 686.836 245.425H680.793V244.295H686.113L685.616 244.732C685.616 244.25 685.53 243.843 685.359 243.511C685.189 243.17 684.947 242.909 684.636 242.728C684.324 242.537 683.948 242.441 683.506 242.441C683.043 242.441 682.637 242.542 682.285 242.743C681.933 242.944 681.662 243.225 681.471 243.587C681.28 243.948 681.185 244.376 681.185 244.868C681.185 245.37 681.285 245.812 681.486 246.194C681.687 246.566 681.973 246.857 682.345 247.068C682.717 247.269 683.144 247.37 683.626 247.37C684.028 247.37 684.395 247.299 684.726 247.159C685.068 247.018 685.359 246.807 685.601 246.526L686.475 247.415C686.133 247.817 685.711 248.123 685.209 248.334C684.716 248.545 684.189 248.651 683.626 248.651ZM689.27 248.5V238.342H690.627V248.5H689.27ZM687.507 242.577V241.341H692.39V242.577H687.507ZM695.847 248.651C695.445 248.651 695.063 248.6 694.702 248.5C694.35 248.389 694.024 248.239 693.722 248.048C693.421 247.847 693.159 247.611 692.938 247.34L693.813 246.465C694.074 246.787 694.375 247.028 694.717 247.189C695.058 247.34 695.44 247.415 695.862 247.415C696.284 247.415 696.611 247.345 696.842 247.204C697.073 247.053 697.189 246.847 697.189 246.586C697.189 246.325 697.093 246.124 696.902 245.983C696.721 245.832 696.485 245.712 696.194 245.621C695.902 245.521 695.591 245.425 695.259 245.335C694.938 245.235 694.631 245.109 694.34 244.958C694.049 244.808 693.808 244.602 693.617 244.34C693.436 244.079 693.345 243.732 693.345 243.3C693.345 242.868 693.451 242.497 693.662 242.185C693.873 241.864 694.164 241.617 694.536 241.447C694.918 241.276 695.375 241.19 695.907 241.19C696.47 241.19 696.967 241.291 697.4 241.492C697.842 241.683 698.203 241.974 698.485 242.366L697.611 243.24C697.41 242.979 697.158 242.778 696.857 242.637C696.566 242.497 696.234 242.426 695.862 242.426C695.47 242.426 695.169 242.497 694.958 242.637C694.757 242.768 694.657 242.954 694.657 243.195C694.657 243.436 694.747 243.622 694.928 243.753C695.109 243.883 695.345 243.994 695.636 244.084C695.938 244.175 696.249 244.27 696.571 244.37C696.892 244.461 697.199 244.587 697.49 244.747C697.781 244.908 698.017 245.124 698.198 245.395C698.389 245.667 698.485 246.023 698.485 246.465C698.485 247.139 698.244 247.671 697.761 248.063C697.289 248.455 696.651 248.651 695.847 248.651Z" fill="#898989"/>
<rect x="654.844" y="279" width="47" height="47" rx="23.5" fill="white"/>
<rect x="654.844" y="279" width="47" height="47" rx="23.5" stroke="#E1E1E1"/>
<path d="M678.344 292.75C676.661 292.75 675.006 293.185 673.541 294.014C672.076 294.843 670.851 296.037 669.984 297.48C669.117 298.923 668.639 300.566 668.596 302.249C668.552 303.931 668.945 305.597 669.736 307.083L668.672 310.275C668.584 310.539 668.571 310.823 668.635 311.094C668.699 311.365 668.838 311.613 669.035 311.81C669.232 312.007 669.48 312.145 669.751 312.209C670.022 312.273 670.305 312.26 670.57 312.172L673.762 311.108C675.07 311.804 676.518 312.192 677.999 312.244C679.479 312.296 680.951 312.01 682.304 311.408C683.657 310.806 684.856 309.903 685.808 308.769C686.76 307.635 687.441 306.298 687.8 304.861C688.159 303.424 688.185 301.925 687.878 300.476C687.57 299.027 686.937 297.667 686.026 296.5C685.114 295.333 683.949 294.388 682.618 293.738C681.287 293.089 679.825 292.751 678.344 292.75ZM681.344 304.75H675.344C675.146 304.75 674.955 304.671 674.814 304.53C674.673 304.39 674.594 304.199 674.594 304C674.594 303.801 674.673 303.61 674.814 303.47C674.955 303.329 675.146 303.25 675.344 303.25H681.344C681.543 303.25 681.734 303.329 681.875 303.47C682.015 303.61 682.094 303.801 682.094 304C682.094 304.199 682.015 304.39 681.875 304.53C681.734 304.671 681.543 304.75 681.344 304.75ZM681.344 301.75H675.344C675.146 301.75 674.955 301.671 674.814 301.53C674.673 301.39 674.594 301.199 674.594 301C674.594 300.801 674.673 300.61 674.814 300.47C674.955 300.329 675.146 300.25 675.344 300.25H681.344C681.543 300.25 681.734 300.329 681.875 300.47C682.015 300.61 682.094 300.801 682.094 301C682.094 301.199 682.015 301.39 681.875 301.53C681.734 301.671 681.543 301.75 681.344 301.75Z" fill="#D67AB1"/>
<defs>
<linearGradient id="paint0_linear_847_4265" x1="678.381" y1="474.887" x2="627.46" y2="-38.3349" gradientUnits="userSpaceOnUse">
<stop stop-color="#7F7F7F"/>
<stop offset="0.5" stop-color="#A0A0A0"/>
<stop offset="1" stop-color="#C1C1C1"/>
</linearGradient>
<linearGradient id="paint1_linear_847_4265" x1="692.957" y1="483.634" x2="612.175" y2="-49.6424" gradientUnits="userSpaceOnUse">
<stop stop-color="#111111"/>
<stop offset="0.5" stop-color="#C5C5C5"/>
<stop offset="1" stop-color="#909090"/>
</linearGradient>
<linearGradient id="paint2_linear_847_4265" x1="573.247" y1="55.7039" x2="827.209" y2="375.652" gradientUnits="userSpaceOnUse">
<stop stop-color="white"/>
<stop offset="1" stop-color="#F5A5D5"/>
</linearGradient>
<linearGradient id="paint3_linear_847_4265" x1="678.397" y1="45.3278" x2="678.397" y2="405.765" gradientUnits="userSpaceOnUse">
<stop stop-color="#343434"/>
<stop offset="1" stop-color="#818181"/>
</linearGradient>
<linearGradient id="paint4_linear_847_4265" x1="408.328" y1="91.2237" x2="409.094" y2="115.96" gradientUnits="userSpaceOnUse">
<stop offset="0.146425" stop-color="#C5C5C5"/>
<stop offset="0.5" stop-color="#8A8A8A"/>
<stop offset="0.619735" stop-color="#ABABAB"/>
</linearGradient>
<linearGradient id="paint5_linear_847_4265" x1="416.564" y1="335.308" x2="417.33" y2="360.044" gradientUnits="userSpaceOnUse">
<stop offset="0.146425" stop-color="#C5C5C5"/>
<stop offset="0.5" stop-color="#8A8A8A"/>
<stop offset="0.619735" stop-color="#ABABAB"/>
</linearGradient>
<linearGradient id="paint6_linear_847_4265" x1="500.305" y1="51.0578" x2="394.272" y2="51.0578" gradientUnits="userSpaceOnUse">
<stop stop-color="#989898"/>
<stop offset="0.5" stop-color="#D2D2D2"/>
<stop offset="1" stop-color="#989898"/>
</linearGradient>
<linearGradient id="paint7_linear_847_4265" x1="500.305" y1="397.102" x2="394.272" y2="397.102" gradientUnits="userSpaceOnUse">
<stop stop-color="#989898"/>
<stop offset="0.5" stop-color="#D2D2D2"/>
<stop offset="1" stop-color="#989898"/>
</linearGradient>
<linearGradient id="paint8_linear_847_4265" x1="447.408" y1="-47.2626" x2="653.096" y2="21.1681" gradientUnits="userSpaceOnUse">
<stop offset="0.380265" stop-color="#ABABAB"/>
<stop offset="0.5" stop-color="#8A8A8A"/>
<stop offset="0.853575" stop-color="#C5C5C5"/>
</linearGradient>
<linearGradient id="paint9_linear_847_4265" x1="224.931" y1="470.054" x2="149.716" y2="-32.5243" gradientUnits="userSpaceOnUse">
<stop stop-color="#111111"/>
<stop offset="0.5" stop-color="#C5C5C5"/>
<stop offset="1" stop-color="#909090"/>
</linearGradient>
<linearGradient id="paint10_linear_847_4265" x1="221.328" y1="459.754" x2="173.933" y2="-23.776" gradientUnits="userSpaceOnUse">
<stop stop-color="#595959"/>
<stop offset="0.5" stop-color="#A0A0A0"/>
<stop offset="1" stop-color="#C1C1C1"/>
</linearGradient>
<linearGradient id="paint11_linear_847_4265" x1="178.092" y1="425.768" x2="13.2539" y2="-10.3432" gradientUnits="userSpaceOnUse">
<stop stop-color="#898989"/>
<stop offset="0.5" stop-color="#E1E1E1"/>
<stop offset="1" stop-color="#E8E8E8"/>
</linearGradient>
<linearGradient id="paint12_linear_847_4265" x1="422.472" y1="405.684" x2="51.7113" y2="35.0882" gradientUnits="userSpaceOnUse">
<stop stop-color="#F5F5F5"/>
<stop offset="0.5" stop-color="#A6A6A6"/>
<stop offset="1" stop-color="#949494"/>
</linearGradient>
<linearGradient id="paint13_linear_847_4265" x1="358.647" y1="405.684" x2="-110.777" y2="366.069" gradientUnits="userSpaceOnUse">
<stop stop-color="#E8E8E8"/>
<stop offset="0.511749" stop-color="#A6A6A6"/>
<stop offset="1" stop-color="#898989"/>
</linearGradient>
<linearGradient id="paint14_linear_847_4265" x1="371.625" y1="343.892" x2="206.786" y2="-104.579" gradientUnits="userSpaceOnUse">
<stop stop-color="#898989"/>
<stop offset="0.748684" stop-color="#A6A6A6"/>
<stop offset="1" stop-color="#E1E1E1"/>
</linearGradient>
<linearGradient id="paint15_linear_847_4265" x1="329.075" y1="343.892" x2="16.1257" y2="317.481" gradientUnits="userSpaceOnUse">
<stop stop-color="#A6A6A6"/>
<stop offset="0.511749" stop-color="#A6A6A6"/>
<stop offset="1" stop-color="#858585"/>
</linearGradient>
<linearGradient id="paint16_linear_847_4265" x1="351.037" y1="343.892" x2="104.805" y2="118.28" gradientUnits="userSpaceOnUse">
<stop stop-color="#969696"/>
<stop offset="0.5" stop-color="#B5B5B5"/>
<stop offset="1" stop-color="#E5E5E5"/>
</linearGradient>
<linearGradient id="paint17_linear_847_4265" x1="312.033" y1="343.892" x2="24.8376" y2="321.674" gradientUnits="userSpaceOnUse">
<stop stop-color="#A6A6A6"/>
<stop offset="0.511749" stop-color="#898989"/>
<stop offset="1" stop-color="#E1E1E1"/>
</linearGradient>
</defs>
</svg>
