<svg width="903" height="450" viewBox="0 0 903 450" fill="none" xmlns="http://www.w3.org/2000/svg">
<path d="M678.381 445.912C800.626 445.912 899.724 346.783 899.724 224.501C899.724 102.219 800.626 3.0896 678.381 3.0896C556.137 3.0896 457.037 102.219 457.037 224.501C457.037 346.783 556.137 445.912 678.381 445.912Z" fill="url(#paint0_linear_847_4437)" stroke="url(#paint1_linear_847_4437)" stroke-width="5.65675"/>
<path d="M678.396 55.625C772.212 55.625 848.265 131.702 848.265 225.546C848.265 319.391 772.212 395.467 678.396 395.467C584.58 395.467 508.526 319.391 508.526 225.546C508.526 131.702 584.58 55.6251 678.396 55.625Z" fill="url(#paint2_linear_847_4437)" stroke="url(#paint3_linear_847_4437)" stroke-width="18.8558"/>
<path d="M445.744 93.2834H373.684V108.732H445.744V93.2834Z" fill="url(#paint4_linear_847_4437)"/>
<path d="M453.98 337.367H381.92V352.815H453.98V337.367Z" fill="url(#paint5_linear_847_4437)"/>
<path d="M496.186 30.46H398.39C396.116 30.46 394.272 32.3041 394.272 34.579V67.5366C394.272 69.8115 396.116 71.6556 398.39 71.6556H496.186C498.461 71.6556 500.304 69.8115 500.304 67.5366V34.579C500.304 32.3041 498.461 30.46 496.186 30.46Z" fill="url(#paint6_linear_847_4437)"/>
<path d="M468.392 56.2085C465.55 56.2085 463.245 58.514 463.245 61.3579C463.245 64.2019 465.55 66.5074 468.392 66.5074C471.235 66.5074 473.539 64.2019 473.539 61.3579C473.539 58.514 471.235 56.2085 468.392 56.2085Z" fill="#A6A6A6"/>
<path d="M468.392 36.6404C465.55 36.6404 463.245 38.9459 463.245 41.7898C463.245 44.6338 465.55 46.9393 468.392 46.9393C471.235 46.9393 473.539 44.6338 473.539 41.7898C473.539 38.9459 471.235 36.6404 468.392 36.6404Z" fill="#A6A6A6"/>
<path d="M487.951 56.2085C485.109 56.2085 482.804 58.514 482.804 61.3579C482.804 64.2019 485.109 66.5074 487.951 66.5074C490.794 66.5074 493.098 64.2019 493.098 61.3579C493.098 58.514 490.794 56.2085 487.951 56.2085Z" fill="#A6A6A6"/>
<path d="M487.951 36.6404C485.109 36.6404 482.804 38.9459 482.804 41.7898C482.804 44.6338 485.109 46.9393 487.951 46.9393C490.794 46.9393 493.098 44.6338 493.098 41.7898C493.098 38.9459 490.794 36.6404 487.951 36.6404Z" fill="#A6A6A6"/>
<path d="M406.626 56.2085C403.783 56.2085 401.479 58.514 401.479 61.3579C401.479 64.2019 403.783 66.5074 406.626 66.5074C409.468 66.5074 411.773 64.2019 411.773 61.3579C411.773 58.514 409.468 56.2085 406.626 56.2085Z" fill="#A6A6A6"/>
<path d="M406.626 36.6404C403.783 36.6404 401.479 38.9459 401.479 41.7898C401.479 44.6338 403.783 46.9393 406.626 46.9393C409.468 46.9393 411.773 44.6338 411.773 41.7898C411.773 38.9459 409.468 36.6404 406.626 36.6404Z" fill="#A6A6A6"/>
<path d="M426.185 56.2085C423.342 56.2085 421.038 58.514 421.038 61.3579C421.038 64.2019 423.342 66.5074 426.185 66.5074C429.028 66.5074 431.333 64.2019 431.333 61.3579C431.333 58.514 429.028 56.2085 426.185 56.2085Z" fill="#A6A6A6"/>
<path d="M426.185 36.6404C423.342 36.6404 421.038 38.9459 421.038 41.7898C421.038 44.6338 423.342 46.9393 426.185 46.9393C429.028 46.9393 431.333 44.6338 431.333 41.7898C431.333 38.9459 429.028 36.6404 426.185 36.6404Z" fill="#A6A6A6"/>
<path d="M496.186 376.504H398.39C396.116 376.504 394.272 378.348 394.272 380.623V413.58C394.272 415.855 396.116 417.699 398.39 417.699H496.186C498.461 417.699 500.304 415.855 500.304 413.58V380.623C500.304 378.348 498.461 376.504 496.186 376.504Z" fill="url(#paint7_linear_847_4437)"/>
<path d="M468.392 402.251C465.55 402.251 463.245 404.555 463.245 407.4C463.245 410.244 465.55 412.549 468.392 412.549C471.235 412.549 473.539 410.244 473.539 407.4C473.539 404.555 471.235 402.251 468.392 402.251Z" fill="#A6A6A6"/>
<path d="M468.392 382.682C465.55 382.682 463.245 384.988 463.245 387.832C463.245 390.676 465.55 392.981 468.392 392.981C471.235 392.981 473.539 390.676 473.539 387.832C473.539 384.988 471.235 382.682 468.392 382.682Z" fill="#A6A6A6"/>
<path d="M487.951 402.251C485.109 402.251 482.804 404.555 482.804 407.4C482.804 410.244 485.109 412.549 487.951 412.549C490.794 412.549 493.098 410.244 493.098 407.4C493.098 404.555 490.794 402.251 487.951 402.251Z" fill="#A6A6A6"/>
<path d="M487.951 382.682C485.109 382.682 482.804 384.988 482.804 387.832C482.804 390.676 485.109 392.981 487.951 392.981C490.794 392.981 493.098 390.676 493.098 387.832C493.098 384.988 490.794 382.682 487.951 382.682Z" fill="#A6A6A6"/>
<path d="M406.626 402.251C403.783 402.251 401.479 404.555 401.479 407.4C401.479 410.244 403.783 412.549 406.626 412.549C409.468 412.549 411.773 410.244 411.773 407.4C411.773 404.555 409.468 402.251 406.626 402.251Z" fill="#A6A6A6"/>
<path d="M406.626 382.682C403.783 382.682 401.479 384.988 401.479 387.832C401.479 390.676 403.783 392.981 406.626 392.981C409.468 392.981 411.773 390.676 411.773 387.832C411.773 384.988 409.468 382.682 406.626 382.682Z" fill="#A6A6A6"/>
<path d="M426.185 402.251C423.342 402.251 421.038 404.555 421.038 407.4C421.038 410.244 423.342 412.549 426.185 412.549C429.028 412.549 431.333 410.244 431.333 407.4C431.333 404.555 429.028 402.251 426.185 402.251Z" fill="#A6A6A6"/>
<path d="M426.185 382.682C423.342 382.682 421.038 384.988 421.038 387.832C421.038 390.676 423.342 392.981 426.185 392.981C429.028 392.981 431.333 390.676 431.333 387.832C431.333 384.988 429.028 382.682 426.185 382.682Z" fill="#A6A6A6"/>
<path d="M458.097 23.6825C458.097 16.0497 453.489 9.86206 447.803 9.86206C442.119 9.86206 437.51 16.0497 437.51 23.6825V424.477C437.51 432.109 442.119 438.297 447.803 438.297C453.489 438.297 458.097 432.109 458.097 424.477V23.6825Z" fill="url(#paint8_linear_847_4437)"/>
<path d="M211.033 434.522C327.584 434.522 422.067 341.15 422.067 225.969C422.067 110.788 327.584 17.4158 211.033 17.4158C94.4829 17.4158 0 110.788 0 225.969C0 341.15 94.4829 434.522 211.033 434.522Z" fill="url(#paint9_linear_847_4437)"/>
<path d="M221.328 432.462C337.878 432.462 432.361 339.09 432.361 223.909C432.361 108.728 337.878 15.3557 221.328 15.3557C104.777 15.3557 10.2944 108.728 10.2944 223.909C10.2944 339.09 104.777 432.462 221.328 432.462Z" fill="url(#paint10_linear_847_4437)"/>
<path d="M447.803 105.236C451.215 105.236 453.98 102.469 453.98 99.0565C453.98 95.6437 451.215 92.8772 447.803 92.8772C444.392 92.8772 441.627 95.6437 441.627 99.0565C441.627 102.469 444.392 105.236 447.803 105.236Z" fill="#777777"/>
<path d="M447.803 349.602C451.215 349.602 453.98 346.835 453.98 343.422C453.98 340.01 451.215 337.243 447.803 337.243C444.392 337.243 441.627 340.01 441.627 343.422C441.627 346.835 444.392 349.602 447.803 349.602Z" fill="#777777"/>
<path d="M220.298 38.0132C117.961 38.0132 35.0005 121.011 35.0005 223.393C35.0005 325.776 117.961 408.774 220.298 408.774C322.635 408.774 405.596 325.776 405.596 223.393C405.596 121.011 322.635 38.0132 220.298 38.0132Z" fill="url(#paint11_linear_847_4437)"/>
<path d="M237.175 34.9231C134.837 34.9231 51.8765 117.921 51.8765 220.303C51.8765 322.686 134.837 405.684 237.175 405.684C339.512 405.684 422.472 322.686 422.472 220.303C422.472 117.921 339.512 34.9231 237.175 34.9231Z" fill="url(#paint12_linear_847_4437)" stroke="url(#paint13_linear_847_4437)" stroke-width="5.65675"/>
<path d="M248.094 379.937C245.25 379.937 242.946 382.242 242.946 385.086C242.946 387.931 245.25 390.236 248.094 390.236C250.936 390.236 253.241 387.931 253.241 385.086C253.241 382.242 250.936 379.937 248.094 379.937Z" fill="#949494"/>
<path d="M248.094 50.3718C245.25 50.3718 242.946 52.6773 242.946 55.5213C242.946 58.3653 245.25 60.6708 248.094 60.6708C250.936 60.6708 253.241 58.3653 253.241 55.5213C253.241 52.6773 250.936 50.3718 248.094 50.3718Z" fill="#949494"/>
<path d="M83.3839 215.155C80.5413 215.155 78.2368 217.46 78.2368 220.303C78.2368 223.148 80.5413 225.453 83.3839 225.453C86.2267 225.453 88.5311 223.148 88.5311 220.303C88.5311 217.46 86.2267 215.155 83.3839 215.155Z" fill="#949494"/>
<path d="M129.709 96.717C126.865 96.717 124.562 99.0225 124.562 101.866C124.562 104.71 126.865 107.016 129.709 107.016C132.551 107.016 134.856 104.71 134.856 101.866C134.856 99.0225 132.551 96.717 129.709 96.717Z" fill="#949494"/>
<path d="M129.709 333.592C126.865 333.592 124.562 335.898 124.562 338.742C124.562 341.586 126.865 343.892 129.709 343.892C132.551 343.892 134.856 341.586 134.856 338.742C134.856 335.898 132.551 333.592 129.709 333.592Z" fill="#949494"/>
<path d="M412.802 215.155C409.96 215.155 407.656 217.46 407.656 220.303C407.656 223.148 409.96 225.453 412.802 225.453C415.645 225.453 417.949 223.148 417.949 220.303C417.949 217.46 415.645 215.155 412.802 215.155Z" fill="#949494"/>
<path d="M366.478 333.592C363.635 333.592 361.331 335.898 361.331 338.742C361.331 341.586 363.635 343.892 366.478 343.892C369.32 343.892 371.625 341.586 371.625 338.742C371.625 335.898 369.32 333.592 366.478 333.592Z" fill="#949494"/>
<path d="M366.478 96.717C363.635 96.717 361.331 99.0225 361.331 101.866C361.331 104.71 363.635 107.016 366.478 107.016C369.32 107.016 371.625 104.71 371.625 101.866C371.625 99.0225 369.32 96.717 366.478 96.717Z" fill="#949494"/>
<path opacity="0.2" d="M171.915 401.565C169.073 401.565 166.768 403.871 166.768 406.715C166.768 409.559 169.073 411.864 171.915 411.864C174.758 411.864 177.062 409.559 177.062 406.715C177.062 403.871 174.758 401.565 171.915 401.565Z" fill="#A6A6A6"/>
<path d="M168.827 27.7148C165.984 27.7148 163.68 30.0203 163.68 32.8643C163.68 35.7082 165.984 38.0137 168.827 38.0137C171.67 38.0137 173.975 35.7082 173.975 32.8643C173.975 30.0203 171.67 27.7148 168.827 27.7148Z" fill="#A6A6A6"/>
<path d="M25.7355 215.155C22.8928 215.155 20.5884 217.46 20.5884 220.303C20.5884 223.148 22.8928 225.453 25.7355 225.453C28.5782 225.453 30.8827 223.148 30.8827 220.303C30.8827 217.46 28.5782 215.155 25.7355 215.155Z" fill="#A6A6A6"/>
<path d="M72.0603 96.717C69.2175 96.717 66.9131 99.0225 66.9131 101.866C66.9131 104.71 69.2175 107.016 72.0603 107.016C74.9029 107.016 77.2075 104.71 77.2075 101.866C77.2075 99.0225 74.9029 96.717 72.0603 96.717Z" fill="#A6A6A6"/>
<path d="M67.9426 338.742C65.0999 338.742 62.7954 341.047 62.7954 343.891C62.7954 346.735 65.0999 349.041 67.9426 349.041C70.7853 349.041 73.0897 346.735 73.0897 343.891C73.0897 341.047 70.7853 338.742 67.9426 338.742Z" fill="#878787"/>
<path d="M248.093 96.7173C179.868 96.7173 124.562 152.049 124.562 220.305C124.562 288.559 179.868 343.892 248.093 343.892C316.319 343.892 371.625 288.559 371.625 220.305C371.625 152.049 316.319 96.7173 248.093 96.7173Z" fill="url(#paint14_linear_847_4437)" stroke="url(#paint15_linear_847_4437)" stroke-width="3.77117"/>
<path d="M237.799 96.7173C175.259 96.7173 124.562 152.049 124.562 220.305C124.562 288.559 175.259 343.892 237.799 343.892C300.339 343.892 351.037 288.559 351.037 220.305C351.037 152.049 300.339 96.7173 237.799 96.7173Z" fill="url(#paint16_linear_847_4437)" stroke="url(#paint17_linear_847_4437)" stroke-width="3.77117"/>
<path d="M248.094 335.652V103.926" stroke="#6D6D6D" stroke-width="7.54233" stroke-linecap="round"/>
<path d="M344.86 223.395L130.043 220.103" stroke="#6D6D6D" stroke-width="7.54233" stroke-linecap="round"/>
<path d="M322.169 295.67L163.602 136.193" stroke="#6D6D6D" stroke-width="7.54233" stroke-linecap="round"/>
<path d="M316.296 142.906L161.084 301.545" stroke="#6D6D6D" stroke-width="7.54233" stroke-linecap="round"/>
<path d="M286.093 324.207L207.228 108.493" stroke="#6D6D6D" stroke-width="7.54233" stroke-linecap="round"/>
<path d="M340.627 189.071L136.754 261.256" stroke="#6D6D6D" stroke-width="7.54233" stroke-linecap="round"/>
<path d="M248.094 179.11C225.352 179.11 206.916 197.553 206.916 220.306C206.916 243.057 225.352 261.5 248.094 261.5C270.835 261.5 289.27 243.057 289.27 220.306C289.27 197.553 270.835 179.11 248.094 179.11Z" fill="#BDBDBD" stroke="#666666" stroke-width="4.71396"/>
<path d="M248.094 201.767C237.859 201.767 229.563 210.066 229.563 220.304C229.563 230.543 237.859 238.843 248.094 238.843C258.327 238.843 266.623 230.543 266.623 220.304C266.623 210.066 258.327 201.767 248.094 201.767Z" fill="#9A9A9A"/>
<path d="M630.748 152.5V131.822H634.486V140.443H642.835V131.822H646.573V152.5H642.865V143.457H634.516V152.5H630.748ZM657.559 152.801C656.152 152.801 654.916 152.51 653.851 151.927C652.786 151.324 651.952 150.45 651.35 149.305C650.767 148.159 650.475 146.773 650.475 145.145V144.452C650.475 142.824 650.787 141.438 651.41 140.292C652.053 139.147 652.917 138.283 654.002 137.7C655.107 137.097 656.363 136.796 657.77 136.796H658.162C659.468 136.796 660.613 137.067 661.598 137.61C662.583 138.132 663.346 138.886 663.889 139.87C664.431 140.855 664.703 142.01 664.703 143.337V145.236H654.123C654.123 146.301 654.263 147.225 654.545 148.009C654.826 148.792 655.238 149.395 655.78 149.817C656.343 150.219 657.036 150.42 657.86 150.42C658.544 150.42 659.146 150.29 659.669 150.028C660.211 149.747 660.633 149.335 660.935 148.792C661.256 148.25 661.417 147.577 661.417 146.773H664.703C664.703 147.979 664.401 149.034 663.798 149.938C663.196 150.842 662.382 151.545 661.357 152.048C660.332 152.55 659.166 152.801 657.86 152.801H657.559ZM654.153 143.307H661.266C661.266 141.9 660.955 140.865 660.332 140.202C659.729 139.519 658.895 139.177 657.83 139.177C656.825 139.177 655.971 139.529 655.268 140.232C654.585 140.915 654.213 141.94 654.153 143.307ZM672.545 152.801C671.721 152.801 670.927 152.671 670.164 152.41C669.42 152.148 668.807 151.706 668.325 151.083C667.843 150.44 667.602 149.576 667.602 148.491C667.602 147.386 667.843 146.492 668.325 145.808C668.827 145.125 669.531 144.603 670.435 144.241C671.339 143.879 672.424 143.638 673.69 143.518C674.956 143.377 676.363 143.307 677.91 143.307V141.86C677.91 140.855 677.649 140.152 677.127 139.75C676.624 139.328 675.851 139.117 674.806 139.117C673.941 139.117 673.178 139.308 672.515 139.689C671.852 140.071 671.52 140.674 671.52 141.498V141.799H668.144C668.124 141.719 668.114 141.629 668.114 141.528C668.114 141.408 668.114 141.297 668.114 141.197C668.114 140.312 668.385 139.539 668.928 138.876C669.49 138.212 670.264 137.7 671.249 137.338C672.233 136.977 673.359 136.796 674.625 136.796H675.137C677.227 136.796 678.784 137.208 679.809 138.032C680.834 138.856 681.346 140.011 681.346 141.498V149.365C681.346 149.747 681.437 150.018 681.618 150.179C681.799 150.34 682 150.42 682.221 150.42C682.422 150.42 682.633 150.38 682.854 150.3C683.095 150.219 683.316 150.129 683.517 150.028V152.168C683.256 152.369 682.924 152.52 682.522 152.621C682.12 152.741 681.638 152.801 681.075 152.801C680.412 152.801 679.859 152.681 679.417 152.44C678.995 152.199 678.674 151.877 678.453 151.475C678.232 151.053 678.101 150.581 678.061 150.058C677.478 150.923 676.725 151.596 675.8 152.078C674.876 152.56 673.791 152.801 672.545 152.801ZM674.052 150.42C674.695 150.42 675.308 150.28 675.891 149.998C676.473 149.697 676.956 149.255 677.338 148.672C677.719 148.089 677.91 147.356 677.91 146.472V145.296C676.504 145.296 675.298 145.376 674.293 145.537C673.288 145.678 672.525 145.949 672.002 146.351C671.48 146.753 671.219 147.356 671.219 148.159C671.219 148.963 671.46 149.546 671.942 149.908C672.424 150.249 673.128 150.42 674.052 150.42ZM686.669 152.5V130.797H690.165V152.5H686.669ZM699.557 152.801C698.753 152.801 698.03 152.681 697.387 152.44C696.764 152.199 696.271 151.807 695.91 151.264C695.568 150.701 695.397 149.968 695.397 149.064V139.78H693.709V137.097H695.488L696.723 132.184H698.894V137.097H702.481V139.78H698.894V148.37C698.894 149.255 699.075 149.817 699.436 150.058C699.798 150.3 700.19 150.42 700.612 150.42C700.833 150.42 701.134 150.37 701.516 150.269C701.918 150.169 702.239 150.069 702.481 149.968V152.229C702.239 152.349 701.948 152.45 701.606 152.53C701.265 152.631 700.913 152.701 700.551 152.741C700.19 152.781 699.858 152.801 699.557 152.801ZM706.126 152.5V130.797H709.622V139.117C710.185 138.353 710.868 137.78 711.672 137.399C712.496 136.997 713.37 136.796 714.294 136.796C715.319 136.796 716.223 136.997 717.007 137.399C717.811 137.801 718.444 138.393 718.906 139.177C719.368 139.941 719.599 140.885 719.599 142.01V152.5H716.103V142.643C716.103 141.498 715.832 140.684 715.289 140.202C714.746 139.699 714.003 139.448 713.059 139.448C712.436 139.448 711.863 139.609 711.34 139.931C710.818 140.232 710.396 140.644 710.074 141.166C709.773 141.689 709.622 142.282 709.622 142.945V152.5H706.126ZM615.993 188.5C615.009 188.5 614.064 188.389 613.16 188.168C612.276 187.947 611.482 187.596 610.779 187.113C610.075 186.631 609.523 186.028 609.121 185.305C608.719 184.561 608.518 183.677 608.518 182.652C608.518 181.306 608.86 180.251 609.543 179.487C610.246 178.724 611.15 178.181 612.256 177.86V177.709C611.633 177.428 611.07 177.086 610.568 176.684C610.085 176.262 609.704 175.77 609.422 175.207C609.161 174.624 609.03 173.941 609.03 173.157C609.03 172.213 609.221 171.389 609.603 170.686C609.985 169.982 610.497 169.4 611.14 168.938C611.783 168.475 612.517 168.124 613.341 167.883C614.165 167.641 615.029 167.521 615.933 167.521C616.576 167.521 617.179 167.581 617.741 167.702V170.535C617.219 170.374 616.717 170.294 616.234 170.294C615.571 170.294 614.958 170.415 614.396 170.656C613.833 170.877 613.381 171.228 613.039 171.711C612.698 172.173 612.527 172.756 612.527 173.459C612.527 174.062 612.678 174.604 612.979 175.087C613.301 175.549 613.733 175.921 614.275 176.202C614.838 176.463 615.471 176.594 616.174 176.594H620.002L621.027 172.253H623.408V176.594H626.483V179.246H623.408V188.5H615.993ZM616.174 185.878H619.912V179.246H616.114C615.29 179.246 614.577 179.377 613.974 179.638C613.371 179.899 612.899 180.281 612.557 180.784C612.235 181.266 612.075 181.839 612.075 182.502C612.075 183.607 612.467 184.451 613.25 185.034C614.054 185.596 615.029 185.878 616.174 185.878ZM636.915 188.5V167.822H642.943L648.761 183.044H648.851L654.669 167.822H660.727V188.5H657.02V172.133H656.869L650.66 188.5H646.59L640.411 172.133H640.261V188.5H636.915ZM671.703 188.801C670.296 188.801 669.06 188.51 667.995 187.927C666.93 187.324 666.096 186.45 665.494 185.305C664.911 184.159 664.619 182.773 664.619 181.145V180.452C664.619 178.824 664.931 177.438 665.554 176.292C666.197 175.147 667.061 174.283 668.146 173.7C669.251 173.097 670.507 172.796 671.914 172.796H672.306C673.612 172.796 674.757 173.067 675.742 173.61C676.727 174.132 677.49 174.886 678.033 175.87C678.575 176.855 678.847 178.01 678.847 179.337V181.236H668.267C668.267 182.301 668.407 183.225 668.689 184.009C668.97 184.792 669.382 185.395 669.924 185.817C670.487 186.219 671.18 186.42 672.004 186.42C672.688 186.42 673.29 186.29 673.813 186.028C674.355 185.747 674.777 185.335 675.079 184.792C675.4 184.25 675.561 183.577 675.561 182.773H678.847C678.847 183.979 678.545 185.034 677.942 185.938C677.34 186.842 676.526 187.545 675.501 188.048C674.476 188.55 673.31 188.801 672.004 188.801H671.703ZM668.297 179.307H675.41C675.41 177.9 675.099 176.865 674.476 176.202C673.873 175.519 673.039 175.177 671.974 175.177C670.969 175.177 670.115 175.529 669.412 176.232C668.729 176.915 668.357 177.94 668.297 179.307ZM688.407 188.801C687.242 188.801 686.176 188.52 685.212 187.957C684.247 187.395 683.474 186.521 682.891 185.335C682.308 184.149 682.017 182.632 682.017 180.784V180.452C682.017 178.764 682.288 177.357 682.831 176.232C683.393 175.087 684.127 174.233 685.031 173.67C685.955 173.087 686.97 172.796 688.075 172.796C689.161 172.796 690.085 173.007 690.849 173.429C691.612 173.831 692.195 174.353 692.597 174.996V166.797H696.093V188.5H693.381L692.959 186.42C692.456 187.144 691.833 187.726 691.09 188.168C690.346 188.59 689.452 188.801 688.407 188.801ZM689.1 186.42C689.743 186.42 690.326 186.269 690.849 185.968C691.371 185.647 691.793 185.144 692.115 184.461C692.436 183.778 692.597 182.883 692.597 181.778V179.638C692.597 178.653 692.436 177.84 692.115 177.197C691.813 176.533 691.391 176.041 690.849 175.72C690.326 175.398 689.743 175.237 689.1 175.237C688.136 175.237 687.322 175.609 686.659 176.353C686.016 177.076 685.694 178.171 685.694 179.638V181.748C685.694 182.853 685.845 183.748 686.146 184.431C686.448 185.114 686.85 185.616 687.352 185.938C687.874 186.259 688.457 186.42 689.1 186.42ZM700.935 188.5V173.097H704.432V188.5H700.935ZM700.845 169.631V166.797H704.522V169.631H700.845ZM715.202 188.801C713.916 188.801 712.761 188.49 711.736 187.867C710.711 187.224 709.907 186.33 709.324 185.184C708.742 184.039 708.45 182.713 708.45 181.206V180.392C708.45 179.246 708.631 178.211 708.993 177.287C709.355 176.363 709.847 175.569 710.47 174.906C711.113 174.223 711.856 173.7 712.7 173.338C713.544 172.977 714.449 172.796 715.413 172.796H715.865C717.172 172.796 718.307 173.057 719.272 173.579C720.236 174.102 720.98 174.835 721.502 175.78C722.045 176.724 722.316 177.85 722.316 179.156H719.211C719.211 178.272 719.061 177.538 718.759 176.955C718.478 176.353 718.076 175.91 717.553 175.629C717.051 175.328 716.458 175.177 715.775 175.177C714.73 175.177 713.856 175.529 713.153 176.232C712.469 176.935 712.128 178 712.128 179.427V182.08C712.128 183.506 712.459 184.592 713.122 185.335C713.806 186.058 714.7 186.42 715.805 186.42C716.529 186.42 717.151 186.29 717.674 186.028C718.217 185.747 718.628 185.315 718.91 184.732C719.211 184.149 719.362 183.386 719.362 182.441H722.316C722.316 183.788 722.025 184.943 721.442 185.908C720.859 186.852 720.065 187.576 719.061 188.078C718.056 188.56 716.92 188.801 715.654 188.801H715.202ZM729.901 188.801C729.077 188.801 728.283 188.671 727.52 188.41C726.776 188.148 726.163 187.706 725.681 187.083C725.199 186.44 724.958 185.576 724.958 184.491C724.958 183.386 725.199 182.492 725.681 181.808C726.183 181.125 726.887 180.603 727.791 180.241C728.695 179.879 729.78 179.638 731.046 179.518C732.312 179.377 733.719 179.307 735.266 179.307V177.86C735.266 176.855 735.005 176.152 734.483 175.75C733.98 175.328 733.207 175.117 732.162 175.117C731.298 175.117 730.534 175.308 729.871 175.689C729.208 176.071 728.876 176.674 728.876 177.498V177.799H725.5C725.48 177.719 725.47 177.629 725.47 177.528C725.47 177.408 725.47 177.297 725.47 177.197C725.47 176.312 725.741 175.539 726.284 174.876C726.847 174.212 727.62 173.7 728.605 173.338C729.589 172.977 730.715 172.796 731.981 172.796H732.493C734.583 172.796 736.14 173.208 737.165 174.032C738.19 174.856 738.703 176.011 738.703 177.498V185.365C738.703 185.747 738.793 186.018 738.974 186.179C739.155 186.34 739.356 186.42 739.577 186.42C739.778 186.42 739.989 186.38 740.21 186.3C740.451 186.219 740.672 186.129 740.873 186.028V188.168C740.612 188.369 740.28 188.52 739.878 188.621C739.476 188.741 738.994 188.801 738.431 188.801C737.768 188.801 737.216 188.681 736.773 188.44C736.351 188.199 736.03 187.877 735.809 187.475C735.588 187.053 735.457 186.581 735.417 186.058C734.834 186.923 734.081 187.596 733.156 188.078C732.232 188.56 731.147 188.801 729.901 188.801ZM731.408 186.42C732.051 186.42 732.664 186.28 733.247 185.998C733.83 185.697 734.312 185.255 734.694 184.672C735.075 184.089 735.266 183.356 735.266 182.472V181.296C733.86 181.296 732.654 181.376 731.649 181.537C730.644 181.678 729.881 181.949 729.358 182.351C728.836 182.753 728.575 183.356 728.575 184.159C728.575 184.963 728.816 185.546 729.298 185.908C729.78 186.249 730.484 186.42 731.408 186.42ZM744.025 188.5V166.797H747.521V188.5H744.025Z" fill="#1B1B1B"/>
<path d="M581.274 229.651C580.45 229.651 579.747 229.5 579.164 229.199C578.581 228.897 578.064 228.46 577.611 227.887L578.576 226.923C578.908 227.385 579.289 227.737 579.721 227.978C580.153 228.209 580.686 228.324 581.319 228.324C581.942 228.324 582.439 228.189 582.811 227.918C583.193 227.646 583.384 227.274 583.384 226.802C583.384 226.41 583.293 226.094 583.112 225.853C582.932 225.612 582.685 225.416 582.374 225.265C582.073 225.104 581.741 224.964 581.379 224.843C581.018 224.712 580.656 224.577 580.294 224.436C579.932 224.285 579.601 224.104 579.299 223.893C578.998 223.672 578.752 223.386 578.561 223.034C578.38 222.683 578.29 222.241 578.29 221.708C578.29 221.115 578.43 220.613 578.712 220.201C579.003 219.779 579.395 219.458 579.887 219.236C580.39 219.005 580.952 218.89 581.575 218.89C582.258 218.89 582.871 219.025 583.414 219.297C583.956 219.558 584.399 219.905 584.74 220.337L583.776 221.301C583.464 220.94 583.128 220.668 582.766 220.487C582.414 220.307 582.007 220.216 581.545 220.216C580.982 220.216 580.535 220.342 580.204 220.593C579.872 220.834 579.706 221.176 579.706 221.618C579.706 221.969 579.797 222.256 579.978 222.477C580.169 222.688 580.415 222.869 580.716 223.019C581.018 223.17 581.349 223.311 581.711 223.441C582.083 223.562 582.449 223.698 582.811 223.848C583.173 223.999 583.504 224.19 583.806 224.421C584.107 224.652 584.348 224.954 584.529 225.325C584.72 225.687 584.815 226.144 584.815 226.697C584.815 227.621 584.494 228.345 583.851 228.867C583.218 229.389 582.359 229.651 581.274 229.651ZM589.425 229.651C588.772 229.651 588.179 229.49 587.647 229.168C587.114 228.837 586.692 228.39 586.381 227.827C586.079 227.264 585.929 226.631 585.929 225.928C585.929 225.225 586.079 224.592 586.381 224.029C586.692 223.466 587.109 223.019 587.632 222.688C588.164 222.356 588.762 222.19 589.425 222.19C589.968 222.19 590.45 222.306 590.872 222.537C591.304 222.758 591.651 223.07 591.912 223.472C592.173 223.863 592.319 224.321 592.349 224.843V226.998C592.319 227.511 592.173 227.968 591.912 228.37C591.661 228.772 591.319 229.088 590.887 229.319C590.465 229.54 589.978 229.651 589.425 229.651ZM589.651 228.37C590.324 228.37 590.867 228.144 591.279 227.691C591.691 227.229 591.897 226.641 591.897 225.928C591.897 225.436 591.801 225.009 591.61 224.647C591.43 224.275 591.168 223.989 590.827 223.788C590.485 223.577 590.088 223.472 589.636 223.472C589.184 223.472 588.782 223.577 588.43 223.788C588.089 223.999 587.817 224.29 587.617 224.662C587.426 225.024 587.33 225.441 587.33 225.913C587.33 226.395 587.426 226.822 587.617 227.194C587.817 227.556 588.094 227.842 588.445 228.053C588.797 228.264 589.199 228.37 589.651 228.37ZM591.806 229.5V227.571L592.063 225.823L591.806 224.089V222.341H593.178V229.5H591.806ZM596.148 229.5V221.271C596.148 220.739 596.264 220.276 596.495 219.885C596.726 219.483 597.042 219.166 597.444 218.935C597.856 218.704 598.333 218.588 598.876 218.588C599.288 218.588 599.645 218.659 599.946 218.799C600.247 218.94 600.524 219.146 600.775 219.417L599.886 220.291C599.755 220.151 599.609 220.045 599.449 219.975C599.288 219.895 599.092 219.854 598.861 219.854C598.429 219.854 598.092 219.98 597.851 220.231C597.62 220.482 597.504 220.829 597.504 221.271V229.5H596.148ZM594.385 223.577V222.341H599.78V223.577H594.385ZM604.046 229.651C603.333 229.651 602.69 229.49 602.117 229.168C601.545 228.837 601.092 228.39 600.761 227.827C600.429 227.264 600.264 226.626 600.264 225.913C600.264 225.21 600.424 224.577 600.746 224.014C601.077 223.451 601.519 223.009 602.072 222.688C602.635 222.356 603.263 222.19 603.956 222.19C604.619 222.19 605.202 222.341 605.704 222.643C606.217 222.944 606.614 223.361 606.895 223.893C607.186 224.426 607.332 225.029 607.332 225.702C607.332 225.803 607.327 225.913 607.317 226.034C607.307 226.144 607.287 226.275 607.257 226.425H601.213V225.295H606.533L606.036 225.732C606.036 225.25 605.95 224.843 605.78 224.511C605.609 224.17 605.368 223.909 605.056 223.728C604.745 223.537 604.368 223.441 603.926 223.441C603.464 223.441 603.057 223.542 602.705 223.743C602.353 223.944 602.082 224.225 601.891 224.587C601.7 224.948 601.605 225.376 601.605 225.868C601.605 226.37 601.705 226.812 601.906 227.194C602.107 227.566 602.394 227.857 602.765 228.068C603.137 228.269 603.564 228.37 604.046 228.37C604.448 228.37 604.815 228.299 605.147 228.159C605.488 228.018 605.78 227.807 606.021 227.526L606.895 228.415C606.553 228.817 606.131 229.123 605.629 229.334C605.137 229.545 604.609 229.651 604.046 229.651ZM608.811 229.5V218.739H610.167V229.5H608.811ZM614.503 229.56L611.398 222.341H612.905L615.211 227.993H614.729L617.156 222.341H618.663L615.317 229.56H614.503ZM612.453 232.499L614.563 228.174L615.317 229.56L613.96 232.499H612.453ZM625.304 229.651C624.902 229.651 624.521 229.6 624.159 229.5C623.807 229.389 623.481 229.239 623.179 229.048C622.878 228.847 622.617 228.611 622.396 228.34L623.27 227.465C623.531 227.787 623.832 228.028 624.174 228.189C624.516 228.34 624.897 228.415 625.319 228.415C625.741 228.415 626.068 228.345 626.299 228.204C626.53 228.053 626.646 227.847 626.646 227.586C626.646 227.325 626.55 227.124 626.359 226.983C626.178 226.832 625.942 226.712 625.651 226.621C625.36 226.521 625.048 226.425 624.716 226.335C624.395 226.235 624.089 226.109 623.797 225.958C623.506 225.808 623.265 225.602 623.074 225.34C622.893 225.079 622.802 224.732 622.802 224.3C622.802 223.868 622.908 223.497 623.119 223.185C623.33 222.864 623.621 222.617 623.993 222.447C624.375 222.276 624.832 222.19 625.365 222.19C625.927 222.19 626.425 222.291 626.857 222.492C627.299 222.683 627.66 222.974 627.942 223.366L627.068 224.24C626.867 223.979 626.615 223.778 626.314 223.637C626.023 223.497 625.691 223.426 625.319 223.426C624.927 223.426 624.626 223.497 624.415 223.637C624.214 223.768 624.114 223.954 624.114 224.195C624.114 224.436 624.204 224.622 624.385 224.753C624.566 224.883 624.802 224.994 625.093 225.084C625.395 225.175 625.706 225.27 626.028 225.37C626.349 225.461 626.656 225.587 626.947 225.747C627.238 225.908 627.475 226.124 627.655 226.395C627.846 226.667 627.942 227.023 627.942 227.465C627.942 228.139 627.701 228.671 627.218 229.063C626.746 229.455 626.108 229.651 625.304 229.651ZM630.56 229.5V219.342H631.917V229.5H630.56ZM628.797 223.577V222.341H633.68V223.577H628.797ZM638.059 229.651C637.355 229.651 636.722 229.485 636.16 229.153C635.597 228.822 635.15 228.375 634.818 227.812C634.487 227.239 634.321 226.601 634.321 225.898C634.321 225.205 634.487 224.582 634.818 224.029C635.15 223.466 635.597 223.019 636.16 222.688C636.722 222.356 637.355 222.19 638.059 222.19C638.752 222.19 639.38 222.356 639.943 222.688C640.515 223.009 640.967 223.451 641.299 224.014C641.631 224.577 641.796 225.205 641.796 225.898C641.796 226.601 641.631 227.239 641.299 227.812C640.967 228.375 640.515 228.822 639.943 229.153C639.38 229.485 638.752 229.651 638.059 229.651ZM638.059 228.34C638.511 228.34 638.913 228.234 639.264 228.023C639.616 227.812 639.892 227.526 640.093 227.164C640.294 226.792 640.395 226.37 640.395 225.898C640.395 225.436 640.289 225.024 640.078 224.662C639.877 224.3 639.601 224.019 639.249 223.818C638.908 223.607 638.511 223.502 638.059 223.502C637.607 223.502 637.205 223.607 636.853 223.818C636.501 224.019 636.225 224.3 636.024 224.662C635.823 225.024 635.723 225.436 635.723 225.898C635.723 226.37 635.823 226.792 636.024 227.164C636.225 227.526 636.501 227.812 636.853 228.023C637.205 228.234 637.607 228.34 638.059 228.34ZM643.325 229.5V222.341H644.681V229.5H643.325ZM644.681 225.416L644.169 225.19C644.169 224.275 644.38 223.547 644.802 223.004C645.224 222.462 645.831 222.19 646.625 222.19C646.987 222.19 647.313 222.256 647.605 222.386C647.896 222.507 648.168 222.713 648.419 223.004L647.53 223.924C647.379 223.763 647.213 223.647 647.032 223.577C646.851 223.507 646.64 223.472 646.399 223.472C645.897 223.472 645.485 223.632 645.163 223.954C644.842 224.275 644.681 224.763 644.681 225.416ZM652.454 229.651C651.741 229.651 651.098 229.49 650.525 229.168C649.952 228.837 649.5 228.39 649.168 227.827C648.837 227.264 648.671 226.626 648.671 225.913C648.671 225.21 648.832 224.577 649.153 224.014C649.485 223.451 649.927 223.009 650.48 222.688C651.042 222.356 651.67 222.19 652.364 222.19C653.027 222.19 653.609 222.341 654.112 222.643C654.624 222.944 655.021 223.361 655.302 223.893C655.594 224.426 655.739 225.029 655.739 225.702C655.739 225.803 655.734 225.913 655.724 226.034C655.714 226.144 655.694 226.275 655.664 226.425H649.621V225.295H654.941L654.443 225.732C654.443 225.25 654.358 224.843 654.187 224.511C654.016 224.17 653.775 223.909 653.464 223.728C653.152 223.537 652.775 223.441 652.333 223.441C651.871 223.441 651.464 223.542 651.113 223.743C650.761 223.944 650.49 224.225 650.299 224.587C650.108 224.948 650.012 225.376 650.012 225.868C650.012 226.37 650.113 226.812 650.314 227.194C650.515 227.566 650.801 227.857 651.173 228.068C651.545 228.269 651.972 228.37 652.454 228.37C652.856 228.37 653.223 228.299 653.554 228.159C653.896 228.018 654.187 227.807 654.428 227.526L655.302 228.415C654.961 228.817 654.539 229.123 654.036 229.334C653.544 229.545 653.017 229.651 652.454 229.651ZM663.398 229.651C662.745 229.651 662.152 229.49 661.619 229.168C661.087 228.837 660.665 228.39 660.353 227.827C660.052 227.264 659.901 226.631 659.901 225.928C659.901 225.225 660.052 224.592 660.353 224.029C660.665 223.466 661.082 223.019 661.604 222.688C662.137 222.356 662.735 222.19 663.398 222.19C663.94 222.19 664.423 222.306 664.845 222.537C665.277 222.758 665.623 223.07 665.885 223.472C666.146 223.863 666.291 224.321 666.322 224.843V226.998C666.291 227.511 666.146 227.968 665.885 228.37C665.633 228.772 665.292 229.088 664.86 229.319C664.438 229.54 663.95 229.651 663.398 229.651ZM663.624 228.37C664.297 228.37 664.84 228.144 665.252 227.691C665.663 227.229 665.869 226.641 665.869 225.928C665.869 225.436 665.774 225.009 665.583 224.647C665.402 224.275 665.141 223.989 664.799 223.788C664.458 223.577 664.061 223.472 663.609 223.472C663.157 223.472 662.755 223.577 662.403 223.788C662.061 223.999 661.79 224.29 661.589 224.662C661.398 225.024 661.303 225.441 661.303 225.913C661.303 226.395 661.398 226.822 661.589 227.194C661.79 227.556 662.066 227.842 662.418 228.053C662.77 228.264 663.172 228.37 663.624 228.37ZM665.779 229.5V227.571L666.035 225.823L665.779 224.089V222.341H667.151V229.5H665.779ZM674.189 229.5V225.325C674.189 224.783 674.018 224.336 673.677 223.984C673.335 223.632 672.893 223.456 672.351 223.456C671.989 223.456 671.667 223.537 671.386 223.698C671.105 223.858 670.884 224.079 670.723 224.361C670.562 224.642 670.482 224.964 670.482 225.325L669.924 225.009C669.924 224.466 670.045 223.984 670.286 223.562C670.527 223.14 670.864 222.808 671.296 222.567C671.728 222.316 672.215 222.19 672.757 222.19C673.3 222.19 673.777 222.326 674.189 222.597C674.611 222.869 674.943 223.225 675.184 223.667C675.425 224.099 675.546 224.562 675.546 225.054V229.5H674.189ZM669.125 229.5V222.341H670.482V229.5H669.125ZM680.411 229.651C679.748 229.651 679.155 229.49 678.633 229.168C678.111 228.837 677.694 228.39 677.382 227.827C677.081 227.264 676.93 226.631 676.93 225.928C676.93 225.225 677.081 224.592 677.382 224.029C677.694 223.466 678.111 223.019 678.633 222.688C679.155 222.356 679.748 222.19 680.411 222.19C680.944 222.19 681.426 222.306 681.858 222.537C682.29 222.758 682.637 223.07 682.898 223.472C683.169 223.863 683.32 224.321 683.35 224.843V226.998C683.32 227.511 683.174 227.968 682.913 228.37C682.652 228.772 682.305 229.088 681.873 229.319C681.441 229.54 680.954 229.651 680.411 229.651ZM680.638 228.37C681.09 228.37 681.481 228.264 681.813 228.053C682.155 227.842 682.421 227.556 682.612 227.194C682.803 226.822 682.898 226.4 682.898 225.928C682.898 225.436 682.798 225.009 682.597 224.647C682.406 224.285 682.14 223.999 681.798 223.788C681.466 223.577 681.075 223.472 680.622 223.472C680.17 223.472 679.773 223.577 679.432 223.788C679.09 223.999 678.819 224.29 678.618 224.662C678.427 225.024 678.332 225.441 678.332 225.913C678.332 226.395 678.427 226.822 678.618 227.194C678.819 227.556 679.09 227.842 679.432 228.053C679.783 228.264 680.185 228.37 680.638 228.37ZM684.179 229.5H682.808V227.571L683.064 225.823L682.808 224.089V218.739H684.179V229.5ZM692.559 229.651C691.856 229.651 691.223 229.485 690.66 229.153C690.098 228.822 689.651 228.375 689.319 227.812C688.988 227.239 688.822 226.601 688.822 225.898C688.822 225.205 688.988 224.582 689.319 224.029C689.651 223.466 690.098 223.019 690.66 222.688C691.223 222.356 691.856 222.19 692.559 222.19C693.253 222.19 693.881 222.356 694.443 222.688C695.016 223.009 695.468 223.451 695.8 224.014C696.131 224.577 696.297 225.205 696.297 225.898C696.297 226.601 696.131 227.239 695.8 227.812C695.468 228.375 695.016 228.822 694.443 229.153C693.881 229.485 693.253 229.651 692.559 229.651ZM692.559 228.34C693.012 228.34 693.413 228.234 693.765 228.023C694.117 227.812 694.393 227.526 694.594 227.164C694.795 226.792 694.895 226.37 694.895 225.898C694.895 225.436 694.79 225.024 694.579 224.662C694.378 224.3 694.102 224.019 693.75 223.818C693.408 223.607 693.012 223.502 692.559 223.502C692.107 223.502 691.705 223.607 691.354 223.818C691.002 224.019 690.726 224.3 690.525 224.662C690.324 225.024 690.223 225.436 690.223 225.898C690.223 226.37 690.324 226.792 690.525 227.164C690.726 227.526 691.002 227.812 691.354 228.023C691.705 228.234 692.107 228.34 692.559 228.34ZM697.825 229.5V222.341H699.182V229.5H697.825ZM699.182 225.416L698.669 225.19C698.669 224.275 698.88 223.547 699.302 223.004C699.724 222.462 700.332 222.19 701.126 222.19C701.488 222.19 701.814 222.256 702.106 222.386C702.397 222.507 702.668 222.713 702.92 223.004L702.03 223.924C701.88 223.763 701.714 223.647 701.533 223.577C701.352 223.507 701.141 223.472 700.9 223.472C700.398 223.472 699.986 223.632 699.664 223.954C699.343 224.275 699.182 224.763 699.182 225.416ZM706.608 232.65C705.875 232.65 705.222 232.514 704.649 232.243C704.086 231.972 703.634 231.59 703.292 231.098L704.167 230.208C704.458 230.58 704.805 230.861 705.206 231.052C705.608 231.253 706.086 231.354 706.638 231.354C707.372 231.354 707.949 231.158 708.371 230.766C708.803 230.384 709.019 229.867 709.019 229.214V227.435L709.261 225.823L709.019 224.225V222.341H710.376V229.214C710.376 229.897 710.215 230.495 709.894 231.007C709.582 231.52 709.14 231.921 708.567 232.213C708.005 232.504 707.352 232.65 706.608 232.65ZM706.608 229.379C705.955 229.379 705.367 229.224 704.845 228.912C704.332 228.601 703.925 228.174 703.624 227.631C703.323 227.079 703.172 226.461 703.172 225.777C703.172 225.094 703.323 224.486 703.624 223.954C703.925 223.411 704.332 222.984 704.845 222.673C705.367 222.351 705.955 222.19 706.608 222.19C707.171 222.19 707.668 222.301 708.1 222.522C708.532 222.743 708.874 223.055 709.125 223.456C709.386 223.848 709.527 224.31 709.547 224.843V226.742C709.517 227.264 709.371 227.727 709.11 228.129C708.859 228.52 708.517 228.827 708.085 229.048C707.653 229.269 707.161 229.379 706.608 229.379ZM706.879 228.098C707.321 228.098 707.708 228.003 708.04 227.812C708.381 227.621 708.643 227.355 708.824 227.013C709.004 226.662 709.095 226.255 709.095 225.792C709.095 225.33 708.999 224.928 708.808 224.587C708.628 224.235 708.371 223.964 708.04 223.773C707.708 223.572 707.316 223.472 706.864 223.472C706.412 223.472 706.015 223.572 705.674 223.773C705.332 223.964 705.061 224.235 704.86 224.587C704.669 224.928 704.573 225.325 704.573 225.777C704.573 226.23 704.669 226.631 704.86 226.983C705.061 227.335 705.332 227.611 705.674 227.812C706.025 228.003 706.427 228.098 706.879 228.098ZM715.411 229.651C714.758 229.651 714.165 229.49 713.633 229.168C713.1 228.837 712.678 228.39 712.367 227.827C712.065 227.264 711.915 226.631 711.915 225.928C711.915 225.225 712.065 224.592 712.367 224.029C712.678 223.466 713.095 223.019 713.618 222.688C714.15 222.356 714.748 222.19 715.411 222.19C715.954 222.19 716.436 222.306 716.858 222.537C717.29 222.758 717.637 223.07 717.898 223.472C718.159 223.863 718.305 224.321 718.335 224.843V226.998C718.305 227.511 718.159 227.968 717.898 228.37C717.647 228.772 717.305 229.088 716.873 229.319C716.451 229.54 715.964 229.651 715.411 229.651ZM715.637 228.37C716.31 228.37 716.853 228.144 717.265 227.691C717.677 227.229 717.883 226.641 717.883 225.928C717.883 225.436 717.787 225.009 717.597 224.647C717.416 224.275 717.154 223.989 716.813 223.788C716.471 223.577 716.074 223.472 715.622 223.472C715.17 223.472 714.768 223.577 714.417 223.788C714.075 223.999 713.804 224.29 713.603 224.662C713.412 225.024 713.316 225.441 713.316 225.913C713.316 226.395 713.412 226.822 713.603 227.194C713.804 227.556 714.08 227.842 714.432 228.053C714.783 228.264 715.185 228.37 715.637 228.37ZM717.792 229.5V227.571L718.049 225.823L717.792 224.089V222.341H719.164V229.5H717.792ZM726.203 229.5V225.325C726.203 224.783 726.032 224.336 725.69 223.984C725.349 223.632 724.907 223.456 724.364 223.456C724.002 223.456 723.681 223.537 723.399 223.698C723.118 223.858 722.897 224.079 722.736 224.361C722.576 224.642 722.495 224.964 722.495 225.325L721.938 225.009C721.938 224.466 722.058 223.984 722.299 223.562C722.54 223.14 722.877 222.808 723.309 222.567C723.741 222.316 724.228 222.19 724.771 222.19C725.313 222.19 725.791 222.326 726.203 222.597C726.625 222.869 726.956 223.225 727.197 223.667C727.439 224.099 727.559 224.562 727.559 225.054V229.5H726.203ZM721.139 229.5V222.341H722.495V229.5H721.139ZM729.411 229.5V222.341H730.767V229.5H729.411ZM730.089 220.909C729.838 220.909 729.632 220.829 729.471 220.668C729.31 220.497 729.23 220.286 729.23 220.035C729.23 219.794 729.31 219.593 729.471 219.432C729.632 219.262 729.838 219.176 730.089 219.176C730.34 219.176 730.546 219.262 730.707 219.432C730.868 219.593 730.948 219.794 730.948 220.035C730.948 220.286 730.868 220.497 730.707 220.668C730.546 220.829 730.34 220.909 730.089 220.909ZM732.193 228.762L736.443 223.08H738.041L733.791 228.762H732.193ZM732.193 229.5V228.762L733.399 228.264H737.95V229.5H732.193ZM732.449 223.577V222.341H738.041V223.08L736.79 223.577H732.449ZM742.69 229.651C741.977 229.651 741.334 229.49 740.761 229.168C740.188 228.837 739.736 228.39 739.405 227.827C739.073 227.264 738.907 226.626 738.907 225.913C738.907 225.21 739.068 224.577 739.389 224.014C739.721 223.451 740.163 223.009 740.716 222.688C741.278 222.356 741.906 222.19 742.6 222.19C743.263 222.19 743.846 222.341 744.348 222.643C744.86 222.944 745.257 223.361 745.539 223.893C745.83 224.426 745.976 225.029 745.976 225.702C745.976 225.803 745.971 225.913 745.961 226.034C745.95 226.144 745.93 226.275 745.9 226.425H739.857V225.295H745.177L744.679 225.732C744.679 225.25 744.594 224.843 744.423 224.511C744.252 224.17 744.011 223.909 743.7 223.728C743.388 223.537 743.012 223.441 742.569 223.441C742.107 223.441 741.7 223.542 741.349 223.743C740.997 223.944 740.726 224.225 740.535 224.587C740.344 224.948 740.249 225.376 740.249 225.868C740.249 226.37 740.349 226.812 740.55 227.194C740.751 227.566 741.037 227.857 741.409 228.068C741.781 228.269 742.208 228.37 742.69 228.37C743.092 228.37 743.459 228.299 743.79 228.159C744.132 228.018 744.423 227.807 744.664 227.526L745.539 228.415C745.197 228.817 744.775 229.123 744.273 229.334C743.78 229.545 743.253 229.651 742.69 229.651ZM752.941 229.56L749.836 222.341H751.343L753.649 227.993H753.167L755.593 222.341H757.1L753.754 229.56H752.941ZM750.891 232.499L753.001 228.174L753.754 229.56L752.398 232.499H750.891ZM761.204 229.651C760.501 229.651 759.868 229.485 759.305 229.153C758.743 228.822 758.295 228.375 757.964 227.812C757.632 227.239 757.467 226.601 757.467 225.898C757.467 225.205 757.632 224.582 757.964 224.029C758.295 223.466 758.743 223.019 759.305 222.688C759.868 222.356 760.501 222.19 761.204 222.19C761.898 222.19 762.525 222.356 763.088 222.688C763.661 223.009 764.113 223.451 764.445 224.014C764.776 224.577 764.942 225.205 764.942 225.898C764.942 226.601 764.776 227.239 764.445 227.812C764.113 228.375 763.661 228.822 763.088 229.153C762.525 229.485 761.898 229.651 761.204 229.651ZM761.204 228.34C761.656 228.34 762.058 228.234 762.41 228.023C762.762 227.812 763.038 227.526 763.239 227.164C763.44 226.792 763.54 226.37 763.54 225.898C763.54 225.436 763.435 225.024 763.224 224.662C763.023 224.3 762.747 224.019 762.395 223.818C762.053 223.607 761.656 223.502 761.204 223.502C760.752 223.502 760.35 223.607 759.999 223.818C759.647 224.019 759.371 224.3 759.17 224.662C758.969 225.024 758.868 225.436 758.868 225.898C758.868 226.37 758.969 226.792 759.17 227.164C759.371 227.526 759.647 227.812 759.999 228.023C760.35 228.234 760.752 228.34 761.204 228.34ZM769.349 229.651C768.766 229.651 768.239 229.52 767.766 229.259C767.304 228.988 766.942 228.616 766.681 228.144C766.42 227.671 766.289 227.124 766.289 226.501V222.341H767.646V226.441C767.646 226.832 767.711 227.174 767.842 227.465C767.982 227.747 768.183 227.963 768.445 228.113C768.706 228.264 769.012 228.34 769.364 228.34C769.896 228.34 770.313 228.174 770.615 227.842C770.916 227.501 771.067 227.033 771.067 226.441V222.341H772.423V226.501C772.423 227.124 772.293 227.671 772.032 228.144C771.77 228.616 771.409 228.988 770.946 229.259C770.494 229.52 769.962 229.651 769.349 229.651ZM774.241 229.5V222.341H775.598V229.5H774.241ZM775.598 225.416L775.085 225.19C775.085 224.275 775.296 223.547 775.718 223.004C776.14 222.462 776.748 222.19 777.542 222.19C777.904 222.19 778.23 222.256 778.522 222.386C778.813 222.507 779.084 222.713 779.335 223.004L778.446 223.924C778.296 223.763 778.13 223.647 777.949 223.577C777.768 223.507 777.557 223.472 777.316 223.472C776.814 223.472 776.402 223.632 776.08 223.954C775.759 224.275 775.598 224.763 775.598 225.416ZM661.72 248.651C661.067 248.651 660.474 248.49 659.942 248.168C659.409 247.837 658.987 247.39 658.676 246.827C658.374 246.264 658.223 245.631 658.223 244.928C658.223 244.225 658.374 243.592 658.676 243.029C658.987 242.466 659.404 242.019 659.926 241.688C660.459 241.356 661.057 241.19 661.72 241.19C662.262 241.19 662.745 241.306 663.167 241.537C663.599 241.758 663.945 242.07 664.207 242.472C664.468 242.863 664.614 243.321 664.644 243.843V245.998C664.614 246.511 664.468 246.968 664.207 247.37C663.955 247.772 663.614 248.088 663.182 248.319C662.76 248.54 662.273 248.651 661.72 248.651ZM661.946 247.37C662.619 247.37 663.162 247.144 663.574 246.691C663.986 246.229 664.192 245.641 664.192 244.928C664.192 244.436 664.096 244.009 663.905 243.647C663.724 243.275 663.463 242.989 663.122 242.788C662.78 242.577 662.383 242.472 661.931 242.472C661.479 242.472 661.077 242.577 660.725 242.788C660.384 242.999 660.112 243.29 659.911 243.662C659.72 244.024 659.625 244.441 659.625 244.913C659.625 245.395 659.72 245.822 659.911 246.194C660.112 246.556 660.389 246.842 660.74 247.053C661.092 247.264 661.494 247.37 661.946 247.37ZM664.101 248.5V246.571L664.357 244.823L664.101 243.089V241.341H665.473V248.5H664.101ZM669.723 248.651C669.321 248.651 668.94 248.6 668.578 248.5C668.226 248.389 667.9 248.239 667.598 248.048C667.297 247.847 667.036 247.611 666.814 247.34L667.689 246.465C667.95 246.787 668.251 247.028 668.593 247.189C668.934 247.34 669.316 247.415 669.738 247.415C670.16 247.415 670.487 247.345 670.718 247.204C670.949 247.053 671.065 246.847 671.065 246.586C671.065 246.325 670.969 246.124 670.778 245.983C670.597 245.832 670.361 245.712 670.07 245.621C669.778 245.521 669.467 245.425 669.135 245.335C668.814 245.235 668.507 245.109 668.216 244.958C667.925 244.808 667.684 244.602 667.493 244.34C667.312 244.079 667.221 243.732 667.221 243.3C667.221 242.868 667.327 242.497 667.538 242.185C667.749 241.864 668.04 241.617 668.412 241.447C668.794 241.276 669.251 241.19 669.784 241.19C670.346 241.19 670.844 241.291 671.276 241.492C671.718 241.683 672.079 241.974 672.361 242.366L671.487 243.24C671.286 242.979 671.034 242.778 670.733 242.637C670.442 242.497 670.11 242.426 669.738 242.426C669.346 242.426 669.045 242.497 668.834 242.637C668.633 242.768 668.533 242.954 668.533 243.195C668.533 243.436 668.623 243.622 668.804 243.753C668.985 243.883 669.221 243.994 669.512 244.084C669.814 244.175 670.125 244.27 670.447 244.37C670.768 244.461 671.075 244.587 671.366 244.747C671.657 244.908 671.893 245.124 672.074 245.395C672.265 245.667 672.361 246.023 672.361 246.465C672.361 247.139 672.12 247.671 671.637 248.063C671.165 248.455 670.527 248.651 669.723 248.651ZM676.155 248.651C675.753 248.651 675.371 248.6 675.01 248.5C674.658 248.389 674.331 248.239 674.03 248.048C673.729 247.847 673.467 247.611 673.246 247.34L674.12 246.465C674.382 246.787 674.683 247.028 675.025 247.189C675.366 247.34 675.748 247.415 676.17 247.415C676.592 247.415 676.919 247.345 677.15 247.204C677.381 247.053 677.496 246.847 677.496 246.586C677.496 246.325 677.401 246.124 677.21 245.983C677.029 245.832 676.793 245.712 676.502 245.621C676.21 245.521 675.899 245.425 675.567 245.335C675.246 245.235 674.939 245.109 674.648 244.958C674.356 244.808 674.115 244.602 673.924 244.34C673.744 244.079 673.653 243.732 673.653 243.3C673.653 242.868 673.759 242.497 673.97 242.185C674.181 241.864 674.472 241.617 674.844 241.447C675.226 241.276 675.683 241.19 676.215 241.19C676.778 241.19 677.275 241.291 677.707 241.492C678.149 241.683 678.511 241.974 678.792 242.366L677.918 243.24C677.717 242.979 677.466 242.778 677.165 242.637C676.873 242.497 676.542 242.426 676.17 242.426C675.778 242.426 675.477 242.497 675.266 242.637C675.065 242.768 674.964 242.954 674.964 243.195C674.964 243.436 675.055 243.622 675.236 243.753C675.416 243.883 675.653 243.994 675.944 244.084C676.245 244.175 676.557 244.27 676.878 244.37C677.2 244.461 677.506 244.587 677.798 244.747C678.089 244.908 678.325 245.124 678.506 245.395C678.697 245.667 678.792 246.023 678.792 246.465C678.792 247.139 678.551 247.671 678.069 248.063C677.597 248.455 676.959 248.651 676.155 248.651ZM683.627 248.651C682.913 248.651 682.27 248.49 681.698 248.168C681.125 247.837 680.673 247.39 680.341 246.827C680.01 246.264 679.844 245.626 679.844 244.913C679.844 244.21 680.005 243.577 680.326 243.014C680.658 242.451 681.1 242.009 681.652 241.688C682.215 241.356 682.843 241.19 683.536 241.19C684.199 241.19 684.782 241.341 685.285 241.643C685.797 241.944 686.194 242.361 686.475 242.893C686.767 243.426 686.912 244.029 686.912 244.702C686.912 244.803 686.907 244.913 686.897 245.034C686.887 245.144 686.867 245.275 686.837 245.425H680.793V244.295H686.113L685.616 244.732C685.616 244.25 685.531 243.843 685.36 243.511C685.189 243.17 684.948 242.909 684.636 242.728C684.325 242.537 683.948 242.441 683.506 242.441C683.044 242.441 682.637 242.542 682.285 242.743C681.934 242.944 681.662 243.225 681.471 243.587C681.281 243.948 681.185 244.376 681.185 244.868C681.185 245.37 681.286 245.812 681.487 246.194C681.688 246.566 681.974 246.857 682.346 247.068C682.717 247.269 683.144 247.37 683.627 247.37C684.029 247.37 684.395 247.299 684.727 247.159C685.068 247.018 685.36 246.807 685.601 246.526L686.475 247.415C686.134 247.817 685.712 248.123 685.209 248.334C684.717 248.545 684.189 248.651 683.627 248.651ZM689.271 248.5V238.342H690.627V248.5H689.271ZM687.507 242.577V241.341H692.39V242.577H687.507ZM695.848 248.651C695.446 248.651 695.064 248.6 694.702 248.5C694.351 248.389 694.024 248.239 693.723 248.048C693.421 247.847 693.16 247.611 692.939 247.34L693.813 246.465C694.074 246.787 694.376 247.028 694.717 247.189C695.059 247.34 695.441 247.415 695.863 247.415C696.285 247.415 696.611 247.345 696.842 247.204C697.073 247.053 697.189 246.847 697.189 246.586C697.189 246.325 697.094 246.124 696.903 245.983C696.722 245.832 696.486 245.712 696.194 245.621C695.903 245.521 695.591 245.425 695.26 245.335C694.938 245.235 694.632 245.109 694.341 244.958C694.049 244.808 693.808 244.602 693.617 244.34C693.436 244.079 693.346 243.732 693.346 243.3C693.346 242.868 693.451 242.497 693.662 242.185C693.873 241.864 694.165 241.617 694.536 241.447C694.918 241.276 695.375 241.19 695.908 241.19C696.471 241.19 696.968 241.291 697.4 241.492C697.842 241.683 698.204 241.974 698.485 242.366L697.611 243.24C697.41 242.979 697.159 242.778 696.857 242.637C696.566 242.497 696.235 242.426 695.863 242.426C695.471 242.426 695.169 242.497 694.958 242.637C694.758 242.768 694.657 242.954 694.657 243.195C694.657 243.436 694.747 243.622 694.928 243.753C695.109 243.883 695.345 243.994 695.637 244.084C695.938 244.175 696.25 244.27 696.571 244.37C696.893 244.461 697.199 244.587 697.49 244.747C697.782 244.908 698.018 245.124 698.199 245.395C698.39 245.667 698.485 246.023 698.485 246.465C698.485 247.139 698.244 247.671 697.762 248.063C697.289 248.455 696.651 248.651 695.848 248.651Z" fill="#898989"/>
<rect x="654.845" y="279" width="47" height="47" rx="23.5" fill="white"/>
<rect x="654.845" y="279" width="47" height="47" rx="23.5" stroke="#E1E1E1"/>
<path d="M683.032 294.25C681.096 294.25 679.401 295.082 678.345 296.49C677.288 295.082 675.593 294.25 673.657 294.25C672.116 294.252 670.639 294.865 669.549 295.954C668.459 297.044 667.846 298.521 667.845 300.062C667.845 306.625 677.575 311.938 677.989 312.156C678.099 312.215 678.221 312.246 678.345 312.246C678.469 312.246 678.591 312.215 678.7 312.156C679.114 311.938 688.845 306.625 688.845 300.062C688.843 298.521 688.23 297.044 687.14 295.954C686.051 294.865 684.573 294.252 683.032 294.25ZM678.345 310.638V300.25C678.345 299.161 678.741 298.108 679.458 297.288C680.175 296.468 681.166 295.936 682.246 295.791C682.507 295.764 682.77 295.751 683.032 295.75C684.176 295.751 685.272 296.206 686.08 297.015C686.888 297.823 687.343 298.919 687.345 300.062C687.345 305.088 680.056 309.639 678.345 310.638Z" fill="#B33F62"/>
<defs>
<linearGradient id="paint0_linear_847_4437" x1="678.381" y1="474.887" x2="627.46" y2="-38.3349" gradientUnits="userSpaceOnUse">
<stop stop-color="#7F7F7F"/>
<stop offset="0.5" stop-color="#A0A0A0"/>
<stop offset="1" stop-color="#C1C1C1"/>
</linearGradient>
<linearGradient id="paint1_linear_847_4437" x1="692.957" y1="483.634" x2="612.175" y2="-49.6424" gradientUnits="userSpaceOnUse">
<stop stop-color="#111111"/>
<stop offset="0.5" stop-color="#C5C5C5"/>
<stop offset="1" stop-color="#909090"/>
</linearGradient>
<linearGradient id="paint2_linear_847_4437" x1="573.246" y1="55.7039" x2="827.208" y2="375.652" gradientUnits="userSpaceOnUse">
<stop stop-color="white"/>
<stop offset="1" stop-color="#FEA5C0"/>
</linearGradient>
<linearGradient id="paint3_linear_847_4437" x1="678.396" y1="45.3278" x2="678.396" y2="405.765" gradientUnits="userSpaceOnUse">
<stop stop-color="#343434"/>
<stop offset="1" stop-color="#818181"/>
</linearGradient>
<linearGradient id="paint4_linear_847_4437" x1="408.328" y1="91.2237" x2="409.094" y2="115.96" gradientUnits="userSpaceOnUse">
<stop offset="0.146425" stop-color="#C5C5C5"/>
<stop offset="0.5" stop-color="#8A8A8A"/>
<stop offset="0.619735" stop-color="#ABABAB"/>
</linearGradient>
<linearGradient id="paint5_linear_847_4437" x1="416.564" y1="335.308" x2="417.33" y2="360.044" gradientUnits="userSpaceOnUse">
<stop offset="0.146425" stop-color="#C5C5C5"/>
<stop offset="0.5" stop-color="#8A8A8A"/>
<stop offset="0.619735" stop-color="#ABABAB"/>
</linearGradient>
<linearGradient id="paint6_linear_847_4437" x1="500.305" y1="51.0578" x2="394.272" y2="51.0578" gradientUnits="userSpaceOnUse">
<stop stop-color="#989898"/>
<stop offset="0.5" stop-color="#D2D2D2"/>
<stop offset="1" stop-color="#989898"/>
</linearGradient>
<linearGradient id="paint7_linear_847_4437" x1="500.305" y1="397.102" x2="394.272" y2="397.102" gradientUnits="userSpaceOnUse">
<stop stop-color="#989898"/>
<stop offset="0.5" stop-color="#D2D2D2"/>
<stop offset="1" stop-color="#989898"/>
</linearGradient>
<linearGradient id="paint8_linear_847_4437" x1="447.408" y1="-47.2626" x2="653.096" y2="21.1681" gradientUnits="userSpaceOnUse">
<stop offset="0.380265" stop-color="#ABABAB"/>
<stop offset="0.5" stop-color="#8A8A8A"/>
<stop offset="0.853575" stop-color="#C5C5C5"/>
</linearGradient>
<linearGradient id="paint9_linear_847_4437" x1="224.931" y1="470.054" x2="149.716" y2="-32.5243" gradientUnits="userSpaceOnUse">
<stop stop-color="#111111"/>
<stop offset="0.5" stop-color="#C5C5C5"/>
<stop offset="1" stop-color="#909090"/>
</linearGradient>
<linearGradient id="paint10_linear_847_4437" x1="221.328" y1="459.754" x2="173.933" y2="-23.776" gradientUnits="userSpaceOnUse">
<stop stop-color="#595959"/>
<stop offset="0.5" stop-color="#A0A0A0"/>
<stop offset="1" stop-color="#C1C1C1"/>
</linearGradient>
<linearGradient id="paint11_linear_847_4437" x1="178.092" y1="425.768" x2="13.2539" y2="-10.3432" gradientUnits="userSpaceOnUse">
<stop stop-color="#898989"/>
<stop offset="0.5" stop-color="#E1E1E1"/>
<stop offset="1" stop-color="#E8E8E8"/>
</linearGradient>
<linearGradient id="paint12_linear_847_4437" x1="422.472" y1="405.684" x2="51.7113" y2="35.0882" gradientUnits="userSpaceOnUse">
<stop stop-color="#F5F5F5"/>
<stop offset="0.5" stop-color="#A6A6A6"/>
<stop offset="1" stop-color="#949494"/>
</linearGradient>
<linearGradient id="paint13_linear_847_4437" x1="358.647" y1="405.684" x2="-110.777" y2="366.069" gradientUnits="userSpaceOnUse">
<stop stop-color="#E8E8E8"/>
<stop offset="0.511749" stop-color="#A6A6A6"/>
<stop offset="1" stop-color="#898989"/>
</linearGradient>
<linearGradient id="paint14_linear_847_4437" x1="371.625" y1="343.892" x2="206.786" y2="-104.579" gradientUnits="userSpaceOnUse">
<stop stop-color="#898989"/>
<stop offset="0.748684" stop-color="#A6A6A6"/>
<stop offset="1" stop-color="#E1E1E1"/>
</linearGradient>
<linearGradient id="paint15_linear_847_4437" x1="329.075" y1="343.892" x2="16.1257" y2="317.481" gradientUnits="userSpaceOnUse">
<stop stop-color="#A6A6A6"/>
<stop offset="0.511749" stop-color="#A6A6A6"/>
<stop offset="1" stop-color="#858585"/>
</linearGradient>
<linearGradient id="paint16_linear_847_4437" x1="351.037" y1="343.892" x2="104.805" y2="118.28" gradientUnits="userSpaceOnUse">
<stop stop-color="#969696"/>
<stop offset="0.5" stop-color="#B5B5B5"/>
<stop offset="1" stop-color="#E5E5E5"/>
</linearGradient>
<linearGradient id="paint17_linear_847_4437" x1="312.033" y1="343.892" x2="24.8376" y2="321.674" gradientUnits="userSpaceOnUse">
<stop stop-color="#A6A6A6"/>
<stop offset="0.511749" stop-color="#898989"/>
<stop offset="1" stop-color="#E1E1E1"/>
</linearGradient>
</defs>
</svg>
